<svg version="1.1" xmlns="http://www.w3.org/2000/svg" xmlns:xlink="http://www.w3.org/1999/xlink" width="148.50001" height="117.49999" viewBox="0,0,148.50001,117.49999"><g transform="translate(-165.75,-136.25)"><g data-paper-data="{&quot;isPaintingLayer&quot;:true}" fill-rule="nonzero" stroke-linecap="butt" stroke-linejoin="miter" stroke-miterlimit="10" stroke-dasharray="" stroke-dashoffset="0" style="mix-blend-mode: normal"><path d="M169.5,156.06059c0,-7.13242 8.67932,-16.06059 16.91534,-16.06059c15.32884,0 68.18577,0 99.75472,0c14.37061,0 24.32995,14.08621 24.32995,23.03217c0,13.28408 0,28.81154 0,36.36994c0,7.75681 -7.46366,18.18196 -18.76712,20.23754c-1.29086,0.23475 -7.96514,0.36034 -9.35076,0.36034c-2.88533,0 -3.63106,18.4124 -6.85513,26.40831c-1.32232,3.27945 -5.00237,3.59169 -6.37011,3.59169c-1.59389,0 -5.54966,-0.53391 -7.19534,-5.64163c-2.55228,-7.92154 -2.82711,-24.35837 -5.47132,-24.35837c-1.36239,0 -33.3856,0 -42.4607,0c-3.41027,0 -1.0202,10.56685 -3.18814,17.37361c-1.3423,4.21445 -6.64293,4.95972 -8.1452,4.95972c-0.98965,0 -6.42893,-1.10206 -7.83567,-6.53463c-1.60161,-6.18515 0.17234,-15.79871 -0.63321,-15.79871c-1.35707,0 -8.33314,-0.15892 -9.6926,-0.46137c-7.78995,-1.73307 -15.03471,-8.17871 -15.03471,-16.43957c0,0 -0.00001,-38.22287 -0.00001,-47.03845z" data-paper-data="{&quot;index&quot;:null}" fill="#33aaff" stroke="#0096ff" stroke-width="7.5"></path><g stroke="#0096ff" stroke-width="7.5"><path d="M260.61737,177.66523c-13.15673,0 -34.73967,0 -41.90264,0c-4.56798,0 -7.32741,-2.55786 -5.12854,-4.81919c3.62705,-3.73009 14.96974,-15.39501 21.57134,-22.18416c2.91047,-2.99315 7.40093,-2.46601 10.8906,1.12277c6.57247,6.75919 16.65012,17.12313 20.12185,20.69349c2.33592,2.40228 0.69588,5.18708 -5.55259,5.18708z" fill="#fcfeff"></path><path d="M221.10531,207.37438c0,-5.86387 0,-35.18322 0,-35.18322h37.78938c0,0 0,30.13615 0,35.7287c0,1.71599 -2.0597,3.36377 -4.07592,3.36377c-4.63149,0 -23.37183,0 -30.72849,0c-1.85398,0 -2.98496,-1.95463 -2.98496,-3.90925z" fill="#ffffff"></path></g><g><path d="M259.73864,177.76474c-12.59597,0 -33.25903,0 -40.11671,0c-4.37329,0 -7.01512,-2.44884 -4.90996,-4.61379c3.47246,-3.57111 14.33172,-14.73886 20.65195,-21.23865c2.78642,-2.86558 7.08551,-2.36091 10.42643,1.07492c6.29235,6.47111 15.94047,16.39333 19.26424,19.81152c2.23636,2.29989 0.66622,4.966 -5.31593,4.966z" fill="#fcfeff" stroke="#0096ff" stroke-width="0"></path><path d="M221.91062,206.20766c0,-5.61395 0,-33.68368 0,-33.68368h36.17877c0,0 0,28.85172 0,34.20591c0,1.64285 -1.97191,3.2204 -3.9022,3.2204c-4.43409,0 -22.37569,0 -29.41882,0c-1.77496,0 -2.85774,-1.87131 -2.85774,-3.74263z" fill="#ffffff" stroke="none" stroke-width="NaN"></path></g></g></g></svg>