<svg version="1.1" xmlns="http://www.w3.org/2000/svg" xmlns:xlink="http://www.w3.org/1999/xlink" width="50.94323" height="19.80984" viewBox="0,0,50.94323,19.80984"><g transform="translate(-215.3314,-175.61368)"><g data-paper-data="{&quot;isPaintingLayer&quot;:true}" fill-rule="nonzero" stroke="none" stroke-width="0" stroke-linecap="butt" stroke-linejoin="miter" stroke-miterlimit="10" stroke-dasharray="" stroke-dashoffset="0" style="mix-blend-mode: normal"><path d="M226.08335,181.37816c0,-7.68596 27.83334,-7.68597 27.83334,0c0,5.41527 16.07366,9.60813 11.55789,11.90834c-0.21861,0.11136 -6.71045,1.06405 -7.70822,1.1837c-6.04657,0.72503 -24.55245,1.46007 -33.12048,0.4819c-2.26447,-0.25852 -8.50144,-1.76908 -8.9641,-2.21457c-2.62926,-2.53166 10.40158,-7.42114 10.40158,-11.35936z" fill="#0096ff"></path><path d="M258.46988,190.71148c0,4.58574 -37.60643,4.41905 -37.60643,-0.16668c0,0 3.58029,-1.62406 9.64751,-2.76353c3.59113,-0.67444 11.31972,-0.74984 17.60275,-0.05655c5.82229,0.64245 10.35617,1.99209 10.35617,2.98675z" fill="#33aaff"></path></g></g></svg>