<svg version="1.1" xmlns="http://www.w3.org/2000/svg" xmlns:xlink="http://www.w3.org/1999/xlink" width="33.76741" height="28.7657" viewBox="0,0,33.76741,28.7657"><g transform="translate(-223.79136,-166.87185)"><g data-paper-data="{&quot;isPaintingLayer&quot;:true}" fill-rule="nonzero" stroke="none" stroke-width="0" stroke-linecap="butt" stroke-linejoin="miter" stroke-miterlimit="10" stroke-dasharray="" stroke-dashoffset="0" style="mix-blend-mode: normal"><path d="M226.08335,181.37815c0,-7.68596 5.89737,-14.5063 13.58334,-14.5063c7.68596,0 14.25,6.82033 14.25,14.5063c0,5.41527 6.57366,10.77479 2.05789,13.075c-1.89352,0.96451 -28.7907,2.19358 -31.2928,-0.21564c-2.62926,-2.53166 1.40157,-8.92114 1.40157,-12.85936z" fill="#0096ff"></path><path d="M229.53013,183.21148c0,-4.58574 6.05081,-6.96988 10.63654,-6.96988c4.58574,0 10.30321,2.21748 10.30321,6.80321c0,4.58574 -5.88415,6.63654 -10.46988,6.63654c-4.58574,0 -10.46988,-1.88415 -10.46988,-6.46988z" fill="#33aaff"></path></g></g></svg>