<svg version="1.1" xmlns="http://www.w3.org/2000/svg" xmlns:xlink="http://www.w3.org/1999/xlink" width="112.19977" height="61.12408" viewBox="0,0,112.19977,61.12408"><g transform="translate(-183.90034,-149.43797)"><g data-paper-data="{&quot;isPaintingLayer&quot;:true}" fill-rule="nonzero" stroke-miterlimit="10" stroke-dasharray="" stroke-dashoffset="0" style="mix-blend-mode: normal"><path d="M231.36281,202.04786c-5.49591,-2.07918 -16.30754,-6.66697 -13.2126,-11.78211c3.09427,-5.11438 16.42621,7.30381 19.77159,8.50186c0,0 4.34274,-3.14974 4.65444,0.00445c0.31237,3.15428 -3.82532,2.65198 -3.82532,2.65198c0,0 4.75024,0.31203 3.10192,3.29277c-1.64823,2.98082 -3.7275,0.60247 -4.255,-0.35439c0,0 1.59781,2.97712 -0.61743,3.78111c-2.21591,0.80332 -3.47917,-2.16633 -1.7869,-3.92768c0,0 -1.15308,-1.15518 -3.8307,-2.16801v0v0v0z" fill="#e29339" stroke="#000000" stroke-width="1.52831" stroke-linecap="butt" stroke-linejoin="round"></path><path d="M231.65955,163.33053v0v0v0v0c2.068,-1.17712 3.80423,-2.21322 3.8049,-2.21255c-1.71387,-1.74118 -0.48515,-4.72494 1.73992,-3.94768c2.22507,0.77727 0.66239,3.7728 0.66239,3.7728c0.51574,-0.96249 2.56694,-3.36572 4.24954,-0.40405c1.68454,2.96183 -3.06226,3.32849 -3.06226,3.32849c0,0 4.13046,-0.55188 3.85591,2.60601c-0.27388,3.15789 -4.65368,0.05975 -4.65368,0.05975c-3.3305,1.23821 -16.05073,12.67585 -19.205,7.59895c-3.15419,-5.0774 7.62971,-7.97032 12.60828,-10.80172z" fill="#e29339" stroke="#000000" stroke-width="1.52831" stroke-linecap="butt" stroke-linejoin="round"></path><path d="M268.07987,156.48901v0v0v0v0c2.06733,-1.1772 3.80423,-2.21322 3.80355,-2.21255c-1.7132,-1.74126 -0.48507,-4.72494 1.74,-3.94768c2.22507,0.77727 0.66239,3.7728 0.66239,3.7728c0.51566,-0.96249 2.56761,-3.36572 4.25021,-0.40405c1.68454,2.96183 -3.06234,3.32849 -3.06234,3.32849c0,0 4.13046,-0.55188 3.85591,2.60601c-0.27388,3.15781 -4.65301,0.05983 -4.65301,0.05983c-3.33118,1.23813 -16.05073,12.67635 -19.205,7.59895c-3.15478,-5.07748 7.62971,-7.97032 12.60828,-10.80181z" fill="#e29339" stroke="#000000" stroke-width="1.52831" stroke-linecap="butt" stroke-linejoin="round"></path><path d="M271.81779,198.59407v0v0v0v0c2.18406,0.94408 4.05617,1.70866 4.05625,1.70807c0.36027,-2.41626 3.48337,-3.22974 4.20072,-0.98434c0.71676,2.24482 -2.61559,2.79846 -2.61559,2.79846c1.07888,-0.16757 4.23265,0.02647 2.87905,3.15201c-1.3536,3.12747 -4.50157,-0.44464 -4.50157,-0.44464c0,0 2.92586,2.96872 0.238,4.64813c-2.68854,1.68067 -2.84695,-3.68161 -2.84695,-3.68161c-2.99309,-1.91606 -19.78167,-5.19841 -17.62249,-10.77222c2.15851,-5.57389 10.95601,1.30233 16.21258,3.57615z" fill="#e29339" stroke="#000000" stroke-width="1.52831" stroke-linecap="butt" stroke-linejoin="round"></path><path d="M269.52633,166.63742v0v0v0v0c2.41474,1.65966 5.01975,7.22608 4.8068,12.87645c0.03849,6.00366 -4.24635,13.05385 -7.60206,14.79041c-7.0812,3.66472 -14.81579,1.17157 -20.18547,1.55848c-4.12735,0.29749 -6.91026,4.82411 -14.26164,4.45636c-12.10565,-0.60465 -20.96299,-7.3276 -21.03804,-18.5843c-0.07505,-11.25729 9.75478,-16.13459 19.2861,-16.86211c6.46301,-0.49414 12.17112,3.47404 15.76811,3.16234c6.86522,-0.59532 17.923,-5.04202 23.22621,-1.39763z" fill="#e29339" stroke="#000000" stroke-width="1.52831" stroke-linecap="butt" stroke-linejoin="miter"></path><path d="M286.93855,156.67986l-2.71661,6.75648" fill="none" stroke="#000000" stroke-width="1.52831" stroke-linecap="round" stroke-linejoin="miter"></path><path d="M286.98267,164.83464l4.31425,-5.39229" fill="none" stroke="#000000" stroke-width="1.52831" stroke-linecap="round" stroke-linejoin="miter"></path><path d="M289.83164,166.80953l5.19026,-1.50865" fill="none" stroke="#000000" stroke-width="1.52831" stroke-linecap="round" stroke-linejoin="miter"></path><path d="M285.47991,195.26155l3.26756,5.15623" fill="none" stroke="#000000" stroke-width="1.52831" stroke-linecap="round" stroke-linejoin="miter"></path><path d="M293.25778,198.07379l-5.11807,-4.63544" fill="none" stroke="#000000" stroke-width="1.52831" stroke-linecap="round" stroke-linejoin="miter"></path><path d="M295.33595,192.31376l-5.36489,-0.66104" fill="none" stroke="#000000" stroke-width="1.52831" stroke-linecap="round" stroke-linejoin="miter"></path><path d="M263.72713,166.14378c18.11495,-14.7052 21.93195,-1.68933 21.93195,-1.68933c0,0 0.0616,0.03706 0.09379,0.05303c3.78918,1.92161 6.46386,2.58475 6.16897,15.50675c-0.34388,15.07488 -6.44192,15.24732 -6.44192,15.24732c-6.09602,12.56643 -20.88063,-3.0157 -20.88063,-3.0157" fill="#e29339" stroke="#000000" stroke-width="1.52831" stroke-linecap="butt" stroke-linejoin="round"></path><g stroke-width="0.76416" stroke-linecap="butt" stroke-linejoin="miter"><path d="M284.88862,188.10279c0.02269,-0.60322 0.28842,-1.14014 0.69869,-1.52117c0.41078,-0.38036 0.96618,-0.6049 1.56941,-0.58221c0.60322,0.02277 1.14006,0.2885 1.52109,0.69869c0.38044,0.41086 0.60499,0.96618 0.58221,1.56941c-0.02269,0.60322 -0.28842,1.14014 -0.69869,1.52117c-0.41086,0.38036 -0.96618,0.6049 -1.56941,0.58221c-0.60322,-0.02277 -1.14006,-0.2885 -1.52109,-0.69869c-0.38044,-0.41086 -0.60499,-0.96618 -0.58221,-1.56941v0v0z" fill="#ffffff" stroke="#000000"></path><path d="M286.14935,187.66125c0.0142,-0.37607 0.17976,-0.71104 0.43616,-0.9482c0.25573,-0.23774 0.60222,-0.37767 0.97828,-0.36346c0.37607,0.01412 0.71104,0.17976 0.94812,0.43607c0.23783,0.25573 0.37767,0.60222 0.36355,0.97828c-0.0142,0.37607 -0.17976,0.71104 -0.43616,0.9482c-0.25573,0.23774 -0.60222,0.37767 -0.97828,0.36346c-0.37607,-0.0142 -0.71104,-0.17976 -0.94812,-0.43607c-0.23783,-0.25573 -0.37767,-0.6023 -0.36355,-0.97828v0v0z" fill="#000000" stroke="none"></path></g><g stroke-width="0.76416" stroke-linecap="butt" stroke-linejoin="miter"><path d="M285.64025,170.85251c0.02277,-0.60322 0.2885,-1.14006 0.69869,-1.52117c0.41086,-0.38036 0.96618,-0.6049 1.56941,-0.58213c0.60322,0.02269 1.14014,0.28842 1.52117,0.69861c0.38036,0.41086 0.6049,0.96627 0.58221,1.56949c-0.02277,0.60314 -0.2885,1.14006 -0.69869,1.52109c-0.41086,0.38036 -0.96618,0.60499 -1.56941,0.58221c-0.60322,-0.02277 -1.14014,-0.28842 -1.52117,-0.69869c-0.38036,-0.41086 -0.6049,-0.96618 -0.58221,-1.56941v0v0z" fill="#ffffff" stroke="#000000"></path><path d="M286.90107,170.41097c0.0142,-0.37607 0.17976,-0.71104 0.43607,-0.94812c0.25573,-0.23783 0.6023,-0.37767 0.97828,-0.36355c0.37607,0.0142 0.71113,0.17976 0.9482,0.43616c0.23774,0.25573 0.37767,0.60222 0.36346,0.97828c-0.01412,0.37599 -0.17976,0.71104 -0.43607,0.94812c-0.25573,0.23783 -0.60222,0.37767 -0.97828,0.36355c-0.37607,-0.0142 -0.71104,-0.17976 -0.9482,-0.43616c-0.23774,-0.25573 -0.37767,-0.60222 -0.36346,-0.97828v0v0z" fill="#000000" stroke="none"></path></g><path d="M291.09095,179.94313c0.03219,-0.85408 0.21564,-1.62159 0.48591,-2.17238c0.27035,-0.55154 0.62793,-0.88509 1.0077,-0.87072c0.37968,0.01429 0.71121,0.3738 0.93921,0.94408c0.22808,0.56961 0.35321,1.34872 0.32102,2.2028c-0.03219,0.85416 -0.21556,1.62159 -0.48591,2.17246c-0.27035,0.55146 -0.62793,0.885 -1.00761,0.87072c-0.37977,-0.01429 -0.71121,-0.3738 -0.93929,-0.94408c-0.22808,-0.56961 -0.35321,-1.34872 -0.32102,-2.20288v0v0z" fill="#ec008c" stroke="#000000" stroke-width="1.30982" stroke-linecap="butt" stroke-linejoin="miter"></path><g><path d="M272.64153,196.27824c-2.40491,-0.42036 -10.33842,1.69756 -10.97139,0.84475c-0.63365,-0.85357 0.66255,-1.48461 2.05531,-3.62094c1.39276,-2.13565 4.4372,-8.39849 4.4372,-8.39849" fill="#e29339" stroke="#000000" stroke-width="1.52831" stroke-linecap="round" stroke-linejoin="round"></path><path d="M264.48003,195.41021v0v0v0v0c0,0 3.5627,-4.244 5.01244,-7.24448c0.47229,1.84354 1.86295,4.9305 2.49458,6.27939c0,0 -0.46305,-0.05857 -0.46187,-0.05723c-1.55823,-0.31128 -7.04515,1.02232 -7.04515,1.02232z" fill="#58595b" stroke="none" stroke-width="0.76416" stroke-linecap="butt" stroke-linejoin="miter"></path></g><g><path d="M267.32933,174.49244c0,0 -2.56433,-6.47419 -3.79238,-8.708c-1.22805,-2.23507 -2.47307,-2.96259 -1.77698,-3.76599c0.69533,-0.80214 8.44631,1.90631 10.87668,1.66891" fill="#e29339" stroke="#000000" stroke-width="1.52831" stroke-linecap="round" stroke-linejoin="round"></path><path d="M264.43364,163.93728c0,0 5.37103,1.74278 6.94825,1.54966c-0.00134,0.00193 0.46481,-0.02227 0.46481,-0.02227c-0.73138,1.29754 -2.35037,4.27038 -2.96007,6.07384c-1.22048,-3.10116 -4.453,-7.60122 -4.453,-7.60122v0v0v0z" fill="#58595b" stroke="none" stroke-width="0.76416" stroke-linecap="butt" stroke-linejoin="miter"></path></g><path d="M214.82374,183.62021c-0.41221,1.79866 -2.20213,2.92712 -4.00424,2.52181c-6.09014,-1.36696 -10.81357,-0.73533 -14.03911,1.87883c-5.36145,4.34459 -5.40809,13.10327 -5.40691,13.1894c0.02261,1.85556 -1.46049,3.37219 -3.31412,3.39547c-1.85236,0.02336 -3.3721,-1.46117 -3.39488,-3.31353c-0.00597,-0.48986 -0.05303,-12.04565 7.89166,-18.48488c4.90008,-3.97062 11.53999,-5.05126 19.73301,-3.21109c1.80723,0.40557 2.94393,2.20087 2.53836,4.0081c-0.00143,0.00504 -0.00227,0.01017 -0.00378,0.01588v0v0v0v0z" fill="#e29339" stroke="#000000" stroke-width="1.52831" stroke-linecap="butt" stroke-linejoin="miter"></path></g></g></svg>