<svg version="1.1" xmlns="http://www.w3.org/2000/svg" xmlns:xlink="http://www.w3.org/1999/xlink" width="105.0297" height="101.6104" viewBox="0,0,105.0297,101.6104"><g transform="translate(-187.48515,-129.1948)"><g data-paper-data="{&quot;isPaintingLayer&quot;:true}" fill-rule="nonzero" stroke="none" stroke-width="1" stroke-linecap="butt" stroke-linejoin="miter" stroke-miterlimit="10" stroke-dasharray="" stroke-dashoffset="0" style="mix-blend-mode: normal"><path d="M235.20833,208.14714l9.51719,1.3503c0.04739,3.01183 -0.43996,7.25301 -2.15454,9.68625c-1.65233,2.38018 -4.07566,4.1174 -6.86044,4.91669c-1.43306,0.39681 -2.91563,0.23837 -4.3777,0.29354c-1.34464,0.05305 -2.44809,-0.29354 -3.73968,-0.14076c-0.07356,0.50787 -0.08842,3.20281 -0.94005,2.74729c0.2794,-1.96073 0.60194,-6.06115 0.60194,-6.06115c0,0 4.61253,-0.61043 7.39519,-2.73597c2.6716,-2.02793 2.49548,-7.10023 0.55809,-10.05618z" fill="#a0aa1e"></path><path d="M252.70356,199.91376l10.86184,0.08205c-2.62704,12.84167 -4.92588,27.26635 -5.18689,29.94008c0.80707,0.29354 1.57948,0.04739 2.32501,0.11459c0.02334,0.26737 0.04385,0.47887 0.0672,0.75473c-1.06242,-0.0679 -5.60704,0.08488 -6.68432,-0.21149c0.00849,-0.90114 -1.38284,-30.67995 -1.38284,-30.67995z" fill="#828c00"></path><path d="M187.48515,191.93219c1.0511,-0.57223 3.57912,-0.0969 4.75329,-0.0969c1.74358,0.00283 3.50484,0.03537 5.26682,0.06154c1.22086,0.02051 10.03142,0.10327 14.48481,-0.90114c8.07635,-1.81997 12.29773,-5.48609 13.44856,-5.46841c1.78178,0.02617 -7.94691,27.44813 -7.94691,27.44813c0,0 -9.06308,-0.66277 -14.56756,-3.78919c-10.03991,-5.69758 -15.16031,-15.59532 -15.439,-17.25402z" fill="#828c00"></path><path d="M217.14795,207.93564c0.09125,-6.65107 -0.23766,-15.80116 4.99096,-20.84092c0.95985,-0.92449 2.28116,-1.46772 3.30538,-2.23376c1.5618,-1.17418 3.40582,-2.03147 4.99096,-3.19645c0.51353,-0.37277 1.52926,-1.23288 1.52926,-1.23288l1.9381,-1.03059l-0.07922,-1.79875c0,0 1.32979,-3.63146 1.54694,-4.82615c1.42669,-7.79908 -0.07639,-15.85067 1.38284,-23.6646c0.15844,-0.85729 0.35225,-1.78461 0.55172,-2.65675l21.60979,-2.72678l22.23225,1.46772c2.58672,1.92537 -0.31406,4.5616 -2.44809,5.57734c-1.25693,0.60194 -2.42192,1.17418 -3.49353,2.093c-0.23201,0.19947 -2.17576,1.6877 -2.81873,3.59255c-0.97754,2.90927 -0.71582,6.80103 -0.78373,8.6889c-0.12591,3.55436 0.07356,7.14408 0.20866,10.69632c0.26737,7.0302 0.55455,13.79586 -0.50787,20.78221c-0.48452,3.19645 -1.00725,6.23162 -2.96515,8.88837c-2.05481,2.78549 -4.49441,5.08362 -7.81817,6.28113c-3.46665,1.24774 -12.03601,1.71741 -21.03685,1.72024c-6.94957,0 -15.01389,-0.32891 -15.90018,-0.41945c-2.11352,-0.21786 -4.32748,0.13439 -6.41765,-0.12944c-0.30557,-1.55543 -0.04103,-3.44048 -0.01768,-5.03127z" fill="#a0aa1e"></path><path d="M279.86169,162.05365c0.43147,0.12025 0.04668,4.58495 0,6.31084c-0.05305,1.94022 -0.09973,3.88893 -0.21432,5.82349c-0.12025,2.04632 -0.93368,4.20652 -2.82722,5.46275c-0.55172,0.36711 -3.39096,1.67355 -5.81005,1.86666c-3.47867,0.28223 -5.96849,-0.78656 -6.90783,-0.84527l-0.23201,-0.40177c0.06649,-0.95561 0.07781,-1.91405 0.03254,-2.87107c0.7519,-0.1351 3.75453,1.23006 6.57892,0.99805c2.777,-0.22564 5.3814,-2.04561 5.79802,-2.75931c0.71653,-1.22369 0.92519,-2.60936 0.98673,-4.00635c0.0672,-1.5618 0,-3.13208 0.02617,-4.6967c0.01768,-1.15649 -0.40247,-5.17486 0.04385,-5.17486c0.44633,0 0.14713,1.90485 0.62528,1.93739c0.47887,0.03183 0.36145,-1.99893 0.62882,-1.99893c0.26667,0 0.05871,2.08947 0.47816,2.08947c0.41662,0 0.36145,-1.85463 0.79292,-1.73439z" fill="#a0aa1e"></path><path d="M248.15115,161.76011c0.43147,0.12025 0.04668,4.58495 0,6.31084c-0.05305,1.94022 -0.09973,3.88893 -0.21432,5.82349c-0.12025,2.04632 -1.20954,4.55312 -3.10308,5.81217c-0.54323,0.36711 -3.1151,1.32413 -5.53419,1.51723c-3.47019,0.28223 -7.33931,-0.8007 -7.33931,-0.8007l1.85817,-2.83005c1.60707,0.4817 3.29052,0.65499 4.96196,0.5107c2.777,-0.22564 5.3807,-2.04561 5.79802,-2.75931c0.71582,-1.22369 0.92449,-2.60936 0.98602,-4.00635c0.0679,-1.5618 0,-3.13208 0.02688,-4.6967c0.01698,-1.15649 -0.40247,-5.17486 0.04385,-5.17486c0.44633,0 0.14642,1.90485 0.62528,1.93739c0.47816,0.03183 0.36074,-1.99893 0.62811,-1.99893c0.26737,0 0.05871,2.08947 0.47887,2.08947c0.41662,0 0.35225,-1.85463 0.78373,-1.73439z" fill="#828c00"></path><g><path d="M273.08471,144.68787c-0.05305,1.75278 -0.22352,3.37894 -1.22723,4.88132l-0.79292,0.37277c-2.15737,-0.44562 -2.16303,-3.71846 -1.8228,-5.3715c1.32413,0.09408 2.54499,-0.06437 3.84295,0.11742z" fill="#ffffff"></path><path d="M274.27586,143.948h2.49477c1.34464,6.73383 -4.39184,6.33772 -2.49477,0z" fill="#ffffff"></path><path d="M265.4752,142.98532h2.49548c1.34464,6.73383 -4.39184,6.34055 -2.49548,0z" fill="#dcd2b4"></path><path d="M261.83667,142.58072h2.49831c1.34181,6.73312 -4.39467,6.33701 -2.49831,0z" fill="#ffffff"></path><path d="M258.24836,141.97312h2.49831c1.3305,6.73312 -4.40316,6.33701 -2.49831,0z" fill="#ffffff"></path><path d="M277.94764,143.39062h2.49831c1.34181,6.73383 -4.39467,6.34055 -2.49831,0z" fill="#faf0e6"></path><path d="M255.8321,129.3479c1.87585,-0.09125 3.75736,-0.05022 5.63675,-0.11176c4.21572,-0.14076 16.87135,0.08842 18.97921,0.52838c1.81148,0.37418 3.54021,1.0702 5.10554,2.05481c2.98283,1.86383 4.76178,5.73578 4.94639,9.17343c0.08559,1.60494 -0.31406,3.46311 -1.80229,4.34374c-1.65021,0.97471 -4.11032,0.58709 -5.92747,0.63731c-4.6967,0.09973 -9.39412,0.16127 -14.09153,0.0969l-31.37101,0.39045c0.60406,-2.78761 1.49672,-5.50448 2.66241,-8.10747c1.41679,-3.15754 3.95188,-5.67919 7.1165,-7.08042c2.49831,-1.15366 7.99996,-1.88717 8.74549,-1.92537z" fill="#828c00"></path><path d="M285.57412,141.87268c1.10698,0 2.52236,0.81909 1.79663,2.16657c-0.6366,1.18903 -2.11635,0.51989 -2.5358,-0.46967c0.10539,-0.6168 0.35933,-1.19964 0.73917,-1.6969z" fill="#645a1e"></path><path d="M281.49351,144.21254c-1.26825,0.83041 -2.28681,-0.89549 -1.67638,-1.97842l0.77807,-0.58709c1.27391,-0.02051 2.1022,1.78744 0.89832,2.5655z" fill="#645a1e"></path><path d="M291.77674,138.30771c-0.02405,-0.30415 0.12237,-0.59628 0.38125,-0.75826c0.58426,0.12873 0.32254,1.09142 0.11459,1.44721c-0.28081,-0.11954 -0.47179,-0.3855 -0.49584,-0.68894z" fill="#000000"></path><path d="M262.2738,138.18605c0.94217,0.39611 0.09408,2.25145 -0.78656,1.07727c0.03537,-0.59841 0.27869,-0.92449 0.78656,-1.07727z" fill="#000000"></path></g></g></g></svg>