<svg version="1.1" xmlns="http://www.w3.org/2000/svg" xmlns:xlink="http://www.w3.org/1999/xlink" width="410.5" height="313.46136" viewBox="0,0,410.5,313.46136"><g transform="translate(-34.75,-22.28864)"><g data-paper-data="{&quot;isPaintingLayer&quot;:true}" fill-rule="nonzero" stroke-linejoin="miter" stroke-miterlimit="10" stroke-dasharray="" stroke-dashoffset="0" style="mix-blend-mode: normal"><path d="M38.5,307.72726c0,-63.93524 0,-234.10087 0,-263.72726c0,-8.63207 6.64313,-16 15,-16c36.99365,0 303.52962,0 372,0c10.19601,0 16,9.99722 16,21c0,32.88643 0,199.82717 0,260.72726c0,13.89742 -9.14679,22.27274 -20,22.27274c-40.46994,0 -290.05694,0 -363,0c-12.66091,0 -20,-9.17422 -20,-24.27274z" fill="#33aaff" stroke="#0096ff" stroke-width="7.5" stroke-linecap="butt"/><text transform="translate(67.25681,73.403) scale(1.16169,1.16169)" font-size="40" xml:space="preserve" fill="#fcfeff" fill-rule="nonzero" stroke="#0096ff" stroke-width="2" stroke-linecap="butt" stroke-linejoin="miter" stroke-miterlimit="10" stroke-dasharray="" stroke-dashoffset="0" font-family="Sans Serif" font-weight="normal" text-anchor="start" style="mix-blend-mode: normal"><tspan x="0" dy="0"> - How To Play - </tspan></text><text transform="translate(50.5,320.79994) scale(0.25732,0.25732)" font-size="40" xml:space="preserve" fill="#fcfeff" fill-rule="nonzero" stroke="none" stroke-width="1" stroke-linecap="butt" stroke-linejoin="miter" stroke-miterlimit="10" stroke-dasharray="" stroke-dashoffset="0" font-family="Sans Serif" font-weight="normal" text-anchor="start" style="mix-blend-mode: normal"><tspan x="0" dy="0">Click Anywhere to minimize</tspan></text><text transform="translate(89.89751,95.94707) scale(0.39443,0.39443)" font-size="40" xml:space="preserve" fill="#fcfeff" fill-rule="nonzero" stroke="none" stroke-width="1" stroke-linecap="butt" stroke-linejoin="miter" stroke-miterlimit="10" stroke-dasharray="" stroke-dashoffset="0" font-family="Sans Serif" font-weight="normal" text-anchor="start" style="mix-blend-mode: normal"><tspan x="0" dy="0">Try to guess what original scratch </tspan><tspan x="0" dy="48px">sprite is shown (Well, hidden). The rain</tspan><tspan x="0" dy="48px"> gives an outline. Use the rotate bar to</tspan><tspan x="0" dy="48px"> rotate the sprite. Then guess in the</tspan><tspan x="0" dy="48px"> guess panel. Try to get  a record streak.</tspan><tspan x="0" dy="48px"> A timer may limit your time to make a </tspan><tspan x="0" dy="48px">decision. Have Fun! If you enjoy this</tspan><tspan x="0" dy="48px">game, please consider proposing it!</tspan></text><path d="M407.2249,294.9933v-139.15997" fill="none" stroke="#0096ff" stroke-width="17.5" stroke-linecap="round"/><path d="M407.2249,294.9933v-139.15997" fill="none" stroke="#33aaff" stroke-width="10" stroke-linecap="round"/><g fill="none" stroke="#e63a3a" stroke-width="12.5" stroke-linecap="round"><path d="M418.98314,307.53334l-23.51647,-23.51647"/><path d="M418.98313,284.01686l-23.51647,23.51647" data-paper-data="{&quot;index&quot;:null}"/></g><g fill="none" stroke="#ff4040" stroke-width="5" stroke-linecap="round"><path d="M418.98314,307.53334l-23.51647,-23.51647"/><path d="M418.98313,284.01686l-23.51647,23.51647" data-paper-data="{&quot;index&quot;:null}"/></g><text transform="translate(303.33333,280.37077) scale(0.5,0.5)" font-size="40" xml:space="preserve" fill="#ffffff" fill-rule="nonzero" stroke="none" stroke-width="1" stroke-linecap="butt" stroke-linejoin="miter" stroke-miterlimit="10" stroke-dasharray="" stroke-dashoffset="0" font-family="Sans Serif" font-weight="normal" text-anchor="start" style="mix-blend-mode: normal"><tspan x="0" dy="0">Timer</tspan></text><path d="M364.66667,274.7041h17" fill="none" stroke="#ffffff" stroke-width="5" stroke-linecap="round"/><path d="M375.16667,266.2041c0,0 4.43088,4.43088 6,6c1.01287,1.01287 1.34093,3.65907 0.5,4.5c-1.43617,1.43617 -5.83333,5.83333 -5.83333,5.83333" fill="none" stroke="#ffffff" stroke-width="5" stroke-linecap="round"/><text transform="translate(86.5,249.38765) scale(0.37973,0.37973)" font-size="40" xml:space="preserve" fill="#ffffff" fill-rule="nonzero" stroke="none" stroke-width="1" stroke-linecap="butt" stroke-linejoin="miter" stroke-miterlimit="10" stroke-dasharray="" stroke-dashoffset="0" font-family="Sans Serif" font-weight="normal" text-anchor="start" style="mix-blend-mode: normal"><tspan x="0" dy="0">The rotate bar is on the bottem.</tspan></text><path d="M395.75001,185.50317c0,-6.28339 5.09369,-19.21675 11.37709,-19.21675c6.28339,0 11.37709,12.93336 11.37709,19.21675c0,6.28339 -5.09369,11.37709 -11.37709,11.37709c-6.28339,0 -11.37709,-5.09369 -11.37709,-11.37709z" fill="#0096ff" stroke="none" stroke-width="0" stroke-linecap="butt"/><path d="M400.33908,185.50317c0,-3.74891 3.0391,-6.788 6.788,-6.788c3.74891,0 6.788,3.0391 6.788,6.788c0,3.74891 -3.0391,6.788 -6.788,6.788c-3.74891,0 -6.788,-3.0391 -6.788,-6.788z" fill="#33aaff" stroke="none" stroke-width="0" stroke-linecap="butt"/></g></g></svg>