<svg version="1.1" xmlns="http://www.w3.org/2000/svg" xmlns:xlink="http://www.w3.org/1999/xlink" width="108.9434" height="116.97978" viewBox="0,0,108.9434,116.97978"><g transform="translate(-185.5283,-121.51011)"><g data-paper-data="{&quot;isPaintingLayer&quot;:true}" fill-rule="nonzero" stroke="none" stroke-width="1" stroke-linecap="butt" stroke-linejoin="miter" stroke-miterlimit="10" stroke-dasharray="" stroke-dashoffset="0" style="mix-blend-mode: normal"><g><path d="M244.97167,146.76708c-1.72311,0.57528 -7.51299,0.30972 -7.68966,0.17667c0,-1.45974 -0.30918,-3.00836 3.35898,-3.2292c3.66816,-0.22139 4.0215,1.72529 4.33068,3.05253z" fill="#82783c"></path><path d="M243.4694,145.43985c0.35335,0.04417 0.6189,0.30972 0.6189,0.61945c0,0.44223 -0.35389,0.4864 -0.6189,0.4864c-0.70724,-0.04417 -0.70724,-0.66362 -0.57473,-0.84029c0.13251,-0.17722 0.35389,-0.26556 0.57473,-0.26556c0,0 0.04417,0 0,0z" fill="#645a1e"></path><path d="M238.60761,145.52819c0.35389,0.04417 0.6189,0.30972 0.6189,0.61945c0,0.44223 -0.35335,0.48694 -0.6189,0.48694c-0.70669,-0.04471 -0.70669,-0.66362 -0.57419,-0.84083c0.13251,-0.17667 0.35335,-0.26556 0.57419,-0.26556c0,0 0.04471,0 0,0z" fill="#645a1e"></path><path d="M259.73317,152.65129v1.15001c-0.92808,0 -3.84537,0.08834 -5.65737,0.04417v-1.15001c1.59115,-0.04417 4.06622,-0.08888 5.65737,-0.04417z" fill="#fab414"></path><path d="M260.92626,155.6591c-0.88391,0.22139 -1.72366,0.35444 -2.60757,0.44277l-1.3256,-5.92838c0.83974,-0.39806 2.51869,-0.39806 2.51869,-0.39806z" fill="#ffc800"></path><path d="M227.82453,152.69546v1.15001c-1.81199,0.04417 -4.72874,-0.04417 -5.65737,-0.04417v-1.15001c1.54698,-0.04471 4.02205,0 5.65737,0.04417z" fill="#fab414"></path><path d="M222.38854,149.77544c0,0 1.67949,0 2.51869,0.39806l-1.3256,5.92838c-0.88391,-0.08834 -1.72366,-0.22139 -2.60757,-0.44277z" fill="#ffc800"></path><path d="M257.74396,162.51665l-33.32258,0.13251c0.44168,-3.93698 1.19309,-11.45815 2.34256,-13.84706c1.36976,-2.83114 4.15401,-2.16752 6.93825,-2.21224c2.96092,-0.04417 16.44045,-0.57473 20.595,0.57528c1.10475,1.06168 3.04925,11.76787 3.44677,15.35151z" fill="#a0aa1e"></path><path d="M233.03912,152.60658c-1.06059,-1.68112 0.57473,-4.29088 4.33123,-4.55643c2.74007,-0.22139 5.48015,-0.17722 8.17606,0.13251c2.03284,0.35389 5.03847,2.7428 2.96092,4.95504c-0.88391,0.92917 -4.19818,1.06168 -7.82216,1.01751c-3.35898,-0.04417 -6.5849,0.13251 -7.64604,-1.54862z" fill="#000000"></path><path d="M249.61262,149.95211c-0.04471,-0.26501 0.08834,-0.53057 0.35335,-0.57473c0.92808,-0.53111 1.81199,-1.10639 2.82841,-1.72529l0.39752,0.17667c-0.04417,0.13305 -0.04417,0.26556 -0.04417,0.30972l-2.16534,1.32723c0.13251,0.04417 0.22084,0.08834 0.35335,0.13251c0.44223,0.04471 0.88391,0.04471 1.37031,0.04471c0.30918,0 0.6189,0.08834 0.70724,0.39806c-0.04417,0.26556 -0.22139,0.35389 -0.39806,0.35389c-0.17667,0 -0.35335,-0.04417 -0.48585,-0.04417c-0.79558,-0.08888 -1.54698,-0.17722 -2.34256,-0.26556c-0.22084,0 -0.39752,-0.04417 -0.57419,-0.13305z" fill="#000000"></path><path d="M227.86869,149.37738l-0.04417,-0.44277c0.08834,-0.04417 0.17667,-0.08834 0.22084,-0.08834c0.30918,0.04417 0.6189,0.08834 0.92808,0.08834c0.17667,0 0.35335,0 0.6189,0c-0.39806,-0.44223 -0.88391,-0.53057 -1.2378,-0.97279l0.30972,-0.44277c1.06059,0.48694 1.85616,1.3714 3.00509,1.72529c0.04417,0.13305 0.04417,0.26556 0.08834,0.44277l-0.57473,0.22084c-1.06059,-0.39806 -2.16534,-0.30972 -3.31426,-0.53057z" fill="#000000"></path></g><g><path d="M291.73016,124.77941c-1.14947,1.15056 -0.30972,4.11475 -0.17722,5.57448c0.17722,2.03502 0.39806,4.07003 0.6189,6.10505c0.39806,3.67197 0.79558,15.39568 -0.13251,18.97931l-18.78301,-18.35986c-0.30918,-3.49475 -0.57419,-11.23731 2.16589,-13.84706c1.10475,-1.06168 3.62399,-2.47779 5.08209,-1.2389c1.9445,1.68112 -0.66253,2.69863 -2.16534,2.78697c-0.17667,1.28306 0.26501,2.38891 0.26501,3.58364c1.37031,0.04417 2.82841,-0.26556 4.24289,-0.26556c0.97225,-0.66362 -0.39806,-3.89281 0.44168,-5.08754c1.01696,-1.41557 5.03847,-1.76946 4.9943,-0.44223c-0.04417,1.32723 -0.4864,1.41557 -1.14892,1.50391l-1.81199,0.17722c-0.6189,0.44223 -0.04417,2.78697 0,3.45059c0.39752,0.61945 3.09342,0.44223 3.75649,0.08834c-0.17667,-1.41557 0.13251,-3.49475 1.14892,-4.73365c0.88391,-1.06168 4.06567,-1.3714 4.19872,-0.22139c0.13251,1.15056 -0.04417,0.885 -0.26556,1.2389c-0.79558,0.48694 -1.59061,0.53111 -2.43035,0.70778z" fill="#d2e614"></path><path d="M280.94653,132.2117c1.14892,1.99085 -1.59115,2.74335 -2.96092,2.96419c-0.44223,0.57528 -0.70724,2.92002 -0.22139,3.53947c0.92808,0.53057 2.29839,0.13251 3.31481,0.22139c1.23726,0.13251 2.4309,0.4864 3.53565,1.01751c2.29785,1.06168 4.33123,2.47725 5.61265,4.73365c2.34256,4.1142 2.5634,10.57314 1.9445,15.17429c-3.18176,0.39806 -6.40823,-0.08834 -9.58999,0c-2.5634,0.04417 -5.48015,0.53111 -7.99938,0.13251c-0.30918,-3.05253 -0.17667,-6.10505 -0.53057,-9.15758c-0.30918,-2.92002 -0.92808,-5.75116 -1.10475,-8.71535c-0.13251,-2.2564 -0.66307,-6.37061 0.88391,-8.2284c1.45865,-1.63696 5.25931,-3.18558 7.11547,-1.68167z" fill="#a0aa1e"></path><path d="M274.14024,155.43826h18.95968c0.17667,4.73365 -1.81199,13.84706 -5.17043,19.15599c-2.38673,3.80448 -9.72304,9.60035 -14.31928,9.06924c-0.26501,-1.10585 -1.01642,-18.62542 -1.01642,-18.62542c0.61836,-1.63641 1.10475,-3.31754 1.4581,-5.04337c0.17722,-1.54807 0.22139,-3.05253 0.08834,-4.6006z" fill="#824600"></path></g><g><path d="M185.83949,124.20468c-0.22139,-0.35389 -0.39806,-0.08888 -0.26556,-1.2389c0.13305,-1.15056 3.31481,-0.84083 4.19872,0.22139c1.01642,1.23835 1.3256,3.31754 1.14892,4.73365c0.6189,0.35389 3.35898,0.53057 3.71232,-0.08888c0.04417,-0.66362 0.6189,-3.00836 0,-3.45059l-1.81199,-0.17667c-0.66253,-0.08888 -1.10475,-0.17722 -1.14892,-1.50445c-0.04417,-1.32723 3.97733,-0.97334 4.9943,0.44223c0.83974,1.19473 -0.53057,4.42447 0.48585,5.08809c1.41448,0 2.87258,0.30972 4.24289,0.26501c0,-1.19418 0.44168,-2.30003 0.26501,-3.58309c-1.50282,-0.08888 -4.10984,-1.10639 -2.16534,-2.78751c1.4581,-1.23835 3.97733,0.17722 5.08209,1.19473c2.74007,2.6103 2.47506,10.3523 2.16589,13.84706l-18.78301,18.3157c-0.92808,-3.58364 -0.53057,-15.30734 -0.13251,-18.93514c0.22084,-2.03502 0.44168,-4.07003 0.6189,-6.10505c0.13251,-1.45974 0.97225,-4.42393 -0.17722,-5.57394c-0.88391,-0.17722 -1.67894,-0.17722 -2.43035,-0.66362z" fill="#d2e614"></path><path d="M206.12477,133.9817c1.54698,1.8578 1.01642,5.97255 0.88391,8.2284c-0.17667,2.92002 -0.79558,5.79587 -1.10475,8.71535c-0.35389,3.05253 -0.22139,6.1056 -0.53057,9.15812c-2.51923,0.39806 -5.43598,-0.08888 -7.99938,-0.13305c-3.18176,-0.08834 -6.40823,0.39806 -9.58999,0c-0.6189,-4.6006 -0.39806,-11.06009 1.9445,-15.17429c1.28143,-2.2564 3.27064,-3.67197 5.61265,-4.73365c1.10475,-0.53111 2.29839,-0.885 3.53565,-1.01751c1.06059,-0.08834 2.4309,0.30972 3.35898,-0.22139c0.48585,-0.66362 0.22084,-2.96419 -0.22139,-3.53892c-1.36976,-0.22139 -4.10984,-0.97334 -2.96092,-2.96419c1.81199,-1.46028 5.65682,0.08834 7.0713,1.68112z" fill="#a0aa1e"></path><path d="M207.58342,163.18027c0,0 2.56286,20.17349 2.29785,21.27934c-4.59624,0.53111 -15.4682,-6.01617 -17.85438,-9.77702c-3.40315,-5.3531 -5.39181,-14.59901 -5.17097,-19.28849h19.00385c-0.13251,1.54807 -0.13251,3.14086 0.04417,4.68948c0.13251,1.23835 0.75141,2.30057 1.67949,3.09669z" fill="#824600"></path></g><g><path d="M259.73317,223.65658l13.52316,2.07973c0,0.22084 -2.03284,12.16593 -2.03284,12.16593l5.34764,0.08834c0,0 -0.04417,0.35389 -0.08834,0.48694c-1.76783,0.04417 -17.14769,-0.04417 -17.14769,-0.04417c0,0 0.30972,-14.51122 0.39806,-14.77677z" fill="#a0aa1e"></path><path d="M256.10919,231.97387c-0.83974,-7.34395 -0.75141,-27.60578 -0.75141,-28.8005l21.3017,9.20229c0.17667,1.2389 -0.88391,12.34315 -1.10475,14.73206c-0.13251,1.54807 -0.04417,3.2292 -0.13251,4.82199z" fill="#005a5a"></path><path d="M254.34136,228.61162h22.76034v7.29978h-22.76034z" fill="#006482"></path></g><g><path d="M226.41005,238.43336c0,0 -15.37986,0.08834 -17.14769,0.04417c-0.04417,-0.13305 -0.08834,-0.48694 -0.08834,-0.48694l5.34764,-0.08834c0,0 -2.03284,-11.94509 -2.03284,-12.16593l13.5237,-2.07973c0.04417,0.26556 0.39752,14.77677 0.39752,14.77677z" fill="#a0aa1e"></path><path d="M211.69325,231.26608c-1.14892,-4.55643 -2.077,-18.00597 -2.077,-18.00597l19.31303,-5.57394l0.04417,23.53574z" fill="#005a5a"></path><path d="M209.04152,229.49662h21.61142v7.29978h-21.61142z" fill="#006482"></path></g><g><path d="M207.62758,174.81563c-0.22139,-3.9817 -0.04417,-11.7237 -0.04417,-11.7237c0,0 4.0215,-1.99085 7.24743,-3.18558c3.22647,-1.19418 7.77854,-1.8578 7.77854,-1.8578c0,0 33.32258,-0.26556 37.78631,-0.08888c4.02205,0.17722 10.73946,1.85834 12.99368,4.33559c0.13251,0.7525 1.28143,9.11395 1.3256,9.29063c0.53057,2.7428 1.06059,12.34315 1.06059,12.34315l-34.339,13.49316l-33.05812,-12.91789c0,0 -0.44168,-4.02587 -0.75086,-9.68869z" fill="#a0640a"></path><path d="M245.81141,187.91074l-4.19818,24.90714l-32.04115,0.39806l-1.2378,-28.71162c0,0 10.9603,-14.55539 13.43536,-15.48456c0.04417,0.13305 1.98867,0 1.98867,0c0,0 8.92746,-0.08834 17.85493,-0.08834z" fill="#008264"></path><path d="M241.6574,168.93143c8.08772,0 16.44045,0.04417 19.26886,0.22139c2.87258,1.59279 14.8493,14.77623 14.8493,14.77623l0.88391,28.44661l-35.04624,0.44223z" fill="#00a08c"></path><path d="M262.29603,157.03105c0.75141,4.55643 0.6189,19.86377 0.6189,19.86377l-4.24289,-0.04417l-0.44168,-19.8196z" fill="#005a5a"></path><path d="M260.97043,173.4884c0.66307,0.04417 1.19309,0.61945 1.14892,1.28306c0,0.92863 -0.70724,1.10585 -1.28143,1.06168c-1.45865,-0.04417 -1.50282,-1.3714 -1.19309,-1.77001c0.30918,-0.39806 0.75086,-0.6189 1.23726,-0.6189c0,0 0.04417,0 0.08834,0.04417z" fill="#ffc800"></path><path d="M224.02386,157.03105l-0.44223,19.8196l-4.19872,0.04417c0,0 -0.13251,-15.30734 0.6189,-19.86377z" fill="#005a5a"></path><path d="M221.37213,173.44423c0.48585,0 0.92808,0.22084 1.23726,0.6189c0.30918,0.39861 0.26501,1.72584 -1.19309,1.77001c-0.57473,0.04417 -1.28197,-0.13305 -1.28197,-1.06168c-0.04417,-0.66362 0.4864,-1.2389 1.14947,-1.28306c0,-0.04417 0.04417,-0.04417 0.08834,-0.04417z" fill="#ffc800"></path><path d="M248.94955,179.72596c0.04417,0.61945 0.04417,1.2389 0.04417,1.85834c0.04417,2.69863 -0.66307,6.14922 -3.31481,7.65367c-2.29785,1.32723 -7.20381,1.15001 -9.36915,-0.44277c-1.81199,-1.94613 -3.04925,-6.06088 -2.34256,-9.06924z" fill="#005a5a"></path><path d="M232.90661,176.89482h16.97101v4.77782h-16.97101z" fill="#006482"></path><path d="M241.6574,178.22205c0.70724,0.04417 1.23726,0.66362 1.19309,1.3714c0,0.97334 -0.66307,1.15001 -1.28143,1.10585c-1.50282,-0.08834 -1.59115,-1.41557 -1.2378,-1.8578c0.30972,-0.39806 0.79558,-0.66362 1.28197,-0.61945z" fill="#fab414"></path></g></g></g></svg>