<svg version="1.1" xmlns="http://www.w3.org/2000/svg" xmlns:xlink="http://www.w3.org/1999/xlink" width="40.32348" height="25.57525" viewBox="0,0,40.32348,25.57525"><g transform="translate(-220.46778,-169.53852)"><g data-paper-data="{&quot;isPaintingLayer&quot;:true}" fill-rule="nonzero" stroke="none" stroke-width="0" stroke-linecap="butt" stroke-linejoin="miter" stroke-miterlimit="10" stroke-dasharray="" stroke-dashoffset="0" style="mix-blend-mode: normal"><path d="M226.08335,181.37815c0,-7.68596 5.89737,-11.83963 13.58334,-11.83963c7.68596,0 14.25,4.15366 14.25,11.83963c0,5.41527 10.24033,10.44146 5.72456,12.74167c-1.89352,0.96451 -36.12403,1.86025 -38.62613,-0.54897c-2.62926,-2.53166 5.06824,-8.25447 5.06824,-12.19269z" fill="#0096ff"></path><path d="M240.16667,177.2416c2.5177,0 6.1644,1.39009 9.0918,3.70344c2.40458,1.90019 4.37807,4.53173 4.37807,6.59977c0,4.58574 -26.60643,4.58572 -26.60643,-0.00001c0,0 2.35878,-4.44465 5.65686,-7.35049c2.40586,-2.11972 5.54548,-2.95272 7.47969,-2.95272z" fill="#33aaff"></path></g></g></svg>