<svg version="1.1" xmlns="http://www.w3.org/2000/svg" xmlns:xlink="http://www.w3.org/1999/xlink" width="148.50001" height="120.76666" viewBox="0,0,148.50001,120.76666"><g transform="translate(-165.75,-136.25)"><g data-paper-data="{&quot;isPaintingLayer&quot;:true}" fill-rule="nonzero" stroke="#0096ff" stroke-linecap="butt" stroke-linejoin="miter" stroke-miterlimit="10" stroke-dasharray="" stroke-dashoffset="0" style="mix-blend-mode: normal"><path d="M169.5,156.06059c0,-7.13242 8.67932,-16.06059 16.91534,-16.06059c15.32884,0 68.18577,0 99.75472,0c14.37061,0 24.32995,14.08621 24.32995,23.03217c0,13.28408 0,28.81154 0,36.36994c0,8.17039 -8.28079,19.30127 -20.60738,20.49329c-0.71247,0.0689 -4.63847,0.10459 -5.37716,0.10459c-2.88533,0 -3.63106,12.74573 -6.85513,20.74164c-1.32232,3.27945 -5.3357,3.25835 -6.70344,3.25835c-1.59389,0 -5.21633,-0.20057 -6.86201,-5.30829c-2.06473,-6.40831 -2.91118,-14.9049 -5.7053,-18.24835c-0.6598,-0.78951 -20.8609,-0.44335 -21.36602,-0.44335c-1.64896,0 -1.62231,23.99766 -3.9841,29.21896c-1.28803,2.8475 -5.15996,4.04771 -6.0766,4.04771c-2.3315,0 -6.47479,-0.7114 -8.26157,-4.93019c-1.94746,-4.59819 -1.53407,-28.33648 -4.07176,-28.33648c-1.89233,0 -2.55368,6.70185 -4.79382,10.26927c-0.92672,1.4758 -3.4498,1.91786 -4.34163,1.91476c-1.50872,-0.00525 -4.33785,-0.10077 -5.73346,-2.96172c-1.57709,-3.23297 -1.71138,-9.27721 -3.26936,-9.28929c-5.8594,-0.04544 -10.46147,-0.11372 -10.98871,-0.20394c-8.14679,-1.39404 -16.00255,-8.02788 -16.00255,-16.63003c0,0 -0.00001,-38.22287 -0.00001,-47.03845z" fill="#33aaff" stroke-width="7.5"></path><text transform="translate(175.16559,194.84193) scale(1.23683,1.23683)" font-size="40" xml:space="preserve" fill="#fcfeff" fill-rule="nonzero" stroke="#0096ff" stroke-width="1.5" stroke-linecap="butt" stroke-linejoin="miter" stroke-miterlimit="10" stroke-dasharray="" stroke-dashoffset="0" font-family="Sans Serif" font-weight="normal" text-anchor="start" style="mix-blend-mode: normal"><tspan x="0" dy="0">Hard!</tspan></text></g></g></svg>