<svg version="1.1" xmlns="http://www.w3.org/2000/svg" xmlns:xlink="http://www.w3.org/1999/xlink" width="28.16309" height="34.1553" viewBox="0,0,28.16309,34.1553"><g transform="translate(-226.08333,-161.37185)"><g data-paper-data="{&quot;isPaintingLayer&quot;:true}" fill-rule="nonzero" stroke="none" stroke-width="0" stroke-linecap="butt" stroke-linejoin="miter" stroke-miterlimit="10" stroke-dasharray="" stroke-dashoffset="0" style="mix-blend-mode: normal"><path d="M226.08335,181.37815c0,-7.68596 6.2307,-20.0063 13.91667,-20.0063c7.68596,0 13.91667,12.32033 13.91667,20.0063c0,5.41527 1.74033,10.94146 -2.77544,13.24167c-1.89352,0.96451 -19.95737,1.69358 -22.45947,-0.71564c-2.62926,-2.53166 -2.59843,-8.58781 -2.59843,-12.52603z" fill="#0096ff"></path><path d="M231.69679,181.37815c0,-4.58574 3.71748,-8.30321 8.30321,-8.30321c4.58574,0 8.30321,3.71748 8.30321,8.30321c0,4.58574 -3.71748,8.30321 -8.30321,8.30321c-4.58574,0 -8.30321,-3.71748 -8.30321,-8.30321z" fill="#33aaff"></path></g></g></svg>