<svg version="1.1" xmlns="http://www.w3.org/2000/svg" xmlns:xlink="http://www.w3.org/1999/xlink" width="91.63021" height="111.57757" viewBox="0,0,91.63021,111.57757"><g transform="translate(-194.18489,-124.21121)"><g data-paper-data="{&quot;isPaintingLayer&quot;:true}" fill-rule="nonzero" stroke="none" stroke-width="1" stroke-linecap="butt" stroke-linejoin="miter" stroke-miterlimit="10" stroke-dasharray="" stroke-dashoffset="0" style="mix-blend-mode: normal"><path d="M217.39168,226.30654c-0.67173,2.9567 -1.60396,6.24887 -4.49109,7.69592c-2.95051,1.47487 -6.87809,1.37593 -10.12466,1.63488c-1.57613,0.12136 -3.12289,0.04793 -4.71448,0.08271c-1.13939,0.02242 -2.88635,0.29065 -3.87656,-0.41201c1.09147,-0.46611 2.3012,-0.50399 3.37102,-1.0791c0.95078,-0.56197 1.84281,-1.21746 2.66373,-1.95722c1.24761,-1.05436 2.57793,-2.3955 3.18318,-3.94381c1.51816,-3.89898 0.0858,-10.45473 0.61762,-14.50366c0.30533,-0.11208 11.82138,-6.58203 16.1911,-6.2365c0.57279,1.27698 -2.39009,16.85665 -2.81988,18.71879z" fill="#828c00"></path><path d="M244.012,201.43705h11.77654c-2.74644,13.99271 -5.11798,29.69761 -5.37848,32.6257c0.87812,0.30379 1.71218,0.03865 2.52073,0.1059c0.0286,0.28987 0.05102,0.52022 0.07962,0.82015c-1.15253,-0.06725 -6.07959,0.13759 -7.24758,-0.17547c0,-0.9933 -1.75083,-33.37628 -1.75083,-33.37628z" fill="#828c00"></path><path d="M204.0591,209.95079c0.09894,-7.23598 -0.25741,-17.18981 5.41095,-22.67265c1.04122,-1.00566 2.47358,-1.59623 3.58437,-2.43029c1.69285,-1.27698 3.69181,-2.20921 5.41095,-3.47692c0.55655,-0.40582 1.65807,-1.34114 1.65807,-1.34114l2.10099,-1.12084l-0.08658,-1.95799c0,0 1.4424,-3.94999 1.67739,-5.24939c1.54753,-8.48437 -0.08271,-17.24392 1.49961,-25.74452c0.1716,-0.93223 0.38186,-1.94098 0.5983,-2.88945l23.42941,-2.96675l24.10423,1.59623c2.80364,2.09481 -0.34089,4.96261 -2.65446,6.06722c-1.36279,0.65472 -2.62586,1.27776 -3.78766,2.27724c-0.252,0.21721 -2.3584,1.83586 -3.05564,3.90825c-1.05977,3.16463 -0.77686,7.39909 -0.85029,9.45215c-0.13682,3.86728 0.07962,7.77244 0.22649,11.63663c0.2891,7.64799 0.60139,15.00843 -0.55114,22.60849c-0.52486,3.47692 -1.09147,6.77915 -3.2141,9.66859c-2.22854,3.0309 -4.87372,5.53076 -8.47664,6.83403c-6.65856,2.40478 -37.84495,1.64106 -40.04721,1.41458c-2.29192,-0.23654 -4.69129,0.14687 -6.95771,-0.14068c-0.33084,-1.69208 -0.04483,-3.74206 -0.01932,-5.47279z" fill="#a0aa1e"></path><path d="M236.68635,200.56202c0,0 -8.16667,28.99805 -8.16667,33.90655c0.43906,0.07653 2.74026,-0.23963 3.07419,0.23654c-0.27982,0.97397 -5.94895,0.34785 -7.09762,0.15924c-0.35326,-1.05668 -1.81421,-33.4273 -1.81421,-33.4273z" fill="#a0aa1e"></path><path d="M272.08942,160.03633c0.46843,0.13064 0.05102,4.98812 0,6.86572c-0.0572,2.11027 -0.10822,4.23136 -0.2319,6.33545c-0.13064,2.22545 -1.01262,4.57612 -3.06569,5.94277c-0.5983,0.39886 -3.67558,1.81962 -6.29834,2.03065c-3.7722,0.30688 -6.47149,-0.8557 -7.48953,-0.91986l-0.25122,-0.43751c0.07189,-1.0389 0.08348,-2.08167 0.03478,-3.12289c0.81473,-0.14687 4.07058,1.33805 7.1324,1.08605c3.01158,-0.24581 5.83455,-2.22622 6.28675,-3.00153c0.77686,-1.33187 1.00257,-2.8392 1.06905,-4.35891c0.07343,-1.69904 0,-3.40735 0.0286,-5.10948c0.01932,-1.25843 -0.43597,-5.62971 0.04793,-5.62971c0.48389,0 0.15924,2.07239 0.67791,2.10718c0.51868,0.03556 0.39191,-2.17443 0.68101,-2.17443c0.28987,0 0.06416,2.27414 0.51945,2.27414c0.45143,0 0.39113,-2.01828 0.85879,-1.88765z" fill="#a0aa1e"></path><path d="M237.70129,159.71709c0.46843,0.13064 0.05102,4.98812 0,6.86572c-0.0572,2.11027 -0.10822,4.23059 -0.2319,6.33545c-0.13064,2.22545 -1.31177,4.95256 -3.36484,6.32231c-0.58825,0.39964 -3.37643,1.44009 -5.9992,1.65111c-3.76216,0.30688 -7.95719,-0.87194 -7.95719,-0.87194l2.01442,-3.07806c1.74233,0.52409 3.56736,0.7127 5.37926,0.55578c3.01081,-0.24581 5.83455,-2.22622 6.28598,-3.00153c0.77686,-1.33187 1.00257,-2.8392 1.06982,-4.35891c0.07266,-1.69904 0,-3.40735 0.0286,-5.10948c0.01932,-1.25843 -0.43597,-5.62971 0.04793,-5.62971c0.48312,0 0.15846,2.07239 0.67791,2.10718c0.51868,0.03556 0.39113,-2.17443 0.68101,-2.17443c0.28987,0 0.06339,2.27337 0.51868,2.27337c0.4522,0 0.38186,-2.01751 0.84952,-1.88688z" fill="#828c00"></path><g><path d="M264.71739,141.14516c-0.05797,1.9062 -0.24195,3.67558 -1.33109,5.31046l-0.85879,0.40505c-2.33985,-0.48544 -2.34603,-4.04584 -1.97654,-5.84305c1.43545,0.10204 2.75958,-0.07034 4.16643,0.12754z" fill="#ffffff"></path><path d="M266.04461,140.34048h2.70547c1.45709,7.32488 -4.76163,6.89432 -2.70547,0z" fill="#ffffff"></path><path d="M256.48888,139.29307h2.70547c1.45786,7.32488 -4.76163,6.89741 -2.70547,0z" fill="#dcd2b4"></path><path d="M252.5327,138.85247h2.70857c1.45477,7.32488 -4.76473,6.89432 -2.70857,0z" fill="#ffffff"></path><path d="M248.64687,138.19156h2.70857c1.44163,7.32488 -4.77478,6.89355 -2.70857,0z" fill="#ffffff"></path><path d="M269.9977,139.73368h2.70857c1.45477,7.32488 -4.76473,6.89741 -2.70857,0z" fill="#faf0e6"></path><path d="M246.03338,124.45702c2.03374,-0.09894 4.07444,-0.05411 6.11128,-0.12136c4.57071,-0.15305 9.12827,0.03788 13.70207,-0.12445c2.25714,0.42746 4.59003,0.2203 6.875,0.69879c1.96417,0.40737 3.83868,1.16413 5.5354,2.23549c3.2342,2.02756 5.16282,6.2396 5.36302,9.97934c0.09276,1.74619 -0.34012,3.76757 -1.95413,4.72608c-1.78871,1.05977 -4.4563,0.63849 -6.42666,0.6926c-5.09248,0.10899 -10.18495,0.17547 -15.27743,0.1059l-34.01245,0.42437c0.65472,-3.03245 1.62251,-5.98837 2.88635,-8.81985c1.53671,-3.43441 4.2847,-6.17853 7.71524,-7.7021c2.70934,-1.25534 8.67375,-2.05307 9.4823,-2.09481z" fill="#828c00"></path><path d="M278.29191,138.08257c1.20046,0 2.73408,0.89126 1.94794,2.35685c-0.69028,1.29322 -2.29502,0.56506 -2.74953,-0.51095c0.1144,-0.67173 0.38959,-1.30481 0.80159,-1.84591z" fill="#645a1e"></path><path d="M273.83947,140.62803c-1.37515,0.90363 -2.47976,-0.97397 -1.81731,-2.15278l0.84334,-0.63849c1.38134,-0.02242 2.27878,1.94485 0.97397,2.79128z" fill="#645a1e"></path><path d="M285.0154,134.20369c-0.02628,-0.33084 0.13295,-0.64854 0.41278,-0.82478c0.63308,0.14068 0.35017,1.18809 0.12445,1.57459c-0.30456,-0.12986 -0.51172,-0.41896 -0.53723,-0.7498z" fill="#000000"></path><path d="M253.01969,134.07151c1.0219,0.43133 0.10204,2.44961 -0.85261,1.17263c0.03788,-0.65163 0.30224,-1.00644 0.85261,-1.17263z" fill="#000000"></path></g></g></g></svg>