<svg version="1.1" xmlns="http://www.w3.org/2000/svg" xmlns:xlink="http://www.w3.org/1999/xlink" width="85.01979" height="110.21374" viewBox="0,0,85.01979,110.21374"><g transform="translate(-197.52194,-125.29984)"><g data-paper-data="{&quot;isPaintingLayer&quot;:true}" stroke="none" stroke-width="1" stroke-linecap="butt" stroke-linejoin="miter" stroke-miterlimit="10" stroke-dasharray="" stroke-dashoffset="0" style="mix-blend-mode: normal"><g><path d="M246.91059,197.80712l-8.2949,-0.49262l-13.20961,-4.82357l-7.15613,-7.32773l-3.48693,-12.39268l5.03047,-11.93044l8.10771,-7.20457l8.50591,-3.03783l9.25633,-1.31365l9.57818,0.73893l10.03714,2.62731l10.05931,4.8441l4.74393,6.56827l0.81857,3.77676l0.81775,6.87862l-1.30873,6.83264l-3.43521,6.65037l-4.49844,4.26938l-7.44267,4.18727l-10.87788,2.13469l-7.2448,-0.98524" fill="#ffffff" fill-rule="evenodd"></path><path d="M246.32355,125.98719l2.63798,1.23155l2.39249,3.69465l-0.67489,5.04936l-5.0157,2.21679l-4.84082,-1.04682l-2.8416,-4.372l0.73647,-3.32519l3.74227,-2.70941l3.86379,-0.73893" fill="#ef463c" fill-rule="evenodd"></path><path d="M275.5228,166.56678l2.08543,9.35979v6.71195l-3.98694,0.73893l-3.43521,-2.40152l-0.73647,4.61832c0,0 -3.37363,6.34249 -3.49678,6.52722c-0.12233,0.18473 -5.82688,3.75623 -5.82688,3.75623l-1.41136,1.84733l2.5764,-0.18473l-0.98114,4.372l-0.4294,4.12569l1.77918,4.24885l1.53287,5.11094l1.34978,5.66513l0.98114,3.81781l-0.55173,2.95572l-2.88265,1.04682l-2.33174,-0.06158l-2.51483,2.15521l-5.52063,0.92366l-3.56411,-1.16997l-2.4943,-3.87938l-2.16096,-11.20711l-3.92618,1.29313l-7.78997,1.35471l-3.43521,0.06158l0.67407,1.66259l0.79804,6.71195l-0.30707,3.14045l-3.12814,2.09364l-2.94423,0.18473l-4.9689,2.21679l-5.52063,-0.61578c0,0 -1.96309,-1.9089 -2.08625,-2.09364c-0.12233,-0.18473 -2.08543,-6.28091 -2.08543,-6.28091l-1.04271,-6.52722l0.73647,-15.0865l-2.39249,-1.35471l-4.1101,-4.18727l-3.12814,-5.54198l-0.61331,-4.18727l0.55173,-1.9089l2.08543,-0.73893l2.08625,1.29313l3.31205,5.11094l2.94423,4.80305l2.51483,1.7447l5.27596,-1.68312l6.56334,2.70941h7.85155l8.61429,-0.73893l1.62975,-2.09364l-4.66183,-2.77099l-4.35558,-5.72671l-1.16505,-3.87938l-1.04271,-2.64783l-2.02467,2.27837c0,0 -2.51483,2.09364 -2.69874,2.03206c-0.18391,-0.06158 -1.96309,-1.72417 -1.96309,-1.72417l-2.33091,-5.06906l-0.30625,-4.41388v-7.63561h16.25483l3.45491,-1.29313l12.249,-1.04682l8.71035,1.60102c0,0 11.40991,-2.52468 11.83931,-2.58626z" fill="#fcb322" fill-rule="evenodd"></path><path d="M233.62626,189.22731c0,0 1.04271,2.52468 1.16505,2.70941c0.12316,0.18473 3.12896,2.52468 3.12896,2.52468l3.86461,3.14045l-5.88928,2.27837l-1.83994,5.84987l0.06158,4.24885l1.10347,3.44834l2.27016,3.94096l-6.50259,1.1084l-4.23243,-0.80051l-1.16505,-1.47786l-1.34978,-5.11094v-5.04936l0.79722,-4.61832l0.06158,-1.41628l-7.1159,-1.84733c0,0 -1.04271,-2.15521 -0.98114,-2.40152c0.06076,-0.24631 0,-4.9262 0,-4.9262l1.10429,-2.70941l8.03546,0.49262h5.88845z" fill="#71cbd2" fill-rule="evenodd"></path><path d="M218.32466,186.78966c-0.69706,-1.00741 -1.52466,-1.85718 -1.93518,-2.87526c-0.69624,-1.72828 -1.2102,-3.54358 -1.65849,-5.35807c-1.08294,-4.37775 -0.32267,-8.54942 1.59691,-12.55443c1.31283,-2.74061 2.71105,-5.45166 4.83178,-7.65532c1.40233,-1.45569 2.98199,-2.748 4.54114,-4.04031c3.78497,-3.13717 8.29326,-4.42866 13.0528,-5.07809c2.61499,-0.35633 5.21931,-0.79804 8.05106,-1.23483c-0.36618,-2.9237 -0.74057,-5.91144 -1.11825,-8.93038c-0.78737,-0.11248 -1.46144,-0.26601 -2.13961,-0.29475c-2.89907,-0.12562 -4.44261,-1.97294 -5.68073,-4.3211c-1.98526,-3.76362 1.06324,-7.82692 4.49434,-8.77439c1.60266,-0.44254 3.16426,-0.4918 4.77185,-0.1445c2.1585,0.46471 3.49021,1.93107 4.26855,3.83833c0.48441,1.18804 0.62727,2.53617 0.79558,3.8293c0.26027,1.99675 -1.03943,3.93111 -2.95983,4.57808c-0.48852,0.16339 -0.97703,0.32759 -1.56079,0.523c0.23399,3.27264 0.46635,6.542 0.70198,9.83681c1.78575,0.16256 3.58628,0.25288 5.36463,0.50576c3.15441,0.44828 6.29733,0.91217 9.3524,1.93436c3.59449,1.20281 7.04201,2.71516 10.33189,4.56659c1.15684,0.65108 2.10677,1.67901 3.13224,2.55588c1.97377,1.68969 3.81617,4.49762 4.6725,6.96483c0.20526,0.59114 0.34894,1.18475 0.54681,1.76194c1.24797,3.63882 0.70609,7.70704 0.19623,11.48873c-0.36372,2.70284 -1.30791,5.14952 -2.459,7.51739c-0.72333,1.48853 -1.81777,2.84406 -2.94997,4.07151c-2.62074,2.84078 -5.56743,5.31373 -9.10444,6.94841c-1.64371,0.76028 -3.34079,1.43927 -5.07317,1.95242c-0.73072,0.21675 -0.64205,0.66504 -0.72908,1.08787c-0.37275,1.80463 -0.6987,3.61912 -1.03943,5.43114c-0.03695,0.19541 -0.13301,0.42365 -0.07143,0.58704c0.45157,1.19378 0.98688,2.35472 1.39822,3.56082c0.70855,2.08214 1.42121,4.16839 1.99593,6.28912c0.82678,3.05096 1.65356,6.11095 2.225,9.21446c0.21922,1.19132 -0.13383,2.54685 -0.45896,3.76526c-0.33827,1.2685 -1.69297,1.27835 -2.68724,1.59116c-0.67489,0.21183 -1.47293,0.01232 -2.21351,0.04598c-0.31692,0.01478 -0.77588,0.04844 -0.92038,0.25206c-1.73484,2.4434 -4.21847,3.02633 -6.99028,2.91139c-0.84649,-0.03448 -1.71103,-0.0468 -2.53043,-0.23399c-1.99429,-0.45485 -3.54851,-1.49428 -4.56331,-3.38841c-1.44174,-2.68806 -1.71103,-5.70208 -2.55834,-8.55271c-0.34155,-1.15273 -0.4959,-2.36129 -0.77588,-3.74638c-0.65026,0.15435 -1.32186,0.28079 -1.97294,0.47538c-3.48693,1.04271 -7.01984,1.75209 -10.84339,1.48279c0,0.63876 -0.15518,1.2841 0.02709,1.81284c0.80872,2.34323 1.09362,4.76282 1.15684,7.21278c0.01478,0.59032 -0.14697,1.23894 -0.40559,1.77261c-1.40807,2.904 -3.69055,3.7513 -6.32935,2.89825c-0.19623,-0.06322 -0.53614,0.07389 -0.70937,0.22989c-2.03452,1.83008 -4.37857,2.61663 -7.11754,2.36786c-1.23648,-0.11166 -2.40809,-0.24385 -3.54112,-0.84238c-2.70941,-1.43188 -3.75541,-3.86296 -4.24721,-6.69225c-0.15518,-0.89246 -0.38178,-1.7759 -0.63548,-2.64619c-0.84895,-2.91056 -1.10675,-5.91144 -1.34321,-8.91068c-0.13629,-1.73895 -0.26601,-3.50089 -0.13875,-5.23409c0.15107,-2.07393 0.52628,-4.13637 0.92038,-6.18238c0.12151,-0.63137 0.04762,-1.02629 -0.47209,-1.28902c-2.96968,-1.50495 -4.73983,-4.13555 -6.4837,-6.82033c-1.53369,-2.36294 -2.36786,-4.89582 -2.75621,-7.70376c-0.19623,-1.41382 0.13793,-2.36047 0.88836,-3.36131c1.06324,-1.41875 2.2718,-1.5263 3.72831,-0.523c1.55586,1.07145 2.38182,2.6347 3.13553,4.2587c0.93023,2.00414 2.04766,3.93604 3.41386,5.67416c0.67243,0.85388 1.40397,1.72499 2.24142,2.42205c0.94337,0.78819 1.335,0.29147 2.34241,-0.21429c0.54681,-0.27505 1.99183,-0.58868 2.4631,-1.07802c0.54106,-0.56159 0.0156,-1.31612 -0.07636,-1.95981c-0.10509,-0.73318 -0.06815,-1.57967 0.00493,-2.31778c0.16585,-1.67901 0.80543,-3.26525 1.82926,-4.60189c0.17981,-0.23564 0.45896,-0.39328 0.7767,-0.65683zM259.99294,196.84158c0.37111,0.21018 0.43268,0.27587 0.48359,0.26848c0.27258,-0.03777 0.54763,-0.07389 0.81282,-0.14532c4.08464,-1.10265 7.80967,-2.9081 10.93206,-5.8121c1.43599,-1.335 2.93273,-2.66015 4.10024,-4.21765c1.95242,-2.60596 3.21763,-5.52884 3.83259,-8.81708c0.70609,-3.77347 0.58211,-7.41394 -0.58293,-11.01909c-0.5271,-1.62893 -1.17244,-3.25294 -2.01482,-4.73572c-0.75125,-1.32186 -1.64043,-2.73158 -2.83092,-3.60516c-4.46971,-3.27592 -9.35322,-5.73328 -14.78846,-7.0806c-4.44261,-1.10019 -8.93285,-1.7915 -13.46824,-1.44338c-4.24967,0.32677 -8.51002,0.74878 -12.63735,2.09774c-2.99924,0.98031 -5.68648,2.38182 -8.12085,4.35394c-4.20944,3.40975 -7.22674,7.67995 -8.73087,12.87627c-0.5698,1.96884 -0.64205,4.14868 -0.56816,6.21933c0.06076,1.7135 0.63548,3.4155 1.0501,5.10519c0.23153,0.94747 0.41052,1.98854 0.93762,2.76688c1.94996,2.88265 3.93686,5.76037 7.11426,7.49111c1.36127,0.74139 2.63141,1.66998 4.03702,2.30382c1.8736,0.84484 3.81945,1.54601 5.77269,2.19298c1.20774,0.39984 2.48609,0.58458 3.93357,0.90971c-0.20362,-0.2734 -0.23235,-0.35715 -0.28408,-0.37603c-3.03044,-1.09197 -5.0198,-3.25868 -6.35973,-6.12573c-0.11248,-0.24056 -0.5074,-0.48687 -0.77588,-0.4918c-1.33254,-0.02545 -2.72501,-0.15682 -4.04359,0.04844c-0.7611,0.11823 -1.8071,0.49673 -2.32763,-0.35715c-0.89739,-1.47047 1.13138,-1.30544 1.86539,-1.31365c1.35224,-0.01478 2.7324,-0.17488 4.08382,-0.26109c-0.41134,-1.44666 -0.77834,-2.73568 -1.19789,-4.20944c-0.72826,0.78901 -1.26111,1.46801 -1.89823,2.02795c-0.70116,0.61578 -1.30216,1.44748 -2.43765,1.33993c-1.32925,-0.1248 -2.46803,-0.55256 -3.11336,-1.8071c-0.37439,-0.72826 -0.68474,-1.491 -0.99263,-2.25045c-0.88097,-2.16999 -1.64289,-4.38022 -1.64371,-6.75793c0,-2.34159 0.01232,-4.68646 0.13383,-7.02312c0.10427,-1.9828 0.69295,-2.51318 2.72419,-2.58626c1.94257,-0.06979 3.89252,-0.09852 5.83427,-0.02874c2.6856,0.09524 5.36628,0.30953 8.04942,0.44828c0.41298,0.02135 0.91627,0.04762 1.23319,-0.15518c2.37279,-1.51727 4.99189,-2.29725 7.74399,-2.60925c3.33011,-0.37768 6.67254,-0.28736 9.91809,0.57801c1.41793,0.3785 3.08544,1.42696 4.52225,1.18311c1.75291,-0.29886 3.59777,-0.55173 5.31537,-1.01726c1.10675,-0.3005 2.25127,-0.43925 3.37116,-0.72415c1.58542,-0.40313 3.76772,-0.85552 5.39748,-0.51233c1.20774,0.25452 1.936,1.93189 2.42287,3.03536c1.08705,2.46228 1.47376,5.13967 1.59281,7.80967c0.11577,2.59365 0.37029,5.01734 0.06815,7.60195c-0.15107,1.28492 -1.34157,2.26113 -2.62485,2.28576c-1.60676,0.03202 -3.14456,-0.33252 -4.56495,-1.34814c-0.78573,7.02805 -4.82275,11.34997 -11.27608,13.88697zM248.95825,165.80486c-2.25456,0.10345 -4.52061,0.62645 -6.70867,1.11414c-2.00086,0.44664 -3.53127,1.77179 -5.0313,3.05671c-0.66257,0.56816 -1.21102,1.37441 -1.56489,2.18149c-1.13056,2.57476 -2.22418,5.17169 -3.16262,7.82199c-0.34976,0.99017 -0.47292,2.19298 -0.27997,3.22009c0.5386,2.86294 1.78903,5.48533 3.36542,7.91312c0.63959,0.98606 1.4795,1.98362 2.46721,2.56573c1.51727,0.89246 3.23159,1.45487 4.88105,2.11088c0.86126,0.34155 1.74388,0.72744 2.64866,0.8432c3.27757,0.41955 6.58551,0.55666 9.84173,-0.06732c3.57068,-0.68392 6.76696,-2.30957 9.59953,-4.57891c1.94749,-1.55996 3.0058,-3.70861 3.63718,-6.1126c0.86209,-3.27757 0.45485,-5.96809 -0.85798,-9.00181c-0.90396,-2.08871 -2.46474,-4.45821 -4.32192,-5.78911c-0.8079,-0.57883 -1.51973,-1.30462 -2.36129,-1.8268c-1.43024,-0.88754 -2.84078,-2.00825 -4.41716,-2.41138c-2.34898,-0.601 -4.53621,-1.05749 -6.95498,-1.05749c-0.25863,0 -0.51971,0.00657 -0.77998,0.01806zM242.34072,215.04883c0.00411,0.02381 -0.04844,-0.20444 -0.07143,-0.43597c-0.06486,-0.66668 -1.05913,-4.32192 0.43761,-4.0009c1.0813,0.23317 1.15766,3.06328 1.27096,3.80878c0.10756,0.7143 0.39328,1.41628 0.41216,2.12894c0.09031,3.34735 0.91792,6.54857 1.90151,9.70872c0.66586,2.13961 1.50495,4.25131 4.07561,4.75953c1.57967,0.31281 3.14045,0.43515 4.76856,-0.04516c2.89086,-0.85223 4.13883,-2.65769 3.61337,-5.6561c-0.36864,-2.10431 -0.70937,-4.21355 -1.15191,-6.30226c-0.27669,-1.30791 -0.59853,-2.60514 -0.90806,-3.90566c-0.18227,-0.76685 -0.6207,-2.06244 -0.48523,-2.83503c-0.2028,0.42776 -1.00166,1.02876 -1.4639,0.46799c-1.06652,-1.29395 1.63714,-2.92945 2.10267,-3.81124c0.66832,-1.26521 1.31365,-2.58133 1.69297,-3.95328c0.53778,-1.9401 0.8276,-3.95081 1.21924,-5.91391c-1.37934,0.21922 -2.55834,0.44828 -3.74802,0.58622c-1.21102,0.1404 -2.43026,0.22907 -3.6495,0.2693c-0.8432,0.02792 -1.69708,-0.0156 -2.53617,-0.1133c-1.2882,-0.15189 -2.5764,-0.57637 -3.85065,-0.52628c-2.02631,0.07882 -4.04277,0.445 -6.06169,0.70691c-0.52218,0.06815 -1.04271,0.17734 -1.55504,0.30378c-0.74714,0.18309 -1.6667,0.19705 -2.17656,0.65765c-0.58211,0.5271 -0.82924,1.83583 -1.09444,2.57066c-0.33416,0.92448 -0.3473,1.96391 -0.41544,2.94423c-0.22825,3.28414 0.50576,5.72917 2.33913,8.45254c0.33909,0.50494 0.73811,0.97046 1.05667,1.38591c1.38098,-0.40395 2.74554,-0.80297 4.27759,-1.25208zM214.00684,198.79318c-0.23153,0.13711 -0.45567,0.29229 -0.70527,0.47538c-1.67984,1.23483 -3.55672,3.61173 -4.17414,5.64707c-0.84731,2.79562 -1.19543,5.77597 -1.02711,8.73744c0.12562,2.21597 0.5698,4.41552 0.6478,6.63067c0.12233,3.44506 1.32433,6.61179 2.30628,9.82777c0.47374,1.55422 1.58624,2.81943 3.22995,3.23323c3.12568,0.78819 5.97795,0.37439 7.96403,-2.51154c0.39984,-0.58129 0.76028,-1.38016 0.71102,-2.04684c-0.14368,-1.94092 -0.50904,-3.86707 -0.77752,-5.79896c-0.2537,-1.82844 -0.48523,-3.66017 -0.76274,-5.48451c-0.02627,-0.1716 -0.28572,-0.37275 -0.47866,-0.44172c-0.77177,-0.27751 -1.58295,-0.45321 -2.33256,-0.77834c-0.36372,-0.15764 -0.74714,-0.5115 -0.88507,-0.86947c-0.09196,-0.23892 0.18063,-0.68228 0.39492,-0.94912c0.7923,-0.98606 4.42373,1.35963 5.40404,1.66916c2.06901,0.65436 1.35881,-0.61413 0.85059,-1.96884c-0.65354,-1.74305 -0.92366,-3.92947 -0.84484,-5.7809c0.09442,-2.23157 -0.39081,-4.54442 0.56651,-6.71359c0.09278,-0.21183 0.12644,-0.49919 0.06404,-0.71512c-0.05911,-0.20444 -0.25945,-0.48934 -0.43515,-0.51971c-2.15193,-0.36618 -4.26034,-0.65929 -6.15693,-1.88838c-1.29149,-0.83745 -2.18395,-0.56405 -3.55918,0.24631zM221.64246,174.70733c0.04351,3.32683 1.18229,6.31129 2.67164,9.18491c0.47948,0.92695 1.22252,1.11414 2.05997,0.52464c3.65278,-2.56737 4.64787,-6.46975 6.06416,-10.51662c0.45075,-1.28738 0.82596,-2.61335 1.42614,-3.84162c0.41462,-0.84813 1.10922,-1.83255 -0.27258,-2.03452c-3.27921,-0.47948 -6.55349,-0.25698 -9.82695,0.01396c-0.99674,0.0821 -1.70118,0.56651 -1.78411,1.6552c-0.12644,1.6708 -0.22661,3.34243 -0.33827,5.01405zM263.45771,167.99702c0.6831,0.61824 1.23976,1.22827 1.89659,1.69708c2.5608,1.83008 3.79646,4.52882 4.61996,7.39177c0.55748,1.94092 1.0813,3.71682 2.98199,4.80387c1.54847,0.88507 3.35064,0.45157 3.61419,-1.19789c0.36618,-2.28412 0.29804,-4.61421 -0.23646,-6.86384c-0.33334,-1.39986 -0.31938,-2.88511 -0.77095,-4.29401c-0.36125,-1.13056 -0.85962,-2.88758 -1.92615,-3.5871c-1.51645,-0.99427 -4.37775,0.16995 -5.97548,0.41462c-1.47868,0.22825 -2.88019,0.60757 -4.20369,1.6355zM244.6938,137.33551c0.99345,-0.29229 2.6347,-0.76028 4.26363,-1.27014c0.2381,-0.07471 0.44254,-0.32677 0.61578,-0.53614c1.13467,-1.37113 1.06406,-4.79237 -0.11412,-6.38518c-1.51809,-2.05176 -3.59531,-2.2562 -5.89338,-1.8621c-2.20776,0.37932 -3.77101,1.67655 -4.49188,3.67823c-1.02547,2.84242 1.86703,6.44676 5.61998,6.37533zM238.59845,198.38923c-2.36129,-0.77095 -4.68482,-1.46883 -6.96483,-2.28986c-2.98938,-1.07638 -5.87285,-2.40317 -8.45583,-4.28498c-1.16587,-0.84977 -2.24717,-1.81531 -3.35146,-2.74718c-0.25206,-0.21265 -0.43843,-0.50411 -0.65436,-0.76028c-0.26273,0.30625 -0.59114,0.57719 -0.77588,0.92613c-0.85141,1.60841 -0.84895,3.34243 -0.8235,5.12161c0.02463,1.702 0.92941,2.89661 2.225,3.44259c1.56982,0.66257 3.36049,0.98114 5.07481,1.06981c2.7989,0.14286 5.61423,0.02135 8.42134,-0.07143c1.77425,-0.05747 3.54358,-0.26684 5.3047,-0.40641zM210.52484,199.48777c-0.22086,-0.19376 -0.48687,-0.367 -0.67571,-0.60346c-1.17736,-1.47293 -2.40481,-2.91139 -3.48036,-4.45657c-0.77834,-1.11907 -1.44995,-2.33995 -1.98033,-3.59613c-0.60428,-1.43188 -1.31201,-2.7677 -2.42369,-3.84819c-0.75207,-0.73154 -1.75701,-0.55912 -2.1585,0.40559c-0.27012,0.6478 -0.50083,1.41054 -0.42858,2.08789c0.37521,3.56411 2.04109,6.61671 4.22832,9.32859c1.20364,1.49182 2.83585,2.63716 4.30304,3.96395c0.92284,-1.15684 1.74552,-2.19052 2.61581,-3.28167zM259.58982,208.32949c-0.09113,0 -0.18227,0 -0.2734,-0.00082c-0.35633,0.90314 -0.83253,1.78164 -1.02876,2.72008c-0.13465,0.64451 0.10017,1.37441 0.20362,2.06079c0.28408,1.89248 0.55748,3.78661 0.89082,5.67006c0.31117,1.76112 0.76192,3.49925 1.02055,5.26693c0.16339,1.11578 0.0624,2.26852 0.1404,3.39908c0.01478,0.20772 0.29393,0.51397 0.50494,0.57226c1.38344,0.37932 2.88265,-0.39656 3.0682,-1.80874c0.16913,-1.29723 0.16421,-2.70038 -0.14943,-3.96067c-0.76274,-3.05999 -1.71924,-6.07319 -2.65851,-9.08556c-0.5074,-1.63139 -1.14124,-3.22338 -1.71842,-4.83343zM223.48239,218.05463c0.27751,2.31285 0.59935,4.44836 0.77341,6.59701c0.15928,1.96473 0.13465,3.94507 0.2578,5.91473c0.01724,0.28818 0.41873,0.79722 0.61249,0.78327c0.62152,-0.04516 1.34485,-0.13054 1.82023,-0.48277c1.35799,-1.00905 1.96473,-2.4902 1.85718,-4.15525c-0.23153,-3.57642 -0.07471,-7.18815 -4.20287,-8.43448c-0.33088,-0.10017 -0.68064,-0.13875 -1.11825,-0.2225zM234.334,213.83698c-0.07718,-0.07307 -0.15435,-0.13054 -0.23153,-0.16749c-0.68638,-0.32841 -2.3227,0.38506 -3.08298,0.53531c-1.01233,0.20115 -2.00907,0.46799 -3.01073,0.71676c-0.72087,0.17816 -1.48279,0.11248 -1.20199,0.98442c0.3161,0.98524 2.09035,1.52466 2.99185,1.52384c1.65356,-0.00164 3.37281,0.19294 5.00338,-0.17242c0.98278,-0.22004 1.08294,-0.39902 0.73154,-1.31201c-0.27258,-0.70691 -0.64123,-1.57885 -1.19953,-2.10841zM225.08916,208.29582c2.76524,-0.40723 5.29074,-0.77998 8.04777,-1.18557c0,-0.76767 -0.00903,-1.57885 0.00328,-2.39167c0.00985,-0.63794 -0.23235,-0.83499 -0.89328,-0.7299c-1.11086,0.17652 -2.23814,0.25288 -3.36131,0.35222c-1.23976,0.11002 -2.48116,0.19951 -3.79646,0.30378c0,1.17818 0,2.36047 0,3.65114zM225.57603,209.90094c-0.13301,0.09113 -0.23317,0.20854 -0.28572,0.36043c-0.18637,0.53942 0.03284,2.72419 0.56405,3.07231c0.62152,0.40477 2.32845,-0.2849 2.9549,-0.47866c1.41875,-0.43925 2.88101,-0.61167 4.32274,-0.97539c0.71923,-0.18145 0.76274,-0.06568 0.68803,-0.89164c-0.05911,-0.65929 -0.43761,-1.25454 -0.44746,-1.92204c0.00082,0.05501 -5.04279,0.43022 -5.41225,0.46553c-0.69295,0.06732 -1.82844,-0.01149 -2.38428,0.36947zM234.51052,200.63065c-2.12566,-0.29393 -4.48859,-0.0509 -6.6397,-0.02709c-0.53367,0.00657 -1.35471,0.09278 -1.77179,0.48687c-0.42612,0.40395 -0.48195,1.10593 -0.69788,1.62565c1.7915,0.02956 3.46476,0.00246 5.27678,-0.15107c0.78819,-0.0665 1.63632,0.04762 2.40234,-0.19376c0.3317,-0.10427 0.73565,-0.26273 0.98442,-0.51971c0.09113,-0.0936 0.68556,-1.19214 0.48195,-1.21677c-0.01232,-0.00082 -0.02463,-0.00246 -0.03613,-0.00411z" fill="#2a3d98" fill-rule="nonzero"></path></g><g fill="#2a3d98" fill-rule="evenodd"><path d="M252.31628,181.09497c-1.19871,1.94585 -3.06081,3.0214 -5.32112,3.13799c-2.00989,0.10345 -3.56329,-1.00659 -4.7152,-2.63059c-0.43925,-0.6207 -1.80627,-2.22336 -1.37359,-2.9237c1.11743,-1.80792 2.85884,2.03042 3.26936,2.48773c1.1905,1.32597 2.90153,1.3038 4.32274,0.3473c1.18393,-0.79558 2.0649,-1.80545 2.34487,-3.37609c-0.37193,-0.02299 -0.72826,-0.02956 -1.08212,-0.06979c-0.67325,-0.07882 -1.15602,-0.50411 -1.05174,-1.14124c0.05911,-0.35879 0.58458,-0.82185 0.9721,-0.90971c1.0772,-0.23974 2.19052,-0.36043 3.29481,-0.4097c0.30789,-0.01396 0.84074,0.3358 0.90314,0.60428c0.0936,0.40066 0.00575,1.0304 -0.26519,1.28738c-0.53778,0.50986 -0.44007,0.89985 -0.12151,1.42531c1.59116,2.61992 5.43442,2.45571 6.95334,-0.37193c0.45239,-0.84074 0.62727,-1.85554 0.80215,-2.81368c0.12316,-0.66996 0.21839,-1.10593 1.06242,-1.00741c0.8859,0.10345 1.29395,0.72415 1.22991,1.39412c-0.37357,3.88349 -3.20614,7.69719 -7.99523,6.37286c-1.09526,-0.30214 -2.10841,-0.90642 -3.22913,-1.40315z"></path><path d="M255.55526,171.60957c0.51233,-0.46306 1.5222,-0.13219 1.83994,0.55009c0.4294,0.92284 -0.15764,2.18149 -1.26193,1.96227c-0.80379,-0.1601 -0.97046,-1.27424 -0.86126,-1.94749c0.04023,-0.2537 0.14286,-0.43925 0.28326,-0.56487z"></path><path d="M245.66344,172.65393c0.11084,-0.6207 0.34483,-1.23812 1.16669,-1.26111c0.62316,-0.01724 1.47868,1.07145 1.30544,1.81941c-0.0821,0.35469 -0.63794,0.78409 -1.02711,0.84074c-0.71266,0.10263 -1.45898,-0.69213 -1.44502,-1.39904z"></path></g></g></g></svg>