<svg version="1.1" xmlns="http://www.w3.org/2000/svg" xmlns:xlink="http://www.w3.org/1999/xlink" width="88.97548" height="108.34493" viewBox="0,0,88.97548,108.34493"><g transform="translate(-195.51226,-125.82754)"><g data-paper-data="{&quot;isPaintingLayer&quot;:true}" fill-rule="nonzero" stroke="none" stroke-width="1" stroke-linecap="butt" stroke-linejoin="miter" stroke-miterlimit="10" stroke-dasharray="" stroke-dashoffset="0" style="mix-blend-mode: normal"><path d="M218.04669,224.96494c-0.65227,2.87104 -1.55749,6.06783 -4.36097,7.47295c-2.86503,1.43214 -6.67882,1.33606 -9.83132,1.58751c-1.53047,0.11784 -3.03241,0.04654 -4.57789,0.08031c-1.10638,0.02177 -2.80273,0.28222 -3.76425,-0.40007c1.05984,-0.45261 2.23453,-0.48939 3.27336,-1.04783c0.92323,-0.54568 1.78942,-1.18219 2.58656,-1.90051c1.21146,-1.02381 2.50324,-2.3261 3.09096,-3.82955c1.47417,-3.78601 0.08332,-10.15183 0.59973,-14.08346c0.29649,-0.10884 11.47889,-6.39134 15.72201,-6.05582c0.55619,1.23999 -2.32085,16.36828 -2.73818,18.17647z" fill="#828c00"></path><path d="M243.89577,200.81597h11.43535c-2.66687,13.58731 -4.96971,28.8372 -5.22266,31.68046c0.85268,0.29498 1.66257,0.03753 2.4477,0.10283c0.02777,0.28147 0.04954,0.50515 0.07731,0.79638c-1.11914,-0.0653 -5.90345,0.13361 -7.0376,-0.17039c0,-0.96452 -1.7001,-32.40929 -1.7001,-32.40929z" fill="#828c00"></path><path d="M205.10039,209.08305c0.09608,-7.02634 -0.24995,-16.69179 5.25418,-22.01577c1.01105,-0.97653 2.40191,-1.54998 3.48052,-2.35988c1.64381,-1.23999 3.58485,-2.14521 5.25418,-3.37619c0.54043,-0.39406 1.61003,-1.30229 1.61003,-1.30229l2.04012,-1.08837l-0.08407,-1.90126c0,0 1.40061,-3.83555 1.6288,-5.09731c1.5027,-8.23856 -0.08031,-16.74433 1.45616,-24.99865c0.16663,-0.90522 0.3708,-1.88475 0.58096,-2.80573l22.75061,-2.88079l23.40588,1.54998c2.72242,2.03412 -0.33101,4.81884 -2.57755,5.89144c-1.3233,0.63576 -2.54978,1.24074 -3.67793,2.21126c-0.24469,0.21092 -2.29007,1.78267 -2.96711,3.79502c-1.02907,3.07295 -0.75435,7.18472 -0.82566,9.17831c-0.13286,3.75524 0.07731,7.54726 0.21993,11.29949c0.28072,7.42641 0.58396,14.5736 -0.53518,21.95347c-0.50966,3.37619 -1.05984,6.58274 -3.12098,9.38847c-2.16397,2.94309 -4.73252,5.37052 -8.23105,6.63603c-6.46565,2.33511 -36.7485,1.59352 -38.88695,1.37359c-2.22552,-0.22968 -4.55538,0.14261 -6.75613,-0.13661c-0.32126,-1.64306 -0.04353,-3.63364 -0.01876,-5.31423z" fill="#a0aa1e"></path><path d="M236.78236,199.96629c0,0 -7.93006,28.15791 -7.93006,32.9242c0.42634,0.07431 2.66087,-0.23269 2.98513,0.22968c-0.27172,0.94575 -5.7766,0.33777 -6.89199,0.15462c-0.34302,-1.02607 -1.76165,-32.45883 -1.76165,-32.45883z" fill="#a0aa1e"></path><path d="M271.15972,160.61472c0.45486,0.12685 0.04954,4.84361 0,6.66681c-0.05554,2.04913 -0.10508,4.10877 -0.22518,6.1519c-0.12685,2.16097 -0.98328,4.44354 -2.97687,5.77059c-0.58096,0.38731 -3.56909,1.76691 -6.11587,1.97182c-3.66292,0.29799 -6.284,-0.83091 -7.27254,-0.89321l-0.24394,-0.42484c0.06981,-1.0088 0.08106,-2.02136 0.03378,-3.03241c0.79113,-0.14261 3.95265,1.29928 6.92576,1.05459c2.92433,-0.23869 5.66551,-2.16172 6.10461,-2.91457c0.75435,-1.29328 0.97352,-2.75694 1.03808,-4.23262c0.07131,-1.64981 0,-3.30863 0.02777,-4.96145c0.01876,-1.22197 -0.42334,-5.4666 0.04654,-5.4666c0.46987,0 0.15462,2.01235 0.65827,2.04613c0.50365,0.03453 0.38055,-2.11143 0.66128,-2.11143c0.28147,0 0.0623,2.20826 0.5044,2.20826c0.43835,0 0.3798,-1.95981 0.83391,-1.83296z" fill="#a0aa1e"></path><path d="M237.76789,160.30473c0.45486,0.12685 0.04954,4.84361 0,6.66681c-0.05554,2.04913 -0.10508,4.10802 -0.22518,6.1519c-0.12685,2.16097 -1.27376,4.80908 -3.26735,6.13914c-0.5712,0.38806 -3.27861,1.39836 -5.82539,1.60328c-3.65316,0.29799 -7.72665,-0.84667 -7.72665,-0.84667l1.95606,-2.98888c1.69185,0.50891 3.46401,0.69205 5.22341,0.53968c2.92358,-0.23869 5.66551,-2.16172 6.10386,-2.91457c0.75435,-1.29328 0.97352,-2.75694 1.03883,-4.23262c0.07056,-1.64981 0,-3.30863 0.02777,-4.96145c0.01876,-1.22197 -0.42334,-5.4666 0.04654,-5.4666c0.46912,0 0.15387,2.01235 0.65827,2.04613c0.50365,0.03453 0.3798,-2.11143 0.66128,-2.11143c0.28147,0 0.06155,2.20751 0.50365,2.20751c0.4391,0 0.3708,-1.95906 0.82491,-1.83221z" fill="#828c00"></path><g><path d="M264.00127,142.27087c-0.05629,1.85097 -0.23494,3.56909 -1.29253,5.1566l-0.83391,0.39331c-2.27206,-0.47138 -2.27806,-3.92863 -1.91928,-5.67377c1.39386,0.09908 2.67963,-0.0683 4.04572,0.12385z" fill="#ffffff"></path><path d="M265.29004,141.4895h2.62709c1.41488,7.11266 -4.62368,6.69458 -2.62709,0z" fill="#ffffff"></path><path d="M256.01116,140.47244h2.62709c1.41563,7.11266 -4.62368,6.69758 -2.62709,0z" fill="#dcd2b4"></path><path d="M252.1696,140.0446h2.63009c1.41262,7.11266 -4.62668,6.69458 -2.63009,0z" fill="#ffffff"></path><path d="M248.39635,139.40284h2.63009c1.39986,7.11266 -4.63644,6.69383 -2.63009,0z" fill="#ffffff"></path><path d="M269.1286,140.90028h2.63009c1.41262,7.11266 -4.62668,6.69758 -2.63009,0z" fill="#faf0e6"></path><path d="M245.85858,126.06623c1.97482,-0.09608 3.9564,-0.05254 5.93422,-0.11784c4.43828,-0.14862 8.8638,0.03678 13.30509,-0.12085c2.19174,0.41508 4.45705,0.21392 6.67581,0.67854c1.90727,0.39556 3.72747,1.1304 5.37503,2.17073c3.1405,1.96882 5.01324,6.05882 5.20764,9.69021c0.09007,1.6956 -0.33026,3.65841 -1.89751,4.58915c-1.73688,1.02907 -4.32719,0.61999 -6.24047,0.67254c-4.94494,0.10583 -9.88987,0.17039 -14.83481,0.10283l-33.02704,0.41208c0.63576,-2.94459 1.5755,-5.81488 2.80273,-8.56432c1.49219,-3.3349 4.16056,-5.99953 7.49171,-7.47895c2.63084,-1.21897 8.42245,-1.99359 9.20758,-2.03412z" fill="#828c00"></path><path d="M277.18251,139.29701c1.16568,0 2.65486,0.86544 1.89151,2.28857c-0.67028,1.25575 -2.22852,0.54869 -2.66987,-0.49614c0.11109,-0.65227 0.3783,-1.26701 0.77837,-1.79243z" fill="#645a1e"></path><path d="M272.85907,141.76872c-1.33531,0.87745 -2.40792,-0.94575 -1.76465,-2.09041l0.8189,-0.61999c1.34132,-0.02177 2.21276,1.8885 0.94575,2.71041z" fill="#645a1e"></path><path d="M283.71121,135.53051c-0.02552,-0.32126 0.1291,-0.62975 0.40082,-0.80089c0.61474,0.13661 0.34002,1.15367 0.12085,1.52897c-0.29574,-0.1261 -0.4969,-0.40682 -0.52167,-0.72808z" fill="#000000"></path><path d="M252.64248,135.40216c0.99229,0.41883 0.09908,2.37864 -0.82791,1.13866c0.03678,-0.63275 0.29348,-0.97728 0.82791,-1.13866z" fill="#000000"></path></g></g></g></svg>