<svg version="1.1" xmlns="http://www.w3.org/2000/svg" xmlns:xlink="http://www.w3.org/1999/xlink" width="112.28004" height="105.0102" viewBox="0,0,112.28004,105.0102"><g transform="translate(-183.85998,-127.4949)"><g data-paper-data="{&quot;isPaintingLayer&quot;:true}" fill-rule="evenodd" stroke="none" stroke-width="1" stroke-linecap="butt" stroke-linejoin="miter" stroke-miterlimit="10" stroke-dasharray="" stroke-dashoffset="0" style="mix-blend-mode: normal"><path d="M264.89017,205.11124c0,0 -3.94028,23.41573 -5.11606,26.35747c-0.87179,0.07743 -6.64171,0.23286 -7.50203,-0.02868c0.49899,-5.24224 3.20901,-25.40308 3.20901,-25.40308z" fill="#008264"></path><path d="M236.04349,205.23168c0,0 -2.11353,23.28955 -3.29217,26.23416c-0.87179,0.07743 -6.3664,0.4227 -7.22673,0.16403c0.49612,-5.24224 2.00742,-25.59293 2.00742,-25.59293z" fill="#008264"></path><path d="M185.23273,178.32819c3.2721,-0.66417 7.06613,-0.52881 9.07356,2.56491c1.96728,3.02834 1.84396,7.6632 1.6805,11.11424c-0.17207,3.57723 -0.52193,7.08792 -0.98077,10.63935c-0.1778,1.36619 -0.93775,8.98351 0,14.19076c0.72267,3.9942 2.93657,6.03891 4.2414,6.03891c3.0054,0 6.03947,-1.74245 6.99157,-4.06876c0.95209,-2.32632 1.1471,-4.74784 1.27041,-7.21468c0.11471,-2.37564 0.28677,-4.72777 0.38141,-7.09997c0.09464,-2.3722 0.84599,-10.80338 1.16717,-13.16411c0.0717,2.27986 5.43438,8.91411 8.8384,11.60864c-0.68539,5.92362 -0.79723,24.41027 -6.91987,27.68581c-5.07879,2.71747 -14.09211,2.6108 -18.53426,-1.10122c-4.53964,-3.79289 -5.34835,-9.81458 -5.03003,-15.74107c0.40607,-7.07129 1.2274,-14.11219 2.46053,-21.08655c0.45884,-2.66299 1.04099,-6.54764 -0.36994,-8.99784c-0.889,-1.54399 -2.2942,-2.14221 -3.90587,-2.54484c-0.78863,-0.19558 -1.59733,-0.20132 -1.72065,-1.06681c-0.13765,-0.79035 0.61943,-1.60708 1.35645,-1.75679z" fill="#005a5a"></path><g><path d="M290.56512,194.82233c0.06022,0.14683 0.35273,1.52105 0.38141,1.59332c-0.67392,4.2414 -5.4774,3.96208 -8.847,3.34437c-4.28155,-0.78232 -6.84244,-3.76994 -8.50287,-7.62648z" fill="#00a08c"></path><path d="M290.16363,194.28778c-0.05162,0.35331 0.67105,2.1164 -1.04959,3.0163c-1.54572,0.81043 -3.35814,0.93775 -5.00136,0.35101c-1.6719,-0.60968 -3.0226,-2.19727 -3.68505,-3.90243z" fill="#000000"></path><path d="M287.27007,195.03798c0,0 -0.28677,1.19355 -0.57355,1.54743c-0.42041,0.47375 -1.12932,0.5529 -1.64322,0.18354c-0.73988,-0.52021 -0.6223,-1.68222 -0.6223,-1.68222z" fill="#ffffff"></path></g><path d="M214.91105,179.30896c4.66582,-4.78225 10.65655,-7.88229 17.44451,-7.91383c1.63461,0 3.27784,0.34241 4.89525,0.5552c2.16802,0.28735 4.37905,0.3275 6.5614,0.48867c3.90014,0.28735 6.30904,-0.57527 7.18658,-4.63829c0.65672,-3.00196 0.26097,-6.51609 -0.02007,-9.56107c-0.30972,-3.39885 -0.9693,-6.18803 -1.03813,-9.60466c-0.06882,-3.41606 -0.09464,-6.79198 0.86032,-10.14495c1.01518,-3.5887 3.88293,-7.10513 7.05466,-8.92271c6.08249,-3.48832 13.52143,-2.38081 18.92713,1.88353c5.22504,4.10317 8.48566,11.16013 9.37467,17.65042c0.49268,3.58124 0.7003,7.1969 0.61943,10.81198c-0.0803,3.16312 -1.01518,6.41228 -1.72065,9.47217c-0.86032,3.71202 -1.39372,7.50776 0.19788,11.10794c0.71693,1.6306 2.09919,3.49693 3.66498,4.4083c1.45681,0.84828 3.2893,0.73931 4.35898,2.22595c1.91279,2.65668 0.62804,7.18887 -2.3917,8.38185c-1.35645,0.53225 -3.07996,0.65328 -4.51384,0.54373c-1.00372,-0.0803 -4.51957,-0.36822 -7.6913,-1.80611c-2.22251,-1.00887 -3.21762,-1.03755 -5.08452,-2.12787c-2.22824,-5.2996 -1.89845,-12.36458 -1.12416,-17.9521c0.87466,-6.29758 1.80095,-12.6525 1.69197,-19.03038c-0.05448,-3.14019 -0.48179,-6.74896 -1.75506,-9.65055c-1.09261,-2.48977 -4.03779,-5.0524 -6.73921,-3.1224c-2.23111,1.59274 -3.22621,4.92564 -3.71087,7.47622c-0.67966,3.56002 -0.65384,7.14872 -0.26097,10.74029c0.84599,7.72973 4.14677,34.47205 4.18691,36.65498c0.0889,4.52588 -0.68826,11.15382 -3.46711,14.32842c-2.77885,3.17517 -5.87028,3.28988 -7.56799,3.87088c-1.99022,0.68138 -21.38766,1.07827 -24.78882,0.67851c-0.0803,-0.06882 -12.34566,0.71579 -16.67022,-5.01512c-4.32457,-5.7309 -4.90959,-12.42538 -4.90672,-14.77751c0.00861,-6.27693 1.9644,-12.42538 6.42662,-17.01148z" fill="#00a08c"></path><path d="M250.33634,205.23455c0,0 -2.11353,23.28955 -3.2893,26.23129c-0.87179,0.07743 -6.3664,0.4227 -7.22673,0.16403c0.49612,-5.24224 2.00742,-25.59293 2.00742,-25.59293z" fill="#00a08c"></path><path d="M223.02965,205.23455c0,0 -2.11067,23.28955 -3.2893,26.23129c-0.87179,0.07743 -6.3664,0.4227 -7.22673,0.16403c0.49612,-5.24224 2.00742,-25.59293 2.00742,-25.59293z" fill="#00a08c"></path><g><path d="M284.973,192.36697c0.40148,-1.56177 1.56006,-0.82247 1.4052,0.31029c-0.14912,1.13276 -1.82676,1.33981 -1.4052,-0.31029z" fill="#005a5a"></path><path d="M290.8691,192.21153c0.40148,-1.56177 1.56006,-0.82247 1.4052,0.31029c-0.15486,1.15054 -1.82676,1.34899 -1.4052,-0.31029z" fill="#005a5a"></path><path d="M295.49764,187.8778l0.32693,-0.06882c0.38026,0.61829 0.41926,1.38799 0.10324,2.04183l-0.45024,0.10037c-0.51046,-0.48867 -0.49612,-1.64207 0.02007,-2.07338z" fill="#000000"></path><path d="M275.94247,187.77455l0.32979,-0.0694c0.37912,0.61886 0.41697,1.38914 0.10037,2.04183l-0.45024,0.10094c-0.51046,-0.48923 -0.49325,-1.6392 0.02007,-2.07338z" fill="#000000"></path></g></g></g></svg>