<svg version="1.1" xmlns="http://www.w3.org/2000/svg" xmlns:xlink="http://www.w3.org/1999/xlink" width="109.42369" height="117.4955" viewBox="0,0,109.42369,117.4955"><g transform="translate(-185.28816,-121.25225)"><g data-paper-data="{&quot;isPaintingLayer&quot;:true}" fill-rule="nonzero" stroke="none" stroke-width="1" stroke-linecap="butt" stroke-linejoin="miter" stroke-miterlimit="10" stroke-dasharray="" stroke-dashoffset="0" style="mix-blend-mode: normal"><g><path d="M244.99359,146.62057c-1.73071,0.57782 -7.54611,0.31109 -7.72356,0.17745c0,-1.46617 -0.31054,-3.02162 3.37379,-3.24343c3.68433,-0.22236 4.03923,1.7329 4.34977,3.06598z" fill="#82783c"></path><path d="M243.48469,145.28749c0.3549,0.04436 0.62163,0.31109 0.62163,0.62218c0,0.44418 -0.35545,0.48854 -0.62163,0.48854c-0.71036,-0.04436 -0.71036,-0.66654 -0.57727,-0.84399c0.13309,-0.178 0.35545,-0.26673 0.57727,-0.26673c0,0 0.04436,0 0,0z" fill="#645a1e"></path><path d="M238.60147,145.37622c0.35545,0.04436 0.62163,0.31109 0.62163,0.62218c0,0.44418 -0.3549,0.48909 -0.62163,0.48909c-0.70981,-0.04491 -0.70981,-0.66654 -0.57672,-0.84454c0.13309,-0.17745 0.3549,-0.26673 0.57672,-0.26673c0,0 0.04491,0 0,0z" fill="#645a1e"></path><path d="M259.82017,152.53072v1.15508c-0.93217,0 -3.86233,0.08873 -5.68231,0.04436v-1.15508c1.59817,-0.04436 4.08414,-0.08927 5.68231,-0.04436z" fill="#fab414"></path><path d="M261.01852,155.55179c-0.88781,0.22236 -1.73126,0.356 -2.61907,0.44473l-1.33144,-5.95451c0.84345,-0.39982 2.52979,-0.39982 2.52979,-0.39982z" fill="#ffc800"></path><path d="M227.77085,152.57509v1.15508c-1.81998,0.04436 -4.74959,-0.04436 -5.68231,-0.04436v-1.15508c1.5538,-0.04491 4.03978,0 5.68231,0.04436z" fill="#fab414"></path><path d="M222.3109,149.64219c0,0 1.68689,0 2.52979,0.39982l-1.33144,5.95451c-0.88781,-0.08873 -1.73126,-0.22236 -2.61907,-0.44473z" fill="#ffc800"></path><path d="M257.82219,162.43957l-33.46949,0.13309c0.44363,-3.95434 1.19835,-11.50866 2.35289,-13.9081c1.3758,-2.84362 4.17232,-2.17708 6.96884,-2.22199c2.97397,-0.04436 16.51293,-0.57727 20.6858,0.57782c1.10962,1.06636 3.0627,11.81975 3.46196,15.41919z" fill="#a0aa1e"></path><path d="M233.00843,152.48581c-1.06526,-1.68854 0.57727,-4.30979 4.35032,-4.57652c2.75215,-0.22236 5.50431,-0.178 8.2121,0.13309c2.0418,0.35545 5.06068,2.75489 2.97397,4.97688c-0.88781,0.93327 -4.21668,1.06636 -7.85665,1.02199c-3.37379,-0.04436 -6.61393,0.13309 -7.67974,-1.55545z" fill="#000000"></path><path d="M249.655,149.81964c-0.04491,-0.26618 0.08873,-0.5329 0.3549,-0.57727c0.93217,-0.53345 1.81998,-1.11127 2.84088,-1.7329l0.39927,0.17745c-0.04436,0.13364 -0.04436,0.26673 -0.04436,0.31109l-2.17489,1.33308c0.13309,0.04436 0.22182,0.08873 0.3549,0.13309c0.44418,0.04491 0.88781,0.04491 1.37635,0.04491c0.31054,0 0.62163,0.08873 0.71036,0.39982c-0.04436,0.26673 -0.22236,0.35545 -0.39982,0.35545c-0.17745,0 -0.3549,-0.04436 -0.48799,-0.04436c-0.79908,-0.08927 -1.5538,-0.178 -2.35289,-0.26673c-0.22182,0 -0.39927,-0.04436 -0.57672,-0.13364z" fill="#000000"></path><path d="M227.81521,149.24238l-0.04436,-0.44473c0.08873,-0.04436 0.17745,-0.08873 0.22182,-0.08873c0.31054,0.04436 0.62163,0.08873 0.93217,0.08873c0.17745,0 0.3549,0 0.62163,0c-0.39982,-0.44418 -0.88781,-0.5329 -1.24326,-0.97708l0.31109,-0.44473c1.06526,0.48909 1.86435,1.37745 3.01833,1.7329c0.04436,0.13364 0.04436,0.26673 0.08873,0.44473l-0.57727,0.22182c-1.06526,-0.39982 -2.17489,-0.31109 -3.32887,-0.5329z" fill="#000000"></path></g><g><path d="M291.95822,124.53597c-1.15454,1.15563 -0.31109,4.13289 -0.178,5.59906c0.178,2.04399 0.39982,4.08798 0.62163,6.13197c0.39982,3.68816 0.79908,15.46355 -0.13309,19.06298l-18.86582,-18.44081c-0.31054,-3.51016 -0.57672,-11.28685 2.17543,-13.9081c1.10962,-1.06636 3.63996,-2.48871 5.10449,-1.24436c1.95307,1.68854 -0.66545,2.71053 -2.17489,2.79926c-0.17745,1.28872 0.26618,2.39944 0.26618,3.59944c1.37635,0.04436 2.84088,-0.26673 4.2616,-0.26673c0.97654,-0.66654 -0.39982,-3.90998 0.44363,-5.10997c1.02145,-1.42181 5.06068,-1.77726 5.01632,-0.44418c-0.04436,1.33308 -0.48854,1.42181 -1.15399,1.51054l-1.81998,0.178c-0.62163,0.44418 -0.04436,2.79926 0,3.4658c0.39927,0.62218 3.10706,0.44418 3.77305,0.08873c-0.17745,-1.42181 0.13309,-3.51016 1.15399,-4.75452c0.88781,-1.06636 4.0836,-1.37745 4.21723,-0.22236c0.13309,1.15563 -0.04436,0.8889 -0.26673,1.24436c-0.79908,0.48909 -1.59762,0.53345 -2.44107,0.7109z" fill="#d2e614"></path><path d="M281.12705,132.00102c1.15399,1.99963 -1.59817,2.75544 -2.97397,2.97726c-0.44418,0.57782 -0.71036,2.93289 -0.22236,3.55507c0.93217,0.5329 2.30852,0.13309 3.32942,0.22236c1.24271,0.13309 2.44161,0.48854 3.55124,1.02199c2.30798,1.06636 4.35032,2.48817 5.6374,4.75452c2.35289,4.13234 2.5747,10.61976 1.95307,15.24119c-3.19579,0.39982 -6.43648,-0.08873 -9.63227,0c-2.5747,0.04436 -5.50431,0.53345 -8.03465,0.13309c-0.31054,-3.06598 -0.17745,-6.13197 -0.5329,-9.19795c-0.31054,-2.93289 -0.93217,-5.77651 -1.10962,-8.75377c-0.13309,-2.26635 -0.66599,-6.39869 0.88781,-8.26468c1.46508,-1.64417 5.28249,-3.19962 7.14684,-1.68908z" fill="#a0aa1e"></path><path d="M274.29075,155.32998h19.04327c0.17745,4.75452 -1.81998,13.9081 -5.19322,19.24044c-2.39725,3.82125 -9.7659,9.64267 -14.3824,9.10922c-0.26618,-1.11072 -1.0209,-18.70753 -1.0209,-18.70753c0.62108,-1.64363 1.10962,-3.33216 1.46453,-5.06561c0.178,-1.5549 0.22236,-3.06598 0.08873,-4.62088z" fill="#824600"></path></g><g><path d="M185.60072,123.9587c-0.22236,-0.35545 -0.39982,-0.08927 -0.26673,-1.24436c0.13364,-1.15563 3.32942,-0.84454 4.21723,0.22236c1.0209,1.24381 1.33144,3.33216 1.15399,4.75452c0.62163,0.35545 3.37379,0.5329 3.72869,-0.08927c0.04436,-0.66654 0.62163,-3.02162 0,-3.4658l-1.81998,-0.17745c-0.66545,-0.08927 -1.10962,-0.178 -1.15399,-1.51108c-0.04436,-1.33308 3.99487,-0.97763 5.01632,0.44418c0.84345,1.19999 -0.5329,4.44398 0.48799,5.11052c1.42071,0 2.88524,0.31109 4.2616,0.26618c0,-1.19945 0.44363,-2.31017 0.26618,-3.59889c-1.50944,-0.08927 -4.12796,-1.11127 -2.17489,-2.7998c1.46453,-1.24381 3.99487,0.178 5.10449,1.19999c2.75215,2.6218 2.48598,10.39794 2.17543,13.9081l-18.86582,18.39644c-0.93217,-3.59944 -0.5329,-15.37482 -0.13309,-19.01862c0.22182,-2.04399 0.44363,-4.08798 0.62163,-6.13197c0.13309,-1.46617 0.97654,-4.44343 -0.178,-5.59851c-0.88781,-0.178 -1.68635,-0.178 -2.44107,-0.66654z" fill="#d2e614"></path><path d="M205.97543,133.77883c1.5538,1.86599 1.0209,5.99888 0.88781,8.26468c-0.17745,2.93289 -0.79908,5.82142 -1.10962,8.75377c-0.35545,3.06598 -0.22236,6.13251 -0.5329,9.1985c-2.53034,0.39982 -5.45995,-0.08927 -8.03465,-0.13364c-3.19579,-0.08873 -6.43648,0.39982 -9.63227,0c-0.62163,-4.62088 -0.39982,-11.10885 1.95307,-15.24119c1.28708,-2.26635 3.28506,-3.68816 5.6374,-4.75452c1.10962,-0.53345 2.30852,-0.8889 3.55124,-1.02199c1.06526,-0.08873 2.44161,0.31109 3.37379,-0.22236c0.48799,-0.66654 0.22182,-2.97726 -0.22236,-3.55452c-1.3758,-0.22236 -4.12796,-0.97763 -2.97397,-2.97726c1.81998,-1.46672 5.68176,0.08873 7.10248,1.68854z" fill="#a0aa1e"></path><path d="M207.4405,163.10612c0,0 2.57415,20.26243 2.30798,21.37315c-4.6165,0.53345 -15.53639,-6.04269 -17.93309,-9.82013c-3.41815,-5.3767 -5.41558,-14.66337 -5.19377,-19.37353h19.08763c-0.13309,1.5549 -0.13309,3.15471 0.04436,4.71016c0.13309,1.24381 0.75472,2.31071 1.68689,3.11035z" fill="#824600"></path></g><g><path d="M259.82017,223.84905l13.58277,2.0889c0,0.22182 -2.0418,12.21957 -2.0418,12.21957l5.37122,0.08873c0,0 -0.04436,0.35545 -0.08873,0.48909c-1.77562,0.04436 -17.22329,-0.04436 -17.22329,-0.04436c0,0 0.31109,-14.57519 0.39982,-14.84192z" fill="#a0aa1e"></path><path d="M256.18021,232.203c-0.84345,-7.37632 -0.75472,-27.72748 -0.75472,-28.92747l21.39561,9.24286c0.17745,1.24436 -0.88781,12.39757 -1.10962,14.79701c-0.13309,1.5549 -0.04436,3.24343 -0.13309,4.84324z" fill="#005a5a"></path><path d="M254.40459,228.82593h22.86068v7.33196h-22.86068z" fill="#006482"></path></g><g><path d="M226.35013,238.69097c0,0 -15.44767,0.08873 -17.22329,0.04436c-0.04436,-0.13364 -0.08873,-0.48909 -0.08873,-0.48909l5.37122,-0.08873c0,0 -2.0418,-11.99775 -2.0418,-12.21957l13.58332,-2.0889c0.04436,0.26673 0.39927,14.84192 0.39927,14.84192z" fill="#a0aa1e"></path><path d="M211.56846,231.4921c-1.15399,-4.57652 -2.08616,-18.08535 -2.08616,-18.08535l19.39817,-5.59851l0.04436,23.6395z" fill="#005a5a"></path><path d="M208.90503,229.71483h21.7067v7.33196h-21.7067z" fill="#006482"></path></g><g><path d="M207.48487,174.79278c-0.22236,-3.99925 -0.04436,-11.77539 -0.04436,-11.77539c0,0 4.03923,-1.99963 7.27938,-3.19962c3.2407,-1.19945 7.81283,-1.86599 7.81283,-1.86599c0,0 33.46949,-0.26673 37.9529,-0.08927c4.03978,0.178 10.7868,1.86654 13.05096,4.3547c0.13309,0.75582 1.28708,9.15413 1.33144,9.33158c0.5329,2.75489 1.06526,12.39757 1.06526,12.39757l-34.49039,13.55265l-33.20386,-12.97483c0,0 -0.44363,-4.04361 -0.75417,-9.7314z" fill="#a0640a"></path><path d="M245.83703,187.94561l-4.21668,25.01695l-32.18241,0.39982l-1.24326,-28.8382c0,0 11.00862,-14.61956 13.4946,-15.55282c0.04436,0.13364 1.99743,0 1.99743,0c0,0 8.96682,-0.08873 17.93364,-0.08873z" fill="#008264"></path><path d="M241.66471,168.88263c8.12337,0 16.51293,0.04436 19.35381,0.22236c2.88524,1.59981 14.91476,14.84137 14.91476,14.84137l0.88781,28.57202l-35.20074,0.44418z" fill="#00a08c"></path><path d="M262.39432,156.92979c0.75472,4.57652 0.62163,19.95134 0.62163,19.95134l-4.2616,-0.04436l-0.44363,-19.90698z" fill="#005a5a"></path><path d="M261.06288,173.4597c0.66599,0.04436 1.19835,0.62218 1.15399,1.28872c0,0.93272 -0.71036,1.11072 -1.28708,1.06636c-1.46508,-0.04436 -1.50944,-1.37745 -1.19835,-1.77781c0.31054,-0.39982 0.75417,-0.62163 1.24271,-0.62163c0,0 0.04436,0 0.08873,0.04436z" fill="#ffc800"></path><path d="M223.95343,156.92979l-0.44418,19.90698l-4.21723,0.04436c0,0 -0.13309,-15.37482 0.62163,-19.95134z" fill="#005a5a"></path><path d="M221.29,173.41533c0.48799,0 0.93217,0.22182 1.24271,0.62163c0.31054,0.40036 0.26618,1.73345 -1.19835,1.77781c-0.57727,0.04436 -1.28763,-0.13364 -1.28763,-1.06636c-0.04436,-0.66654 0.48854,-1.24436 1.15454,-1.28872c0,-0.04436 0.04436,-0.04436 0.08873,-0.04436z" fill="#ffc800"></path><path d="M248.989,179.72475c0.04436,0.62218 0.04436,1.24436 0.04436,1.86654c0.04436,2.71053 -0.66599,6.17633 -3.32942,7.68741c-2.30798,1.33308 -7.23557,1.15508 -9.41045,-0.44473c-1.81998,-1.95471 -3.0627,-6.0876 -2.35289,-9.10922z" fill="#005a5a"></path><path d="M232.87534,176.88113h17.04583v4.79888h-17.04583z" fill="#006482"></path><path d="M241.66471,178.21421c0.71036,0.04436 1.24271,0.66654 1.19835,1.37745c0,0.97763 -0.66599,1.15508 -1.28708,1.11072c-1.50944,-0.08873 -1.59817,-1.42181 -1.24326,-1.86599c0.31109,-0.39982 0.79908,-0.66654 1.28763,-0.62218z" fill="#fab414"></path></g></g></g></svg>