<svg version="1.1" xmlns="http://www.w3.org/2000/svg" xmlns:xlink="http://www.w3.org/1999/xlink" width="285.28528" height="70.57057" viewBox="0,0,285.28528,70.57057"><g transform="translate(-65.07508,44.47448)"><g data-paper-data="{&quot;isPaintingLayer&quot;:true}" fill-rule="nonzero" stroke="none" stroke-width="0" stroke-linecap="butt" stroke-linejoin="miter" stroke-miterlimit="10" stroke-dasharray="" stroke-dashoffset="0" style="mix-blend-mode: normal"><path d="M109.75831,0.57057c0,14.09736 -10.00268,25.52553 -22.34162,25.52553c-12.33894,0 -22.34162,-11.42817 -22.34162,-25.52553c0,-14.09736 10.00268,-25.52553 22.34162,-25.52553c12.33894,0 22.34162,11.42817 22.34162,25.52553z" fill="#d8def9"/><path d="M97.72821,-1.68168c0,8.70719 7.30965,15.76577 16.32657,15.76577c9.01691,0 16.32657,-7.05857 16.32657,-15.76577c0,-8.70719 -7.30965,-15.76577 -16.32657,-15.76577c-9.01691,0 -16.32657,7.05857 -16.32657,15.76577z" fill="#d8def9"/><path d="M160.4566,-4.68468c0,12.85347 -9.23325,23.27327 -20.62303,23.27327c-11.38979,0 -20.62303,-10.4198 -20.62303,-23.27327c0,-12.85347 9.23325,-23.27327 20.62303,-23.27327c11.38979,0 20.62303,10.4198 20.62303,23.27327z" fill="#d8def9"/><path d="M153.58226,-3.18318c0,12.02422 8.27145,21.77177 18.4748,21.77177c10.20335,0 18.4748,-9.74755 18.4748,-21.77177c0,-12.02422 -8.27145,-21.77177 -18.4748,-21.77177c-10.20335,0 -18.4748,9.74755 -18.4748,21.77177z" fill="#d8def9"/><path d="M181.07963,-7.68769c0,13.68273 8.84853,24.77477 19.76374,24.77477c10.91521,0 19.76374,-11.09204 19.76374,-24.77477c0,-13.68273 -8.84853,-24.77477 -19.76374,-24.77477c-10.91521,0 -19.76374,11.09204 -19.76374,24.77477z" fill="#d8def9"/><path d="M208.57701,-6.93694c0,10.78033 8.07909,19.51952 18.04515,19.51952c9.96606,0 18.04515,-8.73919 18.04515,-19.51952c0,-10.78033 -8.07909,-19.51952 -18.04515,-19.51952c-9.96606,0 -18.04515,8.73919 -18.04515,19.51952z" fill="#d8def9"/><path d="M312.55147,2.07207c0,13.2681 8.27145,24.02402 18.4748,24.02402c10.20335,0 18.4748,-10.75592 18.4748,-24.02402c0,-13.2681 -8.27145,-24.02402 -18.4748,-24.02402c-10.20335,0 -18.4748,10.75592 -18.4748,24.02402z" fill="#d8def9"/><path d="M323.72228,2.07207c0,12.43885 -7.88673,22.52252 -17.61551,22.52252c-9.72878,0 -17.61551,-10.08368 -17.61551,-22.52252c0,-12.43885 7.88673,-22.52252 17.61551,-22.52252c9.72878,0 17.61551,10.08368 17.61551,22.52252z" fill="#d8def9"/><path d="M280.75762,-6.18619c0,14.51199 -10.00268,26.27628 -22.34162,26.27628c-12.33894,0 -22.34162,-11.76429 -22.34162,-26.27628c0,-14.51199 10.00268,-26.27628 22.34162,-26.27628c12.33894,0 22.34162,11.76429 22.34162,26.27628z" fill="#d8def9"/><path d="M267.00894,-3.93393c0,11.60959 7.50201,21.02102 16.75621,21.02102c9.2542,0 16.75621,-9.41143 16.75621,-21.02102c0,-11.60959 -7.50201,-21.02102 -16.75621,-21.02102c-9.2542,0 -16.75621,9.41143 -16.75621,21.02102z" fill="#d8def9"/><path d="M110.61761,-11.44144c0,14.09736 -10.00268,25.52552 -22.34162,25.52552c-12.33893,0 -22.34162,-11.42816 -22.34162,-25.52552c0,-14.09736 10.00268,-25.52552 22.34162,-25.52552c12.33893,0 22.34162,11.42816 22.34162,25.52552z" fill="#cfd4ee"/><path d="M98.5875,-13.6937c0,8.70719 7.30965,15.76577 16.32657,15.76577c9.01691,0 16.32657,-7.05858 16.32657,-15.76577c0,-8.70719 -7.30965,-15.76576 -16.32657,-15.76576c-9.01691,0 -16.32657,7.05858 -16.32657,15.76576z" fill="#cfd4ee"/><path d="M161.31589,-16.6967c0,12.85347 -9.23324,23.27327 -20.62303,23.27327c-11.38979,0 -20.62303,-10.4198 -20.62303,-23.27327c0,-12.85348 9.23324,-23.27328 20.62303,-23.27328c11.38979,0 20.62303,10.4198 20.62303,23.27328z" fill="#cfd4ee"/><path d="M154.44155,-15.1952c0,12.02422 8.27145,21.77177 18.4748,21.77177c10.20335,0 18.4748,-9.74755 18.4748,-21.77177c0,-12.02422 -8.27145,-21.77177 -18.4748,-21.77177c-10.20335,0 -18.4748,9.74755 -18.4748,21.77177z" fill="#cfd4ee"/><path d="M181.93893,-19.6997c0,13.68273 8.84853,24.77477 19.76374,24.77477c10.91521,0 19.76374,-11.09204 19.76374,-24.77477c0,-13.68273 -8.84853,-24.77478 -19.76374,-24.77478c-10.91521,0 -19.76374,11.09205 -19.76374,24.77478z" fill="#cfd4ee"/><path d="M209.4363,-18.94895c0,10.78034 8.07909,19.51952 18.04515,19.51952c9.96606,0 18.04516,-8.73918 18.04516,-19.51952c0,-10.78033 -8.07909,-19.51951 -18.04516,-19.51951c-9.96606,0 -18.04515,8.73918 -18.04515,19.51951z" fill="#cfd4ee"/><path d="M313.41076,-9.93994c0,13.2681 8.27145,24.02402 18.4748,24.02402c10.20335,0 18.4748,-10.75592 18.4748,-24.02402c0,-13.2681 -8.27145,-24.02402 -18.4748,-24.02402c-10.20335,0 -18.4748,10.75592 -18.4748,24.02402z" fill="#cfd4ee"/><path d="M324.58157,-9.93994c0,12.43885 -7.88673,22.52253 -17.61551,22.52253c-9.72878,0 -17.61551,-10.08368 -17.61551,-22.52253c0,-12.43884 7.88673,-22.52252 17.61551,-22.52252c9.72878,0 17.61551,10.08367 17.61551,22.52252z" fill="#cfd4ee"/><path d="M281.61692,-18.1982c0,14.51199 -10.00268,26.27628 -22.34162,26.27628c-12.33893,0 -22.34162,-11.76429 -22.34162,-26.27628c0,-14.51198 10.00268,-26.27628 22.34162,-26.27628c12.33893,0 22.34162,11.7643 22.34162,26.27628z" fill="#cfd4ee"/><path d="M267.86823,-15.94595c0,11.60959 7.50201,21.02102 16.75621,21.02102c9.2542,0 16.75621,-9.41143 16.75621,-21.02102c0,-11.60959 -7.50201,-21.02102 -16.75621,-21.02102c-9.2542,0 -16.75621,9.41143 -16.75621,21.02102z" fill="#cfd4ee"/></g></g></svg>