<svg version="1.1" xmlns="http://www.w3.org/2000/svg" xmlns:xlink="http://www.w3.org/1999/xlink" width="116.62218" height="107.51318" viewBox="0,0,116.62218,107.51318"><g transform="translate(-181.68891,-126.24341)"><g data-paper-data="{&quot;isPaintingLayer&quot;:true}" fill-rule="nonzero" stroke="none" stroke-width="1" stroke-linecap="butt" stroke-linejoin="miter" stroke-miterlimit="10" stroke-dasharray="" stroke-dashoffset="0" style="mix-blend-mode: normal"><g><path d="M204.59293,213.78397c0,2.20061 0.96928,5.93628 -0.56073,7.83c-3.16294,-1.63799 -4.18337,-4.40122 -5.50942,-7.52249l-0.51021,0.1023c-0.81584,2.04654 0.86698,5.27073 0.66302,7.47134c-4.02993,-0.30689 -3.97878,-4.60581 -6.07015,-6.90871l-0.3574,0.15344c0.51021,2.04717 2.092,4.29892 2.14252,6.39724c-2.09137,2.25113 -5.76452,-11.51452 -5.96848,-12.33352c-1.2749,-5.27073 -2.70325,-10.64438 -3.41742,-16.01741c-1.12272,-8.29033 -1.37783,-19.54849 -0.76532,-28.9647l18.26222,-1.12588l2.60158,30.90957c0.76532,3.73567 -0.51021,16.222 -0.51021,20.00881z" fill="#a0aa1e"></path><path d="M202.80782,171.30936c0,0 -18.87473,1.99602 -21.11891,-0.66555c0.76469,-16.73411 20.14963,-24.00085 20.14963,-24.00085z" fill="#824600"></path></g><g><path d="M297.69103,207.84769c-0.51021,3.68452 -1.12209,9.77424 -4.18274,12.28237l-0.56136,-0.05115c-0.61251,-0.97244 0.15281,-3.94089 0,-5.16906c-1.93856,-1.12588 -1.9897,6.65298 -4.69295,5.93628c-0.51021,-1.6885 -0.20459,-5.52647 -1.42834,-6.75464c-1.93856,0.15344 -2.70388,4.96384 -4.23452,6.34546l-0.76469,-0.05115c-1.7346,-1.43276 -3.3669,-14.5335 -3.3669,-16.63181l-1.83689,-34.64524c2.24481,-1.27932 15.71178,-5.83398 18.2117,-6.39661c1.12209,1.22817 1.53064,8.08511 1.7346,9.56965c0.35677,2.4052 0.76469,4.75925 0.96928,7.16445c0.35677,4.60518 0.61188,9.26214 0.71417,13.86795c0.10166,4.9127 0.15281,9.6208 -0.56136,14.5335z" fill="#a0aa1e"></path><path d="M298.25239,169.82545c-1.02043,1.12588 -9.02913,0.61377 -17.65034,0.81836l-7.60079,-8.85295l4.79461,-16.1197c3.52034,1.27932 19.38494,11.46275 20.45651,24.1543z" fill="#824600"></path></g><g><path d="M262.03358,216.59898l15.60949,2.4052c0,0.25574 -2.34648,14.07254 -2.34648,14.07254l6.17244,0.1023c0,0 -0.05115,0.40981 -0.1023,0.56326c-2.04022,0.05115 -19.79286,-0.05115 -19.79286,-0.05115c0,0 0.3574,-16.78525 0.4597,-17.09214z" fill="#a0aa1e"></path><path d="M257.85021,226.21978c-0.96928,-8.49492 -0.86698,-31.93315 -0.86698,-33.31477l24.5881,10.64438c0.20396,1.43276 -1.02043,14.27776 -1.27553,17.04099c-0.15281,1.7908 -0.05115,3.73567 -0.15281,5.57825z" fill="#005a5a"></path><path d="M255.80999,222.33004h26.27092v8.44377h-26.27092z" fill="#006482"></path></g><g><path d="M223.56995,233.69112c0,0 -17.75264,0.1023 -19.79286,0.05115c-0.05115,-0.15344 -0.1023,-0.56326 -0.1023,-0.56326l6.17244,-0.1023c0,0 -2.34648,-13.8168 -2.34648,-14.07254l15.61012,-2.4052c0.05115,0.30689 0.45907,17.09214 0.45907,17.09214z" fill="#a0aa1e"></path><path d="M206.58264,225.40079c-1.32605,-5.27073 -2.39762,-20.82781 -2.39762,-20.82781l22.29278,-6.44839l0.05052,27.22505z" fill="#005a5a"></path><path d="M203.52199,223.35362h24.94487v8.44377h-24.94487z" fill="#006482"></path></g><g><path d="M262.03358,133.43993v1.33047c-1.07157,0 -4.43847,0.10293 -6.52984,0.05115v-1.33047c1.83626,-0.05115 4.69295,-0.1023 6.52984,-0.05115z" fill="#fab414"></path><path d="M263.41078,136.91987c-1.02043,0.25574 -1.9897,0.40981 -3.01013,0.51211l-1.53001,-6.85757c0.96928,-0.46033 2.90784,-0.46033 2.90784,-0.46033z" fill="#ffc800"></path><path d="M225.20226,133.49108v1.33047c-2.09137,0.05178 -5.45827,-0.05115 -6.52984,-0.05115v-1.33047c1.78575,-0.05115 4.64243,0 6.52984,0.05115z" fill="#fab414"></path><path d="M218.92752,130.11408c0,0 1.93856,0 2.90784,0.46033l-1.53001,6.85757c-1.02043,-0.1023 -1.9897,-0.25637 -3.01013,-0.51211z" fill="#ffc800"></path><path d="M259.73762,144.85216l-38.46299,0.15344c0.50958,-4.55466 1.3772,-13.25417 2.70325,-16.01741c1.58179,-3.27534 4.79525,-2.5075 8.00934,-2.55927c3.41742,-0.05115 18.97639,-0.66492 23.77164,0.66555c1.27553,1.22817 3.51971,13.61221 3.97878,17.75769z" fill="#a0aa1e"></path><path d="M258.30928,135.69169c0,0 0.05115,0 0.05115,0.05115z" fill="#a0aa1e"></path><path d="M244.99511,134.66811c-1.9897,0.66555 -8.67236,0.35866 -8.87632,0.20522c0,-1.68913 -0.35677,-3.47993 3.87711,-3.7363c4.23388,-0.25574 4.64243,1.99602 4.9992,3.53108z" fill="#82783c"></path><path d="M239.02663,136.61298c0,0 1.88741,-0.1023 2.80554,-0.05115c0.1023,0.25574 0.15344,0.56262 0.1023,0.81899c-0.05115,0.05115 -0.05115,0.15344 -0.1023,0.15344c-0.35677,0 -2.65273,0.20459 -2.80554,-0.15344c0,-0.20522 0,-0.51211 0,-0.76785z" fill="#000000"></path><path d="M254.27935,133.90089c0,0.76721 -0.40792,0.86951 -0.71417,0.86951c-0.81584,-0.05115 -0.86698,-1.12588 -0.66302,-1.43276c0.10166,-0.25574 0.35677,-0.46033 0.66302,-0.46033c0.30625,0 0.71417,0.25574 0.71417,1.02358z" fill="#000000"></path><path d="M229.58958,133.90089c0,0.76721 -0.40855,0.86951 -0.71417,0.86951c-0.81647,-0.05115 -0.86761,-1.12588 -0.66366,-1.43276c0.1023,-0.25574 0.3574,-0.46033 0.66366,-0.46033c0.30562,0 0.71417,0.25574 0.71417,1.02358z" fill="#000000"></path><path d="M243.26052,133.1842c0.40855,0 0.71417,0.30689 0.71417,0.7167c0,0.51148 -0.40792,0.56262 -0.71417,0.56262c-0.81584,-0.05115 -0.81584,-0.76721 -0.66302,-0.97244c0.15281,-0.20459 0.40792,-0.30689 0.66302,-0.30689c0.05115,0 0.05115,0 0,0z" fill="#645a1e"></path></g><g><path d="M201.88969,160.10236c-0.25511,-4.60581 -0.05115,-13.56169 -0.05115,-13.56169c0,0 4.64243,-2.3029 8.36611,-3.68452c3.72367,-1.38162 8.97798,-2.14946 8.97798,-2.14946c0,0 38.46363,-0.30689 43.61564,-0.1023c4.64243,0.20459 12.39603,2.14946 14.99761,5.01499c0.15344,0.87014 1.47949,10.54209 1.53064,10.74668c0.61188,3.17305 1.22439,14.27776 1.22439,14.27776l-39.63686,15.60823l-38.15737,-14.94268c0,0 -0.51021,-4.65696 -0.86698,-11.20701z" fill="#a0640a"></path><path d="M245.96439,175.24962l-4.84639,28.81125l-36.98413,0.46096l-1.42834,-33.21247c0,0 12.65114,-16.8364 15.50783,-17.91113c0.05115,0.15344 2.29596,0 2.29596,0c0,0 10.30466,-0.1023 20.60869,-0.1023z" fill="#008264"></path><path d="M241.16915,153.29594c9.33538,0 18.97639,0.05115 22.24163,0.25574c3.31575,1.84258 17.14013,17.09214 17.14013,17.09214l1.02043,32.90559l-40.45333,0.51148z" fill="#00a08c"></path><path d="M264.99193,139.52966c0.86761,5.27136 0.71417,22.9779 0.71417,22.9779l-4.89691,-0.05178l-0.51021,-22.92612z" fill="#005a5a"></path><path d="M263.46192,158.56667c0.76469,0.05115 1.3772,0.7167 1.32605,1.48391c0,1.07473 -0.81647,1.27995 -1.47949,1.22881c-1.68345,-0.05178 -1.7346,-1.58684 -1.3772,-2.04717c0.35677,-0.46096 0.86698,-0.7167 1.42834,-0.7167c0,0 0.05115,0 0.1023,0.05115z" fill="#ffc800"></path><path d="M220.81493,139.52966l-0.50958,22.92612l-4.84639,0.05178c0,0 -0.15281,-17.70654 0.71417,-22.9779z" fill="#005a5a"></path><path d="M217.75428,158.51552c0.56136,0 1.07157,0.25574 1.42834,0.7167c0.3574,0.46033 0.30625,1.99539 -1.3772,2.04717c-0.66302,0.05115 -1.47949,-0.15407 -1.47949,-1.22881c-0.05115,-0.76721 0.56136,-1.43276 1.32668,-1.48391c0,-0.05115 0.05115,-0.05115 0.10166,-0.05115z" fill="#ffc800"></path><path d="M249.5864,165.78227c0.05115,0.7167 0.05115,1.43276 0.05115,2.14946c0.05052,3.1219 -0.76532,7.1133 -3.82597,8.85295c-2.65273,1.53569 -8.31559,1.3311 -10.81488,-0.51148c-2.09137,-2.25176 -3.51971,-7.01101 -2.70388,-10.49094z" fill="#005a5a"></path><path d="M231.06844,162.50756h19.5889v5.52647h-19.5889z" fill="#006482"></path><path d="M241.16915,164.04262c0.81647,0.05115 1.42834,0.76721 1.3772,1.58621c0,1.12588 -0.76469,1.33047 -1.47886,1.27932c-1.7346,-0.1023 -1.83689,-1.63735 -1.42898,-2.14946c0.3574,-0.46033 0.91876,-0.76721 1.47949,-0.71607z" fill="#fab414"></path></g></g></g></svg>