<svg version="1.1" xmlns="http://www.w3.org/2000/svg" xmlns:xlink="http://www.w3.org/1999/xlink" width="113.33004" height="104.47818" viewBox="0,0,113.33004,104.47818"><g transform="translate(-178.84146,-150.48985)"><g data-paper-data="{&quot;isPaintingLayer&quot;:true}" fill-rule="nonzero" stroke="none" stroke-width="1" stroke-linecap="butt" stroke-linejoin="miter" stroke-miterlimit="10" stroke-dasharray="" stroke-dashoffset="0" style="mix-blend-mode: normal"><g><path d="M201.09892,235.55922c0,2.13849 0.94192,5.7687 -0.5449,7.60897c-3.07366,-1.59175 -4.06527,-4.27698 -5.35389,-7.31013l-0.49581,0.09941c-0.7928,1.98876 0.84251,5.12194 0.64431,7.26043c-3.91616,-0.29822 -3.86646,-4.4758 -5.8988,-6.71368l-0.34731,0.14911c0.49581,1.98938 2.03295,4.17757 2.08204,6.21665c-2.03233,2.18758 -5.60179,-11.18948 -5.79999,-11.98535c-1.23891,-5.12194 -2.62694,-10.3439 -3.32095,-15.56525c-1.09103,-8.0563 -1.33894,-18.99665 -0.74371,-28.14705l17.74669,-1.09409l2.52814,30.03702c0.74371,3.63021 -0.49581,15.76407 -0.49581,19.44399z" fill="#a0aa1e"></path><path d="M199.3642,194.28364c0,0 -18.34191,1.93967 -20.52274,-0.64676c0.7431,-16.26171 19.58082,-23.32333 19.58082,-23.32333z" fill="#824600"></path></g><g><path d="M291.56894,229.79052c-0.49581,3.58051 -1.09042,9.49833 -4.06466,11.93565l-0.54551,-0.0497c-0.59522,-0.94499 0.1485,-3.82965 0,-5.02314c-1.88383,-1.09409 -1.93354,6.46517 -4.56047,5.7687c-0.49581,-1.64084 -0.19882,-5.37046 -1.38803,-6.56397c-1.88383,0.14911 -2.62755,4.82372 -4.11498,6.16634l-0.7431,-0.0497c-1.68563,-1.39232 -3.27186,-14.12323 -3.27186,-16.16231l-1.78504,-33.66723c2.18144,-1.24321 15.26826,-5.66929 17.6976,-6.21604c1.09042,1.19351 1.48743,7.85688 1.68563,9.29951c0.3467,2.3373 0.7431,4.6249 0.94192,6.96221c0.3467,4.47518 0.5946,9.00067 0.69401,13.47647c0.09879,4.77401 0.1485,9.34921 -0.54551,14.12323z" fill="#a0aa1e"></path><path d="M292.11446,192.84161c-0.99162,1.09409 -8.77425,0.59645 -17.15209,0.79526l-7.38622,-8.60304l4.65926,-15.66466c3.42096,1.24321 18.83772,11.13917 19.87904,23.47244z" fill="#824600"></path></g><g><path d="M256.91807,238.29478l15.16884,2.3373c0,0.24852 -2.28024,13.67528 -2.28024,13.67528l5.9982,0.09941c0,0 -0.0497,0.39824 -0.09941,0.54736c-1.98262,0.0497 -19.23412,-0.0497 -19.23412,-0.0497c0,0 0.34731,-16.31142 0.44672,-16.60964z" fill="#a0aa1e"></path><path d="M252.85279,247.64399c-0.94192,-8.25512 -0.84251,-31.03171 -0.84251,-32.37432l23.894,10.3439c0.1982,1.39232 -0.99162,13.87471 -1.23952,16.55994c-0.1485,1.74024 -0.0497,3.63021 -0.1485,5.42077z" fill="#005a5a"></path><path d="M250.87016,243.86404h25.52932v8.20542h-25.52932z" fill="#006482"></path></g><g><path d="M219.54024,254.90442c0,0 -17.25149,0.09941 -19.23412,0.0497c-0.0497,-0.14911 -0.09941,-0.54736 -0.09941,-0.54736l5.9982,-0.09941c0,0 -2.28024,-13.42676 -2.28024,-13.67528l15.16946,-2.3373c0.0497,0.29822 0.44611,16.60964 0.44611,16.60964z" fill="#a0aa1e"></path><path d="M203.03246,246.84811c-1.28861,-5.12194 -2.32994,-20.23986 -2.32994,-20.23986l21.66347,-6.26635l0.04909,26.45651z" fill="#005a5a"></path><path d="M200.05821,244.85873h24.2407v8.20542h-24.2407z" fill="#006482"></path></g><g><path d="M256.91807,157.48323v1.29291c-1.04132,0 -4.31318,0.10002 -6.34552,0.0497v-1.29291c1.78442,-0.0497 4.56047,-0.09941 6.34552,-0.0497z" fill="#fab414"></path><path d="M258.25639,160.86492c-0.99162,0.24852 -1.93354,0.39824 -2.92515,0.49765l-1.48682,-6.66398c0.94192,-0.44733 2.82575,-0.44733 2.82575,-0.44733z" fill="#ffc800"></path><path d="M221.12646,157.53293v1.29291c-2.03233,0.05031 -5.30419,-0.0497 -6.34552,-0.0497v-1.29291c1.73533,-0.0497 4.51138,0 6.34552,0.0497z" fill="#fab414"></path><path d="M215.02885,154.25126c0,0 1.88383,0 2.82575,0.44733l-1.48682,6.66398c-0.99162,-0.09941 -1.93354,-0.24913 -2.92515,-0.49765z" fill="#ffc800"></path><path d="M254.68692,168.5733l-37.37721,0.14911c0.4952,-4.42608 1.33832,-12.88002 2.62694,-15.56525c1.53713,-3.18288 4.65988,-2.43671 7.78324,-2.48703c3.32095,-0.0497 18.4407,-0.64615 23.10059,0.64676c1.23952,1.19351 3.42035,13.22795 3.86646,17.2564z" fill="#a0aa1e"></path><path d="M253.2989,159.67142c0,0 0.0497,0 0.0497,0.0497z" fill="#a0aa1e"></path><path d="M240.36058,158.67674c-1.93354,0.64676 -8.42754,0.34854 -8.62575,0.19943c0,-1.64145 -0.3467,-3.38169 3.76767,-3.63083c4.11436,-0.24852 4.51138,1.93967 4.85808,3.4314z" fill="#82783c"></path><path d="M234.56059,160.56671c0,0 1.83413,-0.09941 2.72634,-0.0497c0.09941,0.24852 0.14911,0.54674 0.09941,0.79587c-0.0497,0.0497 -0.0497,0.14911 -0.09941,0.14911c-0.3467,0 -2.57785,0.19882 -2.72634,-0.14911c0,-0.19943 0,-0.49765 0,-0.74617z" fill="#000000"></path><path d="M249.38274,157.93118c0,0.74556 -0.39641,0.84496 -0.69401,0.84496c-0.7928,-0.0497 -0.84251,-1.09409 -0.64431,-1.39232c0.09879,-0.24852 0.3467,-0.44733 0.64431,-0.44733c0.29761,0 0.69401,0.24852 0.69401,0.99469z" fill="#000000"></path><path d="M225.38994,157.93118c0,0.74556 -0.39702,0.84496 -0.69401,0.84496c-0.79342,-0.0497 -0.84313,-1.09409 -0.64492,-1.39232c0.09941,-0.24852 0.34731,-0.44733 0.64492,-0.44733c0.29699,0 0.69401,0.24852 0.69401,0.99469z" fill="#000000"></path><path d="M238.67495,157.23472c0.39702,0 0.69401,0.29822 0.69401,0.69646c0,0.49703 -0.39641,0.54674 -0.69401,0.54674c-0.7928,-0.0497 -0.7928,-0.74556 -0.64431,-0.94499c0.1485,-0.19882 0.39641,-0.29822 0.64431,-0.29822c0.0497,0 0.0497,0 0,0z" fill="#645a1e"></path></g><g><path d="M198.47199,183.393c-0.2479,-4.4758 -0.0497,-13.17886 -0.0497,-13.17886c0,0 4.51138,-2.2379 8.12994,-3.58051c3.61855,-1.34261 8.72454,-2.08878 8.72454,-2.08878c0,0 37.37783,-0.29822 42.38441,-0.09941c4.51138,0.19882 12.0461,2.08878 14.57424,4.87342c0.14911,0.84558 1.43773,10.24449 1.48743,10.44331c0.5946,3.08347 1.18982,13.87471 1.18982,13.87471l-38.51795,15.16762l-37.08022,-14.52086c0,0 -0.49581,-4.5255 -0.84251,-10.89064z" fill="#a0640a"></path><path d="M241.3025,198.11267l-4.70959,27.99794l-35.9401,0.44794l-1.38803,-32.27492c0,0 12.294,-16.36112 15.07005,-17.40552c0.0497,0.14911 2.23114,0 2.23114,0c0,0 10.01377,-0.09941 20.02693,-0.09941z" fill="#008264"></path><path d="M236.64262,176.77872c9.07185,0 18.4407,0.0497 21.61376,0.24852c3.22215,1.79057 16.65628,16.60964 16.65628,16.60964l0.99162,31.97669l-39.31137,0.49703z" fill="#00a08c"></path><path d="M259.79291,163.40104c0.84313,5.12256 0.69401,22.32926 0.69401,22.32926l-4.75867,-0.05031l-0.49581,-22.27893z" fill="#005a5a"></path><path d="M258.30609,181.90066c0.7431,0.0497 1.33832,0.69646 1.28861,1.44202c0,1.04439 -0.79342,1.24382 -1.43773,1.19412c-1.63593,-0.05031 -1.68563,-1.54204 -1.33832,-1.98938c0.3467,-0.44794 0.84251,-0.69646 1.38803,-0.69646c0,0 0.0497,0 0.09941,0.0497z" fill="#ffc800"></path><path d="M216.86299,163.40104l-0.4952,22.27893l-4.70959,0.05031c0,0 -0.1485,-17.2067 0.69401,-22.32926z" fill="#005a5a"></path><path d="M213.88874,181.85095c0.54551,0 1.04132,0.24852 1.38803,0.69646c0.34731,0.44733 0.29761,1.93906 -1.33832,1.98938c-0.64431,0.0497 -1.43773,-0.14973 -1.43773,-1.19412c-0.0497,-0.74556 0.54551,-1.39232 1.28923,-1.44202c0,-0.0497 0.0497,-0.0497 0.09879,-0.0497z" fill="#ffc800"></path><path d="M244.82226,188.91256c0.0497,0.69646 0.0497,1.39232 0.0497,2.08878c0.04909,3.03377 -0.74371,6.9125 -3.71797,8.60304c-2.57785,1.49234 -8.08085,1.29352 -10.50958,-0.49703c-2.03233,-2.18819 -3.42035,-6.8131 -2.62755,-10.19479z" fill="#005a5a"></path><path d="M226.82705,185.7303h19.03592v5.37046h-19.03592z" fill="#006482"></path><path d="M236.64262,187.22202c0.79342,0.0497 1.38803,0.74556 1.33832,1.54143c0,1.09409 -0.7431,1.29291 -1.43711,1.24321c-1.68563,-0.09941 -1.78504,-1.59114 -1.38864,-2.08878c0.34731,-0.44733 0.89283,-0.74556 1.43773,-0.69585z" fill="#fab414"></path></g></g></g></svg>