<svg version="1.1" xmlns="http://www.w3.org/2000/svg" xmlns:xlink="http://www.w3.org/1999/xlink" width="148.50001" height="124.60827" viewBox="0,0,148.50001,124.60827"><g transform="translate(-165.75,-136.25)"><g data-paper-data="{&quot;isPaintingLayer&quot;:true}" fill-rule="nonzero" stroke-linecap="butt" stroke-linejoin="miter" stroke-miterlimit="10" stroke-dasharray="" stroke-dashoffset="0" style="mix-blend-mode: normal"><path d="M169.5,156.06059c0,-7.13242 8.67932,-16.06059 16.91534,-16.06059c15.32884,0 68.18577,0 99.75472,0c14.37061,0 24.32995,14.08621 24.32995,23.03217c0,13.28408 0,28.81154 0,36.36994c0,8.17039 -8.28079,19.30127 -20.60738,20.49329c-0.71247,0.0689 -11.9929,0.10459 -12.73159,0.10459c-2.88533,0 -3.63106,16.41374 -6.85513,24.40965c-1.32232,3.27945 -5.3357,3.25835 -6.70344,3.25835c-1.59389,0 -5.21633,-0.20057 -6.86201,-5.30829c-2.06473,-6.40831 -2.91118,-18.57291 -5.7053,-21.91636c-0.6598,-0.78951 -33.53052,-0.44335 -42.60562,-0.44335c-3.41027,0 -1.0202,25.3418 -3.18814,32.14856c-1.3423,4.21445 -6.64293,4.95972 -8.1452,4.95972c-0.98965,0 -6.42893,-1.10206 -7.83567,-6.53463c-1.60161,-6.18515 0.17234,-30.57366 -0.63321,-30.57366c-1.0358,0 -2.08266,-0.09258 -3.12476,-0.2709c-8.14679,-1.39404 -16.00255,-8.02788 -16.00255,-16.63003c0,0 -0.00001,-38.22287 -0.00001,-47.03845z" fill="#33aaff" stroke="#0096ff" stroke-width="7.5"/><text transform="translate(191.32735,171.40058) scale(0.71662,0.71662)" font-size="40" xml:space="preserve" fill="#fcfeff" fill-rule="nonzero" stroke="#0096ff" stroke-width="1.5" stroke-linecap="butt" stroke-linejoin="miter" stroke-miterlimit="10" stroke-dasharray="" stroke-dashoffset="0" font-family="Sans Serif" font-weight="normal" text-anchor="start" style="mix-blend-mode: normal"><tspan x="0" dy="0">How to</tspan><tspan x="0" dy="48px">   Play</tspan></text></g></g></svg>