<svg version="1.1" xmlns="http://www.w3.org/2000/svg" xmlns:xlink="http://www.w3.org/1999/xlink" width="43.28385" height="22.21832" viewBox="0,0,43.28385,22.21832"><g transform="translate(-219.20185,-173.20518)"><g data-paper-data="{&quot;isPaintingLayer&quot;:true}" fill-rule="nonzero" stroke="none" stroke-width="0" stroke-linecap="butt" stroke-linejoin="miter" stroke-miterlimit="10" stroke-dasharray="" stroke-dashoffset="0" style="mix-blend-mode: normal"><path d="M226.08335,181.37815c0,-7.68596 6.2307,-8.17296 13.91667,-8.17296c7.68596,0 13.91667,0.48699 13.91667,8.17296c0,5.41527 12.07366,9.60813 7.55789,11.90834c-0.21861,0.11136 -2.71045,1.06405 -3.70822,1.1837c-6.04657,0.72503 -24.55245,1.46007 -33.12048,0.4819c-2.26447,-0.25852 -4.50144,-1.60241 -4.9641,-2.0479c-2.62926,-2.53166 6.40158,-7.58781 6.40158,-11.52603z" fill="#0096ff"></path><path d="M249.25847,183.1117c2.40458,1.90019 6.04474,4.86507 6.04474,6.93311c0,4.58574 -30.10643,4.58572 -30.10643,-0.00001c0,0 3.35878,-4.61132 6.65686,-7.51716c2.40586,-2.11972 14.47743,-1.72929 17.40483,0.58406z" fill="#33aaff"></path></g></g></svg>