<svg version="1.1" xmlns="http://www.w3.org/2000/svg" xmlns:xlink="http://www.w3.org/1999/xlink" width="115.20776" height="111.45713" viewBox="0,0,115.20776,111.45713"><g transform="translate(-182.39612,-124.27144)"><g data-paper-data="{&quot;isPaintingLayer&quot;:true}" fill-rule="nonzero" stroke="none" stroke-width="1" stroke-linecap="butt" stroke-linejoin="miter" stroke-miterlimit="10" stroke-dasharray="" stroke-dashoffset="0" style="mix-blend-mode: normal"><path d="M234.74399,210.87477l10.43947,1.48116c0.05198,3.3037 -0.4826,7.95588 -2.36333,10.62491c-1.81246,2.61084 -4.47063,4.51641 -7.52526,5.39315c-1.57194,0.43527 -3.19818,0.26147 -4.80192,0.32199c-1.47495,0.05819 -2.68532,-0.32199 -4.10208,-0.1544c-0.08069,0.55708 -0.09699,3.51319 -1.03115,3.01351c0.30647,-2.15074 0.66027,-6.64852 0.66027,-6.64852c0,0 5.05952,-0.66959 8.11183,-3.00111c2.9305,-2.22445 2.7373,-7.78828 0.61217,-11.03069z" fill="#a0aa1e"></path><path d="M253.93462,201.84353l11.91442,0.09c-2.88162,14.08611 -5.40323,29.90863 -5.68953,32.84147c0.88528,0.32199 1.73254,0.05198 2.55031,0.12569c0.02561,0.29328 0.0481,0.52527 0.07371,0.82787c-1.16537,-0.07448 -6.15041,0.0931 -7.33207,-0.23199c0.00931,-0.98847 -1.51684,-33.65304 -1.51684,-33.65304z" fill="#828c00"></path><path d="M182.39612,193.08849c1.15296,-0.62769 3.92595,-0.10629 5.21391,-0.10629c1.91255,0.0031 3.84449,0.03879 5.77721,0.0675c1.33917,0.0225 11.00354,0.11327 15.88848,-0.98847c8.859,-1.99634 13.48945,-6.01772 14.75182,-5.99833c1.95444,0.0287 -8.71702,30.10804 -8.71702,30.10804c0,0 -9.94135,-0.727 -15.97926,-4.15639c-11.01284,-6.24972 -16.62944,-17.10661 -16.93514,-18.92605z" fill="#828c00"></path><path d="M214.93344,210.64279c0.10008,-7.2956 -0.2607,-17.33239 5.47461,-22.86054c1.05287,-1.01407 2.50221,-1.60996 3.62569,-2.45023c1.71314,-1.28796 3.73586,-2.22833 5.47461,-3.50621c0.56329,-0.40889 1.67746,-1.35236 1.67746,-1.35236l2.12592,-1.13046l-0.08689,-1.97306c0,0 1.45865,-3.98337 1.69685,-5.29384c1.56496,-8.55486 -0.0838,-17.3867 1.51684,-25.95786c0.1738,-0.94037 0.38639,-1.95755 0.60519,-2.9142l23.70392,-2.99102l24.3867,1.60996c2.83739,2.11194 -0.34449,5.00365 -2.68532,6.11782c-1.37874,0.66027 -2.65662,1.28796 -3.83208,2.29584c-0.25449,0.2188 -2.3866,1.85125 -3.09188,3.94069c-1.07226,3.1912 -0.78519,7.46009 -0.85968,9.53091c-0.1381,3.8988 0.08069,7.83639 0.22888,11.73286c0.29328,7.71148 0.60829,15.13277 -0.55708,22.79614c-0.53147,3.50621 -1.10485,6.83551 -3.25249,9.74971c-2.25393,3.05542 -4.92995,5.57625 -8.5758,6.88982c-3.80259,1.36866 -13.20237,1.88383 -23.07546,1.88694c-7.62302,0 -16.46884,-0.36078 -17.44101,-0.46009c-2.31833,-0.23898 -4.74684,0.14742 -7.03956,-0.14199c-0.33518,-1.70616 -0.045,-3.77388 -0.0194,-5.51884z" fill="#a0aa1e"></path><path d="M283.72455,160.31453c0.47328,0.1319 0.05121,5.02926 0,6.92241c-0.05819,2.12824 -0.1094,4.26579 -0.23509,6.38782c-0.1319,2.24463 -1.02416,4.61415 -3.1012,5.99212c-0.60519,0.40269 -3.71958,1.83573 -6.37308,2.04755c-3.81578,0.30957 -6.54687,-0.86278 -7.57725,-0.92718l-0.25449,-0.44069c0.07293,-1.04821 0.08535,-2.09953 0.03568,-3.1493c0.82476,-0.1482 4.11838,1.34926 7.21646,1.09477c3.0461,-0.24751 5.9029,-2.24385 6.35989,-3.0267c0.78596,-1.34228 1.01485,-2.86222 1.08236,-4.39459c0.07371,-1.71314 0,-3.4356 0.0287,-5.15185c0.0194,-1.26856 -0.44148,-5.67634 0.0481,-5.67634c0.48958,0 0.16139,2.08945 0.68588,2.12513c0.52527,0.03491 0.39648,-2.19264 0.68976,-2.19264c0.29251,0 0.0644,2.29195 0.52449,2.29195c0.45699,0 0.39648,-2.03435 0.86976,-1.90246z" fill="#a0aa1e"></path><path d="M248.94105,159.99254c0.47328,0.1319 0.05121,5.02926 0,6.92241c-0.05819,2.12824 -0.1094,4.26579 -0.23509,6.38782c-0.1319,2.24463 -1.32675,4.99435 -3.40379,6.37541c-0.59587,0.40269 -3.41697,1.45244 -6.07048,1.66427c-3.80647,0.30957 -8.05054,-0.87829 -8.05054,-0.87829l2.03824,-3.10429c1.7628,0.52838 3.6094,0.71847 5.4428,0.56019c3.0461,-0.24751 5.90213,-2.24385 6.35989,-3.0267c0.78519,-1.34228 1.01407,-2.86222 1.08158,-4.39459c0.07448,-1.71314 0,-3.4356 0.02949,-5.15185c0.01862,-1.26856 -0.44148,-5.67634 0.0481,-5.67634c0.48958,0 0.16061,2.08945 0.68588,2.12513c0.52449,0.03491 0.3957,-2.19264 0.68898,-2.19264c0.29328,0 0.0644,2.29195 0.52527,2.29195c0.45699,0 0.38639,-2.03435 0.85968,-1.90246z" fill="#828c00"></path><g><path d="M276.29084,141.26589c-0.05819,1.92263 -0.24518,3.70639 -1.34615,5.35435l-0.86976,0.40889c-2.36643,-0.48881 -2.37264,-4.07881 -1.99944,-5.89203c1.45244,0.10319 2.79161,-0.07061 4.21535,0.1288z" fill="#ffffff"></path><path d="M277.59742,140.45432h2.73653c1.47495,7.38638 -4.81745,6.95188 -2.73653,0z" fill="#ffffff"></path><path d="M267.94392,139.39834h2.7373c1.47495,7.38638 -4.81745,6.95499 -2.7373,0z" fill="#dcd2b4"></path><path d="M263.95279,138.95454h2.74041c1.47184,7.38561 -4.82054,6.95111 -2.74041,0z" fill="#ffffff"></path><path d="M260.01675,138.28806h2.74041c1.45943,7.38561 -4.82986,6.95111 -2.74041,0z" fill="#ffffff"></path><path d="M281.62501,139.84292h2.74041c1.47184,7.38638 -4.82054,6.95499 -2.74041,0z" fill="#faf0e6"></path><path d="M257.36634,124.43937c2.05763,-0.10008 4.12148,-0.05508 6.18299,-0.12259c4.62425,-0.1544 18.5063,0.09699 20.81843,0.57959c1.98703,0.41044 3.88329,1.17391 5.6003,2.25393c3.27189,2.04444 5.22323,6.29161 5.42573,10.0624c0.09388,1.76048 -0.34449,3.79871 -1.97695,4.76469c-1.81013,1.06917 -4.50864,0.64399 -6.50188,0.69907c-5.15185,0.1094 -10.30447,0.1769 -15.45709,0.10629l-34.41107,0.42829c0.6626,-3.05774 1.64176,-6.0379 2.92041,-8.89314c1.55409,-3.46353 4.33485,-6.22955 7.80613,-7.76656c2.74041,-1.26546 8.77521,-2.07005 9.59299,-2.11194z" fill="#828c00"></path><path d="M289.99055,138.17788c1.21425,0 2.76679,0.89847 1.97074,2.37652c-0.69829,1.30426 -2.32143,0.57027 -2.78153,-0.51519c0.11561,-0.67657 0.39414,-1.31589 0.81079,-1.86134z" fill="#645a1e"></path><path d="M285.5145,140.74449c-1.39115,0.91088 -2.50842,-0.98226 -1.83884,-2.17013l0.85347,-0.64399c1.39736,-0.0225 2.30592,1.96065 0.98537,2.81412z" fill="#645a1e"></path><path d="M296.79425,134.26745c-0.02638,-0.33363 0.13423,-0.65407 0.4182,-0.83174c0.64088,0.14121 0.3538,1.19718 0.12569,1.58745c-0.30802,-0.13112 -0.51751,-0.42286 -0.54389,-0.75571z" fill="#000000"></path><path d="M264.43228,134.134c1.03347,0.4345 0.10319,2.46963 -0.86278,1.18167c0.03879,-0.6564 0.3057,-1.01407 0.86278,-1.18167z" fill="#000000"></path></g></g></g></svg>