<svg version="1.1" xmlns="http://www.w3.org/2000/svg" xmlns:xlink="http://www.w3.org/1999/xlink" width="58.71268" height="67.71857" viewBox="0,0,58.71268,67.71857"><g transform="translate(-210.64366,-146.14071)"><g data-paper-data="{&quot;isPaintingLayer&quot;:true}" fill-rule="nonzero" stroke="none" stroke-width="0.60142" stroke-linejoin="miter" stroke-miterlimit="10" stroke-dasharray="" stroke-dashoffset="0" style="mix-blend-mode: normal"><path d="M251.58627,153.50366c6.154,1.51939 11.70853,6.11552 15.07506,11.34271c2.3114,3.79529 0.64253,8.81184 0.36343,13.18978c-0.29226,4.57566 -1.91875,8.97245 -2.0487,13.41944c-0.12808,3.1672 0.63565,6.18168 1.28242,9.20798c0.68542,3.21077 4.52674,6.9077 2.52671,9.49514c-2.55024,3.49938 -8.02263,3.61251 -12.38579,3.6943c-6.82132,0.12689 -13.5781,-1.69733 -20.25359,-3.10163c-4.57388,-1.18356 -9.07021,-2.68316 -13.34275,-4.65219c-3.97076,-1.82541 -8.20397,-3.51747 -11.33269,-6.54724c-1.1168,-1.09862 -1.03611,-3.52452 -0.15305,-5.01554c1.55056,-2.37765 4.87726,-3.17467 6.77682,-5.51317c2.06942,-2.54718 3.47687,-5.59742 4.86266,-8.57607c1.59277,-3.39431 2.79238,-7.2133 4.32664,-10.79676c1.8446,-4.2992 1.88919,-10.21852 5.83897,-12.80673c5.17318,-3.47542 12.39097,-4.83862 18.46386,-3.34004z" fill="#ffd351" stroke-linecap="round"></path><path d="M252.75411,146.17179c0.68635,0.1584 1.17014,0.90175 1.39751,1.97438c0.22694,1.07255 0.19696,2.47422 -0.14371,3.95046c-0.34076,1.47624 -0.92808,2.74932 -1.60211,3.61395c-0.67446,0.86446 -1.43505,1.32064 -2.1214,1.16224c-0.68635,-0.1584 -1.17005,-0.90175 -1.39751,-1.97438c-0.22686,-1.07255 -0.19696,-2.4743 0.14379,-3.95055c0.34067,-1.47624 0.92808,-2.74924 1.60203,-3.61387c0.67446,-0.86455 1.43505,-1.32064 2.1214,-1.16224z" fill="#ffd351" stroke-linecap="butt"></path><path d="M241.80549,195.7965c7.62115,1.7589 14.34684,4.13366 19.05636,6.54902c4.70943,2.41587 7.4027,4.87225 6.95909,6.79448c-0.44361,1.92215 -3.94103,2.94985 -9.23286,3.05746c-5.29166,0.1071 -12.37781,-0.7058 -19.99896,-2.46471c-7.62115,-1.7589 -14.34684,-4.13366 -19.05644,-6.54902c-4.70935,-2.41587 -7.4027,-4.87225 -6.95909,-6.79448c0.4437,-1.92223 3.94103,-2.94985 9.23286,-3.05746c5.29174,-0.1071 12.37789,0.7058 19.99904,2.46471z" fill="#eac24d" stroke-linecap="butt"></path><path d="M241.42015,197.55217c0.61815,0.14269 1.0655,0.75965 1.28871,1.64152c0.22363,0.88204 0.22321,2.02899 -0.0541,3.23047c-0.27731,1.20148 -0.77953,2.23258 -1.3671,2.92743c-0.58707,0.69485 -1.25957,1.05335 -1.87781,0.91075c-0.61815,-0.14269 -1.0655,-0.75965 -1.28871,-1.64161c-0.22372,-0.88196 -0.22321,-2.02891 0.0541,-3.23039c0.27731,-1.20156 0.77953,-2.23267 1.3671,-2.92743c0.58707,-0.69493 1.25957,-1.05344 1.87781,-0.91075z" fill="#ffd351" stroke-linecap="butt"></path><path d="M236.80499,158.99805c2.59882,-2.32227 7.08615,-2.41952 10.68201,-1.99069c1.6552,0.19909 3.47305,2.50327 2.85226,3.54159c-0.42263,1.21099 -3.21604,0.28793 -4.93901,0.95704c-2.68443,1.06015 -5.53754,2.20821 -7.54259,4.28799c-2.3413,2.43099 -2.50412,6.45254 -5.11143,8.51865c-0.84671,0.81792 -3.32552,-0.49389 -3.00548,-1.74209c1.26671,-4.93434 3.27328,-10.16909 7.06424,-13.57249z" fill="#fff1c8" stroke-linecap="round"></path></g></g></svg>