<svg version="1.1" xmlns="http://www.w3.org/2000/svg" xmlns:xlink="http://www.w3.org/1999/xlink" width="60.38366" height="11.80397" viewBox="0,0,60.38366,11.80397"><g transform="translate(-209.42418,-183.61955)"><g data-paper-data="{&quot;isPaintingLayer&quot;:true}" fill-rule="nonzero" stroke="none" stroke-width="0" stroke-linecap="butt" stroke-linejoin="miter" stroke-miterlimit="10" stroke-dasharray="" stroke-dashoffset="0" style="mix-blend-mode: normal"><path d="M254.0228,184.61067c2.37246,4.49798 19.32085,5.53524 15.11845,7.67583c-0.21861,0.11136 -10.37712,2.06405 -11.37489,2.1837c-6.04657,0.72503 -24.55245,1.46007 -33.12048,0.4819c-2.26447,-0.25852 -14.50144,-2.26908 -14.9641,-2.71457c-2.26897,-2.18475 11.09621,-4.26361 14.80169,-7.32328c0.29211,-0.2412 7.36435,-1.23373 14.60218,-1.29186c7.34125,-0.05896 14.84806,0.81939 14.93714,0.98828z" fill="#0096ff"></path><path d="M258.46988,190.71148c0,4.58574 -37.60643,4.41905 -37.60643,-0.16668c0,0 3.58029,-1.62406 9.64751,-2.76353c3.59113,-0.67444 11.31972,-0.74984 17.60275,-0.05655c5.82229,0.64245 10.35617,1.99209 10.35617,2.98675z" fill="#33aaff"></path></g></g></svg>