<svg version="1.1" xmlns="http://www.w3.org/2000/svg" xmlns:xlink="http://www.w3.org/1999/xlink" width="513.21301" height="411.41142" viewBox="0,0,513.21301,411.41142"><defs><linearGradient x1="301.23588" y1="341.20574" x2="481.23591" y2="341.20574" gradientUnits="userSpaceOnUse" id="color-1"><stop offset="0" stop-color="#606060" stop-opacity="0"></stop><stop offset="1" stop-color="#606060"></stop></linearGradient></defs><g transform="translate(16.87063,25.70569)"><g data-paper-data="{&quot;isPaintingLayer&quot;:true}" stroke-miterlimit="10" stroke-dasharray="" stroke-dashoffset="0" style="mix-blend-mode: normal"><path d="M-16.87062,385.70574v-411.41141h222.22222l69.06907,411.41141z" fill="#000000" fill-rule="nonzero" stroke="none" stroke-width="0" stroke-linecap="butt" stroke-linejoin="miter"></path><path d="M272.61867,385.70573l-67.56757,-411.41141h291.29129v411.41141z" fill="#f4f4f4" fill-rule="nonzero" stroke="none" stroke-width="0" stroke-linecap="butt" stroke-linejoin="miter"></path><g fill="#000000" fill-rule="evenodd" stroke="#000000" stroke-width="4"><g><path d="M342.66975,231.92698c1.86741,0.29024 5.86782,1.00762 3.22554,9.39453c-2.64228,8.38691 -16.07829,14.2356 -17.68831,14.75037c-6.17449,2.196 -13.82209,4.64117 -23.17555,4.52619c-27.12669,-0.19982 -35.75735,-26.49957 -29.25978,-33.2354c6.29632,-6.67148 14.9297,8.5361 29.15158,14.85841c6.24569,2.88324 12.59679,2.62721 17.74859,2.08915c7.22867,-0.98027 17.86492,-12.8104 19.99793,-12.38326z" stroke-linecap="round" stroke-linejoin="round"></path><path d="M287.54697,231.58347c4.9574,4.40428 13.64141,10.05713 13.64141,10.05713c0,0 -8.02547,0.56955 -11.15788,5.34213c-2.58479,3.71018 -0.36415,7.88035 0.48878,9.16043c-3.45279,-1.77978 -7.83107,-4.37278 -12.09573,-10.77316c-4.26466,-6.40038 -4.95469,-15.49646 -1.31572,-17.99091c3.76767,-2.09194 5.73913,0.60511 10.43915,4.20438z" stroke-linecap="butt" stroke-linejoin="miter"></path></g><path d="M359.42443,249.63991c-2.85039,3.57327 -12.4968,16.41788 -26.7871,26.53258l-0.74066,0.45864c-0.74066,0.45864 -0.82144,1.5936 -0.16154,2.26991c4.96561,3.73617 14.29309,11.40156 4.31808,18.36192c-9.5725,6.83167 -38.56939,-15.17464 -32.4976,-25.32355c2.92295,-4.04012 6.79467,-3.72525 8.86333,-3.49936c1.13496,0.08077 2.14122,-0.24096 3.08314,-0.76395c2.15765,-1.57717 6.07043,-4.60282 8.91261,-7.50798c7.23824,-7.19446 8.67165,-9.6492 11.7315,-13.95493c3.05985,-4.30572 9.93665,-14.71202 19.44209,-10.65276c8.17745,3.37473 6.4853,10.57055 3.83616,14.07948z" stroke-linecap="round" stroke-linejoin="round"></path><path d="M378.03952,197.54825c1.26365,0.48328 18.17302,11.04833 21.03984,6.13885c3.47879,-5.77063 7.48191,-16.14542 16.85045,-11.82056c9.36854,4.32486 -0.71324,19.97058 -5.58436,24.85542c-11.89169,10.67875 -26.95829,2.40825 -30.40287,-0.03963c-3.44458,-2.44788 -9.40824,-6.53043 -11.08126,-11.763c-1.60045,-5.69942 4.79171,-9.29598 9.17821,-7.37108z" stroke-linecap="round" stroke-linejoin="round"></path><g><path d="M393.23353,244.37577c5.44889,2.47252 17.21603,7.36143 17.21603,7.36143c0,0 27.17047,-14.23289 31.80343,0.25731c2.76691,8.65387 -11.07982,15.29935 -31.18045,19.7297c-1.27186,0.18483 -2.60807,0.1684 -3.87172,-0.31488c-5.65015,-2.40818 -21.93248,-9.62449 -32.4921,-14.89948c-15.60601,-7.8762 -27.91257,-12.37082 -27.91257,-12.37082c-22.44725,-11.23451 -10.81295,-22.71827 -8.46776,-34.11576c2.39311,-9.86003 5.12166,-8.95782 17.96898,-10.40358c7.16432,-1.18152 11.38242,-1.8647 15.74563,-3.48158c6.57699,-2.32469 8.45811,7.72152 8.25551,13.33195c0,0 -0.43671,8.3472 -1.83041,13.00751c-1.74007,5.65836 -3.1899,9.44931 -5.02582,12.03274z" stroke-linecap="round" stroke-linejoin="round"></path><path d="M371.56664,234.8882c0,0 -3.79095,-1.44983 -7.97619,-3.43908c-5.18329,-2.33562 -10.17355,-4.06747 -8.14324,-11.59324c2.07823,-5.9883 3.44043,-13.52228 14.36286,-10.58155c10.39122,2.66692 8.17609,8.92082 8.17609,8.92082c-1.53196,10.472 -6.41951,16.69305 -6.41951,16.69305z" stroke-linecap="butt" stroke-linejoin="miter"></path></g><path d="M335.90107,228.10182c6.22926,4.21945 15.32399,9.07551 8.53618,17.67874c-9.75047,10.43779 -26.04651,-6.53449 -30.31117,-12.93487c-3.80602,-5.65971 0.13962,-11.35778 3.47328,-16.1947c6.65912,-9.00574 12.10251,-16.95729 21.11782,-16.51237c11.22087,0.40522 6.54964,10.7718 2.67656,16.00302c-2.31098,3.17898 -4.55761,6.55921 -6.32096,8.67579c-0.28202,1.1993 -0.0972,2.47117 0.82829,3.28439z" stroke-linecap="round" stroke-linejoin="round"></path><g><path d="M355.92603,72.18832c0.47506,-0.59555 1.54567,-0.71603 2.00431,0.02464l12.11766,19.86102c0,0 15.90446,5.34069 21.8517,10.75944c9.97915,9.00981 13.076,18.00183 13.076,18.00183c0,0 15.64022,-0.3423 21.72301,10.35694c6.08279,10.69924 4.17711,35.26579 -31.27757,54.8093c-35.45468,19.54352 -69.12551,18.99597 -90.74997,0.62178c-21.62446,-18.3742 -7.8353,-52.95138 -8.52804,-50.95528l-15.74435,-34.67295c-0.45864,-0.74066 0.35458,-1.66616 1.28829,-1.52104l29.43496,8.11302c0,0 7.96248,-6.31689 17.29266,-9.74369c5.50638,-2.20421 10.46514,-3.34602 15.35134,-4.02099z" stroke-linecap="butt" stroke-linejoin="miter"></path><path d="M404.62934,121.83331c0,0 15.04467,-0.81737 21.12746,9.88187c6.08279,10.69924 3.05036,34.51691 -32.06616,53.73048c-45.48582,25.63452 -77.89579,4.054 -71.23261,-21.59001c6.59884,-25.84526 35.59844,-14.93113 52.11759,-21.54376c14.16846,-5.63922 11.72464,-18.83291 30.05371,-20.47858z" stroke-linecap="butt" stroke-linejoin="miter"></path><path d="M348.11982,163.63654c-0.25739,-0.80501 0.35458,-1.66616 1.22394,-1.72229c4.27423,0.18618 16.17142,-0.06849 28.50397,-3.12428c11.06068,-2.87096 17.30773,-5.53381 20.13348,-7.10277c0.94192,-0.52299 2.06866,0.22589 1.98789,1.36085c-0.07392,6.01294 -2.89552,23.55207 -24.41313,29.10095c-18.95746,3.84302 -24.88692,-8.45804 -27.43615,-18.51246z" stroke-linecap="round" stroke-linejoin="round"></path><path d="M442.36765,112.20731c-7.0137,10.67189 -21.43955,15.5061 -21.43955,15.5061" stroke-linecap="round" stroke-linejoin="round"></path><path d="M446.9582,135.58412c-12.35719,5.0601 -21.42863,3.74582 -21.42863,3.74582" stroke-linecap="round" stroke-linejoin="round"></path><path d="M372.09761,137.33668c4.22631,-1.35128 8.78256,-2.3644 9.43424,-1.01998c1.10211,2.75319 -0.11498,9.35347 -3.27068,10.58426c-3.49386,1.56074 -13.55513,-0.76801 -14.58468,-3.98806c-0.97341,-2.35069 4.39606,-4.2893 8.42112,-5.57623z" stroke-linecap="round" stroke-linejoin="round"></path><path d="M280.56865,163.2739c0,0 19.10944,0.10126 28.14803,4.08797" stroke-linecap="round" stroke-linejoin="round"></path><path d="M311.57257,174.21267c-7.55997,6.1882 -23.16048,8.73607 -23.16048,8.73607" stroke-linecap="round" stroke-linejoin="round"></path><g><path d="M388.31688,106.19723c8.73193,7.19032 12.21486,17.38986 7.73802,22.81411c-4.47684,5.42425 -15.08574,4.15789 -24.01892,-2.96808c-8.73193,-7.19032 -12.21486,-17.38986 -7.73802,-22.81411c4.41249,-5.62551 15.28699,-4.22224 24.01892,2.96808z" stroke-linecap="round" stroke-linejoin="round"></path><path d="M391.17963,117.92602c0.70781,2.21378 -0.32309,4.53983 -2.33562,5.18329c-2.01253,0.64347 -4.20167,-0.65303 -4.90948,-2.86681c-0.70781,-2.21378 0.32309,-4.53983 2.33562,-5.18329c2.01253,-0.64347 4.20167,0.65303 4.90948,2.86681" stroke-linecap="butt" stroke-linejoin="miter"></path></g><g><path d="M340.20791,127.79027c8.86883,6.92472 11.94105,17.92106 7.72981,23.48222c-5.41875,5.94724 -15.17472,5.96095 -24.04356,-0.96377c-9.07009,-6.86037 -13.14035,-18.20308 -8.31714,-24.62539c4.75886,-6.62356 15.76206,-4.81778 24.63089,2.10693z" stroke-linecap="round" stroke-linejoin="round"></path><path d="M342.7325,139.84901c0.70781,2.21378 -0.32309,4.53983 -2.33562,5.18329c-2.01253,0.64347 -4.20167,-0.65303 -4.90948,-2.86681c-0.70781,-2.21378 0.32309,-4.53983 2.33562,-5.18329c2.07687,-0.44221 4.20167,0.65303 4.90948,2.86681" stroke-linecap="butt" stroke-linejoin="miter"></path></g></g></g><path d="M253.98962,58.98959l12.02082,12.02082" fill="none" fill-rule="nonzero" stroke="#33aaff" stroke-width="5" stroke-linecap="round" stroke-linejoin="miter"></path><path d="M290.01045,76.01041l-12.02082,-12.02082" fill="none" fill-rule="nonzero" stroke="#33aaff" stroke-width="5" stroke-linecap="round" stroke-linejoin="miter"></path><path d="M271.98964,122.9896l12.02082,12.02082" fill="none" fill-rule="nonzero" stroke="#33aaff" stroke-width="5" stroke-linecap="round" stroke-linejoin="miter"></path><path d="M263.01043,127.51042l-12.02082,-12.02082" fill="none" fill-rule="nonzero" stroke="#33aaff" stroke-width="5" stroke-linecap="round" stroke-linejoin="miter"></path><path d="M252.51046,97.51042l-12.02082,-12.02082" fill="none" fill-rule="nonzero" stroke="#33aaff" stroke-width="5" stroke-linecap="round" stroke-linejoin="miter"></path><path d="M245.51044,135.51042l-12.02082,-12.02082" fill="none" fill-rule="nonzero" stroke="#33aaff" stroke-width="5" stroke-linecap="round" stroke-linejoin="miter"></path><path d="M254.51044,163.51042l-12.02082,-12.02082" fill="none" fill-rule="nonzero" stroke="#33aaff" stroke-width="5" stroke-linecap="round" stroke-linejoin="miter"></path><path d="M264.48964,159.82293l12.02082,12.02082" fill="none" fill-rule="nonzero" stroke="#33aaff" stroke-width="5" stroke-linecap="round" stroke-linejoin="miter"></path><path d="M331.51043,83.01041l-12.02082,-12.02082" fill="none" fill-rule="nonzero" stroke="#33aaff" stroke-width="5" stroke-linecap="round" stroke-linejoin="miter"></path><path d="M337.15627,53.65626l12.02082,12.02082" fill="none" fill-rule="nonzero" stroke="#33aaff" stroke-width="5" stroke-linecap="round" stroke-linejoin="miter"></path><path d="M308.67708,94.34375l-12.02082,-12.02082" fill="none" fill-rule="nonzero" stroke="#33aaff" stroke-width="5" stroke-linecap="round" stroke-linejoin="miter"></path><path d="M236.01046,52.51042l-12.02082,-12.02082" fill="none" fill-rule="nonzero" stroke="#33aaff" stroke-width="5" stroke-linecap="round" stroke-linejoin="miter"></path><path d="M234.98964,20.4896l12.02082,12.02082" fill="none" fill-rule="nonzero" stroke="#33aaff" stroke-width="5" stroke-linecap="round" stroke-linejoin="miter"></path><path d="M284.51043,56.51042l-12.02082,-12.02082" fill="none" fill-rule="nonzero" stroke="#33aaff" stroke-width="5" stroke-linecap="round" stroke-linejoin="miter"></path><path d="M260.48964,88.4896l12.02082,12.02082" fill="none" fill-rule="nonzero" stroke="#33aaff" stroke-width="5" stroke-linecap="round" stroke-linejoin="miter"></path><path d="M257.98964,15.9896l12.02082,12.02082" fill="none" fill-rule="nonzero" stroke="#33aaff" stroke-width="5" stroke-linecap="round" stroke-linejoin="miter"></path><path d="M286.01043,30.01042l-12.02082,-12.02082" fill="none" fill-rule="nonzero" stroke="#33aaff" stroke-width="5" stroke-linecap="round" stroke-linejoin="miter"></path><path d="M294.48964,41.4896l12.02082,12.02082" fill="none" fill-rule="nonzero" stroke="#33aaff" stroke-width="5" stroke-linecap="round" stroke-linejoin="miter"></path><path d="M311.48964,41.9896l12.02082,12.02082" fill="none" fill-rule="nonzero" stroke="#33aaff" stroke-width="5" stroke-linecap="round" stroke-linejoin="miter"></path><path d="M304.48964,12.9896l12.02082,12.02082" fill="none" fill-rule="nonzero" stroke="#33aaff" stroke-width="5" stroke-linecap="round" stroke-linejoin="miter"></path><path d="M324.98963,19.4896l12.02082,12.02082" fill="none" fill-rule="nonzero" stroke="#33aaff" stroke-width="5" stroke-linecap="round" stroke-linejoin="miter"></path><path d="M376.51047,71.51041l-12.02082,-12.02082" fill="none" fill-rule="nonzero" stroke="#33aaff" stroke-width="5" stroke-linecap="round" stroke-linejoin="miter"></path><path d="M353.48965,31.9896l12.02082,12.02082" fill="none" fill-rule="nonzero" stroke="#33aaff" stroke-width="5" stroke-linecap="round" stroke-linejoin="miter"></path><path d="M399.98965,79.48959l12.02082,12.02082" fill="none" fill-rule="nonzero" stroke="#33aaff" stroke-width="5" stroke-linecap="round" stroke-linejoin="miter"></path><path d="M408.01047,73.51041l-12.02082,-12.02082" fill="none" fill-rule="nonzero" stroke="#33aaff" stroke-width="5" stroke-linecap="round" stroke-linejoin="miter"></path><path d="M372.51046,19.5104l-12.02082,-12.02082" fill="none" fill-rule="nonzero" stroke="#33aaff" stroke-width="5" stroke-linecap="round" stroke-linejoin="miter"></path><path d="M341.01047,5.01042l-12.02082,-12.02082" fill="none" fill-rule="nonzero" stroke="#33aaff" stroke-width="5" stroke-linecap="round" stroke-linejoin="miter"></path><path d="M382.48965,14.4896l12.02082,12.02082" fill="none" fill-rule="nonzero" stroke="#33aaff" stroke-width="5" stroke-linecap="round" stroke-linejoin="miter"></path><path d="M376.98965,35.4896l12.02082,12.02082" fill="none" fill-rule="nonzero" stroke="#33aaff" stroke-width="5" stroke-linecap="round" stroke-linejoin="miter"></path><path d="M422.98965,87.4896l12.02082,12.02082" fill="none" fill-rule="nonzero" stroke="#33aaff" stroke-width="5" stroke-linecap="round" stroke-linejoin="miter"></path><path d="M416.51047,41.51042l-12.02082,-12.02082" fill="none" fill-rule="nonzero" stroke="#33aaff" stroke-width="5" stroke-linecap="round" stroke-linejoin="miter"></path><path d="M385.48965,-4.51041l12.02082,12.02082" fill="none" fill-rule="nonzero" stroke="#33aaff" stroke-width="5" stroke-linecap="round" stroke-linejoin="miter"></path><path d="M428.98965,32.9896l12.02082,12.02082" fill="none" fill-rule="nonzero" stroke="#33aaff" stroke-width="5" stroke-linecap="round" stroke-linejoin="miter"></path><path d="M421.98964,62.4896l12.02082,12.02082" fill="none" fill-rule="nonzero" stroke="#33aaff" stroke-width="5" stroke-linecap="round" stroke-linejoin="miter"></path><path d="M455.51047,75.51041l-12.02082,-12.02082" fill="none" fill-rule="nonzero" stroke="#33aaff" stroke-width="5" stroke-linecap="round" stroke-linejoin="miter"></path><path d="M436.01047,24.51042l-12.02082,-12.02082" fill="none" fill-rule="nonzero" stroke="#33aaff" stroke-width="5" stroke-linecap="round" stroke-linejoin="miter"></path><path d="M466.48964,67.98959l12.02082,12.02082" fill="none" fill-rule="nonzero" stroke="#33aaff" stroke-width="5" stroke-linecap="round" stroke-linejoin="miter"></path><path d="M446.48965,93.4896l12.02082,12.02082" fill="none" fill-rule="nonzero" stroke="#33aaff" stroke-width="5" stroke-linecap="round" stroke-linejoin="miter"></path><path d="M466.01047,127.01042l-12.02082,-12.02082" fill="none" fill-rule="nonzero" stroke="#33aaff" stroke-width="5" stroke-linecap="round" stroke-linejoin="miter"></path><path d="M477.98965,101.9896l12.02082,12.02082" fill="none" fill-rule="nonzero" stroke="#33aaff" stroke-width="5" stroke-linecap="round" stroke-linejoin="miter"></path><path d="M466.01046,42.01042l-12.02082,-12.02082" fill="none" fill-rule="nonzero" stroke="#33aaff" stroke-width="5" stroke-linecap="round" stroke-linejoin="miter"></path><path d="M479.48965,58.4896l12.02082,12.02082" fill="none" fill-rule="nonzero" stroke="#33aaff" stroke-width="5" stroke-linecap="round" stroke-linejoin="miter"></path><path d="M456.98965,8.9896l12.02082,12.02082" fill="none" fill-rule="nonzero" stroke="#33aaff" stroke-width="5" stroke-linecap="round" stroke-linejoin="miter"></path><path d="M440.51046,4.51042l-12.02082,-12.02082" fill="none" fill-rule="nonzero" stroke="#33aaff" stroke-width="5" stroke-linecap="round" stroke-linejoin="miter"></path><path d="M483.51046,9.01042l-12.02082,-12.02082" fill="none" fill-rule="nonzero" stroke="#33aaff" stroke-width="5" stroke-linecap="round" stroke-linejoin="miter"></path><path d="M272.98964,-10.5104l12.02082,12.02082" fill="none" fill-rule="nonzero" stroke="#33aaff" stroke-width="5" stroke-linecap="round" stroke-linejoin="miter"></path><path d="M222.51045,4.51042l-12.02082,-12.02082" fill="none" fill-rule="nonzero" stroke="#33aaff" stroke-width="5" stroke-linecap="round" stroke-linejoin="miter"></path><path d="M487.51047,150.51042l-12.02082,-12.02082" fill="none" fill-rule="nonzero" stroke="#33aaff" stroke-width="5" stroke-linecap="round" stroke-linejoin="miter"></path><path d="M487.51047,134.51042l-12.02082,-12.02082" fill="none" fill-rule="nonzero" stroke="#33aaff" stroke-width="5" stroke-linecap="round" stroke-linejoin="miter"></path><path d="M273.51045,198.01042l-12.02082,-12.02082" fill="none" fill-rule="nonzero" stroke="#33aaff" stroke-width="5" stroke-linecap="round" stroke-linejoin="miter"></path><path d="M250.98962,213.4896l12.02082,12.02082" fill="none" fill-rule="nonzero" stroke="#33aaff" stroke-width="5" stroke-linecap="round" stroke-linejoin="miter"></path><path d="M254.51044,193.51042l-12.02082,-12.02082" fill="none" fill-rule="nonzero" stroke="#33aaff" stroke-width="5" stroke-linecap="round" stroke-linejoin="miter"></path><path d="M291.48964,199.4896l12.02082,12.02082" fill="none" fill-rule="nonzero" stroke="#33aaff" stroke-width="5" stroke-linecap="round" stroke-linejoin="miter"></path><path d="M253.98962,237.98959l12.02082,12.02082" fill="none" fill-rule="nonzero" stroke="#33aaff" stroke-width="5" stroke-linecap="round" stroke-linejoin="miter"></path><path d="M295.37502,238.50001c0,-4.21117 3.41383,-7.625 7.625,-7.625c4.21117,0 7.625,3.41383 7.625,7.625c0,4.21117 -3.41383,7.625 -7.625,7.625c-4.21117,0 -7.625,-3.41383 -7.625,-7.625z" fill="none" fill-rule="nonzero" stroke="#33aaff" stroke-width="5" stroke-linecap="butt" stroke-linejoin="miter"></path><path d="M309.37502,207.00001c0,-4.21117 3.41383,-7.625 7.625,-7.625c4.21117,0 7.625,3.41383 7.625,7.625c0,4.21117 -3.41383,7.625 -7.625,7.625c-4.21117,0 -7.625,-3.41383 -7.625,-7.625z" fill="none" fill-rule="nonzero" stroke="#33aaff" stroke-width="5" stroke-linecap="butt" stroke-linejoin="miter"></path><path d="M277.87502,149c0,-4.21117 3.41383,-7.625 7.625,-7.625c4.21117,0 7.625,3.41383 7.625,7.625c0,4.21117 -3.41383,7.625 -7.625,7.625c-4.21117,0 -7.625,-3.41383 -7.625,-7.625z" fill="none" fill-rule="nonzero" stroke="#33aaff" stroke-width="5" stroke-linecap="butt" stroke-linejoin="miter"></path><path d="M278.87502,225.50001c0,-2.00203 1.62297,-3.625 3.625,-3.625c2.00203,0 3.625,1.62297 3.625,3.625c0,2.00203 -1.62297,3.625 -3.625,3.625c-2.00203,0 -3.625,-1.62297 -3.625,-3.625z" fill="none" fill-rule="nonzero" stroke="#33aaff" stroke-width="5" stroke-linecap="butt" stroke-linejoin="miter"></path><path d="M280.87502,182.50001c0,-3.1066 2.5184,-5.625 5.625,-5.625c3.1066,0 5.625,2.5184 5.625,5.625c0,3.1066 -2.5184,5.625 -5.625,5.625c-3.1066,0 -5.625,-2.5184 -5.625,-5.625z" fill="none" fill-rule="nonzero" stroke="#33aaff" stroke-width="5" stroke-linecap="butt" stroke-linejoin="miter"></path><path d="M273.87502,109.83335c0,-3.1066 2.5184,-5.625 5.625,-5.625c3.1066,0 5.625,2.5184 5.625,5.625c0,3.1066 -2.5184,5.625 -5.625,5.625c-3.1066,0 -5.625,-2.5184 -5.625,-5.625z" fill="none" fill-rule="nonzero" stroke="#33aaff" stroke-width="5" stroke-linecap="butt" stroke-linejoin="miter"></path><path d="M314.87502,93.00001c0,-4.6714 3.78693,-8.45833 8.45833,-8.45833c4.6714,0 8.45833,3.78693 8.45833,8.45833c0,4.6714 -3.78693,8.45834 -8.45833,8.45834c-4.6714,0 -8.45833,-3.78693 -8.45833,-8.45834z" fill="none" fill-rule="nonzero" stroke="#33aaff" stroke-width="5" stroke-linecap="butt" stroke-linejoin="miter"></path><path d="M293.54168,100.83335c0,-2.00203 1.62297,-3.625 3.625,-3.625c2.00203,0 3.625,1.62297 3.625,3.625c0,2.00203 -1.62297,3.625 -3.625,3.625c-2.00203,0 -3.625,-1.62297 -3.625,-3.625z" fill="none" fill-rule="nonzero" stroke="#33aaff" stroke-width="5" stroke-linecap="butt" stroke-linejoin="miter"></path><path d="M288.87502,124.83335c0,-3.1066 2.5184,-5.625 5.625,-5.625c3.1066,0 5.625,2.5184 5.625,5.625c0,3.1066 -2.5184,5.625 -5.625,5.625c-3.1066,0 -5.625,-2.5184 -5.625,-5.625z" fill="none" fill-rule="nonzero" stroke="#33aaff" stroke-width="5" stroke-linecap="butt" stroke-linejoin="miter"></path><path d="M341.20838,76.83334c0,-3.1066 2.5184,-5.625 5.625,-5.625c3.1066,0 5.625,2.5184 5.625,5.625c0,3.1066 -2.5184,5.625 -5.625,5.625c-3.1066,0 -5.625,-2.5184 -5.625,-5.625z" fill="none" fill-rule="nonzero" stroke="#33aaff" stroke-width="5" stroke-linecap="butt" stroke-linejoin="miter"></path><path d="M366.87502,89.50001c0,-4.21117 3.41383,-7.625 7.625,-7.625c4.21117,0 7.625,3.41383 7.625,7.625c0,4.21117 -3.41383,7.625 -7.625,7.625c-4.21117,0 -7.625,-3.41383 -7.625,-7.625z" fill="none" fill-rule="nonzero" stroke="#33aaff" stroke-width="5" stroke-linecap="butt" stroke-linejoin="miter"></path><path d="M387.87502,100.50001c0,-2.73841 2.21992,-4.95833 4.95833,-4.95833c2.73841,0 4.95834,2.21992 4.95834,4.95833c0,2.73841 -2.21993,4.95834 -4.95834,4.95834c-2.73841,0 -4.95833,-2.21993 -4.95833,-4.95834z" fill="none" fill-rule="nonzero" stroke="#33aaff" stroke-width="5" stroke-linecap="butt" stroke-linejoin="miter"></path><path d="M414.87502,117.16668c0,-3.29069 2.66764,-5.95833 5.95833,-5.95833c3.2907,0 5.95834,2.66763 5.95834,5.95833c0,3.29069 -2.66764,5.95834 -5.95834,5.95834c-3.2907,0 -5.95833,-2.66764 -5.95833,-5.95834z" fill="none" fill-rule="nonzero" stroke="#33aaff" stroke-width="5" stroke-linecap="butt" stroke-linejoin="miter"></path><path d="M434.87502,108.83334c0,-4.02707 3.26459,-7.29166 7.29167,-7.29166c4.02708,0 7.29166,3.26459 7.29166,7.29166c0,4.02707 -3.26459,7.29167 -7.29166,7.29167c-4.02708,0 -7.29167,-3.26459 -7.29167,-7.29167z" fill="none" fill-rule="nonzero" stroke="#33aaff" stroke-width="5" stroke-linecap="butt" stroke-linejoin="miter"></path><text transform="translate(3.23588,356.68853) scale(0.41482,0.41482)" font-size="40" xml:space="preserve" fill="#33aaff" fill-rule="nonzero" stroke="none" stroke-width="1" stroke-linecap="butt" stroke-linejoin="miter" stroke-miterlimit="10" stroke-dasharray="" stroke-dashoffset="0" font-family="Sans Serif" font-weight="normal" text-anchor="start" style="mix-blend-mode: normal"><tspan x="0" dy="0">A game by RopedInGames</tspan></text><path d="M301.23588,361.20574v-40h180v40z" fill="url(#color-1)" fill-rule="nonzero" stroke="none" stroke-width="0" stroke-linecap="butt" stroke-linejoin="miter"></path><text transform="translate(296.48793,348.44689) scale(0.60758,0.60758)" font-size="40" xml:space="preserve" fill="#0096ff" fill-rule="nonzero" stroke="none" stroke-width="1" stroke-linecap="butt" stroke-linejoin="miter" stroke-miterlimit="10" stroke-dasharray="" stroke-dashoffset="0" font-family="Sans Serif" font-weight="normal" text-anchor="start" style="mix-blend-mode: normal"><tspan x="0" dy="0">Mobile Friendly</tspan></text><text transform="translate(76.01409,147.75684) scale(1.25301,1.25301)" font-size="40" xml:space="preserve" fill="#33aaff" fill-rule="nonzero" stroke="#0096ff" stroke-width="2" stroke-linecap="butt" stroke-linejoin="miter" stroke-miterlimit="10" stroke-dasharray="" stroke-dashoffset="0" font-family="Sans Serif" font-weight="normal" text-anchor="start" style="mix-blend-mode: normal"><tspan x="0" dy="0">Find</tspan></text><g fill-rule="nonzero" stroke="none" stroke-width="0" stroke-linecap="butt" stroke-linejoin="miter"><path d="M105.79202,113.05567c0,-2.00219 1.62309,-6.12339 3.62529,-6.12339c2.00219,0 3.62529,4.12119 3.62529,6.12339c0,2.00219 -1.62309,3.62529 -3.62529,3.62529c-2.00219,0 -3.62529,-1.62309 -3.62529,-3.62529z" fill="#0096ff"></path><path d="M107.25432,113.05567c0,-1.19458 0.9684,-2.16298 2.16298,-2.16298c1.19458,0 2.16299,0.9684 2.16299,2.16298c0,1.19458 -0.96841,2.16298 -2.16299,2.16298c-1.19458,0 -2.16298,-0.9684 -2.16298,-2.16298z" fill="#33aaff"></path></g><g fill="none" fill-rule="nonzero" stroke-linecap="round" stroke-linejoin="miter"><g><path d="M19.88126,90.62252c0,0 0,-57.54975 0,-64.4485c0,-1.31957 0.90556,-2.39371 2.35419,-2.41957c4.51273,-0.08055 22.11791,0.35777 26.21314,1.84941c1.79838,0.65504 7.27833,4.43191 8.27998,9.74693c1.12133,5.95006 -0.76824,12.29163 -3.22671,14.25961c-2.25446,1.80467 -6.23056,4.44838 -10.95567,5.53443c-7.98384,1.83506 -17.32171,1.57606 -18.39659,2.4365c-0.90868,0.72739 -0.91,2.12722 0.01751,3.02481c3.94246,3.81528 36.54716,30.0488 36.54716,30.0488" stroke="#0096ff" stroke-width="25"></path><path d="M19.88126,90.62252c0,0 0,-57.54975 0,-64.4485c0,-1.31957 0.90556,-2.39371 2.35419,-2.41957c4.51273,-0.08055 22.11791,0.35777 26.21314,1.84941c1.79838,0.65504 7.27833,4.43191 8.27998,9.74693c1.12133,5.95006 -0.76824,12.29163 -3.22671,14.25961c-2.25446,1.80467 -6.23056,4.44838 -10.95567,5.53443c-7.98384,1.83506 -17.32171,1.57606 -18.39659,2.4365c-0.90868,0.72739 -0.91,2.12722 0.01751,3.02481c3.94246,3.81528 36.54716,30.0488 36.54716,30.0488" stroke="#33aaff" stroke-width="15"></path></g><g><g stroke="#0096ff" stroke-width="25"><path d="M80.11384,91.03772c0,0 17.50082,-57.33821 20.17774,-66.10866c0.66505,-2.17893 1.84619,-2.09387 2.52796,0.16049c2.68272,8.87087 19.85875,65.66628 19.85875,65.66628"></path><path d="M113.27901,61.10257h-23.67824"></path></g><g stroke="#33aaff" stroke-width="15"><path d="M80.11384,91.03772c0,0 17.50082,-57.33821 20.17774,-66.10866c0.66505,-2.17893 1.84619,-2.09387 2.52796,0.16049c2.68272,8.87087 19.85875,65.66628 19.85875,65.66628"></path><path d="M113.27901,61.10257h-23.67824"></path></g></g><g><path d="M198.53052,91.44051c0,0 0,-58.27036 0,-66.80645c0,-1.98254 0.75567,-2.18829 1.6674,-0.40723c3.68718,7.20286 28.10715,54.907 33.59988,65.63698c0.70279,1.37289 1.09572,0.89615 1.09572,-0.67836c0,-8.13583 0,-66.24268 0,-66.24268" stroke="#0096ff" stroke-width="25"></path><path d="M198.53052,91.44051c0,0 0,-58.27036 0,-66.80645c0,-1.98254 0.75567,-2.18829 1.6674,-0.40723c3.68718,7.20286 28.10715,54.907 33.59988,65.63698c0.70279,1.37289 1.09572,0.89615 1.09572,-0.67836c0,-8.13583 0,-66.24268 0,-66.24268" stroke="#33aaff" stroke-width="15"></path></g><g><g stroke="#0096ff" stroke-width="25"><path d="M141.88847,90.96382h36.00287"></path><path d="M158.48719,24.6897v65.47564"></path><path d="M141.65468,24.15737h36.93801"></path></g><g stroke="#33aaff" stroke-width="15"><path d="M141.88847,90.96382h36.00287"></path><path d="M158.48719,24.6897v65.47564"></path><path d="M141.65468,24.15737h36.93801"></path></g></g></g></g></g></svg>