<svg version="1.1" xmlns="http://www.w3.org/2000/svg" xmlns:xlink="http://www.w3.org/1999/xlink" width="148.50001" height="111.49998" viewBox="0,0,148.50001,111.49998"><g transform="translate(-165.75,-136.25)"><g data-paper-data="{&quot;isPaintingLayer&quot;:true}" fill-rule="nonzero" stroke="#0096ff" stroke-width="7.5" stroke-linecap="butt" stroke-linejoin="miter" stroke-miterlimit="10" stroke-dasharray="" stroke-dashoffset="0" style="mix-blend-mode: normal"><path d="M169.5,156.06059c0,-7.13242 8.67932,-16.06059 16.91534,-16.06059c15.32884,0 68.18577,0 99.75472,0c14.37061,0 24.32995,14.08621 24.32995,23.03217c0,13.28408 0,28.81154 0,36.36994c0,8.17039 -8.28079,19.30127 -20.60738,20.49329c-0.71247,0.0689 -4.63847,0.10459 -5.37716,0.10459c-2.88533,0 -3.63106,12.74573 -6.85513,20.74164c-1.32232,3.27945 -5.3357,3.25835 -6.70344,3.25835c-1.59389,0 -5.21633,-0.20057 -6.86201,-5.30829c-2.06473,-6.40831 -2.91118,-14.9049 -5.7053,-18.24835c-0.6598,-0.78951 -20.8609,-0.44335 -21.36602,-0.44335c-1.64896,0 -1.62231,8.39766 -3.9841,13.61896c-1.28803,2.8475 -5.15996,4.04771 -6.0766,4.04771c-2.3315,0 -6.47479,-0.7114 -8.26157,-4.93019c-1.94746,-4.59819 -1.53407,-12.73648 -4.07176,-12.73648c-11.12445,0 2.8751,0 -6.2,0c-3.41027,0 -1.0202,10.56685 -3.18814,17.37361c-1.3423,4.21445 -6.64293,4.95972 -8.1452,4.95972c-0.98965,0 -6.42893,-1.10206 -7.83567,-6.53463c-1.60161,-6.18515 0.17234,-15.79871 -0.63321,-15.79871c-1.0358,0 -2.08266,-0.09258 -3.12476,-0.2709c-8.14679,-1.39404 -16.00255,-8.02788 -16.00255,-16.63003c0,0 -0.00001,-38.22287 -0.00001,-47.03845z" fill="#33aaff"></path><path d="M217.97877,200.09949c0,-12.82625 0,-33.86706 0,-40.85011c0,-4.45324 3.89149,-7.14336 7.33186,-4.99972c5.67492,3.53594 23.4218,14.59372 33.75074,21.0295c4.55375,2.83736 3.75177,7.21504 -1.70817,10.61704c-10.28337,6.40739 -26.05095,16.23189 -31.48286,19.61642c-3.6548,2.27724 -7.89157,0.6784 -7.89157,-5.41312z" fill="#fcfeff"></path></g></g></svg>