<svg version="1.1" xmlns="http://www.w3.org/2000/svg" xmlns:xlink="http://www.w3.org/1999/xlink" width="91.55962" height="84.40819" viewBox="0,0,91.55962,84.40819"><g transform="translate(-194.22019,-137.79591)"><g data-paper-data="{&quot;isPaintingLayer&quot;:true}" fill-rule="nonzero" stroke="none" stroke-width="1" stroke-linecap="butt" stroke-linejoin="miter" stroke-miterlimit="10" stroke-dasharray="" stroke-dashoffset="0" style="mix-blend-mode: normal"><g><path d="M212.20205,206.52367c0,1.72769 0.76098,4.66055 -0.44023,6.14731c-2.48321,-1.28598 -3.28434,-3.45538 -4.32542,-5.90587l-0.40057,0.08031c-0.64051,1.60673 0.68067,4.13803 0.52054,5.86572c-3.16388,-0.24094 -3.12372,-3.61601 -4.76565,-5.42401l-0.2806,0.12046c0.40057,1.60722 1.64242,3.37507 1.68208,5.02245c-1.64192,1.76735 -4.52571,-9.04001 -4.68583,-9.68299c-1.00092,-4.13803 -2.1223,-8.35686 -2.683,-12.5752c-0.88144,-6.50871 -1.08173,-15.34744 -0.60085,-22.74007l14.3376,-0.88392l2.04249,24.26698c0.60085,2.93286 -0.40057,12.73583 -0.40057,15.70885z" fill="#a0aa1e"></path><path d="M210.80056,173.17702c0,0 -14.81848,1.56707 -16.58037,-0.52252c0.60036,-13.13789 15.81939,-18.84298 15.81939,-18.84298z" fill="#824600"></path></g><g><path d="M285.29301,201.86312c-0.40057,2.8927 -0.88095,7.67372 -3.28385,9.64284l-0.44072,-0.04015c-0.48088,-0.76346 0.11997,-3.09397 0,-4.05822c-1.52195,-0.88392 -1.56211,5.22323 -3.68441,4.66055c-0.40057,-1.32564 -0.16062,-4.3388 -1.12139,-5.30304c-1.52195,0.12046 -2.1228,3.89709 -3.3245,4.9818l-0.60036,-0.04015c-1.36182,-1.12486 -2.64334,-11.41019 -2.64334,-13.05757l-1.44214,-27.19984c1.76239,-1.00439 12.33527,-4.58024 14.29794,-5.02195c0.88095,0.96423 1.2017,6.34759 1.36182,7.5131c0.2801,1.88832 0.60036,3.73647 0.76098,5.62479c0.2801,3.61551 0.48038,7.27166 0.56069,10.88767c0.07981,3.85694 0.11997,7.55325 -0.44072,11.41019z" fill="#a0aa1e"></path><path d="M285.73373,172.01201c-0.80113,0.88392 -7.08873,0.48187 -13.85721,0.6425l-5.96735,-6.95042l3.76424,-12.65551c2.76381,1.00439 15.21904,8.99936 16.06033,18.96345z" fill="#824600"></path></g><g><path d="M257.29848,208.73373l12.25495,1.88832c0,0.20077 -1.84221,11.0483 -1.84221,11.0483l4.84596,0.08031c0,0 -0.04015,0.32174 -0.08031,0.44221c-1.60177,0.04015 -15.5393,-0.04015 -15.5393,-0.04015c0,0 0.2806,-13.17804 0.36091,-13.41897z" fill="#a0aa1e"></path><path d="M254.01413,216.28699c-0.76098,-6.66933 -0.68067,-25.07059 -0.68067,-26.1553l19.30402,8.35686c0.16012,1.12486 -0.80113,11.20941 -1.00142,13.37882c-0.11997,1.40594 -0.04015,2.93286 -0.11997,4.37946z" fill="#005a5a"></path><path d="M252.41236,213.23316h20.6252v6.62918h-20.6252z" fill="#006482"></path></g><g><path d="M227.10083,222.1527c0,0 -13.93753,0.08031 -15.5393,0.04015c-0.04015,-0.12046 -0.08031,-0.44221 -0.08031,-0.44221l4.84596,-0.08031c0,0 -1.84221,-10.84751 -1.84221,-11.0483l12.25544,-1.88832c0.04015,0.24094 0.36041,13.41897 0.36041,13.41897z" fill="#a0aa1e"></path><path d="M213.76416,215.64399c-1.04108,-4.13803 -1.88237,-16.35183 -1.88237,-16.35183l17.50197,-5.0626l0.03966,21.37428z" fill="#005a5a"></path><path d="M211.36125,214.03677h19.58412v6.62918h-19.58412z" fill="#006482"></path></g><g><path d="M257.29848,143.44588v1.04455c-0.84129,0 -3.48463,0.08081 -5.12655,0.04015v-1.04455c1.44164,-0.04015 3.68441,-0.08031 5.12655,-0.04015z" fill="#fab414"></path><path d="M258.37971,146.17796c-0.80113,0.20077 -1.56211,0.32174 -2.36324,0.40205l-1.2012,-5.38385c0.76098,-0.3614 2.28293,-0.3614 2.28293,-0.3614z" fill="#ffc800"></path><path d="M228.38235,143.48604v1.04455c-1.64192,0.04065 -4.28527,-0.04015 -5.12655,-0.04015v-1.04455c1.40199,-0.04015 3.64475,0 5.12655,0.04015z" fill="#fab414"></path><path d="M223.45607,140.83476c0,0 1.52195,0 2.28293,0.3614l-1.2012,5.38385c-0.80113,-0.08031 -1.56211,-0.20127 -2.36324,-0.40205z" fill="#ffc800"></path><path d="M255.49592,152.40558l-30.19715,0.12046c0.40007,-3.57585 1.08123,-10.4058 2.1223,-12.5752c1.24185,-2.57146 3.76473,-1.96863 6.2881,-2.00928c2.683,-0.04015 14.89829,-0.52202 18.66302,0.52252c1.00142,0.96423 2.76331,10.68689 3.12372,13.94149z" fill="#a0aa1e"></path><path d="M254.37454,145.21373c0,0 0.04015,0 0.04015,0.04015z" fill="#a0aa1e"></path><path d="M243.92164,144.41011c-1.56211,0.52252 -6.80863,0.28159 -6.96876,0.16112c0,-1.32613 -0.2801,-2.73208 3.04391,-2.93335c3.32401,-0.20077 3.64475,1.56707 3.92486,2.77224z" fill="#82783c"></path><path d="M239.23581,145.93703c0,0 1.4818,-0.08031 2.20262,-0.04015c0.08031,0.20077 0.12046,0.44171 0.08031,0.64299c-0.04015,0.04015 -0.04015,0.12046 -0.08031,0.12046c-0.2801,0 -2.08264,0.16062 -2.20262,-0.12046c0,-0.16112 0,-0.40205 0,-0.60283z" fill="#000000"></path><path d="M251.21066,143.80778c0,0.60233 -0.32026,0.68265 -0.56069,0.68265c-0.64051,-0.04015 -0.68067,-0.88392 -0.52054,-1.12486c0.07981,-0.20077 0.2801,-0.3614 0.52054,-0.3614c0.24044,0 0.56069,0.20077 0.56069,0.80361z" fill="#000000"></path><path d="M231.82682,143.80778c0,0.60233 -0.32075,0.68265 -0.56069,0.68265c-0.64101,-0.04015 -0.68116,-0.88392 -0.52103,-1.12486c0.08031,-0.20077 0.2806,-0.3614 0.52103,-0.3614c0.23995,0 0.56069,0.20077 0.56069,0.80361z" fill="#000000"></path><path d="M242.55981,143.2451c0.32075,0 0.56069,0.24094 0.56069,0.56267c0,0.40156 -0.32026,0.44171 -0.56069,0.44171c-0.64051,-0.04015 -0.64051,-0.60233 -0.52054,-0.76346c0.11997,-0.16062 0.32026,-0.24094 0.52054,-0.24094c0.04015,0 0.04015,0 0,0z" fill="#645a1e"></path></g><g><path d="M210.07974,164.37845c-0.20029,-3.61601 -0.04015,-10.64724 -0.04015,-10.64724c0,0 3.64475,-1.808 6.5682,-2.8927c2.92344,-1.08471 7.04858,-1.68753 7.04858,-1.68753c0,0 30.19764,-0.24094 34.24247,-0.08031c3.64475,0.16062 9.73208,1.68753 11.77457,3.93725c0.12046,0.68315 1.16154,8.27655 1.2017,8.43717c0.48038,2.49115 0.96126,11.20941 0.96126,11.20941l-31.11875,12.25396l-29.95721,-11.73144c0,0 -0.40057,-3.65616 -0.68067,-8.79858z" fill="#a0640a"></path><path d="M244.68262,176.27051l-3.80489,22.6196l-29.0361,0.3619l-1.12139,-26.07499c0,0 9.93236,-13.2182 12.17513,-14.06196c0.04015,0.12046 1.80255,0 1.80255,0c0,0 8.09015,-0.08031 16.1798,-0.08031z" fill="#008264"></path><path d="M240.91789,159.03475c7.32918,0 14.89829,0.04015 17.46182,0.20077c2.60319,1.4466 13.45665,13.41897 13.45665,13.41897l0.80113,25.83405l-31.75975,0.40156z" fill="#00a08c"></path><path d="M259.62107,148.2269c0.68116,4.13853 0.56069,18.03986 0.56069,18.03986l-3.84455,-0.04065l-0.40057,-17.99921z" fill="#005a5a"></path><path d="M258.41986,163.17278c0.60036,0.04015 1.08123,0.56267 1.04108,1.16502c0,0.84377 -0.64101,1.00488 -1.16154,0.96473c-1.32167,-0.04065 -1.36182,-1.24582 -1.08123,-1.60722c0.2801,-0.3619 0.68067,-0.56267 1.12139,-0.56267c0,0 0.04015,0 0.08031,0.04015z" fill="#ffc800"></path><path d="M224.93787,148.2269l-0.40007,17.99921l-3.80489,0.04065c0,0 -0.11997,-13.90133 0.56069,-18.03986z" fill="#005a5a"></path><path d="M222.53497,163.13262c0.44072,0 0.84129,0.20077 1.12139,0.56267c0.2806,0.3614 0.24044,1.56657 -1.08123,1.60722c-0.52054,0.04015 -1.16154,-0.12096 -1.16154,-0.96473c-0.04015,-0.60233 0.44072,-1.12486 1.04157,-1.16502c0,-0.04015 0.04015,-0.04015 0.07981,-0.04015z" fill="#ffc800"></path><path d="M247.52624,168.83772c0.04015,0.56267 0.04015,1.12486 0.04015,1.68753c0.03966,2.45099 -0.60085,5.58462 -3.00375,6.95042c-2.08264,1.20567 -6.52854,1.04504 -8.49072,-0.40156c-1.64192,-1.76784 -2.76331,-5.50432 -2.1228,-8.2364z" fill="#005a5a"></path><path d="M232.98787,166.26675h15.37917v4.3388h-15.37917z" fill="#006482"></path><path d="M240.91789,167.47192c0.64101,0.04015 1.12139,0.60233 1.08123,1.24533c0,0.88392 -0.60036,1.04455 -1.16105,1.00439c-1.36182,-0.08031 -1.44214,-1.28548 -1.12188,-1.68753c0.2806,-0.3614 0.72132,-0.60233 1.16154,-0.56218z" fill="#fab414"></path></g></g></g></svg>