<svg version="1.1" xmlns="http://www.w3.org/2000/svg" xmlns:xlink="http://www.w3.org/1999/xlink" width="88.67936" height="122.21485" viewBox="0,0,88.67936,122.21485"><g transform="translate(-195.60957,-118.89258)"><g data-paper-data="{&quot;isPaintingLayer&quot;:true}" fill-rule="nonzero" stroke-width="0.69311" stroke-miterlimit="10" stroke-dasharray="" stroke-dashoffset="0" style="mix-blend-mode: normal"><path d="M250.78858,229.12515c0.62712,0.72971 2.46759,2.94166 2.30766,3.78819c-0.19159,1.00924 -1.66639,3.5296 -1.66753,3.52903c0,0 2.77036,0.74223 2.18127,2.38824c-0.58966,1.64487 -4.66703,-0.01129 -6.41514,-1.4532c-0.88849,-0.73036 1.66982,-4.31895 1.66982,-4.31895c0,0 -2.11092,-3.36288 -2.87638,-4.22135" fill="#be1e2d" stroke="#000000" stroke-linecap="round" stroke-linejoin="round"></path><path d="M244.78394,221.36454c-0.86297,0.90666 -2.36043,2.64168 -3.57099,3.58973c-0.21261,0.17007 -0.41786,0.31634 -0.62483,0.45869l0.01023,-0.00057c0,0 -0.09244,1.73846 -0.91688,1.64774c-0.5018,-0.04704 -0.83295,-0.40257 -1.02347,-0.67138c-0.88563,0.24894 -1.65223,0.14913 -2.24304,-0.4258c-1.38236,-1.34039 -0.57215,-3.27674 0.43488,-4.36312c0.99738,-1.08982 7.32859,-8.01633 9.81655,-5.22159c2.48526,2.79253 -1.88244,4.98632 -1.88244,4.98632v0v0v0v0v0v0v0z" fill="#be1e2d" stroke="#000000" stroke-linecap="round" stroke-linejoin="round"></path><g><path d="M245.77903,214.85074c0,0 5.40533,0.2716 6.24842,4.95507c0.26252,1.67097 1.00024,8.07989 -1.85184,10.02867c-2.80267,1.91532 -5.51069,2.10814 -8.06001,0.66966c-2.57762,-1.45271 -3.11116,-5.59414 -2.77772,-7.84519c0.18594,-1.25474 0.57771,-2.66147 0.94519,-3.63448c0,-0.00172 1.5944,-3.81936 5.49597,-4.17374v0v0v0v0v0v0v0z" fill="#be1e2d" stroke="#000000" stroke-linecap="butt" stroke-linejoin="miter"></path><g><path d="M250.90482,229.14388c-1.91369,-1.77985 -3.06134,-6.30405 1.22357,-6.80863" fill="none" stroke="#000000" stroke-linecap="round" stroke-linejoin="round"></path><path d="M252.12839,222.57625v0v0v0v0v0v0v0c0.10831,5.06902 -1.31266,6.26086 -1.31266,6.26086c0,0 -1.84276,-1.81953 -1.47586,-3.93732c0.38555,-2.2198 2.78852,-2.32353 2.78852,-2.32353z" fill="#e6e7e8" stroke="none" stroke-linecap="butt" stroke-linejoin="miter"></path></g></g><path d="M246.01495,231.1397l-1.22423,6.73893c0,0 2.87024,0.04589 2.69673,1.78206c-0.16958,1.73846 -4.5287,1.125 -6.57335,0.15371c-2.04687,-0.97022 0.5755,-10.78342 0.5755,-10.78342" fill="#be1e2d" stroke="#000000" stroke-linecap="round" stroke-linejoin="round"></path><path d="M246.71407,220.30139c0.21433,1.24517 0.70762,3.51258 0.74386,5.07074c0.00573,0.27102 -0.00622,0.53239 -0.01129,0.78476l0.00393,-0.01309c0,0 1.35462,1.12949 0.78076,1.74697c-0.34416,0.37426 -0.83123,0.42695 -1.16745,0.41786c-0.33336,0.87033 -0.87941,1.4289 -1.70271,1.55644c-1.92219,0.31013 -2.99549,-1.52413 -3.27167,-2.99492c-0.2738,-1.46801 -2.04916,-10.79585 1.72431,-11.11563c3.77232,-0.31692 2.90027,4.54686 2.90027,4.54686v0v0v0v0v0v0v0z" fill="#be1e2d" stroke="#000000" stroke-linecap="butt" stroke-linejoin="miter"></path><g><g stroke="#000000"><path d="M274.70659,165.6515c0.71785,-0.89021 2.74205,-3.45311 3.93675,-5.41318c2.00891,-3.29833 4.65001,-7.49703 4.65001,-7.49703c0,0 1.20607,6.06869 0.33001,11.22566c-0.77053,4.54056 -3.64585,8.7687 -4.31436,9.71282l-3.33286,-4.16867l-1.26955,-3.85961v0v0v0v0v0v0v0z" fill="#be1e2d" stroke-linecap="butt" stroke-linejoin="miter"></path><path d="M279.6844,166.36534c1.5139,0.20304 2.90027,-0.48249 3.56707,-1.1578v0c-0.94412,4.22871 -3.24729,7.69655 -3.88627,8.58447l-0.01644,0.06463c-0.39013,-0.8907 -0.56708,-1.45148 -0.98773,-2.25719v0c0.94854,-1.3444 1.23658,-3.60224 1.32337,-5.23411v0v0v0v0v0v0v0zM279.6844,166.36534c0.0805,-1.04213 -0.20075,-2.54531 -0.20075,-2.54531" fill="#939598" stroke-linecap="round" stroke-linejoin="round"></path></g><g stroke="#000000"><path d="M222.71711,203.03886c0,0 8.94744,13.64613 26.65901,14.18761c17.71107,0.54041 22.7886,-7.19303 23.76782,-10.66365c1.14422,-4.05013 -1.11133,-7.628 -1.41353,-8.08554l-0.06348,-0.02495c-2.03615,1.32681 -4.41875,0.55849 -4.41875,0.55849c0,0 1.26505,0.00622 1.91933,-0.67244c0.63449,-0.64978 1.32002,-4.54178 0.34759,-9.85009c-1.2945,-7.06828 -3.96448,-8.58619 -3.96448,-8.58619l-0.25065,-0.21777c-4.75039,1.46973 -10.62798,3.28189 -13.99659,4.30021c-6.32041,1.91025 -9.40548,3.96792 -9.40548,3.96792c0,0 0.44224,-2.9388 2.49819,-4.70221c1.07223,-0.92253 2.46539,-1.79908 3.55406,-2.43185l-0.19789,-0.04082c0,0 -10.21527,1.29442 -15.63754,8.3429c-3.82107,4.96701 -2.34971,12.109 -2.34971,12.109c0,0 -2.70802,-3.3102 -3.5642,-6.79218l-0.01415,-0.01186c0,0 -2.87417,2.50506 -3.57271,7.80543c-0.02552,0.1911 -0.04532,0.40199 -0.05898,0.6277l0.16214,0.1803v0v0v0v0v0v0v0zM271.79168,211.91195c0.03853,-0.23585 0.07371,-0.46948 0.10488,-0.7014c-0.0306,0.23192 -0.06577,0.46556 -0.10488,0.7014v0v0v0v0v0v0zM271.97877,210.46717c-0.01816,0.21605 -0.04139,0.43545 -0.07093,0.65944c0.02896,-0.22505 0.05276,-0.44453 0.07093,-0.65944v0v0v0v0v0v0zM271.99693,210.23018c0.01129,-0.1457 0.01751,-0.28747 0.02151,-0.42408c-0.00401,0.13719 -0.01137,0.27781 -0.02151,0.42408v0v0v0v0v0v0zM272.02352,209.59569c0.00115,-0.19388 -0.00335,-0.37876 -0.01865,-0.54884l0.00278,-0.00286c0.01366,0.17065 0.01644,0.35725 0.01587,0.5517v0v0v0v0v0v0zM226.18723,194.42879c0,0 -2.8736,2.50392 -3.57214,7.80486c-0.3952,3.00408 0.65371,10.22714 0.65371,10.22714c0,0 -7.47486,-8.74947 -7.2287,-18.11585c0.24885,-9.36588 3.42243,-16.15807 3.42243,-16.15807M214.22851,208.31199l-2.41434,5.75284c0,0 -11.02491,-10.59845 -8.65196,-29.93738M220.0063,208.28025l0.6016,4.57745c0,0 -5.56518,-2.91949 -8.29308,-7.09953c-5.13995,-7.86834 -4.23665,-15.79166 -4.23665,-15.79166M274.96919,184.6803c1.071,6.93052 -0.35896,9.81941 -1.75662,12.1328c-2.08769,3.45082 -5.96496,2.19829 -5.96496,2.19829c0,0 1.26447,0.00679 1.92048,-0.66966c0.63563,-0.6515 1.31888,-4.54056 0.34759,-9.8523c-1.29671,-7.06836 -4.13177,-8.6837 -4.13177,-8.6837v0c-3.66744,1.13399 -8.18649,2.3916 -14.08224,4.17881c-6.32041,1.90911 -9.40548,3.96677 -9.40548,3.96677c0,0 0.43995,-2.9388 2.49819,-4.70221c1.02748,-0.8822 2.35086,-1.72594 3.41515,-2.35078l-0.05898,-0.12361c0,0 -10.21519,1.2945 -15.63754,8.34404c-3.82107,4.9693 -2.34963,12.10794 -2.34963,12.10794c0,0 -2.70238,-3.30341 -3.5642,-6.78147l-0.01423,-0.02151c0,0 -2.87417,2.50735 -3.57271,7.80715c-0.20861,1.5899 -0.01301,4.3614 0.21719,6.61925c0.00057,0.00057 0,0 0.00057,0.00115c0,0.00057 0,0.00106 0,0.00164l-0.00057,-0.00106c0.20468,2.00719 0.43717,3.60781 0.43717,3.60781c0,0 -1.53828,-1.80309 -3.19968,-4.64601l-0.0652,0.46098l0.6016,4.57802c0,0 -3.44853,-1.81217 -6.24957,-4.62114l-0.12696,0.07763l-2.41434,5.75292c0,0 -13.02923,-12.52637 -7.71242,-35.18401c2.77208,-11.80673 22.2913,-26.0228 25.30381,-35.05917c3.01087,-9.03694 -2.89119,-16.02701 -2.89119,-16.02701c0,0 0.60103,0.12246 2.16827,1.20656c1.56438,1.08467 3.73321,4.09553 3.73321,4.09553c0,0 -0.01702,-3.88006 0.36117,-6.86761c0.51251,-4.01954 1.44584,-6.98721 1.44584,-6.98721c0,0 8.91849,17.10824 18.43514,27.59053c9.51837,10.48286 22.02936,11.85327 28.43657,31.69007c6.96111,21.55022 -4.84283,32.7821 -4.84283,32.7821c0,0 0.2149,-1.45778 0.37533,-3.65493l-0.13833,0.10258c0,0 -1.58139,3.2949 -2.71988,4.79236c-1.37221,1.80987 -2.87932,3.45818 -2.87932,3.45818c0,0 0.56593,-2.02535 0.89929,-4.06036l-0.03796,0.02045c-2.53001,3.68102 -8.6707,8.21594 -22.37753,7.7975c-17.15994,-0.52389 -26.00693,-10.29683 -26.54104,-10.90416c-0.20247,-1.98559 -0.37704,-4.36369 -0.27618,-5.9904l0.16108,0.17637c0,0 8.94679,13.64556 26.6595,14.18818c14.15251,0.43095 20.23544,-4.41867 22.60773,-8.15753l-0.00278,0.00229c0.00908,-0.01252 0.01415,-0.02552 0.02209,-0.03747c0,-0.00221 0,-0.0045 0,-0.00679l0.0108,-0.01129c0.5755,-0.9186 0.92874,-1.77134 1.12549,-2.45344c1.11583,-3.95376 -1.0036,-7.46013 -1.38637,-8.04586l-0.06176,-0.07992c-2.04179,1.35225 -4.44534,0.57608 -4.44534,0.57608c0,0 1.26554,0.00679 1.92048,-0.67367M247.8101,180.89947c0.86804,-0.6974 1.87843,-1.0274 1.87843,-1.0274M226.18609,194.42601c0,0 -0.23699,-2.76308 -0.03518,-3.49622M276.48874,207.7495c0,0 -1.58139,3.2949 -2.71997,4.79236c-1.37213,1.80987 -2.87924,3.45818 -2.87924,3.45818c0,0 1.37213,-4.90173 1.1034,-7.11196M275.22091,191.22747c0,0 2.91442,9.0659 1.26726,16.52202" fill="#be1e2d" stroke-linecap="round" stroke-linejoin="round"></path><path d="M222.71711,203.03886v0v0v0v0v0v0v0l-0.16214,-0.1803c0.01366,-0.2257 0.03346,-0.4366 0.05898,-0.6277c0.69854,-5.30037 3.57271,-7.80543 3.57271,-7.80543l0.01415,0.01186c0.85618,3.48199 3.5642,6.79218 3.5642,6.79218c0,0 -1.47136,-7.14199 2.34971,-12.109c5.42226,-7.04848 15.63754,-8.3429 15.63754,-8.3429l0.19789,0.04082c-1.08867,0.63277 -2.48183,1.50932 -3.55406,2.43185c-2.05595,1.76341 -2.49819,4.70221 -2.49819,4.70221c0,0 3.08507,-2.05767 9.40548,-3.96792c3.36861,-1.01832 9.2462,-2.83049 13.99659,-4.30021l0.25065,0.21777c0,0 2.66998,1.51791 3.96448,8.58619c0.97243,5.30831 0.28689,9.20031 -0.34759,9.85009c-0.65428,0.67866 -1.91933,0.67244 -1.91933,0.67244c0,0 2.3826,0.76832 4.41875,-0.55849l0.06348,0.02495c0.30219,0.45754 2.55775,4.03541 1.41353,8.08554c-0.97922,3.47062 -6.05675,11.20406 -23.76782,10.66365c-17.71156,-0.54147 -26.65901,-14.18761 -26.65901,-14.18761z" fill="#e6e7e8" stroke-linecap="butt" stroke-linejoin="miter"></path></g><g stroke="#000000"><path d="M216.29919,197.90971v0v0v0v0v0v0v0l-0.34931,-0.08909c0,0 -8.02026,-4.45384 -13.57807,-15.4781c-3.60339,-7.146 -6.31419,-19.58451 -6.31419,-19.58451c0,0 7.90802,1.3552 11.94342,4.90009c3.29146,2.89798 8.62415,9.6131 10.46699,11.97917l0.28804,0.31184c-0.94919,2.60086 -2.54253,7.87636 -2.71489,14.3958c-0.02945,1.20484 0.06577,2.39724 0.25802,3.56478z" fill="#be1e2d" stroke-linecap="butt" stroke-linejoin="miter"></path><path d="M210.15392,193.17577v0v0v0v0v0v0v0l0.10267,0.09465c-2.5067,-2.48633 -5.43871,-6.06869 -7.8865,-10.92789c-2.18806,-4.33539 -4.0422,-10.61498 -5.1649,-14.88451l0.07657,-0.03403c6.24163,0.83573 9.05911,5.23967 9.05911,5.23967l0.1587,0.3368c1.03255,2.4109 2.16827,4.85134 3.15656,6.50022c0.58459,0.96899 1.23723,1.86149 1.86379,2.62581l-0.076,-0.13498c0,0 0.83859,4.20491 0.6214,6.4769c-0.3498,3.66744 -1.9114,4.70736 -1.9114,4.70736zM211.52049,182.12648c0.07592,0.1349 2.79187,2.26913 2.79187,2.26913" fill="#939598" stroke-linecap="round" stroke-linejoin="round"></path></g><path d="M262.93553,205.61927v0v0v0v0v0v0v0c-0.45926,2.88947 -3.3493,5.08154 -9.81827,5.42856c-6.46782,0.35037 -9.00864,-4.73452 -9.00864,-4.73452c0,0 5.1955,-0.58066 10.16365,-0.69404c4.96579,-0.11453 8.66325,0 8.66325,0z" fill="#939598" stroke="#000000" stroke-linecap="butt" stroke-linejoin="miter"></path><path d="M243.94984,194.47869v0v0v0v0v0v0v0c0.48028,0.13555 0.75981,0.63391 0.62434,1.1142c-0.13498,0.48086 -0.63113,0.75981 -1.11534,0.62884c-0.02667,-0.00851 -2.83278,-0.77118 -5.5754,0.02773c-0.08442,0.02438 -0.16836,0.03689 -0.25229,0.03689c-0.39177,0 -0.7536,-0.25859 -0.8687,-0.6515c-0.06741,-0.2302 -0.03395,-0.46719 0.06978,-0.6668c-0.16901,-0.14741 -0.32943,-0.33909 -0.44061,-0.60332c-0.1304,-0.30669 0.01309,-0.66107 0.32043,-0.79098c0.30505,-0.12696 0.66107,0.01023 0.79147,0.31872c0.10324,0.24664 0.40371,0.31692 0.40772,0.31806c0.08843,0.01988 0.16615,0.06013 0.23307,0.11338c0.08958,-0.01816 0.17916,-0.03853 0.26701,-0.05326c-0.09244,-0.13948 -0.17916,-0.29655 -0.23077,-0.48936c-0.08557,-0.32428 0.10659,-0.65208 0.42866,-0.73879c0.32493,-0.08786 0.65265,0.10946 0.73773,0.42981c0.06798,0.25679 0.34866,0.37246 0.35095,0.37361c0.1304,0.04483 0.22677,0.13613 0.29769,0.24272c2.15968,-0.0998 3.85789,0.36232 3.95425,0.39005z" fill="#231f20" stroke="none" stroke-linecap="butt" stroke-linejoin="miter"></path><path d="M267.93772,193.63102v0v0v0v0v0v0v0c-0.10553,0.53697 -0.42809,0.85904 -0.69118,1.05072c0.06692,0.17065 0.10201,0.35659 0.0544,0.54712c-0.1196,0.48478 -0.59931,0.78305 -1.09489,0.6623c-1.87851,-0.46327 -4.30978,-0.63105 -4.79915,-0.13326c-0.17744,0.1803 -0.40772,0.26873 -0.64242,0.26873c-0.23135,0 -0.45983,-0.08614 -0.63678,-0.26137c-0.35545,-0.3498 -0.36117,-0.92195 -0.01014,-1.27912c0.94576,-0.95885 2.93986,-0.93447 4.53491,-0.72521c0.07763,-0.06634 0.20124,-0.20304 0.21376,-0.39128c0.01644,-0.33279 0.2761,-0.60896 0.6322,-0.57207c0.33115,0.01702 0.5863,0.29933 0.57043,0.63277c-0.01252,0.20918 -0.06463,0.38612 -0.12876,0.54884c0.07829,0.0153 0.15371,0.03117 0.22456,0.04761c0.06234,-0.09751 0.14062,-0.18202 0.25401,-0.23135c0.01759,-0.00957 0.28526,-0.14169 0.33622,-0.3997c0.06634,-0.326 0.37876,-0.54434 0.70991,-0.47349c0.32551,0.06577 0.5364,0.38162 0.47292,0.70877z" fill="#231f20" stroke="none" stroke-linecap="butt" stroke-linejoin="miter"></path></g></g></g></svg>