<svg version="1.1" xmlns="http://www.w3.org/2000/svg" xmlns:xlink="http://www.w3.org/1999/xlink" width="111.73986" height="103.15505" viewBox="0,0,111.73986,103.15505"><g transform="translate(-184.13007,-128.42248)"><g data-paper-data="{&quot;isPaintingLayer&quot;:true}" fill-rule="evenodd" stroke="none" stroke-width="1" stroke-linecap="butt" stroke-linejoin="miter" stroke-miterlimit="10" stroke-dasharray="" stroke-dashoffset="0" style="mix-blend-mode: normal"><path d="M272.95642,216.63658c-1.50606,-1.40589 -4.3793,-5.00882 -4.3793,-5.00882c0,0 2.68769,-1.88115 2.56759,-5.0259c-0.69896,-3.50333 -8.3283,-2.10029 -13.1789,-1.32905l-0.23394,-7.94296c4.86482,-1.35466 13.84085,-0.57488 16.69417,0.68871c2.10257,0.93631 3.58073,3.36957 4.03437,5.45563c0.95851,4.43395 -2.01434,10.54414 -5.50401,13.16239z" fill="#008264"></path><path d="M236.07954,205.3582c0,0 -2.10314,23.04912 -3.27565,25.96334c-0.86744,0.07684 -6.33389,0.41835 -7.18994,0.16222c0.49348,-5.18812 1.99727,-25.3287 1.99727,-25.3287z" fill="#008264"></path><path d="M203.22793,166.50283c1.59485,-0.09392 1.42695,5.15396 0.43087,10.99379c-0.52764,3.07075 -1.62331,7.68399 -2.0798,8.77966c-1.37515,3.26996 -2.89032,6.4204 -4.52502,9.56799c-0.6335,1.20383 -3.92338,8.03403 -4.80505,13.20223c-0.67619,3.95867 0.70522,6.60254 1.92327,7.04366c2.81006,1.01884 5.90585,1.37743 7.58381,-0.46104c0.58455,-0.64033 2.97569,-4.90068 4.07138,-8.50361c2.02572,-6.6623 2.97569,-14.36621 3.55797,-15.76925c0.89589,-2.17998 6.60482,5.62639 8.87301,9.28055c-2.64728,5.27919 -4.72195,21.27611 -15.74364,26.64352c-5.13575,2.50726 -13.56935,-0.12237 -16.46536,-5.08281c-2.95577,-5.06859 -2.16859,-13.16808 0.13945,-18.57248c2.75941,-6.45739 6.07718,-12.58467 9.43821,-18.78308c5.30992,-9.7729 5.16705,-18.19682 7.60089,-18.33912z" fill="#005a5a"></path><g><path d="M290.32395,195.05597c0.05976,0.14514 0.35061,1.50549 0.37908,1.57664c-0.6705,4.19773 -5.44937,3.92168 -8.80186,3.30981c-4.25977,-0.77409 -6.80745,-3.731 -8.45979,-7.54738z" fill="#00a08c"></path><path d="M289.92437,194.52663c-0.05123,0.35005 0.66765,2.09459 -1.04445,2.98537c-1.53737,0.80198 -3.34111,0.92777 -4.97581,0.3472c-1.66315,-0.60334 -3.007,-2.17429 -3.66612,-3.86192z" fill="#000000"></path><path d="M287.04544,195.26941c0,0 -0.28516,1.18106 -0.57033,1.53111c-0.41835,0.46901 -1.12357,0.54756 -1.63527,0.18214c-0.73595,-0.51511 -0.61928,-1.66487 -0.61928,-1.66487z" fill="#ffffff"></path></g><path d="M215.05445,179.70222c4.64227,-4.73277 10.6022,-7.80067 17.35557,-7.83197c1.62673,0 3.26143,0.33867 4.87051,0.54926c2.15721,0.28459 4.3571,0.32443 6.52797,0.48381c3.8807,0.28459 6.27696,-0.56918 7.15009,-4.59047c0.65342,-2.97114 0.25954,-6.44886 -0.01992,-9.46269c-0.30793,-3.36388 -0.9642,-6.12442 -1.03307,-9.50538c-0.0683,-3.38095 -0.09392,-6.72206 0.85605,-10.04041c1.0103,-3.55171 3.86362,-7.03227 7.01918,-8.83089c6.05157,-3.4521 13.45267,-2.35643 18.83089,1.86408c5.19836,4.06113 8.44214,11.04502 9.32665,17.46826c0.49063,3.54488 0.69668,7.12334 0.61643,10.70067c-0.07968,3.13052 -1.0103,6.3464 -1.7121,9.37447c-0.85605,3.67408 -1.38654,7.4307 0.19694,10.99379c0.71318,1.61364 2.08833,3.46064 3.6462,4.3628c1.44971,0.83955 3.27281,0.7314 4.33718,2.20275c1.90279,2.62963 0.62496,7.11481 -2.37976,8.29586c-1.34953,0.52649 -3.06448,0.64603 -4.49086,0.53788c-0.99835,-0.07968 -4.49656,-0.36428 -7.65211,-1.78724c-2.21128,-0.99892 -3.20109,-1.02738 -5.05891,-2.10598c-2.21641,-5.24503 -1.88855,-12.23746 -1.11844,-17.76709c0.87028,-6.23257 1.79179,-12.52205 1.68365,-18.8343c-0.05408,-3.10775 -0.47926,-6.67937 -1.74626,-9.55091c-1.08714,-2.46457 -4.0173,-5.00028 -6.70499,-3.09067c-2.21982,1.57664 -3.20963,4.87506 -3.69173,7.3994c-0.67619,3.52325 -0.65058,7.07496 -0.25954,10.62952c0.84126,7.64984 4.12545,34.1169 4.16529,36.27696c0.08879,4.47948 -0.68473,11.03933 -3.44925,14.18123c-2.76453,3.1419 -5.8404,3.25573 -7.52974,3.83061c-1.98019,0.67449 -21.27895,1.06722 -24.66275,0.67164c-0.07968,-0.0683 -12.28243,0.70863 -16.58546,-4.96329c-4.30246,-5.67192 -4.88417,-12.29723 -4.88133,-14.62519c0.00854,-6.21264 1.95401,-12.29723 6.39365,-16.83647z" fill="#00a08c"></path><path d="M223.13174,205.36104c0,0 -2.09972,23.04912 -3.27281,25.9605c-0.86686,0.07684 -6.33389,0.41835 -7.18994,0.16222c0.49405,-5.18812 1.99727,-25.3287 1.99727,-25.3287z" fill="#00a08c"></path><g><path d="M284.76017,192.62554c0.39956,-1.54533 1.55216,-0.81393 1.39792,0.30736c-0.14855,1.12129 -1.81741,1.3262 -1.39792,-0.30736z" fill="#005a5a"></path><path d="M290.62618,192.47186c0.39956,-1.54533 1.55216,-0.81393 1.39792,0.30736c-0.15368,1.13837 -1.81741,1.33474 -1.39792,-0.30736z" fill="#005a5a"></path><path d="M295.23145,188.18306l0.32501,-0.0683c0.37794,0.61187 0.41665,1.37401 0.10245,2.02061l-0.44738,0.09961c-0.50828,-0.48381 -0.49405,-1.62502 0.01992,-2.05191z" fill="#000000"></path><path d="M275.7756,188.08061l0.32785,-0.0683c0.37737,0.61245 0.41493,1.37401 0.10018,2.02061l-0.44795,0.09961c-0.50828,-0.48381 -0.49063,-1.62218 0.01992,-2.05191z" fill="#000000"></path></g><path d="M251.62625,215.6832v-7.35386c3.89778,-0.16222 7.78928,-0.04554 9.52132,0.44681c2.21356,0.62895 5.00711,3.54887 5.74876,5.5467c1.58062,4.26888 -0.76441,10.94542 -3.84883,14.03039l-6.44545,-4.51363c0,0 3.07872,-3.00529 2.51409,-6.1045c-0.61358,-1.7417 -3.85508,-2.12875 -7.4899,-2.05191z" fill="#00a08c"></path></g></g></svg>