<svg version="1.1" xmlns="http://www.w3.org/2000/svg" xmlns:xlink="http://www.w3.org/1999/xlink" width="101.31802" height="93.40439" viewBox="0,0,101.31802,93.40439"><g transform="translate(-184.84747,-156.02675)"><g data-paper-data="{&quot;isPaintingLayer&quot;:true}" fill-rule="nonzero" stroke="none" stroke-width="1" stroke-linecap="butt" stroke-linejoin="miter" stroke-miterlimit="10" stroke-dasharray="" stroke-dashoffset="0" style="mix-blend-mode: normal"><g><path d="M204.74583,232.07949c0,1.91183 0.84208,5.15727 -0.48715,6.80248c-2.74787,-1.42304 -3.63439,-3.82365 -4.78642,-6.53532l-0.44326,0.08887c-0.70877,1.77797 0.75321,4.57906 0.57602,6.49089c-3.50108,-0.26661 -3.45665,-4.0014 -5.27357,-6.00209l-0.3105,0.13331c0.44326,1.77852 1.81747,3.73478 1.86136,5.55774c-1.81692,1.95571 -5.00805,-10.00349 -5.18525,-10.71501c-1.1076,-4.57906 -2.3485,-9.24754 -2.96895,-13.91547c-0.97539,-7.2024 -1.19702,-16.98317 -0.66489,-25.1637l15.86569,-0.97813l2.26018,26.85335c0.66489,3.24544 -0.44326,14.09321 -0.44326,17.38309z" fill="#a0aa1e"></path><path d="M203.19497,195.17877c0,0 -16.39782,1.73408 -18.3475,-0.57821c0.66434,-14.53811 17.50542,-20.85126 17.50542,-20.85126z" fill="#824600"></path></g><g><path d="M285.6268,226.92223c-0.44326,3.20101 -0.97484,8.49158 -3.63384,10.67057l-0.48769,-0.04444c-0.53213,-0.84482 0.13276,-3.42373 0,-4.49074c-1.68416,-0.97813 -1.7286,5.77992 -4.0771,5.15727c-0.44326,-1.46692 -0.17774,-4.80124 -1.2409,-5.86824c-1.68416,0.13331 -2.34905,4.31245 -3.67883,5.51275l-0.66434,-0.04444c-1.50697,-1.24474 -2.92507,-12.62629 -2.92507,-14.44924l-1.59584,-30.09879c1.95023,-1.11144 13.64995,-5.0684 15.82181,-5.55719c0.97484,1.067 1.32978,7.02411 1.50697,8.31384c0.30995,2.08957 0.66434,4.1347 0.84208,6.22427c0.30995,4.00085 0.53158,8.04668 0.62045,12.04808c0.08832,4.26801 0.13276,8.35828 -0.48769,12.62629z" fill="#a0aa1e"></path><path d="M286.11449,193.88959c-0.88652,0.97813 -7.84425,0.53323 -15.33411,0.71097l-6.60335,-7.69119l4.16542,-14.00434c3.05837,1.11144 16.84108,9.95851 17.77204,20.98456z" fill="#824600"></path></g><g><path d="M254.64862,234.5251l13.56108,2.08957c0,0.22218 -2.03855,12.22582 -2.03855,12.22582l5.36244,0.08887c0,0 -0.04444,0.35603 -0.08887,0.48934c-1.77249,0.04444 -17.19547,-0.04444 -17.19547,-0.04444c0,0 0.3105,-14.58255 0.39937,-14.84916z" fill="#a0aa1e"></path><path d="M251.01423,242.88337c-0.84208,-7.38015 -0.75321,-27.74261 -0.75321,-28.94292l21.36144,9.24754c0.17719,1.24474 -0.88652,12.40411 -1.10815,14.80473c-0.13276,1.55579 -0.04444,3.24544 -0.13276,4.84622z" fill="#005a5a"></path><path d="M249.24175,239.50408h22.82343v7.33571h-22.82343z" fill="#006482"></path></g><g><path d="M221.23252,249.37426c0,0 -15.42298,0.08887 -17.19547,0.04444c-0.04444,-0.13331 -0.08887,-0.48934 -0.08887,-0.48934l5.36244,-0.08887c0,0 -2.03855,-12.00364 -2.03855,-12.22582l13.56163,-2.08957c0.04444,0.26661 0.39882,14.84916 0.39882,14.84916z" fill="#a0aa1e"></path><path d="M206.47442,242.17186c-1.15203,-4.57906 -2.08299,-18.0946 -2.08299,-18.0946l19.36733,-5.60217l0.04389,23.65234z" fill="#005a5a"></path><path d="M203.81542,240.39334h21.67139v7.33571h-21.67139z" fill="#006482"></path></g><g><path d="M254.64862,162.27889v1.15587c-0.93095,0 -3.85602,0.08942 -5.67294,0.04444v-1.15587c1.59529,-0.04444 4.0771,-0.08887 5.67294,-0.04444z" fill="#fab414"></path><path d="M255.84509,165.30215c-0.88652,0.22218 -1.7286,0.35603 -2.61512,0.4449l-1.32923,-5.95766c0.84208,-0.39992 2.52624,-0.39992 2.52624,-0.39992z" fill="#ffc800"></path><path d="M222.65062,162.32332v1.15587c-1.81692,0.04498 -4.74199,-0.04444 -5.67294,-0.04444v-1.15587c1.55141,-0.04444 4.03321,0 5.67294,0.04444z" fill="#fab414"></path><path d="M217.19931,159.38948c0,0 1.68416,0 2.52624,0.39992l-1.32923,5.95766c-0.88652,-0.08887 -1.7286,-0.22273 -2.61512,-0.4449z" fill="#ffc800"></path><path d="M252.65396,172.19351l-33.41555,0.13331c0.44271,-3.95696 1.19647,-11.51485 2.3485,-13.91547c1.37421,-2.84552 4.16597,-2.17844 6.95828,-2.22342c2.96895,-0.04444 16.48615,-0.57766 20.65212,0.57821c1.10815,1.067 3.05783,11.8259 3.45665,15.42737z" fill="#a0aa1e"></path><path d="M251.41305,164.23515c0,0 0.04444,0 0.04444,0.04444z" fill="#a0aa1e"></path><path d="M239.84609,163.34589c-1.7286,0.57821 -7.5343,0.3116 -7.71149,0.17829c0,-1.46747 -0.30995,-3.02326 3.36833,-3.24599c3.67828,-0.22218 4.03321,1.73408 4.34317,3.0677z" fill="#82783c"></path><path d="M234.66084,165.03554c0,0 1.63973,-0.08887 2.43737,-0.04444c0.08887,0.22218 0.13331,0.48879 0.08887,0.71152c-0.04444,0.04444 -0.04444,0.13331 -0.08887,0.13331c-0.30995,0 -2.30462,0.17774 -2.43737,-0.13331c0,-0.17829 0,-0.4449 0,-0.66708z" fill="#000000"></path><path d="M247.91197,162.67936c0,0.66653 -0.35439,0.7554 -0.62045,0.7554c-0.70877,-0.04444 -0.75321,-0.97813 -0.57602,-1.24474c0.08832,-0.22218 0.30995,-0.39992 0.57602,-0.39992c0.26606,0 0.62045,0.22218 0.62045,0.88926z" fill="#000000"></path><path d="M226.4622,162.67936c0,0.66653 -0.35494,0.7554 -0.62045,0.7554c-0.70932,-0.04444 -0.75376,-0.97813 -0.57657,-1.24474c0.08887,-0.22218 0.3105,-0.39992 0.57657,-0.39992c0.26552,0 0.62045,0.22218 0.62045,0.88926z" fill="#000000"></path><path d="M238.33912,162.05671c0.35494,0 0.62045,0.26661 0.62045,0.62265c0,0.44436 -0.35439,0.48879 -0.62045,0.48879c-0.70877,-0.04444 -0.70877,-0.66653 -0.57602,-0.84482c0.13276,-0.17774 0.35439,-0.26661 0.57602,-0.26661c0.04444,0 0.04444,0 0,0z" fill="#645a1e"></path></g><g><path d="M202.39732,185.44244c-0.22163,-4.0014 -0.04444,-11.78201 -0.04444,-11.78201c0,0 4.03321,-2.0007 7.26823,-3.20101c3.23502,-1.20031 7.79981,-1.86739 7.79981,-1.86739c0,0 33.4161,-0.26661 37.89202,-0.08887c4.03321,0.17774 10.76932,1.86739 13.0295,4.35688c0.13331,0.75595 1.28534,9.15867 1.32978,9.33641c0.53158,2.75665 1.06371,12.40411 1.06371,12.40411l-34.43538,13.55998l-33.15004,-12.98177c0,0 -0.44326,-4.04583 -0.75321,-9.73633z" fill="#a0640a"></path><path d="M240.68817,198.60195l-4.21041,25.03039l-32.13076,0.40047l-1.2409,-28.85405c0,0 10.99095,-14.62698 13.47276,-15.56068c0.04444,0.13331 1.99466,0 1.99466,0c0,0 8.9524,-0.08887 17.90425,-0.08887z" fill="#008264"></path><path d="M236.5222,179.52922c8.11032,0 16.48615,0.04444 19.32289,0.22218c2.88063,1.60078 14.89085,14.84916 14.89085,14.84916l0.88652,28.58744l-35.1447,0.44436z" fill="#00a08c"></path><path d="M257.21875,167.56946c0.75376,4.57961 0.62045,19.96254 0.62045,19.96254l-4.25429,-0.04498l-0.44326,-19.91756z" fill="#005a5a"></path><path d="M255.88953,184.10827c0.66434,0.04444 1.19647,0.62265 1.15203,1.28918c0,0.9337 -0.70932,1.11199 -1.28534,1.06755c-1.46253,-0.04498 -1.50697,-1.3786 -1.19647,-1.77852c0.30995,-0.40047 0.75321,-0.62265 1.2409,-0.62265c0,0 0.04444,0 0.08887,0.04444z" fill="#ffc800"></path><path d="M218.83903,167.56946l-0.44271,19.91756l-4.21041,0.04498c0,0 -0.13276,-15.38294 0.62045,-19.96254z" fill="#005a5a"></path><path d="M216.18003,184.06384c0.48769,0 0.93095,0.22218 1.2409,0.62265c0.3105,0.39992 0.26606,1.73354 -1.19647,1.77852c-0.57602,0.04444 -1.28534,-0.13386 -1.28534,-1.06755c-0.04444,-0.66653 0.48769,-1.24474 1.15258,-1.28918c0,-0.04444 0.04444,-0.04444 0.08832,-0.04444z" fill="#ffc800"></path><path d="M243.83487,190.37698c0.04444,0.62265 0.04444,1.24474 0.04444,1.86739c0.04389,2.71222 -0.66489,6.17984 -3.32389,7.69119c-2.30462,1.33416 -7.22435,1.15642 -9.39566,-0.44436c-1.81692,-1.95626 -3.05783,-6.09097 -2.34905,-9.11423z" fill="#005a5a"></path><path d="M227.747,187.53201h17.01828v4.80124h-17.01828z" fill="#006482"></path><path d="M236.5222,188.86562c0.70932,0.04444 1.2409,0.66653 1.19647,1.37805c0,0.97813 -0.66434,1.15587 -1.28479,1.11144c-1.50697,-0.08887 -1.59584,-1.42249 -1.24145,-1.86739c0.3105,-0.39992 0.79819,-0.66653 1.28534,-0.6221z" fill="#fab414"></path></g></g></g></svg>