<svg version="1.1" xmlns="http://www.w3.org/2000/svg" xmlns:xlink="http://www.w3.org/1999/xlink" width="102.46242" height="76.87917" viewBox="0,0,102.46242,76.87917"><g transform="translate(-188.76877,-141.56042)"><g data-paper-data="{&quot;isPaintingLayer&quot;:true}" fill-rule="nonzero" stroke="none" stroke-width="1" stroke-linecap="butt" stroke-linejoin="miter" stroke-miterlimit="10" stroke-dasharray="" stroke-dashoffset="0" style="mix-blend-mode: normal"><path d="M267.20907,191.99097c0,0 -3.8147,22.60777 -4.95299,25.44796c-0.84401,0.07496 -6.43001,0.22489 -7.26291,-0.02776c0.48308,-5.06127 3.10673,-24.52621 3.10673,-24.52621z" fill="#008264"></path><path d="M239.2985,192.10757c0,0 -2.04616,22.4856 -3.18724,25.32858c-0.84401,0.07496 -6.16348,0.40812 -6.99639,0.15825c0.48031,-5.06127 1.94344,-24.70946 1.94344,-24.70946z" fill="#008264"></path><path d="M190.0978,166.13211c3.16781,-0.64134 6.84091,-0.51085 8.78435,2.4765c1.90457,2.92349 1.78519,7.39895 1.62694,10.73057c-0.16658,3.45377 -0.5053,6.84369 -0.94951,10.27247c-0.17213,1.31876 -0.90787,8.6733 0,13.70126c0.69964,3.85634 2.84298,5.83032 4.10621,5.83032c2.90961,0 5.84698,-1.68247 6.76873,-3.92853c0.92174,-2.24606 1.11054,-4.58374 1.22992,-6.96585c0.11105,-2.29326 0.27763,-4.56431 0.36925,-6.85479c0.09162,-2.29049 0.81902,-10.43072 1.12997,-12.7101c0.06941,2.20164 5.26117,8.60666 8.55669,11.2081c-0.66355,5.71927 -0.77182,23.56838 -6.69932,26.73063c-4.9169,2.62364 -13.64295,2.52092 -17.94351,-1.06334c-4.39495,-3.662 -5.17788,-9.47566 -4.86971,-15.1977c0.39313,-6.82703 1.18827,-13.62518 2.3821,-20.35892c0.44421,-2.57089 1.00781,-6.32174 -0.35815,-8.68718c-0.86066,-1.4909 -2.22108,-2.06838 -3.78138,-2.45707c-0.7635,-0.18879 -1.54643,-0.19435 -1.6658,-1.03002c-0.13326,-0.7635 0.59969,-1.55198 1.31321,-1.69635z" fill="#005a5a"></path><path d="M218.82185,167.07884c4.51711,-4.61706 10.31967,-7.83206 16.8885,-7.6405c7.45726,0.21655 15.02835,3.28997 16.56644,2.09059c2.39321,-1.8657 2.96514,-8.69273 3.7092,-9.36183l9.32851,7.10466c1.22714,10.32245 2.8402,23.61835 2.85685,25.11758c0.08607,4.36996 -0.66632,10.76944 -3.3566,13.83452c-2.69027,3.06509 -5.68318,3.17614 -7.32677,3.73696c-1.92678,0.65799 -20.70596,1.04113 -23.99871,0.65521c-0.07774,-0.06663 -11.95216,0.69131 -16.13889,-4.84194c-4.18673,-5.53325 -4.7531,-11.99658 -4.75032,-14.26763c0.00833,-6.06353 1.90179,-11.99935 6.22179,-16.42762z" fill="#00a08c"></path><path d="M253.13856,192.11035c0,0 -2.04616,22.4856 -3.18447,25.3258c-0.84401,0.07496 -6.16348,0.40812 -6.99639,0.15825c0.48031,-5.06127 1.94344,-24.70946 1.94344,-24.70946z" fill="#00a08c"></path><path d="M226.68556,192.11035c0,0 -2.04339,22.4856 -3.18447,25.3258c-0.84401,0.07496 -6.16348,0.40812 -6.99639,0.15825c0.48031,-5.06127 1.94344,-24.70946 1.94344,-24.70946z" fill="#00a08c"></path><g><path d="M289.55864,203.9459c-1.6075,3.7203 -4.08678,6.60492 -8.23186,7.36286c-3.2622,0.59692 -7.91258,0.86622 -8.56502,-3.23166c0.02776,-0.06941 0.31095,-1.3965 0.36925,-1.53809z" fill="#00a08c"></path><path d="M282.9626,205.52286c-0.64134,1.6436 -1.949,3.17891 -3.56482,3.7675c-1.59195,0.56526 -3.34716,0.44255 -4.84472,-0.33871c-1.66303,-0.87177 -0.96617,-2.57367 -1.01614,-2.91516z" fill="#000000"></path><path d="M275.73689,206.4696c0,0 0.11383,1.12164 -0.60247,1.62416c-0.49808,0.35481 -1.18328,0.27875 -1.59084,-0.17768c-0.29152,-0.34149 -0.56915,-1.49645 -0.56915,-1.49645z" fill="#ffffff"></path><path d="M290.96791,189.19241c0.48863,4.87803 0.43866,10.41962 -1.38817,14.75349c-1.8074,1.04946 -2.76802,1.07722 -4.92245,2.05172c-3.07064,1.39095 -6.47721,1.67691 -7.43227,1.75187c-1.38817,0.1055 -3.05675,-0.00833 -4.36719,-0.52473c-2.92626,-1.15218 -4.17007,-5.5277 -2.31824,-8.09304c1.03835,-1.43537 2.80966,-1.31321 4.22004,-2.14611c1.51589,-0.8801 2.85408,-2.68472 3.55094,-4.25891c0.49086,-1.1222 0.80014,-2.31491 0.91619,-3.53428z" fill="#00a08c"></path></g><path d="M267.71714,183.48981h-12.92388c0.63856,-0.69687 1.11054,-1.67969 1.38817,-3.02621c0.63856,-2.89851 0.25264,-6.2912 -0.01665,-9.22857c-0.30262,-3.28164 -0.93841,-5.97747 -1.00504,-9.27299c-0.06663,-3.29552 -0.09162,-6.5605 0.83291,-9.79494c0.99115,-3.46487 3.75917,-6.86312 6.82703,-8.60666c5.88862,-3.3677 13.09046,-2.29604 18.32386,1.81851c5.04739,3.96462 8.20409,10.77499 9.06476,17.04952c0.47642,3.45822 0.67576,6.94919 0.59692,10.43905c-0.07496,3.05398 0.20267,19.5399 0.38868,21.83039l-11.78558,-1.04113c0.08329,-0.78848 -0.70519,-19.25116 -0.81069,-25.40909c-0.05275,-3.02899 -0.46643,-6.51607 -1.69912,-9.31463c-1.05779,-2.40709 -3.90909,-4.88081 -6.52718,-3.01511c-2.15722,1.53809 -3.12061,4.75587 -3.59259,7.21849c-0.65521,3.43433 -0.63301,6.89921 -0.25264,10.36686c0.26098,2.13778 0.69408,5.80533 1.19105,9.98651z" fill="#00a08c"></path><g><path d="M277.19891,204.48174c-0.14992,-1.09388 0.97172,-1.80462 1.36041,-0.29985c0.40812,1.59362 -1.21049,1.3965 -1.36041,0.29985z" fill="#005a5a"></path><path d="M271.08707,203.54889c-0.14714,-1.09388 0.9745,-1.8074 1.36041,-0.29985c0.4109,1.59362 -1.21049,1.39372 -1.36041,0.29985z" fill="#005a5a"></path><path d="M268.37458,201.85254l-0.43311,-0.09995c-0.30762,-0.62912 -0.27097,-1.37262 0.09717,-1.96843l0.31928,0.06386c0.49697,0.41645 0.51085,1.52976 0.01665,2.00452z" fill="#000000"></path><path d="M287.31258,201.75259l-0.43589,-0.09995c-0.30651,-0.62967 -0.26986,-1.37207 0.09717,-1.96843l0.31928,0.06386c0.49419,0.41645 0.50807,1.52976 0.01944,2.00452z" fill="#000000"></path></g></g></g></svg>