<svg version="1.1" xmlns="http://www.w3.org/2000/svg" xmlns:xlink="http://www.w3.org/1999/xlink" width="148.50001" height="114.83332" viewBox="0,0,148.50001,114.83332"><g transform="translate(-165.75,-136.25)"><g data-paper-data="{&quot;isPaintingLayer&quot;:true}" fill-rule="nonzero" stroke-linecap="butt" stroke-linejoin="miter" stroke-miterlimit="10" stroke-dasharray="" stroke-dashoffset="0" style="mix-blend-mode: normal"><path d="M169.5,156.06059c0,-7.13242 8.67932,-16.06059 16.91534,-16.06059c15.32884,0 68.18577,0 99.75472,0c14.37061,0 24.32995,14.08621 24.32995,23.03217c0,13.28408 0,28.81154 0,36.36994c0,8.64264 -9.26571,20.59788 -22.78454,20.59788c-2.88533,0 -3.63106,14.4124 -6.85513,22.40831c-1.32232,3.27945 -5.00237,4.92502 -6.37011,4.92502c-1.59389,0 -5.54966,-1.86724 -7.19534,-6.97496c-2.55228,-7.92154 -2.82711,-20.35837 -5.47132,-20.35837c-1.64896,0 -1.62231,8.39766 -3.9841,13.61896c-1.28803,2.8475 -5.15996,4.04771 -6.0766,4.04771c-2.3315,0 -6.47479,-0.7114 -8.26157,-4.93019c-1.94746,-4.59819 -1.53407,-12.73648 -4.07176,-12.73648c-11.12445,0 -21.9249,0 -31,0c-3.41027,0 -1.0202,10.56685 -3.18814,17.37361c-1.3423,4.21445 -6.64293,4.95972 -8.1452,4.95972c-0.98965,0 -6.42893,-1.10206 -7.83567,-6.53463c-1.60161,-6.18515 0.17234,-15.79871 -0.63321,-15.79871c-9.13327,0 -19.12731,-7.19844 -19.12731,-16.90094c0,0 -0.00001,-38.22287 -0.00001,-47.03845z" data-paper-data="{&quot;index&quot;:null}" fill="#33aaff" stroke="#0096ff" stroke-width="7.5"></path><path d="M240.91428,172.09499c3.66991,-6.54319 9.69021,-17.27697 11.68824,-20.8393c1.27418,-2.27178 4.0291,-2.53066 5.17082,-0.45273c1.88329,3.42756 7.77279,14.14641 11.20056,20.38494c1.51121,2.75039 -0.15047,4.75416 -3.90921,4.92743c-7.07928,0.32634 -17.934,0.82672 -21.67343,0.9991c-2.51604,0.11598 -4.21992,-1.9119 -2.47698,-5.01943z" fill="#fcfeff" stroke="#0096ff" stroke-width="7.5"></path><g fill="none"><path d="M261.04555,184.45424c-0.06337,0.35344 -0.61903,3.28636 -0.69841,3.63398c-2.32716,10.19082 -11.44724,17.7947 -22.3433,17.7947c-12.65735,0 -22.91816,-10.2608 -22.91816,-22.91815c0,-12.65735 10.26081,-22.91815 22.91816,-22.91815c4.25894,0 8.24654,1.16171 11.66321,3.18554" stroke="#0096ff" stroke-width="18"></path><path d="M260.56136,187.03654c-1.92127,10.7149 -11.2898,18.84638 -22.55753,18.84638c-12.65735,0 -22.91816,-10.2608 -22.91816,-22.91815c0,-12.65735 10.26081,-22.91815 22.91816,-22.91815c3.89602,0 7.56498,0.97216 10.77753,2.68714c0.29925,0.15975 2.53127,0.81013 2.82241,0.98259" stroke="#ffffff" stroke-width="7.5"></path></g></g></g></svg>