<svg version="1.1" xmlns="http://www.w3.org/2000/svg" xmlns:xlink="http://www.w3.org/1999/xlink" width="184.50001" height="283.02286" viewBox="0,0,184.50001,283.02286"><g transform="translate(-133.25,-60.25)"><g data-paper-data="{&quot;isPaintingLayer&quot;:true}" fill-rule="nonzero" stroke-linejoin="miter" stroke-miterlimit="10" stroke-dasharray="" stroke-dashoffset="0" style="mix-blend-mode: normal"><path d="M137,310v-246c0,0 133.59302,0 159.87469,0c8.60166,0 17.12532,8.38377 17.12532,17.97709c0,26.37984 0,151.28797 0,197.11414c0,10.55012 -9.40536,16.90877 -18.6708,16.90877c-1.99414,0 -2.17011,13.55412 -5.40625,21.72902c-1.77155,4.47515 -6.32767,5.93764 -8.26042,5.93764c-1.80149,0 -6.24161,-2.39882 -8.10013,-8.64483c-2.22455,-7.47615 -1.90429,-19.02184 -4.56653,-19.02184c-2.94144,0 -2.2687,20.59529 -5.86363,33.13033c-1.87848,6.55002 -8.07238,9.203 -9.80304,9.203c-1.84957,0 -8.82817,-3.471 -10.46176,-12.13594c-2.25502,-11.96116 0.84556,-30.1974 -1.87157,-30.1974c-13.54643,0 -27.98757,0 -41.66363,0c-3.27583,0 -1.96971,14.68765 -4.3884,23.27285c-1.81246,6.43337 -7.32423,7.39382 -9.6116,7.39382c-0.90501,0 -5.81737,-2.33583 -7.15167,-7.44886c-2.35905,-9.03989 -1.32841,-23.21781 -2.84833,-23.21781c-9.32131,0 -17.58308,0 -24.02745,0c-4.94841,0 -5.15858,8.37353 -7.62072,11.94927c-1.9544,2.83836 -6.68408,2.05073 -6.68408,2.05073z" fill="#33aaff" stroke="#0096ff" stroke-width="7.5" stroke-linecap="butt"></path><path d="M133.3048,343.27286v-80.66667h184v80.66667z" fill="none" stroke="none" stroke-width="0" stroke-linecap="butt"></path><text transform="translate(303.68542,208.55148) rotate(-90) scale(0.49278,0.49278)" font-size="40" xml:space="preserve" fill="#008ef3" fill-rule="nonzero" stroke="none" stroke-width="1" stroke-linecap="butt" stroke-linejoin="miter" stroke-miterlimit="10" stroke-dasharray="" stroke-dashoffset="0" font-family="Sans Serif" font-weight="normal" text-anchor="start" style="mix-blend-mode: normal"><tspan x="0" dy="0">Guess</tspan></text><path d="M275.37788,75.76073c0,0 15.28148,0 20,0c2.58444,0 6,4.77568 6,7.66667c0,3.76456 0,13 0,13" fill="none" stroke="#0096ff" stroke-width="7.5" stroke-linecap="round"></path><path d="M300.98388,107.1398v10" fill="none" stroke="#0096ff" stroke-width="7.5" stroke-linecap="round"></path></g></g></svg>