<svg version="1.1" xmlns="http://www.w3.org/2000/svg" xmlns:xlink="http://www.w3.org/1999/xlink" width="100.74671" height="108.17845" viewBox="0,0,100.74671,108.17845"><g transform="translate(-189.62664,-125.91078)"><g data-paper-data="{&quot;isPaintingLayer&quot;:true}" fill-rule="nonzero" stroke="none" stroke-width="1" stroke-linecap="butt" stroke-linejoin="miter" stroke-miterlimit="10" stroke-dasharray="" stroke-dashoffset="0" style="mix-blend-mode: normal"><g><path d="M244.5976,149.26746c-1.59347,0.53199 -6.94773,0.28642 -7.1111,0.16338c0,-1.3499 -0.28591,-2.78201 3.10626,-2.98624c3.39217,-0.20473 3.71893,1.59548 4.00485,2.82287z" fill="#82783c"></path><path d="M243.20836,148.04009c0.32676,0.04084 0.57234,0.28642 0.57234,0.57284c0,0.40895 -0.32727,0.4498 -0.57234,0.4498c-0.65402,-0.04084 -0.65402,-0.61369 -0.53149,-0.77707c0.12254,-0.16388 0.32727,-0.24558 0.53149,-0.24558c0,0 0.04084,0 0,0z" fill="#645a1e"></path><path d="M238.71236,148.12178c0.32727,0.04084 0.57234,0.28642 0.57234,0.57284c0,0.40895 -0.32676,0.45031 -0.57234,0.45031c-0.65353,-0.04135 -0.65353,-0.61369 -0.53099,-0.77757c0.12254,-0.16338 0.32676,-0.24558 0.53099,-0.24558c0,0 0.04135,0 0,0z" fill="#645a1e"></path><path d="M258.24849,154.70896v1.06349c-0.85826,0 -3.55605,0.0817 -5.23172,0.04084v-1.06349c1.47144,-0.04084 3.76028,-0.08219 5.23172,-0.04084z" fill="#fab414"></path><path d="M259.35181,157.49047c-0.81741,0.20473 -1.59397,0.32777 -2.41138,0.40947l-1.22586,-5.48234c0.77656,-0.36811 2.32919,-0.36811 2.32919,-0.36811z" fill="#ffc800"></path><path d="M228.74058,154.7498v1.06349c-1.67566,0.04084 -4.37296,-0.04084 -5.23172,-0.04084v-1.06349c1.4306,-0.04135 3.71944,0 5.23172,0.04084z" fill="#fab414"></path><path d="M223.71359,152.04949c0,0 1.55313,0 2.32919,0.36811l-1.22586,5.48234c-0.81741,-0.0817 -1.59397,-0.20473 -2.41138,-0.40947z" fill="#ffc800"></path><path d="M256.40894,163.83207l-30.81545,0.12254c0.40846,-3.64077 1.10332,-10.59606 2.16631,-12.80523c1.26671,-2.61813 3.84147,-2.00444 6.41623,-2.0458c2.73814,-0.04084 15.20349,-0.53149 19.04547,0.53199c1.02164,0.98181 2.81984,10.88247 3.18745,14.19649z" fill="#a0aa1e"></path><path d="M233.56284,154.66761c-0.98078,-1.55464 0.53149,-3.96804 4.00535,-4.21361c2.53392,-0.20473 5.06783,-0.16388 7.56091,0.12254c1.87989,0.32727 4.65938,2.53643 2.73814,4.58223c-0.81741,0.85927 -3.88231,0.98181 -7.23363,0.94095c-3.10626,-0.04084 -6.08947,0.12254 -7.07077,-1.4321z" fill="#000000"></path><path d="M248.88938,152.21286c-0.04135,-0.24507 0.0817,-0.49064 0.32676,-0.53149c0.85826,-0.49115 1.67566,-1.02315 2.61561,-1.59548l0.3676,0.16338c-0.04084,0.12304 -0.04084,0.24558 -0.04084,0.28642l-2.00243,1.22737c0.12254,0.04084 0.20423,0.0817 0.32676,0.12254c0.40895,0.04135 0.81741,0.04135 1.26721,0.04135c0.28591,0 0.57234,0.0817 0.65402,0.36811c-0.04084,0.24558 -0.20473,0.32727 -0.36811,0.32727c-0.16338,0 -0.32676,-0.04084 -0.4493,-0.04084c-0.73572,-0.08219 -1.4306,-0.16388 -2.16631,-0.24558c-0.20423,0 -0.3676,-0.04084 -0.53099,-0.12304z" fill="#000000"></path><path d="M228.78143,151.68137l-0.04084,-0.40947c0.0817,-0.04084 0.16338,-0.0817 0.20423,-0.0817c0.28591,0.04084 0.57234,0.0817 0.85826,0.0817c0.16338,0 0.32676,0 0.57234,0c-0.36811,-0.40895 -0.81741,-0.49064 -1.14467,-0.8996l0.28642,-0.40947c0.98078,0.45031 1.7165,1.26822 2.77898,1.59548c0.04084,0.12304 0.04084,0.24558 0.0817,0.40947l-0.53149,0.20423c-0.98078,-0.36811 -2.00243,-0.28642 -3.06491,-0.49064z" fill="#000000"></path></g><g><path d="M287.83808,128.93411c-1.06298,1.06399 -0.28642,3.80517 -0.16388,5.15507c0.16388,1.8819 0.36811,3.76381 0.57234,5.64571c0.36811,3.3957 0.73572,14.23733 -0.12254,17.55134l-17.36981,-16.9785c-0.28591,-3.23182 -0.53099,-10.39183 2.00292,-12.80523c1.02164,-0.98181 3.35133,-2.29136 4.69972,-1.14569c1.7982,1.55464 -0.61268,2.49559 -2.00243,2.57729c-0.16338,1.18653 0.24507,2.20917 0.24507,3.314c1.26721,0.04084 2.61561,-0.24558 3.92367,-0.24558c0.8991,-0.61369 -0.36811,-3.59993 0.40846,-4.70476c0.94046,-1.30906 4.65938,-1.63633 4.61854,-0.40895c-0.04084,1.22737 -0.4498,1.30906 -1.06248,1.39075l-1.67566,0.16388c-0.57234,0.40895 -0.04084,2.57729 0,3.19097c0.3676,0.57284 2.86068,0.40895 3.47386,0.0817c-0.16338,-1.30906 0.12254,-3.23182 1.06248,-4.37751c0.81741,-0.98181 3.75977,-1.26822 3.88282,-0.20473c0.12254,1.06399 -0.04084,0.81841 -0.24558,1.14569c-0.73572,0.45031 -1.47093,0.49115 -2.2475,0.65453z" fill="#d2e614"></path><path d="M277.86579,135.80721c1.06248,1.84106 -1.47144,2.53694 -2.73814,2.74117c-0.40895,0.53199 -0.65402,2.70033 -0.20473,3.27316c0.85826,0.49064 2.12547,0.12254 3.0654,0.20473c1.14417,0.12254 2.248,0.4498 3.26964,0.94095c2.12496,0.98181 4.00535,2.29086 5.19037,4.37751c2.16631,3.80466 2.37054,9.77764 1.7982,14.0326c-2.94237,0.36811 -5.92608,-0.0817 -8.86845,0c-2.37054,0.04084 -5.06783,0.49115 -7.39752,0.12254c-0.28591,-2.82287 -0.16338,-5.64571 -0.49064,-8.46858c-0.28591,-2.70033 -0.85826,-5.31846 -1.02164,-8.05962c-0.12254,-2.08664 -0.61318,-5.89129 0.81741,-7.60931c1.3489,-1.5138 4.8636,-2.9459 6.58012,-1.55515z" fill="#a0aa1e"></path><path d="M271.57159,157.28625h17.53319c0.16338,4.37751 -1.67566,12.80523 -4.78141,17.71473c-2.20715,3.51824 -8.9915,8.87804 -13.24192,8.38688c-0.24507,-1.02265 -0.93994,-17.22408 -0.93994,-17.22408c0.57183,-1.51329 1.02164,-3.06793 1.3484,-4.66392c0.16388,-1.4316 0.20473,-2.82287 0.0817,-4.25446z" fill="#824600"></path></g><g><path d="M189.91442,128.40262c-0.20473,-0.32727 -0.36811,-0.08219 -0.24558,-1.14569c0.12304,-1.06399 3.0654,-0.77757 3.88282,0.20473c0.93994,1.14518 1.22586,3.06793 1.06248,4.37751c0.57234,0.32727 3.10626,0.49064 3.43302,-0.08219c0.04084,-0.61369 0.57234,-2.78201 0,-3.19097l-1.67566,-0.16338c-0.61268,-0.08219 -1.02164,-0.16388 -1.06248,-1.39126c-0.04084,-1.22737 3.67809,-0.90011 4.61854,0.40895c0.77656,1.10484 -0.49064,4.09158 0.4493,4.70528c1.30806,0 2.65645,0.28642 3.92367,0.24507c0,-1.10434 0.40846,-2.12698 0.24507,-3.31351c-1.38974,-0.08219 -3.80063,-1.02315 -2.00243,-2.57779c1.3484,-1.14518 3.67809,0.16388 4.69972,1.10484c2.53392,2.4139 2.28884,9.57341 2.00292,12.80523l-17.36981,16.93766c-0.85826,-3.314 -0.49064,-14.15564 -0.12254,-17.5105c0.20423,-1.8819 0.40846,-3.76381 0.57234,-5.64571c0.12254,-1.3499 0.8991,-4.09107 -0.16388,-5.15457c-0.81741,-0.16388 -1.55262,-0.16388 -2.2475,-0.61369z" fill="#d2e614"></path><path d="M208.67347,137.44404c1.4306,1.71802 0.93994,5.52318 0.81741,7.60931c-0.16338,2.70033 -0.73572,5.3598 -1.02164,8.05962c-0.32727,2.82287 -0.20473,5.64622 -0.49064,8.46908c-2.32968,0.36811 -5.02699,-0.08219 -7.39752,-0.12304c-2.94237,-0.0817 -5.92608,0.36811 -8.86845,0c-0.57234,-4.25446 -0.36811,-10.22794 1.7982,-14.0326c1.18502,-2.08664 3.02456,-3.3957 5.19037,-4.37751c1.02164,-0.49115 2.12547,-0.81841 3.26964,-0.94095c0.98078,-0.0817 2.248,0.28642 3.10626,-0.20473c0.4493,-0.61369 0.20423,-2.74117 -0.20473,-3.27266c-1.26671,-0.20473 -3.80063,-0.90011 -2.73814,-2.74117c1.67566,-1.35042 5.23122,0.0817 6.53927,1.55464z" fill="#a0aa1e"></path><path d="M210.02237,164.44576c0,0 2.37003,18.65568 2.12496,19.67832c-4.25042,0.49115 -14.3044,-5.56352 -16.51106,-9.04141c-3.1471,-4.95034 -4.98614,-13.50061 -4.78192,-17.83726h17.57403c-0.12254,1.4316 -0.12254,2.90455 0.04084,4.33665c0.12254,1.14518 0.69488,2.12748 1.55313,2.86371z" fill="#824600"></path></g><g><path d="M258.24849,220.37194l12.50569,1.92325c0,0.20423 -1.87989,11.25059 -1.87989,11.25059l4.9453,0.0817c0,0 -0.04084,0.32727 -0.0817,0.45031c-1.63482,0.04084 -15.85753,-0.04084 -15.85753,-0.04084c0,0 0.28642,-13.41942 0.36811,-13.66499z" fill="#a0aa1e"></path><path d="M254.89716,228.06345c-0.77656,-6.7914 -0.69488,-25.52877 -0.69488,-26.63361l19.699,8.50992c0.16338,1.14569 -0.81741,11.41447 -1.02164,13.62364c-0.12254,1.4316 -0.04084,2.98624 -0.12254,4.45919z" fill="#005a5a"></path><path d="M253.26234,224.95418h21.0479v6.75056h-21.0479z" fill="#006482"></path></g><g><path d="M227.43252,234.03694c0,0 -14.22271,0.0817 -15.85753,0.04084c-0.04084,-0.12304 -0.0817,-0.45031 -0.0817,-0.45031l4.9453,-0.0817c0,0 -1.87989,-11.04637 -1.87989,-11.25059l12.50621,-1.92325c0.04084,0.24558 0.3676,13.66499 0.3676,13.66499z" fill="#a0aa1e"></path><path d="M213.82299,227.40892c-1.06248,-4.21361 -1.92074,-16.65124 -1.92074,-16.65124l17.85996,-5.15457l0.04084,21.76496z" fill="#005a5a"></path><path d="M211.37077,225.77259h19.98542v6.75056h-19.98542z" fill="#006482"></path></g><g><path d="M210.06322,175.2057c-0.20473,-3.68212 -0.04084,-10.84163 -0.04084,-10.84163c0,0 3.71893,-1.84106 6.70215,-2.9459c2.98372,-1.10434 7.1933,-1.71802 7.1933,-1.71802c0,0 30.81545,-0.24558 34.94334,-0.08219c3.71944,0.16388 9.93145,1.71852 12.01606,4.00939c0.12254,0.69588 1.18502,8.42823 1.22586,8.59162c0.49064,2.53643 0.98078,11.41447 0.98078,11.41447l-31.75539,12.47797l-30.57088,-11.94597c0,0 -0.40846,-3.72297 -0.69437,-8.95973z" fill="#a0640a"></path><path d="M245.37417,187.31555l-3.88231,23.03318l-29.63044,0.36811l-1.14467,-26.55142c0,0 10.13567,-13.46026 12.42451,-14.31952c0.04084,0.12304 1.83904,0 1.83904,0c0,0 8.25578,-0.0817 16.51155,-0.0817z" fill="#008264"></path><path d="M241.5327,169.76421c7.47921,0 15.20349,0.04084 17.81911,0.20473c2.65645,1.47294 13.73206,13.6645 13.73206,13.6645l0.81741,26.30635l-32.40943,0.40895z" fill="#00a08c"></path><path d="M260.61852,158.75919c0.69488,4.21361 0.57234,18.36926 0.57234,18.36926l-3.92367,-0.04084l-0.40846,-18.32841z" fill="#005a5a"></path><path d="M259.39265,173.97833c0.61318,0.04084 1.10332,0.57284 1.06248,1.18653c0,0.85876 -0.65402,1.02265 -1.18502,0.98181c-1.3489,-0.04084 -1.38974,-1.26822 -1.10332,-1.63683c0.28591,-0.36811 0.69437,-0.57234 1.14417,-0.57234c0,0 0.04084,0 0.0817,0.04084z" fill="#ffc800"></path><path d="M225.22588,158.75919l-0.40895,18.32841l-3.88282,0.04084c0,0 -0.12254,-14.15564 0.57234,-18.36926z" fill="#005a5a"></path><path d="M222.77366,173.93747c0.4493,0 0.85826,0.20423 1.14417,0.57234c0.28591,0.36862 0.24507,1.59599 -1.10332,1.63683c-0.53149,0.04084 -1.18552,-0.12304 -1.18552,-0.98181c-0.04084,-0.61369 0.4498,-1.14569 1.06298,-1.18653c0,-0.04084 0.04084,-0.04084 0.0817,-0.04084z" fill="#ffc800"></path><path d="M248.2762,179.74658c0.04084,0.57284 0.04084,1.14569 0.04084,1.71852c0.04084,2.49559 -0.61318,5.68656 -3.0654,7.07782c-2.12496,1.22737 -6.6618,1.06349 -8.66423,-0.40947c-1.67566,-1.79971 -2.81984,-5.60487 -2.16631,-8.38688z" fill="#005a5a"></path><path d="M233.44031,177.12845h15.69415v4.41835h-15.69415z" fill="#006482"></path><path d="M241.5327,178.35582c0.65402,0.04084 1.14417,0.61369 1.10332,1.26822c0,0.90011 -0.61318,1.06349 -1.18502,1.02265c-1.38974,-0.0817 -1.47144,-1.30906 -1.14467,-1.71802c0.28642,-0.36811 0.73572,-0.61369 1.18552,-0.57284z" fill="#fab414"></path></g></g></g></svg>