<svg version="1.1" xmlns="http://www.w3.org/2000/svg" xmlns:xlink="http://www.w3.org/1999/xlink" width="98.72818" height="91.14304" viewBox="0,0,98.72818,91.14304"><g transform="translate(-190.63591,-134.42848)"><g data-paper-data="{&quot;isPaintingLayer&quot;:true}" fill-rule="evenodd" stroke="none" stroke-width="1" stroke-linecap="butt" stroke-linejoin="miter" stroke-miterlimit="10" stroke-dasharray="" stroke-dashoffset="0" style="mix-blend-mode: normal"><path d="M269.11877,212.37039c-1.33069,-1.24218 -3.86935,-4.42556 -3.86935,-4.42556c0,0 2.37472,-1.6621 2.2686,-4.44065c-0.61757,-3.09538 -7.3585,-1.85572 -11.64426,-1.17428l-0.2067,-7.01804c4.29833,-1.19692 12.22914,-0.50793 14.7502,0.60852c1.85773,0.82728 3.16377,2.9772 3.56459,4.82035c0.8469,3.91763 -1.77978,9.31632 -4.86309,11.62968z" fill="#008264"></path><path d="M236.53607,202.40533c0,0 -1.85823,20.36513 -2.89422,22.94001c-0.76643,0.0679 -5.59633,0.36963 -6.3527,0.14333c0.43602,-4.58398 1.7647,-22.37927 1.7647,-22.37927z" fill="#008264"></path><path d="M207.5099,168.07453c1.40914,-0.08298 1.26078,4.5538 0.3807,9.71361c-0.4662,2.71317 -1.43428,6.78922 -1.83762,7.75731c-1.21502,2.88919 -2.55375,5.67277 -3.9981,8.45383c-0.55973,1.06365 -3.46652,7.0985 -4.24552,11.66488c-0.59745,3.4977 0.6231,5.8337 1.69932,6.22345c2.48284,0.9002 5.21814,1.21703 6.7007,-0.40735c0.51648,-0.56577 2.62919,-4.33001 3.59728,-7.5134c1.78984,-5.8865 2.62919,-12.69332 3.14366,-13.93298c0.79157,-1.92613 5.83571,4.97122 7.83978,8.19987c-2.33901,4.66445 -4.1721,18.79859 -13.91035,23.54098c-4.53771,2.2153 -11.98925,-0.10812 -14.54803,-4.49094c-2.61158,-4.47837 -1.91607,-11.6347 0.12321,-16.40979c2.43808,-5.70545 5.36952,-11.11923 8.33917,-16.59586c4.6916,-8.63488 4.56537,-16.07787 6.7158,-16.2036z" fill="#005a5a"></path><g><path d="M284.46391,193.30276c0.0528,0.12824 0.30979,1.33018 0.33493,1.39305c-0.59242,3.70892 -4.81481,3.46502 -7.77692,2.9244c-3.76374,-0.68395 -6.01475,-3.29654 -7.47468,-6.66852z" fill="#00a08c"></path><path d="M284.11087,192.83506c-0.04526,0.30929 0.5899,1.85069 -0.92283,2.63774c-1.35835,0.7086 -2.95205,0.81973 -4.3964,0.30677c-1.46949,-0.53308 -2.65685,-1.9211 -3.23921,-3.41221z" fill="#000000"></path><path d="M281.56718,193.49134c0,0 -0.25195,1.04353 -0.50391,1.35282c-0.36963,0.4144 -0.99273,0.4838 -1.44485,0.16093c-0.65025,-0.45513 -0.54716,-1.471 -0.54716,-1.471z" fill="#ffffff"></path></g><path d="M217.95926,179.73689c4.1017,-4.18165 9.36761,-6.89231 15.33458,-6.91997c1.4373,0 2.88165,0.29923 4.30335,0.4853c1.90601,0.25145 3.84974,0.28665 5.76782,0.42747c3.4288,0.25145 5.54603,-0.5029 6.31749,-4.05593c0.57733,-2.62517 0.22932,-5.69791 -0.0176,-8.3608c-0.27207,-2.97217 -0.85192,-5.41125 -0.91277,-8.39851c-0.06035,-2.98725 -0.08298,-5.9393 0.75637,-8.87125c0.89265,-3.13813 3.41372,-6.21339 6.20182,-7.80257c5.34688,-3.05012 11.88615,-2.08203 16.6381,1.64701c4.59303,3.58823 7.45908,9.75887 8.2406,15.43415c0.4335,3.1321 0.61555,6.29385 0.54465,9.45461c-0.0704,2.76598 -0.89265,5.60739 -1.51274,8.28285c-0.75637,3.24625 -1.22508,6.56542 0.174,9.71361c0.63014,1.42573 1.84515,3.05766 3.22161,3.85477c1.2809,0.74178 2.8917,0.64623 3.83213,1.94625c1.68121,2.32342 0.55219,6.28631 -2.10265,7.32984c-1.19239,0.46519 -2.70764,0.5708 -3.96792,0.47525c-0.8821,-0.0704 -3.97295,-0.32186 -6.76105,-1.57912c-1.95378,-0.8826 -2.82834,-0.90775 -4.46982,-1.86075c-1.95831,-4.63427 -1.66864,-10.81245 -0.9882,-15.69818c0.76894,-5.50681 1.58315,-11.06391 1.4876,-16.64112c-0.04778,-2.74586 -0.42345,-5.90159 -1.54291,-8.43875c-0.96055,-2.17758 -3.5495,-4.41802 -5.92422,-2.73077c-1.96133,1.39305 -2.83588,4.30738 -3.26184,6.53777c-0.59745,3.11298 -0.57482,6.2511 -0.22932,9.39175c0.7433,6.75905 3.64505,30.14412 3.68025,32.05265c0.07845,3.95786 -0.605,9.75384 -3.0476,12.52988c-2.44261,2.77603 -5.1603,2.87662 -6.65293,3.38455c-1.7496,0.59595 -18.8011,0.94295 -21.79087,0.59343c-0.0704,-0.06035 -10.85218,0.62612 -14.65415,-4.38533c-3.80145,-5.01145 -4.31543,-10.86526 -4.31291,-12.92214c0.00755,-5.4892 1.72647,-10.86526 5.64913,-14.87593z" fill="#00a08c"></path><path d="M225.09598,202.40785c0,0 -1.85522,20.36513 -2.8917,22.9375c-0.76592,0.0679 -5.59633,0.36963 -6.3527,0.14333c0.43652,-4.58398 1.7647,-22.37927 1.7647,-22.37927z" fill="#00a08c"></path><g><path d="M279.54802,191.15535c0.35304,-1.36539 1.37142,-0.71915 1.23513,0.27157c-0.13125,0.99072 -1.60578,1.17177 -1.23513,-0.27157z" fill="#005a5a"></path><path d="M284.73095,191.01956c0.35304,-1.36539 1.37142,-0.71915 1.23513,0.27157c-0.13578,1.00581 -1.60578,1.17931 -1.23513,-0.27157z" fill="#005a5a"></path><path d="M288.79996,187.23018l0.28716,-0.06035c0.33393,0.54062 0.36813,1.21401 0.09052,1.78531l-0.39528,0.08801c-0.4491,-0.42747 -0.43652,-1.4358 0.0176,-1.81297z" fill="#000000"></path><path d="M271.60966,187.13966l0.28967,-0.06035c0.33343,0.54113 0.36662,1.21401 0.08851,1.78531l-0.39578,0.08801c-0.4491,-0.42747 -0.4335,-1.43328 0.0176,-1.81297z" fill="#000000"></path></g><path d="M250.27241,211.52803v-6.49753c3.4439,-0.14333 6.88225,-0.04023 8.4126,0.39478c1.9558,0.55571 4.42405,3.13561 5.07934,4.9008c1.39657,3.77179 -0.6754,9.67086 -3.40065,12.3966l-5.6949,-3.98803c0,0 2.72021,-2.65534 2.22133,-5.39365c-0.54213,-1.53889 -3.40617,-1.88087 -6.61773,-1.81297z" fill="#00a08c"></path></g></g></svg>