<svg version="1.1" xmlns="http://www.w3.org/2000/svg" xmlns:xlink="http://www.w3.org/1999/xlink" width="61" height="61" viewBox="0,0,61,61"><g transform="translate(-209.5,-149.5)"><g data-paper-data="{&quot;isPaintingLayer&quot;:true}" fill-rule="nonzero" stroke-linecap="butt" stroke-linejoin="miter" stroke-miterlimit="10" stroke-dasharray="" stroke-dashoffset="0" style="mix-blend-mode: normal"><path d="M212,180c0,-15.46397 12.53603,-28 28,-28c15.46397,0 28,12.53603 28,28c0,15.46397 -12.53603,28 -28,28c-15.46397,0 -28,-12.53603 -28,-28z" fill="#0096ff" stroke="#ffffff" stroke-width="5"></path><path d="M234,185.71965c0,-1.93463 0,-7.6019 0,-7.6019h12c0,0 0,4.92489 0,6.8519c0,1.40608 -1.57067,3.6481 -3.44323,3.6481c-2.00749,0 -4.36192,0 -5.5,0c-1.286,0 -3.05677,-1.70358 -3.05677,-2.8981z" fill="none" stroke="#ffffff" stroke-width="3"></path><path d="M230.375,168.36775c0,-5.31574 4.30926,-9.625 9.625,-9.625c5.31574,0 9.625,4.30926 9.625,9.625c0,5.31574 -4.30926,9.625 -9.625,9.625c-5.31574,0 -9.625,-4.30926 -9.625,-9.625z" fill="#0096ff" stroke="#ffffff" stroke-width="3"></path><text transform="translate(221.8493,197.04018) scale(0.17602,0.17602)" font-size="40" xml:space="preserve" fill="#ffffff" fill-rule="nonzero" stroke="none" stroke-width="1" stroke-linecap="butt" stroke-linejoin="miter" stroke-miterlimit="10" stroke-dasharray="" stroke-dashoffset="0" font-family="Sans Serif" font-weight="normal" text-anchor="start" style="mix-blend-mode: normal"><tspan x="0" dy="0">Brightness</tspan></text></g></g></svg>