<svg version="1.1" xmlns="http://www.w3.org/2000/svg" xmlns:xlink="http://www.w3.org/1999/xlink" width="87.86524" height="90.43742" viewBox="0,0,87.86524,90.43742"><g transform="translate(-196.06738,-134.78129)"><g data-paper-data="{&quot;isPaintingLayer&quot;:true}" fill-rule="evenodd" stroke-miterlimit="10" stroke-dasharray="" stroke-dashoffset="0" style="mix-blend-mode: normal"><g><path d="M203.97117,205.89834c7.942,-10.7398 18.2305,-16.1548 18.2305,-16.1548l17.9597,8.664c0,0 -8.4835,13.4473 -12.3642,15.0718c0,0 -9.6568,-0.9928 -13.718,-3.249" fill="#f9a41e" stroke="none" stroke-width="1" stroke-linecap="butt" stroke-linejoin="miter"></path><path d="M203.97117,205.89834c9.1152,-10.7398 18.2305,-16.1548 18.2305,-16.1548l17.9597,8.664c0,0 -8.4835,13.4473 -12.3642,15.0718c0,0 -9.6568,-0.9928 -13.718,-3.249" fill="none" stroke="#231f20" stroke-width="0.9025" stroke-linecap="round" stroke-linejoin="round"></path><path d="M235.10737,200.21254c-5.054,10.469 -16.1547,8.303 -18.05,4.1515c-1.8952,-4.1515 4.7833,-10.0177 8.3933,-11.6422c3.61,-1.5343 13.357,0 9.6567,7.4907z" fill="#ffffff" stroke="none" stroke-width="1" stroke-linecap="butt" stroke-linejoin="miter"></path></g><g><path d="M215.07187,209.05704c-2.7977,3.0685 -4.9637,7.4908 -7.0395,11.552c-4.0612,7.7615 -13.3569,3.5198 -11.191,-3.4295c1.7148,-5.1442 7.1298,-11.2812 7.1298,-11.2812" fill="#f9a41e" stroke="none" stroke-width="1" stroke-linecap="butt" stroke-linejoin="miter"></path><path d="M215.07187,209.05704c-2.7977,3.0685 -4.9637,7.4908 -7.0395,11.552c-4.0612,7.7615 -13.3569,3.5198 -11.191,-3.4295c1.7148,-5.1442 7.1298,-11.2812 7.1298,-11.2812" fill="none" stroke="#231f20" stroke-width="0.9025" stroke-linecap="round" stroke-linejoin="round"></path></g><g><path d="M232.94137,216.81854c-2.166,5.415 -6.9492,8.2128 -10.7397,6.6785c-3.249,-1.2635 -3.8808,-5.9565 -1.6245,-10.0177c2.527,-4.5125 6.9492,-7.1298 10.2885,-6.137c3.1587,1.083 3.8807,4.8735 2.0757,9.4762z" fill="#f9a41e" stroke="none" stroke-width="1" stroke-linecap="butt" stroke-linejoin="miter"></path><path d="M232.94137,216.81854c-2.166,5.415 -6.9492,8.2128 -10.7397,6.6785c-3.249,-1.2635 -3.8808,-5.9565 -1.6245,-10.0177c2.527,-4.5125 6.9492,-7.1298 10.2885,-6.137c3.1587,1.083 3.8807,4.8735 2.0757,9.4762z" fill="none" stroke="#231f20" stroke-width="0.9025" stroke-linecap="round" stroke-linejoin="round"></path></g><g><path d="M260.10667,163.30034c5.1442,-3.7905 10.83,-13.718 12.3642,-17.5988c2.4368,-6.4077 12.0935,-1.2635 8.2128,7.22c-3.7905,8.3933 -18.5013,16.1548 -18.5013,16.1548c-3.61,2.166 -7.0395,-1.9855 -2.0757,-5.776z" fill="#f9a41e" stroke="none" stroke-width="1" stroke-linecap="butt" stroke-linejoin="miter"></path><path d="M260.10667,163.30034c5.1442,-3.7905 10.83,-13.718 12.3642,-17.5988c2.4368,-6.4077 12.0935,-1.2635 8.2128,7.22c-3.7905,8.3933 -18.5013,16.1548 -18.5013,16.1548c-3.61,2.166 -7.0395,-1.9855 -2.0757,-5.776z" fill="none" stroke="#231f20" stroke-width="0.9025" stroke-linecap="round" stroke-linejoin="round"></path></g><g><path d="M217.05737,191.36804c0,0 -7.3102,-0.9025 -10.5592,5.6858c-2.7075,5.8662 -12.7252,3.4295 -8.0323,-4.9638c4.1515,-7.4907 14.7108,-5.6857 14.7108,-5.6857z" fill="#f9a41e" stroke="none" stroke-width="1" stroke-linecap="butt" stroke-linejoin="miter"></path><path d="M217.05737,191.36804c0,0 -7.3102,-0.9025 -10.5592,5.6858c-2.7075,5.8662 -12.274,3.7002 -8.0323,-4.9638c3.61,-7.4907 14.7108,-5.6857 14.7108,-5.6857z" fill="none" stroke="#231f20" stroke-width="0.9025" stroke-linecap="round" stroke-linejoin="round"></path></g><g><path d="M245.66667,144.34784l9.025,-9.1153l2.888,12.635c0,0 5.415,2.7075 8.8445,9.025c3.4295,6.2273 2.888,11.3715 2.888,11.3715c0,0 6.0467,0.8123 6.9492,8.664c1.6245,14.9815 -16.0645,24.909 -38.8977,22.8333c-17.2378,-1.444 -30.4143,-12.5448 -29.6923,-26.1725c0.722,-12.274 6.5883,-16.606 6.5883,-16.606l-1.9855,-20.7575l14.6205,10.1982c0,0 4.4222,-2.2562 9.4762,-2.527c5.054,-0.0902 9.2958,0.4513 9.2958,0.4513z" fill="#f9a41e" stroke="none" stroke-width="1" stroke-linecap="butt" stroke-linejoin="miter"></path><path d="M269.22187,168.26404c3.61,0.722 5.6858,2.4368 6.9493,8.664c1.805,8.3933 -6.3175,25.8115 -38.8978,22.8333c-10.7397,-0.9025 -22.382,-5.8663 -18.5012,-20.1258c3.4295,-13.1765 23.465,-4.6027 31.407,-6.137c8.0322,-1.444 11.0105,-6.6785 19.0427,-5.2345z" fill="#ffffff" stroke="none" stroke-width="1" stroke-linecap="butt" stroke-linejoin="miter"></path><path d="M229.24117,148.13834l-4.1515,-2.9783" fill="none" stroke="#231f20" stroke-width="0.63175" stroke-linecap="round" stroke-linejoin="round"></path><path d="M245.66667,144.34784l9.025,-9.1153l2.888,12.635c0,0 5.415,2.7075 8.8445,9.025c3.4295,6.2273 2.888,11.3715 2.888,11.3715c0,0 6.0467,0.8123 6.9492,8.664c1.6245,14.9815 -16.0645,24.909 -38.8977,22.8333c-17.2378,-1.444 -30.4143,-12.5448 -29.6923,-26.1725c0.722,-12.274 6.5883,-16.606 6.5883,-16.606l-1.9855,-20.7575l14.6205,10.1982c0,0 4.4222,-2.2562 9.4762,-2.527c5.054,-0.0902 9.2958,0.4513 9.2958,0.4513z" fill="none" stroke="#231f20" stroke-width="0.9025" stroke-linecap="round" stroke-linejoin="round"></path></g><g fill="none" stroke="#231f20" stroke-width="0.9025" stroke-linecap="round" stroke-linejoin="round"><path d="M210.28867,178.37204c0,0 -3.8808,0.361 -5.9565,0.4513c-2.0758,0 -6.5883,-0.4513 -6.5883,-0.4513"></path><path d="M197.02187,167.63234c0,0 2.4368,0.5415 6.9493,2.6172c4.0612,1.8953 6.5882,3.8808 6.5882,3.8808"></path></g><g><path d="M264.07767,157.07304c3.0685,4.9638 3.0685,10.469 0,12.4545c-3.0685,1.9855 -8.0323,-0.5415 -11.191,-5.5052c-3.0685,-4.9638 -3.0685,-10.469 0,-12.4545c3.0685,-1.8953 8.1225,0.5415 11.191,5.5052z" fill="#ffffff" stroke="#231f20" stroke-width="0.9025" stroke-linecap="round" stroke-linejoin="round"></path><path d="M262.58617,160.36484c0.361,1.1732 -0.361,2.3465 -1.3538,2.527c-0.9927,0.2707 -2.166,-0.4513 -2.4367,-1.6245c-0.361,-1.1733 0.361,-2.3465 1.3537,-2.527c0.9928,-0.1805 2.0758,0.5415 2.4368,1.6245" fill="#231f20" stroke="none" stroke-width="1" stroke-linecap="butt" stroke-linejoin="miter"></path></g><g><path d="M237.81487,160.05134c3.0685,4.9637 2.6173,10.83 -0.9927,13.0862c-3.61,2.2563 -9.1153,0.0903 -12.1838,-4.8735c-3.0685,-4.9637 -2.6172,-10.83 0.9928,-13.0862c3.61,-2.2563 9.1152,-0.0903 12.1837,4.8735z" fill="#ffffff" stroke="#231f20" stroke-width="0.9025" stroke-linecap="round" stroke-linejoin="round"></path><path d="M236.05267,163.61384c0,1.1732 -0.9025,2.0757 -1.9855,2.0757c-0.9928,0 -1.9855,-0.9927 -1.9855,-2.166c0,-1.1732 0.9025,-2.0757 1.9855,-2.0757c1.1732,0.0902 1.9855,0.9927 1.9855,2.166" fill="#231f20" stroke="none" stroke-width="1" stroke-linecap="butt" stroke-linejoin="miter"></path></g><g stroke="#231f20" stroke-linecap="round" stroke-linejoin="round"><path d="M249.36687,170.97154c1.805,-0.2707 5.054,-1.1732 5.415,0.9928c0,0.9025 -1.805,4.6027 -4.0612,4.693c-2.166,0.0902 -6.137,-2.4368 -5.8663,-4.1515c0.2708,-1.6245 2.888,-1.2635 4.5125,-1.5343z" fill="#231f20" stroke-width="0.63175"></path><path d="M256.85767,179.99654c0.0902,2.166 -14.079,3.7905 -13.8985,0.9928" fill="none" stroke-width="0.9025"></path></g><g fill="#231f20" stroke="#231f20" stroke-width="0.63175" stroke-linecap="round" stroke-linejoin="round" opacity="0.1"><path d="M217.77937,192.90234c-0.722,0.5415 -1.5342,1.1732 -2.4367,1.805"></path><path d="M239.07837,200.03204c-0.361,0.5415 -0.9025,1.3538 -1.5342,2.166"></path></g><g fill="none" stroke="#231f20" stroke-width="0.9025" stroke-linecap="round" stroke-linejoin="round"><path d="M283.48137,169.70804c0,0 -2.0757,1.7148 -5.054,2.6173c-2.527,0.8122 -7.4907,1.5342 -7.4907,1.5342"></path><path d="M282.30817,182.25284c0,0 -2.0758,0.0902 -5.054,-0.2708c-2.9783,-0.361 -5.9565,-1.6245 -5.9565,-1.6245"></path></g></g></g></svg>