<svg version="1.1" xmlns="http://www.w3.org/2000/svg" xmlns:xlink="http://www.w3.org/1999/xlink" width="62.53515" height="113.16784" viewBox="0,0,62.53515,113.16784"><g transform="translate(-208.73243,-123.41608)"><g data-paper-data="{&quot;isPaintingLayer&quot;:true}" fill-rule="nonzero" stroke="none" stroke-width="1" stroke-linecap="butt" stroke-linejoin="miter" stroke-miterlimit="10" stroke-dasharray="" stroke-dashoffset="0" style="mix-blend-mode: normal"><g><path d="M231.27616,191.82964l5.03183,20.7563l-4.93507,-1.4031c0,0 -4.2577,-0.14515 -5.85435,0.33868c-5.85435,1.83855 -5.90273,8.2735 -4.93507,11.41838c-2.12885,2.80622 -2.90298,7.20907 -3.33843,10.64426c-1.25795,-1.4031 -4.59638,-12.28928 -4.98345,-14.07945c0,0 -1.6934,-16.15992 1.30634,-31.73925c2.99975,-15.57932 8.17673,-15.14388 8.17673,-15.14388c1.45149,5.61243 9.53145,19.20805 9.53145,19.20805z" fill="#c8c8be"></path><path d="M237.1305,215.05348c0,0 -20.80468,-11.37 -23.17545,-22.15941l2.41915,-6.5317c0,0 3.33843,12.43443 8.5154,18.14362c2.80622,3.04813 11.61192,9.19277 11.61192,9.19277z" fill="#f0e6d2"></path><path d="M212.84224,213.65036l-0.62898,-8.32188c0.77413,7.78966 8.37025,17.61141 8.37025,17.61141c-3.38681,-2.274 -6.09625,-5.46728 -7.74128,-9.28953z" fill="#f0e6d2"></path><path d="M223.72841,159.8001l-2.8546,18.7726c-0.04838,1.45149 -1.06443,3.09651 -1.59664,4.45123c-0.82251,2.12885 -1.4031,4.2577 -2.03208,6.43494c-1.45149,4.98345 -1.79017,9.87013 -2.46753,14.99873c-1.30634,9.9669 -0.77413,19.59511 2.46753,29.12656c-0.24192,0.14515 -1.06443,-1.74179 -1.49987,-1.35472c-0.43545,0.38707 1.45149,3.04813 1.11281,3.29005c-0.33868,0.24192 -1.83855,-2.8546 -2.22562,-2.46753c-0.38707,0.38707 0.8709,2.99975 1.01605,3.4352l-0.09677,0.09677c-2.08047,-2.03208 -7.78966,-14.56328 -6.67685,-37.2549c0.24192,-6.48332 1.20957,-12.91826 2.99975,-19.20805c0.82251,-2.66107 1.88693,-5.22537 3.1449,-7.6929c4.01579,-8.22511 8.5154,-12.43443 8.70894,-12.62796z" fill="#828278"></path></g><g><path d="M266.49898,196.66793c0.09677,5.08022 0.19353,10.11205 0.24192,15.14388c0.04838,3.53196 0.62898,7.59613 0.04838,11.0797c-0.43545,2.66107 -2.95136,5.27375 -4.49962,7.45098c-0.62898,-1.35472 -1.20957,-4.548 -2.274,-6.14464c-1.06443,-1.64502 -2.5643,-2.90298 -4.30608,-3.72549c0,0 1.9837,-5.56405 -2.22562,-7.93481c-4.20932,-2.37077 -12.8215,2.37077 -12.8215,2.37077l6.14464,-17.32111l9.33792,-27.43315c0,0 10.45073,16.88567 10.30558,17.99847c-0.33868,2.75783 0,5.7092 0.04838,8.5154z" fill="#c8c8be"></path><path d="M240.46893,215.19863c0,0 23.51413,-13.644 22.06265,-34.30355l3.33843,10.59588c-4.11255,7.6929 -9.9669,14.36975 -17.0792,19.40158c-2.51592,1.79017 -5.27375,2.90298 -8.32188,4.30608z" fill="#f0e6d2"></path><path d="M255.70957,220.42399c0,0 13.06341,-14.8052 10.59588,-26.22358l1.30634,3.33843c0,0 2.51592,11.56353 -11.90222,22.88515z" fill="#f0e6d2"></path><path d="M270.22446,219.69824c-0.33868,2.70945 -1.4031,5.22537 -2.46753,7.6929c-0.77413,1.74179 -2.32238,6.38655 -4.2577,7.16068c0,-0.5806 1.54825,-2.17723 0.91928,-2.70945c-0.67736,-0.19353 -1.30634,1.4031 -1.79017,1.64502c-0.19353,-0.5806 0.67736,-2.70945 0.43545,-3.29005c-0.14515,-0.09677 -0.91928,1.35472 -1.1612,1.20957c0.09677,-2.80622 1.20957,-5.56405 1.64502,-8.37025c0.43545,-2.90298 0.91928,-5.80596 1.20957,-8.70894c0.62898,-5.99949 0.38707,-12.09575 -0.72575,-17.99847c-0.91928,-5.03183 -2.41915,-9.91852 -4.45123,-14.56328c-0.96766,-2.22562 -4.49962,-8.41864 -4.49962,-8.41864l-3.77387,-15.14468c1.20957,-0.04758 4.20932,3.96821 5.03183,4.88749c2.70945,2.90298 5.1286,6.09625 7.16068,9.53145c2.41915,4.30608 4.30608,8.95085 5.51566,13.74077c1.35472,5.08022 3.58034,14.75681 1.20957,33.33588z" fill="#828278"></path></g><path d="M237.95301,210.84416c0,0 -0.2903,4.16094 -0.24192,7.59613h-0.77413c0.04838,-1.74179 0.04838,-3.33843 0.04838,-3.33843c0,0 -3.29005,-2.66107 -4.35447,-3.82225c-3.38681,-3.77387 -7.4026,-13.98268 -7.9832,-17.80495l10.11205,5.32213c0.43545,1.45149 3.19328,12.04737 3.19328,12.04737z" fill="#3c3c32"></path><path d="M251.98408,195.02291c-0.19353,3.04813 -3.09651,11.12809 -5.22537,14.36975c-2.32238,3.62872 -5.46728,5.56405 -6.28979,5.80596c0,0.91928 -0.04838,2.274 -0.04838,3.19328h-0.8709c0.04838,-1.35472 0.14515,-7.4026 0.14515,-7.4026c0,0 2.70945,-12.43443 2.70945,-12.57958z" fill="#3c3c32"></path><g><g fill="#64645a"><path d="M229.24407,126.17391l-0.33868,-0.19353c0,-0.19353 0,-0.33868 0,-0.48383c0,-0.43545 -0.04838,-0.91928 -0.04838,-1.35472c-0.04838,-0.24192 0,-0.43545 0.14515,-0.62898c0.24192,0.04838 0.33868,0.09677 0.33868,0.2903c0,0.38707 0.04838,0.72575 0.04838,1.11281c0,0.38707 0,0.5806 0,0.8709c-0.04838,0.14515 -0.09677,0.24192 -0.14515,0.38707z"></path><path d="M228.56671,126.65775l-0.38707,-0.09677c-0.04838,-0.14515 -0.04838,-0.33868 -0.09677,-0.48383c-0.09677,-0.43545 -0.24192,-0.8709 -0.38707,-1.30634c-0.09677,-0.33868 -0.09677,-0.33868 0,-0.62898c0.2903,0 0.33868,0.04838 0.38707,0.24192c0.09677,0.33868 0.19353,0.72575 0.2903,1.06443c0.09677,0.33868 0.14515,0.5806 0.19353,0.8709c0,0.09677 0,0.24192 0,0.33868z"></path><path d="M229.63113,126.12553c0.04838,-0.2903 0.09677,-0.53221 0.19353,-0.8709c0.09677,-0.33868 0.19353,-0.72575 0.2903,-1.06443c0.04838,-0.19353 0.09677,-0.24192 0.38707,-0.24192c0.09677,0.19353 0.09677,0.43545 0,0.62898c-0.14515,0.43545 -0.2903,0.8709 -0.38707,1.30634c-0.04838,0.14515 -0.04838,0.33868 -0.09677,0.48383l-0.38707,0.09677c-0.04838,-0.14515 -0.04838,-0.24192 0,-0.33868z"></path></g><path d="M223.09943,172.04099c0,0 -1.79017,-12.5312 -1.6934,-18.7726c0.09677,-5.1286 0.8709,-10.16043 1.79017,-15.19226c0.5806,-3.24166 2.12885,-12.04737 6.19302,-12.8215c4.69315,2.03208 5.27375,15.14388 5.46728,19.25643c0.2903,5.37051 0.5806,19.0629 0.19353,24.38503c-2.46753,1.06443 -11.9506,3.1449 -11.9506,3.1449z" fill="#64645a"></path><path d="M224.74446,163.71912c0,0 -0.48383,-12.19252 0.53221,-21.72397c0.72575,-6.58008 2.37077,-10.98294 3.38681,-11.12809c2.51592,-0.38707 3.24166,10.20881 3.38681,12.86988c0.19353,3.48358 0.24192,14.66005 0,18.09524c-1.59664,0.72575 -7.30583,1.88693 -7.30583,1.88693z" fill="#3c3c32"></path></g><g><g fill="#64645a"><path d="M246.46841,126.07715l-0.33868,-0.19353c0,-0.19353 0,-0.33868 0,-0.48383c0,-0.43545 -0.04838,-0.91928 -0.04838,-1.35472c-0.04838,-0.24192 0,-0.43545 0.14515,-0.62898c0.24192,0.04838 0.33868,0.09677 0.33868,0.2903c0,0.38707 0.04838,0.72575 0.04838,1.11281c0,0.2903 0,0.5806 0,0.8709c-0.04838,0.14515 -0.09677,0.2903 -0.14515,0.38707z"></path><path d="M245.79106,126.60936l-0.38707,-0.09677c-0.04838,-0.19353 -0.04838,-0.33868 -0.09677,-0.48383c-0.09677,-0.43545 -0.24192,-0.8709 -0.38707,-1.30634c-0.09677,-0.33868 -0.09677,-0.33868 0,-0.62898c0.2903,0 0.33868,0.04838 0.38707,0.19353c0.09677,0.33868 0.19353,0.72575 0.2903,1.06443c0.09677,0.33868 0.14515,0.5806 0.19353,0.8709c0,0.14515 0,0.24192 0,0.38707z"></path><path d="M246.85548,126.07715c0.04838,-0.2903 0.09677,-0.53221 0.19353,-0.8709c0.09677,-0.33868 0.19353,-0.72575 0.2903,-1.06443c0.04838,-0.19353 0.09677,-0.24192 0.38707,-0.24192c0.09677,0.19353 0.09677,0.43545 0,0.62898c-0.14515,0.43545 -0.2903,0.8709 -0.38707,1.30634c-0.04838,0.14515 -0.04838,0.33868 -0.09677,0.48383l-0.38707,0.09677c0,-0.14515 -0.04838,-0.24192 0,-0.33868z"></path></g><path d="M255.95148,177.9921c-2.17723,-3.04813 -13.30532,-10.20881 -13.98268,-10.98294c-1.1612,-4.98345 -2.70945,-41.70614 3.9674,-41.75452c5.7092,-0.04838 6.48332,10.74102 7.30583,14.46652c1.1612,5.4189 2.90298,31.69086 2.70945,38.27095z" fill="#64645a"></path><path d="M245.16208,169.86376c-0.14515,-9.096 -1.49987,-36.48078 1.11281,-39.23861c2.61268,-2.75783 4.59638,10.35396 5.03183,13.98268c0.43545,3.38681 0.77413,15.6277 0.91928,25.49783z" fill="#3c3c32"></path></g><path d="M249.71008,200.10313c-5.4189,5.1286 -14.03107,4.49962 -19.9338,0.43545c-5.66081,-3.87064 -8.99923,-12.77311 -9.3863,-19.40158c-0.38707,-6.2414 -1.59664,-15.33741 2.12885,-20.7563c4.06417,-5.85435 6.77362,-7.49937 14.75681,-7.6929c5.32213,-0.19353 10.49911,1.79017 14.36975,5.4189c3.1449,2.99975 5.03183,7.74128 5.4189,11.99898c0.8709,9.62822 -2.41915,25.3043 -7.35422,29.99745z" fill="#64645a"></path><g><path d="M231.80837,174.89559c0.04838,-0.19353 0,-0.38707 0.77413,-0.43545c2.37077,-0.24192 7.20907,-0.09677 8.90247,-0.14515c1.6934,-0.04838 3.58034,0.24192 3.58034,0.72575c0,0.48383 -0.5806,0.82251 -1.59664,0.82251c-1.83855,0.04838 -3.6771,0.04838 -5.46728,0c-1.49987,0 -2.95136,-0.04838 -4.40285,-0.14515c-0.53221,-0.04838 -1.9837,-0.04838 -1.79017,-0.82251z" fill="#000000"></path><path d="M241.77526,174.26661c0.8709,0 1.30634,0.04838 1.30634,0.04838c-0.2903,0.62898 -1.25795,2.51592 -1.54825,2.51592c-0.33868,0 -1.25795,-1.93532 -1.54825,-2.5643c0,0 1.54825,0 1.79017,0z" fill="#ffffff"></path><path d="M244.2428,170.05729c-2.66107,2.80622 -9.82175,2.08047 -12.09575,0.19353c-1.93532,-1.59664 -1.49987,-4.88668 0.48383,-6.43494c1.9837,-1.54825 5.1286,-1.25795 7.45098,-1.35472c2.37077,0.2903 3.91902,0.19353 4.8383,2.66107c0.67736,1.79017 0.33868,3.91902 -0.67736,4.93507z" fill="#f01446"></path><path d="M242.40424,164.83193c1.25795,-0.09677 1.30634,1.59664 1.25795,2.37077c-0.04838,0.77413 -0.09677,2.08047 -1.20957,1.9837c-1.11281,-0.09677 -1.30634,-1.30634 -1.25795,-1.9837c0.04838,-0.67736 -0.09677,-2.32238 1.20957,-2.37077z" fill="#6e1e3c"></path><path d="M233.84046,164.83193c1.25795,-0.09677 1.35472,1.59664 1.25795,2.37077c-0.09677,0.77413 -0.09677,2.08047 -1.20957,1.9837c-1.11281,-0.09677 -1.30634,-1.30634 -1.25795,-1.9837c0.04838,-0.67736 -0.04838,-2.32238 1.20957,-2.37077z" fill="#6e1e3c"></path><path d="M225.4702,167.58976c-0.2903,0 -0.48383,-0.19353 -0.53221,-0.48383c-0.09677,-0.43545 -0.09677,-0.8709 -0.09677,-1.30634c0.04838,-0.43545 0.38707,-0.5806 0.77413,-0.72575c0.2903,0.43545 0.33868,1.01605 0.19353,1.49987c0,0.38707 0,0.77413 -0.33868,1.01605z" fill="#000000"></path><path d="M251.20995,167.73491c-0.67736,-0.2903 -0.5806,-0.82251 -0.53221,-1.4031c0,-0.62898 0.09677,-0.67736 0.67736,-0.91928c0.62898,0.5806 0.67736,1.49987 0.09677,2.12885c-0.09677,0.04838 -0.14515,0.09677 -0.24192,0.19353z" fill="#000000"></path><path d="M235.67901,174.26661h1.06443c-0.43545,0.77413 -1.1612,2.08047 -1.4031,2.08047c-0.24192,0 -0.91928,-1.20957 -1.30634,-2.03208c0.04838,0 1.59664,-0.04838 1.64502,-0.04838z" fill="#ffffff"></path></g></g></g></svg>