<svg version="1.1" xmlns="http://www.w3.org/2000/svg" xmlns:xlink="http://www.w3.org/1999/xlink" width="107.43299" height="99.17907" viewBox="0,0,107.43299,99.17907"><g transform="translate(-186.28351,-130.41046)"><g data-paper-data="{&quot;isPaintingLayer&quot;:true}" fill-rule="evenodd" stroke="none" stroke-width="1" stroke-linecap="butt" stroke-linejoin="miter" stroke-miterlimit="10" stroke-dasharray="" stroke-dashoffset="0" style="mix-blend-mode: normal"><path d="M271.68616,215.22447c-1.44801,-1.3517 -4.21051,-4.81576 -4.21051,-4.81576c0,0 2.58409,-1.80865 2.46862,-4.83218c-0.67202,-3.3683 -8.0073,-2.01934 -12.67093,-1.27782l-0.22492,-7.63681c4.67731,-1.30245 13.30737,-0.55272 16.05072,0.66217c2.02153,0.90022 3.44272,3.2397 3.87888,5.24535c0.92157,4.26305 -1.9367,10.13773 -5.29186,12.65506z" fill="#008264"></path><path d="M236.23066,204.38079c0,0 -2.02207,22.16072 -3.1494,24.96261c-0.83401,0.07388 -6.08975,0.40222 -6.91281,0.15597c0.47446,-4.98815 1.92029,-24.35244 1.92029,-24.35244z" fill="#008264"></path><path d="M204.64527,167.02306c1.53338,-0.0903 1.37195,4.95531 0.41427,10.57005c-0.5073,2.95239 -1.56074,7.38782 -1.99964,8.44126c-1.32215,3.14392 -2.77891,6.17293 -4.35061,9.1992c-0.60908,1.15743 -3.77216,7.72437 -4.61985,12.69337c-0.65013,3.80609 0.67804,6.34805 1.84914,6.77217c2.70175,0.97957 5.67822,1.32434 7.2915,-0.44327c0.56202,-0.61565 2.861,-4.71179 3.91445,-8.17585c1.94765,-6.40551 2.861,-13.81248 3.42084,-15.16145c0.86136,-2.09595 6.35024,5.40953 8.53101,8.92284c-2.54524,5.07571 -4.53995,20.45605 -15.13682,25.61658c-4.9378,2.41062 -13.04634,-0.11765 -15.83073,-4.8869c-2.84185,-4.87322 -2.08501,-12.66053 0.13408,-17.85663c2.65305,-6.2085 5.84294,-12.09961 9.07443,-18.05911c5.10526,-9.39621 4.9679,-17.49545 7.30792,-17.63226z" fill="#005a5a"></path><g><path d="M288.38428,194.47565c0.05746,0.13954 0.3371,1.44747 0.36447,1.51587c-0.64465,4.03593 -5.23933,3.77052 -8.46261,3.18224c-4.09558,-0.74425 -6.54506,-3.58719 -8.13372,-7.25648z" fill="#00a08c"></path><path d="M288.00011,193.96671c-0.04925,0.33655 0.64192,2.01386 -1.0042,2.8703c-1.47811,0.77107 -3.21233,0.89201 -4.78403,0.33382c-1.59905,-0.58008 -2.8911,-2.09048 -3.52481,-3.71307z" fill="#000000"></path><path d="M285.23214,194.68087c0,0 -0.27417,1.13554 -0.54834,1.47209c-0.40222,0.45093 -1.08026,0.52645 -1.57224,0.17512c-0.70759,-0.49526 -0.59541,-1.6007 -0.59541,-1.6007z" fill="#ffffff"></path></g><path d="M216.01595,179.71369c4.46334,-4.55035 10.19355,-7.50001 16.68662,-7.5301c1.56403,0 3.13572,0.32561 4.68278,0.52809c2.07406,0.27362 4.18916,0.31193 6.27636,0.46516c3.73112,0.27362 6.03503,-0.54724 6.8745,-4.41354c0.62824,-2.85662 0.24954,-6.2003 -0.01915,-9.09796c-0.29606,-3.23422 -0.92703,-5.88836 -0.99325,-9.13901c-0.06567,-3.25064 -0.0903,-6.46297 0.82306,-9.65342c0.97136,-3.41482 3.7147,-6.76122 6.74863,-8.49052c5.81832,-3.31905 12.93415,-2.2656 18.10508,1.79223c4.998,3.9046 8.11675,10.6193 8.96717,16.79497c0.47172,3.40825 0.66983,6.84878 0.59267,10.28822c-0.07661,3.00985 -0.97136,6.10179 -1.64611,9.01314c-0.82306,3.53247 -1.33309,7.14429 0.18934,10.57005c0.6857,1.55144 2.00784,3.32726 3.50566,4.19464c1.39384,0.80719 3.14666,0.70321 4.17001,2.11785c1.82945,2.52827 0.60087,6.84058 -2.28804,7.9761c-1.29752,0.5062 -2.94637,0.62113 -4.31777,0.51715c-0.95987,-0.07661 -4.32324,-0.35024 -7.35717,-1.71835c-2.12605,-0.96042 -3.07771,-0.98778 -4.86392,-2.02481c-2.13098,-5.04287 -1.81576,-11.76578 -1.07533,-17.08228c0.83673,-5.99235 1.72273,-12.0394 1.61876,-18.10836c-0.05199,-2.98796 -0.46078,-6.42193 -1.67895,-9.18279c-1.04524,-2.36958 -3.86246,-4.80755 -6.44655,-2.97154c-2.13426,1.51587 -3.08592,4.68716 -3.54943,7.1142c-0.65013,3.38745 -0.6255,6.80226 -0.24954,10.21982c0.80883,7.35499 3.96644,32.80191 4.00474,34.87871c0.08537,4.30683 -0.65834,10.61383 -3.31631,13.63463c-2.65798,3.0208 -5.61529,3.13025 -7.23952,3.68296c-1.90387,0.64849 -20.45878,1.02609 -23.71216,0.64575c-0.07661,-0.06567 -11.80902,0.68132 -15.9462,-4.77198c-4.13663,-5.45331 -4.69592,-11.82325 -4.69318,-14.06148c0.00821,-5.97318 1.87869,-11.82325 6.14721,-16.18753z" fill="#00a08c"></path><path d="M223.78191,204.38353c0,0 -2.01879,22.16072 -3.14666,24.95988c-0.83345,0.07388 -6.08975,0.40222 -6.91281,0.15597c0.47501,-4.98815 1.92029,-24.35244 1.92029,-24.35244z" fill="#00a08c"></path><g><path d="M283.03495,192.13891c0.38416,-1.48577 1.49234,-0.78256 1.34404,0.29551c-0.14283,1.07807 -1.74736,1.27508 -1.34404,-0.29551z" fill="#005a5a"></path><path d="M288.67486,191.99115c0.38416,-1.48577 1.49234,-0.78256 1.34404,0.29551c-0.14776,1.09449 -1.74736,1.28329 -1.34404,-0.29551z" fill="#005a5a"></path><path d="M293.10263,187.86766l0.31248,-0.06567c0.36337,0.58829 0.40059,1.32105 0.0985,1.94272l-0.43014,0.09577c-0.48869,-0.46516 -0.47501,-1.56239 0.01915,-1.97282z" fill="#000000"></path><path d="M274.39668,187.76915l0.31521,-0.06567c0.36283,0.58884 0.39894,1.32105 0.09632,1.94272l-0.43068,0.09577c-0.48869,-0.46516 -0.47172,-1.55965 0.01915,-1.97282z" fill="#000000"></path></g><path d="M251.17813,214.30784v-7.07042c3.74754,-0.15597 7.48906,-0.04378 9.15433,0.42959c2.12824,0.60471 4.81412,3.41208 5.52718,5.33291c1.5197,4.10434 -0.73495,10.52354 -3.70048,13.48961l-6.19701,-4.33966c0,0 2.96005,-2.88946 2.41719,-5.86921c-0.58993,-1.67457 -3.70649,-2.0467 -7.20121,-1.97282z" fill="#00a08c"></path></g></g></svg>