<svg version="1.1" xmlns="http://www.w3.org/2000/svg" xmlns:xlink="http://www.w3.org/1999/xlink" width="99.63002" height="96.38652" viewBox="0,0,99.63002,96.38652"><g transform="translate(-190.18499,-131.80675)"><g data-paper-data="{&quot;isPaintingLayer&quot;:true}" fill-rule="nonzero" stroke="none" stroke-width="1" stroke-linecap="butt" stroke-linejoin="miter" stroke-miterlimit="10" stroke-dasharray="" stroke-dashoffset="0" style="mix-blend-mode: normal"><path d="M235.45467,206.70007l9.0279,1.28088c0.04496,2.85699 -0.41734,6.88013 -2.04378,9.18826c-1.56738,2.25782 -3.86613,3.90572 -6.50774,4.66391c-1.35939,0.37641 -2.76574,0.22612 -4.15264,0.27846c-1.27551,0.05033 -2.32223,-0.27846 -3.54742,-0.13352c-0.06978,0.48175 -0.08388,3.03815 -0.89172,2.60605c0.26503,-1.85993 0.57099,-5.74954 0.57099,-5.74954c0,0 4.3754,-0.57904 7.015,-2.59532c2.53426,-1.92367 2.36719,-6.7352 0.5294,-9.53918z" fill="#a0aa1e"></path><path d="M252.05045,198.88998l10.30342,0.07783c-2.49198,12.18146 -4.67264,25.86456 -4.92022,28.40083c0.76558,0.27846 1.49828,0.04496 2.20548,0.1087c0.02214,0.25362 0.0416,0.45425 0.06374,0.71593c-1.0078,-0.06442 -5.31878,0.08052 -6.34067,-0.20062c0.00805,-0.85482 -1.31175,-29.10266 -1.31175,-29.10266z" fill="#828c00"></path><path d="M190.18499,191.31875c0.99707,-0.54282 3.39511,-0.09192 4.50892,-0.09192c1.65394,0.00268 3.32466,0.03355 4.99604,0.05837c1.1581,0.01946 9.5157,0.09796 13.74013,-0.85482c7.66114,-1.72641 11.66549,-5.20405 12.75716,-5.18727c1.69017,0.02482 -7.53835,26.037 -7.53835,26.037c0,0 -8.59714,-0.6287 -13.81863,-3.59439c-9.52375,-5.40466 -14.38091,-14.79355 -14.64526,-16.36697z" fill="#828c00"></path><path d="M218.32279,206.49945c0.08656,-6.30913 -0.22545,-14.9888 4.73436,-19.76946c0.91051,-0.87696 2.16388,-1.39226 3.13544,-2.11893c1.4815,-1.11381 3.23072,-1.92702 4.73436,-3.03212c0.48713,-0.3536 1.45063,-1.1695 1.45063,-1.1695l1.83846,-0.97761l-0.07515,-1.70628c0,0 1.26142,-3.44476 1.46741,-4.57803c1.35334,-7.39811 -0.07247,-15.03577 1.31175,-22.44798c0.1503,-0.81322 0.33415,-1.69286 0.52336,-2.52017l20.49881,-2.58659l21.08927,1.39226c2.45374,1.82638 -0.29791,4.32709 -2.32223,5.2906c-1.19231,0.57099 -2.2974,1.11381 -3.31393,1.9854c-0.22008,0.18921 -2.06391,1.60093 -2.67382,3.40786c-0.92728,2.7597 -0.67903,6.45137 -0.74343,8.2422c-0.11943,3.37162 0.06978,6.7768 0.19794,10.14641c0.25362,6.66877 0.52604,13.08661 -0.48175,19.71378c-0.45961,3.03212 -0.95546,5.91125 -2.81271,8.43141c-1.94917,2.64228 -4.26335,4.82227 -7.41624,5.95821c-3.28842,1.18359 -11.41723,1.62912 -19.95532,1.6318c-6.59229,0 -14.24201,-0.312 -15.08274,-0.39789c-2.00486,-0.20666 -4.10499,0.12748 -6.08771,-0.12279c-0.28986,-1.47547 -0.03892,-3.2636 -0.01678,-4.77261z" fill="#a0aa1e"></path><path d="M277.81235,162.97629c0.4093,0.11407 0.04428,4.34923 0,5.9864c-0.05033,1.84047 -0.09461,3.68899 -0.20331,5.5241c-0.11407,1.94111 -0.88568,3.99026 -2.68187,5.1819c-0.52336,0.34823 -3.21664,1.58752 -5.51135,1.77069c-3.29983,0.26772 -5.66164,-0.74612 -6.55269,-0.80181l-0.22008,-0.38111c0.06307,-0.90648 0.0738,-1.81565 0.03087,-2.72346c0.71324,-0.12816 3.56151,1.16681 6.2407,0.94674c2.63423,-0.21404 5.10474,-1.94045 5.49995,-2.61746c0.67969,-1.16078 0.87763,-2.47521 0.936,-3.80038c0.06374,-1.4815 0,-2.97105 0.02482,-4.45525c0.01678,-1.09704 -0.38178,-4.90882 0.0416,-4.90882c0.42338,0 0.13956,1.80692 0.59314,1.83779c0.45425,0.03019 0.34286,-1.89616 0.5965,-1.89616c0.25295,0 0.05569,1.98204 0.45358,1.98204c0.3952,0 0.34286,-1.75928 0.75216,-1.64522z" fill="#a0aa1e"></path><path d="M247.73209,162.69784c0.4093,0.11407 0.04428,4.34923 0,5.9864c-0.05033,1.84047 -0.09461,3.68899 -0.20331,5.5241c-0.11407,1.94111 -1.14736,4.31903 -2.94355,5.51336c-0.5153,0.34823 -2.95495,1.25605 -5.24967,1.43923c-3.29178,0.26772 -6.96199,-0.75954 -6.96199,-0.75954l1.76264,-2.68455c1.52445,0.45693 3.12135,0.62132 4.70685,0.48444c2.63423,-0.21404 5.10407,-1.94045 5.49995,-2.61746c0.67903,-1.16078 0.87696,-2.47521 0.93533,-3.80038c0.06442,-1.4815 0,-2.97105 0.02549,-4.45525c0.01611,-1.09704 -0.38178,-4.90882 0.0416,-4.90882c0.42338,0 0.13889,1.80692 0.59314,1.83779c0.45358,0.03019 0.3422,-1.89616 0.59582,-1.89616c0.25362,0 0.05569,1.98204 0.45425,1.98204c0.3952,0 0.33415,-1.75928 0.74343,-1.64522z" fill="#828c00"></path><g><path d="M271.38379,146.5033c-0.05033,1.66267 -0.21202,3.20523 -1.16413,4.63037l-0.75216,0.3536c-2.04646,-0.42271 -2.05183,-3.52729 -1.72909,-5.09535c1.25605,0.08924 2.41415,-0.06106 3.64538,0.11138z" fill="#ffffff"></path><path d="M272.5137,145.80147h2.36651c1.27551,6.38763 -4.16605,6.0119 -2.36651,0z" fill="#ffffff"></path><path d="M264.16549,144.88828h2.36719c1.27551,6.38763 -4.16605,6.01458 -2.36719,0z" fill="#dcd2b4"></path><path d="M260.71402,144.50448h2.36987c1.27283,6.38697 -4.16874,6.01122 -2.36987,0z" fill="#ffffff"></path><path d="M257.31019,143.92812h2.36987c1.2621,6.38697 -4.17679,6.01122 -2.36987,0z" fill="#ffffff"></path><path d="M275.99671,145.27275h2.36987c1.27283,6.38763 -4.16874,6.01458 -2.36987,0z" fill="#faf0e6"></path><path d="M255.01815,131.95198c1.77942,-0.08656 3.5642,-0.04764 5.34696,-0.10602c3.99899,-0.13352 16.00398,0.08388 18.00347,0.50121c1.71836,0.35494 3.35821,1.01518 4.84306,1.94917c2.82948,1.76801 4.51697,5.44089 4.69209,8.70181c0.08118,1.52243 -0.29791,3.28507 -1.70963,4.12043c-1.56538,0.9246 -3.899,0.5569 -5.62273,0.60454c-4.45525,0.09461 -8.91115,0.15298 -13.36707,0.09192l-29.7582,0.37038c0.57301,-2.64429 1.41978,-5.22149 2.52553,-7.69066c1.34395,-2.99521 3.74871,-5.38722 6.75063,-6.71641c2.36987,-1.09436 7.58867,-1.79015 8.29588,-1.82638z" fill="#828c00"></path><path d="M283.23111,143.83285c1.05007,0 2.39268,0.77698 1.70427,2.05518c-0.60388,1.1279 -2.00755,0.49316 -2.40542,-0.44552c0.09997,-0.58509 0.34085,-1.13797 0.70117,-1.60966z" fill="#645a1e"></path><path d="M279.36029,146.05241c-1.20305,0.78772 -2.16924,-0.84945 -1.5902,-1.87671l0.73807,-0.5569c1.20842,-0.01946 1.99412,1.69554 0.85213,2.43361z" fill="#645a1e"></path><path d="M289.11485,140.45115c-0.02281,-0.28852 0.11608,-0.56563 0.36165,-0.71928c0.55422,0.12211 0.30596,1.0353 0.1087,1.3728c-0.26638,-0.1134 -0.44753,-0.36568 -0.47035,-0.65352z" fill="#000000"></path><path d="M261.12868,140.33575c0.89373,0.37575 0.08924,2.13569 -0.74612,1.02189c0.03355,-0.56764 0.26436,-0.87696 0.74612,-1.02189z" fill="#000000"></path></g></g></g></svg>