<svg version="1.1" xmlns="http://www.w3.org/2000/svg" xmlns:xlink="http://www.w3.org/1999/xlink" width="110.49908" height="82.9092" viewBox="0,0,110.49908,82.9092"><g transform="translate(-184.75044,-138.5454)"><g data-paper-data="{&quot;isPaintingLayer&quot;:true}" fill-rule="nonzero" stroke="none" stroke-width="1" stroke-linecap="butt" stroke-linejoin="miter" stroke-miterlimit="10" stroke-dasharray="" stroke-dashoffset="0" style="mix-blend-mode: normal"><path d="M269.34322,192.93148c0,0 -4.1139,24.38101 -5.34148,27.44397c-0.91021,0.08084 -6.93435,0.24253 -7.83258,-0.02994c0.52097,-5.45825 3.35041,-26.44993 3.35041,-26.44993z" fill="#008264"></path><path d="M239.24347,193.05723c0,0 -2.20665,24.24927 -3.43723,27.31523c-0.91021,0.08084 -6.64692,0.44013 -7.54515,0.17067c0.51798,-5.45825 2.09587,-26.64755 2.09587,-26.64755z" fill="#008264"></path><path d="M186.18372,165.04438c3.41628,-0.69164 7.37748,-0.55091 9.47335,2.67074c2.05395,3.15279 1.92521,7.97929 1.75455,11.57222c-0.17965,3.72467 -0.54493,7.38047 -1.02398,11.07819c-0.18563,1.4222 -0.97907,9.35359 0,14.77592c0.75452,4.15881 3.06597,6.28762 4.42828,6.28762c3.13782,0 6.30559,-1.81443 7.29963,-4.23666c0.99404,-2.42223 1.19764,-4.94327 1.32639,-7.51221c0.11976,-2.47313 0.29941,-4.92231 0.39822,-7.39244c0.09881,-2.47014 0.88326,-11.24886 1.2186,-13.70702c0.07485,2.37433 5.67383,9.28173 9.22784,12.08721c-0.71559,6.16786 -0.83236,25.41697 -7.22478,28.82725c-5.30256,2.82943 -14.71304,2.71864 -19.35091,-1.14674c-4.73967,-3.94922 -5.58401,-10.21889 -5.25166,-16.38974c0.42396,-7.36251 1.28148,-14.69388 2.56894,-21.95578c0.47906,-2.77254 1.08686,-6.81758 -0.38624,-9.36856c-0.92817,-1.60783 -2.39529,-2.23061 -4.07798,-2.64979c-0.82338,-0.2036 -1.66772,-0.20959 -1.79646,-1.11081c-0.14372,-0.82338 0.64673,-1.67371 1.41621,-1.8294z" fill="#005a5a"></path><path d="M217.16074,166.06537c4.87141,-4.9792 11.12909,-8.44637 18.21315,-8.23978c8.04217,0.23354 16.2071,3.54801 17.86583,2.25456c2.58092,-2.01204 3.19771,-9.37455 4.00013,-10.09612l10.06019,7.66192c1.32339,11.13209 3.06297,25.47086 3.08093,27.08768c0.09282,4.71272 -0.71859,11.61414 -3.61987,14.91963c-2.90129,3.3055 -6.12894,3.42526 -7.90144,4.03006c-2.07791,0.7096 -22.33004,1.12279 -25.88106,0.70661c-0.08383,-0.07186 -12.88963,0.74553 -17.40474,-5.22172c-4.51511,-5.96725 -5.12591,-12.93753 -5.12291,-15.38671c0.00898,-6.53913 2.05096,-12.94052 6.70979,-17.71612z" fill="#00a08c"></path><path d="M254.16909,193.06023c0,0 -2.20665,24.24927 -3.43424,27.31224c-0.91021,0.08084 -6.64692,0.44013 -7.54515,0.17067c0.51798,-5.45825 2.09587,-26.64755 2.09587,-26.64755z" fill="#00a08c"></path><path d="M225.64125,193.06023c0,0 -2.20366,24.24927 -3.43424,27.31224c-0.91021,0.08084 -6.64692,0.44013 -7.54515,0.17067c0.51798,-5.45825 2.09587,-26.64755 2.09587,-26.64755z" fill="#00a08c"></path><g><path d="M293.44578,205.82411c-1.73358,4.0121 -4.40733,7.12298 -8.87752,7.94037c-3.51807,0.64374 -8.53321,0.93416 -9.23682,-3.48514c0.02994,-0.07485 0.33534,-1.50603 0.39822,-1.65873z" fill="#00a08c"></path><path d="M286.33238,207.52475c-0.69164,1.77251 -2.10187,3.42825 -3.84443,4.063c-1.71682,0.6096 -3.60969,0.47726 -5.22471,-0.36528c-1.79347,-0.94015 -1.04195,-2.77554 -1.09584,-3.14381z" fill="#000000"></path><path d="M278.53991,208.54574c0,0 0.12276,1.20962 -0.64972,1.75155c-0.53714,0.38264 -1.27609,0.30061 -1.71562,-0.19162c-0.31438,-0.36827 -0.61379,-1.61382 -0.61379,-1.61382z" fill="#ffffff"></path><path d="M294.96558,189.91342c0.52696,5.26064 0.47307,11.23688 -1.49705,15.91068c-1.94916,1.13177 -2.98513,1.16171 -5.30855,2.21265c-3.31148,1.50005 -6.98525,1.80844 -8.01522,1.88928c-1.49705,0.11378 -3.29651,-0.00898 -4.70973,-0.56588c-3.15578,-1.24255 -4.49715,-5.96126 -2.50008,-8.72782c1.1198,-1.54795 3.03004,-1.41621 4.55104,-2.31444c1.63478,-0.94913 3.07794,-2.8953 3.82946,-4.59296c0.52936,-1.21022 0.8629,-2.49648 0.98805,-3.81149z" fill="#00a08c"></path></g><path d="M269.89114,183.76353h-13.93757c0.68865,-0.75152 1.19764,-1.81144 1.49705,-3.26357c0.68865,-3.12585 0.27246,-6.78465 -0.01796,-9.95241c-0.32636,-3.53903 -1.01201,-6.44631 -1.08387,-10.00032c-0.07186,-3.554 -0.09881,-7.07507 0.89823,-10.5632c1.06889,-3.73664 4.05402,-7.40143 7.36251,-9.28173c6.3505,-3.63185 14.11721,-2.47613 19.7611,1.96114c5.44328,4.27558 8.84758,11.62012 9.77576,18.3868c0.51379,3.72946 0.72876,7.49425 0.64374,11.25784c-0.08084,3.29352 0.21857,21.07252 0.41917,23.54266l-12.70998,-1.12279c0.08982,-0.85032 -0.7605,-20.76113 -0.87428,-27.40206c-0.05689,-3.26657 -0.50301,-7.02716 -1.83239,-10.04523c-1.14075,-2.59589 -4.2157,-5.26364 -7.03915,-3.2516c-2.32642,1.65873 -3.36537,5.1289 -3.87437,7.78467c-0.70661,3.70371 -0.68266,7.44036 -0.27246,11.17999c0.28145,2.30546 0.74852,6.26067 1.28447,10.7698z" fill="#00a08c"></path><g><path d="M280.11661,206.40197c-0.16168,-1.17968 1.04794,-1.94617 1.46711,-0.32336c0.44013,1.71862 -1.30543,1.50603 -1.46711,0.32336z" fill="#005a5a"></path><path d="M273.52539,205.39595c-0.15868,-1.17968 1.05093,-1.94916 1.46711,-0.32336c0.44313,1.71862 -1.30543,1.50304 -1.46711,0.32336z" fill="#005a5a"></path><path d="M270.60015,203.56655l-0.46708,-0.10779c-0.33175,-0.67846 -0.29223,-1.48029 0.10479,-2.12282l0.34432,0.06887c0.53595,0.44911 0.55091,1.64975 0.01796,2.16174z" fill="#000000"></path><path d="M291.02355,203.45876l-0.47008,-0.10779c-0.33055,-0.67906 -0.29103,-1.47969 0.10479,-2.12282l0.34432,0.06887c0.53295,0.44911 0.54792,1.64975 0.02096,2.16174z" fill="#000000"></path></g></g></g></svg>