<svg version="1.1" xmlns="http://www.w3.org/2000/svg" xmlns:xlink="http://www.w3.org/1999/xlink" width="112.45558" height="84.3772" viewBox="0,0,112.45558,84.3772"><g transform="translate(-183.77219,-137.8114)"><g data-paper-data="{&quot;isPaintingLayer&quot;:true}" fill-rule="nonzero" stroke="none" stroke-width="1" stroke-linecap="butt" stroke-linejoin="miter" stroke-miterlimit="10" stroke-dasharray="" stroke-dashoffset="0" style="mix-blend-mode: normal"><path d="M269.86277,193.16045c0,0 -4.18675,24.8127 -5.43606,27.9299c-0.92633,0.08227 -7.05713,0.24682 -7.97126,-0.03047c0.5302,-5.5549 3.40973,-26.91826 3.40973,-26.91826z" fill="#008264"></path><path d="M239.23008,193.28843c0,0 -2.24572,24.67862 -3.49809,27.79888c-0.92633,0.08227 -6.76461,0.44793 -7.67875,0.17369c0.52715,-5.5549 2.13298,-27.11937 2.13298,-27.11937z" fill="#008264"></path><path d="M185.23084,164.77957c3.47677,-0.70389 7.5081,-0.56067 9.64108,2.71803c2.09032,3.20861 1.9593,8.12057 1.78561,11.77712c-0.18283,3.79062 -0.55458,7.51115 -1.04211,11.27434c-0.18892,1.44738 -0.99641,9.5192 0,15.03754c0.76788,4.23245 3.12025,6.39895 4.50669,6.39895c3.19338,0 6.41724,-1.84656 7.42888,-4.31167c1.01164,-2.46512 1.21885,-5.03079 1.34987,-7.64523c0.12188,-2.51692 0.30471,-5.00947 0.40527,-7.52334c0.10056,-2.51388 0.8989,-11.44803 1.24017,-13.94971c0.07618,2.41637 5.77429,9.44607 9.39123,12.30122c-0.72826,6.27707 -0.8471,25.867 -7.3527,29.33767c-5.39645,2.87952 -14.97355,2.76678 -19.69354,-1.16704c-4.82359,-4.01915 -5.68288,-10.39982 -5.34465,-16.67994c0.43147,-7.49287 1.30417,-14.95405 2.61443,-22.34453c0.48754,-2.82163 1.10611,-6.93829 -0.39308,-9.53444c-0.9446,-1.6363 -2.4377,-2.2701 -4.15018,-2.6967c-0.83796,-0.20721 -1.69725,-0.2133 -1.82827,-1.13048c-0.14626,-0.83796 0.65818,-1.70334 1.44129,-1.86179z" fill="#005a5a"></path><path d="M216.75635,165.81864c4.95766,-5.06736 11.32615,-8.59592 18.53563,-8.38568c8.18456,0.23767 16.49406,3.61084 18.18216,2.29448c2.62662,-2.04766 3.25433,-9.54053 4.07096,-10.27488l10.23832,7.79758c1.34683,11.32919 3.1172,25.92185 3.13548,27.5673c0.09446,4.79617 -0.73131,11.81978 -3.68397,15.1838c-2.95266,3.36402 -6.23746,3.48591 -8.04135,4.10142c-2.1147,0.72216 -22.72542,1.14267 -26.33931,0.71912c-0.08532,-0.07313 -13.11785,0.75873 -17.71291,-5.31418c-4.59506,-6.07291 -5.21667,-13.1666 -5.21362,-15.65915c0.00914,-6.65491 2.08728,-13.16965 6.8286,-18.02981z" fill="#00a08c"></path><path d="M254.41997,193.29147c0,0 -2.24572,24.67862 -3.49505,27.79583c-0.92633,0.08227 -6.76461,0.44793 -7.67875,0.17369c0.52715,-5.5549 2.13298,-27.11937 2.13298,-27.11937z" fill="#00a08c"></path><path d="M225.38701,193.29147c0,0 -2.24268,24.67862 -3.49505,27.79583c-0.92633,0.08227 -6.76461,0.44793 -7.67875,0.17369c0.52715,-5.5549 2.13298,-27.11937 2.13298,-27.11937z" fill="#00a08c"></path><g><path d="M294.39209,206.28135c-1.76428,4.08314 -4.48536,7.2491 -9.03471,8.08096c-3.58036,0.65513 -8.68429,0.9507 -9.40037,-3.54684c0.03047,-0.07618 0.34128,-1.5327 0.40527,-1.6881z" fill="#00a08c"></path><path d="M287.15274,208.01211c-0.70389,1.8039 -2.13908,3.48895 -3.9125,4.13494c-1.74722,0.62039 -3.6736,0.48571 -5.31722,-0.37175c-1.82522,-0.9568 -1.0604,-2.82468 -1.11525,-3.19948z" fill="#000000"></path><path d="M279.2223,209.05118c0,0 0.12493,1.23104 -0.66123,1.78257c-0.54665,0.38942 -1.29868,0.30593 -1.746,-0.19501c-0.31995,-0.3748 -0.62466,-1.6424 -0.62466,-1.6424z" fill="#ffffff"></path><path d="M295.93881,190.08895c0.53629,5.35379 0.48145,11.43584 -1.52356,16.1924c-1.98367,1.15181 -3.03798,1.18228 -5.40254,2.25182c-3.37012,1.52661 -7.10893,1.84046 -8.15714,1.92273c-1.52356,0.11579 -3.35488,-0.00914 -4.79312,-0.5759c-3.21166,-1.26455 -4.57677,-6.06681 -2.54434,-8.88235c1.13963,-1.57536 3.08369,-1.44129 4.63163,-2.35542c1.66373,-0.96594 3.13244,-2.94656 3.89727,-4.67428c0.53873,-1.23164 0.87818,-2.54069 1.00555,-3.87898z" fill="#00a08c"></path></g><path d="M270.4204,183.83017h-14.18435c0.70084,-0.76483 1.21885,-1.84351 1.52356,-3.32136c0.70084,-3.1812 0.27728,-6.90478 -0.01828,-10.12863c-0.33214,-3.6017 -1.02993,-6.56045 -1.10306,-10.17738c-0.07313,-3.61693 -0.10056,-7.20035 0.91414,-10.75024c1.08782,-3.8028 4.1258,-7.53248 7.49287,-9.44607c6.46294,-3.69615 14.36717,-2.51997 20.11099,1.99587c5.53966,4.35129 9.00424,11.82587 9.94885,18.71236c0.52289,3.79549 0.74167,7.62694 0.65513,11.45717c-0.08227,3.35183 0.22244,21.44563 0.42659,23.95951l-12.93502,-1.14267c0.09141,-0.86538 -0.77397,-21.12873 -0.88976,-27.88724c-0.0579,-3.3244 -0.51192,-7.15159 -1.86484,-10.22309c-1.16095,-2.64185 -4.29034,-5.35684 -7.16378,-3.30917c-2.36761,1.6881 -3.42496,5.21971 -3.94297,7.92251c-0.71912,3.76928 -0.69475,7.5721 -0.27728,11.37794c0.28643,2.34628 0.76178,6.37152 1.30721,10.96049z" fill="#00a08c"></path><g><path d="M280.82692,206.86944c-0.16454,-1.20056 1.06649,-1.98063 1.49309,-0.32909c0.44793,1.74905 -1.32855,1.5327 -1.49309,0.32909z" fill="#005a5a"></path><path d="M274.11899,205.84561c-0.16149,-1.20056 1.06954,-1.98367 1.49309,-0.32909c0.45097,1.74905 -1.32855,1.52965 -1.49309,0.32909z" fill="#005a5a"></path><path d="M271.14195,203.98382l-0.47535,-0.1097c-0.33762,-0.69048 -0.2974,-1.5065 0.10665,-2.16041l0.35042,0.07008c0.54544,0.45707 0.56067,1.67896 0.01828,2.20002z" fill="#000000"></path><path d="M291.92697,203.87412l-0.4784,-0.1097c-0.3364,-0.69108 -0.29618,-1.50589 0.10665,-2.16041l0.35042,0.07008c0.54239,0.45707 0.55762,1.67896 0.02133,2.20002z" fill="#000000"></path></g></g></g></svg>