<svg version="1.1" xmlns="http://www.w3.org/2000/svg" xmlns:xlink="http://www.w3.org/1999/xlink" width="113.63239" height="87.55998" viewBox="0,0,113.63239,87.55998"><g transform="translate(-183.18381,-136.22001)"><g data-paper-data="{&quot;isPaintingLayer&quot;:true}" fill-rule="nonzero" stroke="none" stroke-width="1" stroke-linecap="butt" stroke-linejoin="miter" stroke-miterlimit="10" stroke-dasharray="" stroke-dashoffset="0" style="mix-blend-mode: normal"><g><path d="M211.52785,221.9301c0,0 -0.77334,-10.23808 -4.73519,-13.61933c-3.96185,-3.38044 -11.4993,-3.86347 -11.4993,-3.86347c0,0 -0.72496,-9.17605 -2.70548,-15.06844c-1.25637,-3.62155 -2.75386,-8.59625 -7.58583,-8.06483c-2.51275,-9.12848 -1.88456,-19.36656 -1.25637,-28.68777c-0.09677,1.64184 3.38205,4.24974 4.44489,5.36096c0.5798,0.62738 4.59004,4.29812 4.25216,5.02227c0.2903,0.62819 35.70589,32.55124 35.89862,33.13104z" fill="#c8c8be"></path><path d="M207.27569,208.74542l16.71753,-11.88073l0.24192,5.45773l-16.95945,6.423" fill="#f0e6d2"></path><path d="M185.05043,181.31403l7.39229,-14.24752l3.43044,3.57398l-10.82273,10.67354" fill="#f0e6d2"></path><path d="M195.34174,204.4473l10.72596,-28.10796l4.92873,7.96887l-15.65469,20.13909" fill="#f0e6d2"></path><path d="M223.41342,182.8591c0,0 -0.24192,9.32121 -1.20799,13.28145c-1.54587,-0.14515 -11.98233,-9.70747 -13.67336,-11.15658c-3.2369,-2.75225 -6.28107,-5.84319 -9.27685,-8.83817c-3.38205,-3.38044 -6.37784,-7.38907 -9.22847,-11.30092c-2.41598,-3.38044 -5.84642,-8.35514 -6.23268,-12.55649c0.43465,0.33788 1.35314,3.1869 2.12568,2.60791c0.77334,-0.5798 -1.20718,-3.13932 -1.15961,-4.05701c0.43546,0.33788 2.17487,3.23609 2.80305,2.8974c0.38627,-0.48223 -1.20799,-2.84902 -1.20799,-3.42882c0.77253,0.04838 2.31921,2.70467 2.80225,3.28448c1.35234,1.69022 2.80225,3.38044 4.20297,5.07066c2.70629,3.13932 5.26661,6.27865 8.40755,8.98332c3.43044,2.94579 6.7641,6.08511 10.43646,8.7414c3.67155,2.65629 11.20899,6.47138 11.20899,6.47138z" fill="#828278"></path></g><g><path d="M294.88325,177.21428c-1.88456,0.53061 -9.1317,4.10459 -11.83718,8.4511c-4.30054,6.85845 -3.96185,15.55147 -4.59004,16.42077c-1.30476,0.53142 -10.63,-1.7386 -13.38386,4.92631c-2.75386,6.7133 0,12.8468 0,12.8468c0,0 -20.00281,-4.92631 -23.43325,-7.5826l6.86087,-24.72752l25.60731,-11.78396c0,0 19.81008,-17.4828 22.61233,-20.91243c0.2895,3.71913 -0.96688,18.93191 -1.83618,22.36154z" fill="#c8c8be"></path><path d="M265.12055,207.01246l-13.04517,-4.92631l2.41598,-3.52559l10.62919,8.4519" fill="#f0e6d2"></path><path d="M294.88325,177.1659l-13.38386,-8.35514l3.72074,-4.29812l9.66312,12.65326" fill="#f0e6d2"></path><path d="M278.50441,202.08615l-18.74724,-19.89798l7.00602,-5.36096l11.74122,25.25894" fill="#f0e6d2"></path><path d="M253.52448,193.34475c-0.53142,-1.25557 -1.20799,-10.67354 -1.01445,-11.59123c8.40675,-3.28367 16.23449,-8.20998 23.67517,-13.23306c3.43044,-2.36598 6.61895,-5.02227 9.61474,-7.92048c2.56033,-2.41437 5.16985,-5.89158 8.21401,-7.67856c0.09596,0.53142 -1.59506,1.97972 -1.25637,2.41437c0.33788,0.43465 2.46356,-1.64184 3.14013,-2.0281c0,0.62819 -2.31921,2.75306 -1.64264,3.23609c0.67657,0.48304 2.17406,-1.44911 2.56113,-1.69103c-1.35314,3.33286 -4.01024,6.4238 -6.23268,9.17686c-3.18932,3.91186 -6.42622,7.67856 -10.29211,10.91466c-6.90845,5.79561 -17.87633,16.27562 -26.76691,18.40049z" fill="#828278"></path></g><path d="M229.69448,212.76856c-0.5798,0.33869 -9.18008,5.40935 -10.53323,6.18188c-2.51194,1.49749 -4.83116,3.42882 -7.39229,4.82954c-0.91769,-0.67577 -1.15961,-2.84902 -1.59426,-3.81509l0.09677,-0.2895l0.33788,-0.04838c0.33869,0.62738 0.62819,1.20718 0.82172,1.88295c2.02891,-2.17325 12.22425,-21.53981 12.22425,-21.53981c0,0 5.36258,12.36376 6.03915,12.79841z" fill="#3c3c32"></path><path d="M263.41904,222.8623c-6.1843,-1.78699 -12.17587,-4.20136 -17.92552,-7.14714c-0.14435,-0.24192 6.90926,-12.41215 6.90926,-12.41215l12.27264,15.98531c0,0 0.62819,-2.70387 1.88456,-2.80064l0.14435,0.2895c-0.82092,1.88376 -1.69103,4.68439 -3.28528,6.08511z" fill="#3c3c32"></path><g><g fill="#64645a"><path d="M231.61292,142.90025l-0.2895,-0.24111c0.04838,-0.19354 0.04838,-0.33869 0.09677,-0.48304c0.04838,-0.43465 0.09596,-0.91769 0.09596,-1.35234c0.04838,-0.33869 0,-0.33869 0.24192,-0.5798c0.24192,0.09677 0.2903,0.14515 0.2903,0.33788c-0.04838,0.38627 -0.09677,0.72496 -0.09677,1.11122c0,0.38627 -0.09677,0.579 -0.14515,0.8693c-0.09677,0.09677 -0.14515,0.24111 -0.19354,0.33788z"></path><path d="M230.84038,143.28651l-0.33869,-0.14515c0,-0.19273 0,-0.33788 -0.04838,-0.48223c-0.04838,-0.43465 -0.09677,-0.91769 -0.19273,-1.35234c-0.09677,-0.19354 -0.04838,-0.43465 0.09596,-0.62819c0.2903,0.04838 0.33869,0.09677 0.33869,0.2895c0.04838,0.38627 0.09677,0.72496 0.14515,1.11122c0.04838,0.2895 0.04838,0.5798 0.04838,0.8693c0,0.09677 0,0.24111 -0.04838,0.33788z"></path><path d="M231.90322,142.80348c0.09677,-0.24111 0.14515,-0.48304 0.2895,-0.82092c0.14515,-0.33788 0.2903,-0.67577 0.43546,-1.01445c0.09596,-0.14435 0.14435,-0.19273 0.43465,-0.14435c0.04838,0.33788 0.04838,0.2895 -0.09677,0.62738c-0.19354,0.43465 -0.33788,0.82092 -0.53142,1.25557c-0.04838,0.14515 -0.09677,0.33869 -0.14515,0.48304l-0.38627,0.04838c0,-0.09677 0,-0.24111 0,-0.43465z"></path></g><path d="M219.13223,187.42898c0,0 -0.04838,-12.65407 0.91769,-18.78756c0.77334,-5.07066 2.27083,-9.94859 3.86509,-14.77813c1.01526,-3.13932 3.81751,-11.63881 7.92371,-11.78396c4.34893,2.65629 3.09255,15.69582 2.75467,19.80121c-0.43546,5.31258 -2.0781,18.88352 -3.18932,24.09934c-2.60871,0.67577 -12.27183,1.44911 -12.27183,1.44911z" fill="#64645a"></path><path d="M221.93447,179.41173c0,0 1.20799,-12.12265 3.57559,-21.39466c1.64264,-6.4238 3.86509,-10.52839 4.87954,-10.52839c2.51275,0 1.78779,10.52839 1.54587,13.18468c-0.2895,3.47721 -1.78779,14.53621 -2.51194,17.91745c-1.69103,0.43465 -7.48906,0.82092 -7.48906,0.82092z" fill="#3c3c32"></path></g><g><g fill="#64645a"><path d="M242.41064,138.82872l-0.33788,-0.14515c0,-0.19354 0,-0.33788 -0.04838,-0.48304c-0.04838,-0.43465 -0.09677,-0.91769 -0.14515,-1.35234c-0.04838,-0.33788 -0.04838,-0.33788 0.09677,-0.62819c0.24111,0.04838 0.33788,0.09677 0.33788,0.2903c0.04838,0.38627 0.04838,0.72415 0.09677,1.11042c0,0.2903 0.04838,0.5798 0.04838,0.8693c0.04838,0.14515 0,0.24192 -0.04838,0.33869z"></path><path d="M241.78246,139.40772l-0.38627,-0.09677c-0.04838,-0.14435 -0.09677,-0.33788 -0.14515,-0.48223c-0.14515,-0.43465 -0.2903,-0.87011 -0.43465,-1.30476c-0.09677,-0.19273 -0.14515,-0.43465 -0.04838,-0.62738c0.2895,0 0.33788,0 0.38627,0.19273c0.09677,0.33869 0.24192,0.67657 0.33869,1.06284c0.09596,0.38627 0.14435,0.5798 0.24111,0.8693c0.04838,0.14515 0.04838,0.24192 0.04838,0.38627z"></path><path d="M242.74853,138.73195c0.04838,-0.2903 0.09677,-0.53142 0.14515,-0.8693c0.04838,-0.33869 0.09677,-0.72496 0.19354,-1.06284c0.04838,-0.19273 0.09677,-0.24111 0.38627,-0.24111c0.14515,0.2895 0.14515,0.2895 0.04838,0.62738c-0.09677,0.48304 -0.19354,0.91769 -0.2895,1.35234c0,0.14515 0,0.2903 -0.04838,0.48304l-0.33869,0.14515c-0.04838,-0.14515 -0.04838,-0.2903 -0.09677,-0.43465z"></path></g><path d="M255.05745,190.02157c-2.3676,-2.8974 -13.8669,-9.36959 -14.59185,-10.09374c-1.44911,-4.87793 -5.26581,-41.38941 1.40153,-41.87244c5.65288,-0.38627 7.10279,10.28728 8.16563,13.95802c1.49749,5.36016 4.83116,31.44002 5.02469,38.00816z" fill="#64645a"></path><path d="M243.84765,182.53573c-0.72415,-9.07928 -3.76832,-36.26956 -1.30395,-39.16777c2.46356,-2.8974 5.21823,10.04535 5.894,13.61933c0.5798,3.38125 1.73941,15.50309 2.46437,25.35571z" fill="#3c3c32"></path></g><path d="M248.44092,217.11507c-5.41096,5.11985 -14.01124,4.49166 -19.90604,0.43465c-5.65288,-3.86347 -8.98655,-12.75003 -9.37362,-19.36656c-0.38627,-6.22946 -1.59426,-15.30955 2.12648,-20.71809c4.05862,-5.844 6.7641,-7.48583 14.7362,-7.67937c5.315,-0.19273 10.48484,1.78699 14.34993,5.40935c3.14013,2.99417 5.02469,7.72695 5.41096,11.97749c0.87011,9.6107 -2.41518,25.25814 -7.34391,29.94253z" fill="#64645a"></path><g><path d="M242.95577,182.76878c-2.6571,2.80064 -9.80827,2.07649 -12.0791,0.19273c-1.93214,-1.59345 -1.49749,-4.87793 0.48304,-6.423c1.98133,-1.54587 5.12146,-1.25557 7.44067,-1.35234c2.3676,0.2895 3.91428,0.19273 4.83196,2.65629c0.67657,1.78699 0.33788,3.91186 -0.67657,4.92631z" fill="#f01446"></path><path d="M241.11959,177.55217c1.25637,-0.09596 1.30476,1.59426 1.25637,2.36679c-0.04838,0.77253 -0.09677,2.07649 -1.20799,1.98052c-1.11122,-0.09677 -1.30395,-1.30476 -1.25637,-1.98052c0.04838,-0.67577 -0.09596,-2.31841 1.20799,-2.36679z" fill="#6e1e3c"></path><path d="M232.5677,177.55217c1.25637,-0.09596 1.35314,1.59426 1.25637,2.36679c-0.09677,0.77253 -0.09677,2.07649 -1.20799,1.98052c-1.11122,-0.09677 -1.30476,-1.30476 -1.25637,-1.98052c0.04838,-0.67577 -0.04838,-2.31841 1.20799,-2.36679z" fill="#6e1e3c"></path><path d="M240.97525,185.71457c0,0 2.60871,0.33788 4.05782,1.64184c1.01526,1.11122 1.4983,2.60791 1.20799,4.10539c-0.67577,1.97972 -2.17406,3.23529 -4.01024,4.05701c-3.5264,1.64184 -8.69624,2.22083 -11.98233,-0.2903c-3.91347,-3.09094 -1.59426,-6.66492 2.12648,-8.25837l0.14435,-0.04838l0.67657,-0.24111l0.77334,0.2895l0.91769,-0.77253l4.10701,-0.43465z" fill="#000000"></path><path d="M241.02283,185.71457c0,0 -0.579,2.60791 -0.91769,3.47721c-0.82092,-1.30395 -1.06284,-3.47721 -1.06284,-3.47721z" fill="#ffffff"></path><path d="M233.24427,186.68064c0.24192,-0.14515 0.53142,-0.2903 0.82172,-0.33869c0.33788,-0.09596 0.62819,-0.14435 0.96607,-0.19273c0.04838,1.20718 -0.04838,2.41437 -0.14515,3.62236c-0.14515,-0.09677 -1.64264,-3.09094 -1.64264,-3.09094z" fill="#ffffff"></path><path d="M223.09811,178.56662l0.24111,-0.43465c0.82172,0.48304 1.59506,0.96607 2.3676,1.44911c0.48304,0.2895 0.48304,0.43465 0.33869,1.06203l-3.47882,0.8693l-0.2903,-0.24111c0.04838,-0.09677 0.04838,-0.24192 0.14515,-0.2895c0.2895,-0.14515 0.5798,-0.24192 0.8693,-0.33869c0.48384,-0.14435 0.96688,-0.19273 1.44991,-0.33788c0.14515,-0.04838 0.2895,-0.09677 0.43465,-0.19273c-0.53142,-0.77334 -1.54587,-0.82172 -2.07729,-1.54587z" fill="#000000"></path><path d="M250.5416,177.11751l0.38627,0.48304c-0.67657,0.8693 -1.64264,1.35234 -2.31921,2.12487c0.04838,0.33869 0.2903,0.62819 0.62819,0.67657c0.48304,0.19273 0.91849,0.33788 1.40153,0.43465c0.2895,0.09677 0.5798,0.09677 0.67657,0.53142c-0.09677,0.04838 -0.24192,0.19273 -0.33869,0.14435c-1.15961,-0.38627 -2.41598,-0.62738 -3.43044,-1.59345c0.04838,-0.19354 0.09677,-0.43465 0.24192,-0.53142c1.01445,-0.579 1.93214,-1.35234 2.75386,-2.27002z" fill="#000000"></path></g></g></g></svg>