<svg version="1.1" xmlns="http://www.w3.org/2000/svg" xmlns:xlink="http://www.w3.org/1999/xlink" width="85.50651" height="104.1208" viewBox="0,0,85.50651,104.1208"><g transform="translate(-197.24675,-127.9396)"><g data-paper-data="{&quot;isPaintingLayer&quot;:true}" fill-rule="nonzero" stroke="none" stroke-width="1" stroke-linecap="butt" stroke-linejoin="miter" stroke-miterlimit="10" stroke-dasharray="" stroke-dashoffset="0" style="mix-blend-mode: normal"><path d="M218.90261,223.21185c-0.62684,2.7591 -1.49676,5.83126 -4.19094,7.18159c-2.75333,1.37631 -6.41843,1.28398 -9.44803,1.52562c-1.4708,0.11325 -2.91418,0.04473 -4.39941,0.07719c-1.06324,0.02092 -2.69346,0.27122 -3.61748,-0.38447c1.01853,-0.43497 2.14741,-0.47031 3.14574,-1.00698c0.88724,-0.52441 1.71966,-1.1361 2.48572,-1.82641c1.16423,-0.9839 2.40564,-2.23541 2.97045,-3.68025c1.4167,-3.6384 0.08007,-9.75604 0.57634,-13.53437c0.28492,-0.1046 11.03135,-6.14216 15.10904,-5.81971c0.53451,1.19165 -2.23037,15.73011 -2.63143,17.4678z" fill="#828c00"></path><path d="M243.74388,200.0044h10.98952c-2.56289,13.05757 -4.77595,27.7129 -5.01903,30.44531c0.81944,0.28349 1.59776,0.03606 2.35227,0.09883c0.02669,0.2705 0.04761,0.48545 0.07429,0.76534c-1.07551,-0.06275 -5.67328,0.12839 -6.76322,-0.16375c0,-0.92692 -1.63382,-31.14573 -1.63382,-31.14573z" fill="#828c00"></path><path d="M206.46106,207.94917c0.09233,-6.7524 -0.24021,-16.04101 5.04934,-21.15742c0.97163,-0.93846 2.30826,-1.48956 3.34483,-2.26787c1.57972,-1.19165 3.44509,-2.06157 5.04934,-3.24455c0.51936,-0.3787 1.54726,-1.25152 1.54726,-1.25152l1.96059,-1.04594l-0.08079,-1.82713c0,0 1.34601,-3.68602 1.5653,-4.89857c1.44411,-7.91735 -0.07719,-16.0915 1.39938,-24.024c0.16013,-0.86993 0.35634,-1.81127 0.55831,-2.69635l21.86361,-2.76847l22.49333,1.48956c2.61627,1.95482 -0.31811,4.63096 -2.47706,5.66174c-1.27171,0.61097 -2.45037,1.19237 -3.53454,2.12505c-0.23516,0.2027 -2.20079,1.71316 -2.85143,3.64706c-0.98895,2.95314 -0.72494,6.9046 -0.79346,8.82047c-0.12767,3.60883 0.07429,7.253 0.21135,10.85895c0.26978,7.13687 0.56119,14.0054 -0.51431,21.09755c-0.48978,3.24455 -1.01853,6.3261 -2.99931,9.02243c-2.07961,2.82835 -4.548,5.16114 -7.91014,6.37731c-6.21356,2.24407 -35.31575,1.53139 -37.37083,1.32004c-2.13876,-0.22073 -4.37777,0.13706 -6.49272,-0.13129c-0.30873,-1.579 -0.04183,-3.49197 -0.01804,-5.10704z" fill="#a0aa1e"></path><path d="M236.90781,199.18785c0,0 -7.62088,27.0601 -7.62088,31.64056c0.40971,0.07141 2.55712,-0.22362 2.86875,0.22073c-0.26113,0.90888 -5.55138,0.3246 -6.62328,0.1486c-0.32965,-0.98607 -1.69297,-31.19334 -1.69297,-31.19334z" fill="#a0aa1e"></path><path d="M269.94487,161.37052c0.43713,0.1219 0.04761,4.65477 0,6.40688c-0.05338,1.96924 -0.10098,3.94858 -0.2164,5.91205c-0.1219,2.07672 -0.94494,4.2703 -2.86081,5.54561c-0.55831,0.37221 -3.42994,1.69802 -5.87743,1.89495c-3.5201,0.28637 -6.039,-0.79851 -6.989,-0.85838l-0.23444,-0.40828c0.06709,-0.96947 0.07791,-1.94255 0.03246,-2.91418c0.76028,-0.13706 3.79854,1.24863 6.65574,1.01348c2.81032,-0.22939 5.44463,-2.07744 5.86661,-2.80093c0.72494,-1.24285 0.93557,-2.64945 0.99761,-4.0676c0.06852,-1.58549 0,-3.17963 0.02669,-4.76802c0.01804,-1.17433 -0.40683,-5.25347 0.04473,-5.25347c0.45156,0 0.1486,1.9339 0.63261,1.96636c0.48402,0.03318 0.36571,-2.02911 0.6355,-2.02911c0.2705,0 0.05987,2.12217 0.48473,2.12217c0.42126,0 0.365,-1.8834 0.8014,-1.76149z" fill="#a0aa1e"></path><path d="M237.85492,161.07261c0.43713,0.1219 0.04761,4.65477 0,6.40688c-0.05338,1.96924 -0.10098,3.94785 -0.2164,5.91205c-0.1219,2.07672 -1.22411,4.62158 -3.13997,5.89978c-0.54894,0.37293 -3.15079,1.34385 -5.59827,1.54077c-3.51073,0.28637 -7.4254,-0.81367 -7.4254,-0.81367l1.8798,-2.87235c1.62588,0.48907 3.32896,0.66507 5.01976,0.51864c2.8096,-0.22939 5.44463,-2.07744 5.86588,-2.80093c0.72494,-1.24285 0.93557,-2.64945 0.99832,-4.0676c0.0678,-1.58549 0,-3.17963 0.02669,-4.76802c0.01804,-1.17433 -0.40683,-5.25347 0.04473,-5.25347c0.45084,0 0.14788,1.9339 0.63261,1.96636c0.48402,0.03318 0.365,-2.02911 0.6355,-2.02911c0.2705,0 0.05915,2.12144 0.48402,2.12144c0.42198,0 0.35634,-1.88268 0.79274,-1.76078z" fill="#828c00"></path><g><path d="M263.06551,143.74185c-0.0541,1.77881 -0.22577,3.42994 -1.24213,4.95556l-0.8014,0.37798c-2.18347,-0.45299 -2.18924,-3.77546 -1.84445,-5.45256c1.33951,0.09521 2.57516,-0.06564 3.88798,0.11902z" fill="#ffffff"></path><path d="M264.30404,142.99094h2.52466c1.35972,6.83535 -4.44342,6.43357 -2.52466,0z" fill="#ffffff"></path><path d="M255.38692,142.01354h2.52466c1.36044,6.83535 -4.44342,6.43645 -2.52466,0z" fill="#dcd2b4"></path><path d="M251.69514,141.60238h2.52755c1.35755,6.83535 -4.4463,6.43357 -2.52755,0z" fill="#ffffff"></path><path d="M248.06899,140.98564h2.52755c1.34528,6.83535 -4.45567,6.43285 -2.52755,0z" fill="#ffffff"></path><path d="M267.99294,142.4247h2.52755c1.35755,6.83535 -4.4463,6.43645 -2.52755,0z" fill="#faf0e6"></path><path d="M245.63017,128.16899c1.89783,-0.09233 3.80215,-0.0505 5.70286,-0.11325c4.26525,-0.14283 8.51822,0.03534 12.78635,-0.11614c2.1063,0.39889 4.28327,0.20558 6.41554,0.65208c1.83291,0.38015 3.58214,1.08633 5.16547,2.08609c3.01806,1.89205 4.81778,5.8226 5.00461,9.31242c0.08656,1.62949 -0.31738,3.51578 -1.82353,4.41023c-1.66916,0.98895 -4.15848,0.59582 -5.99716,0.64632c-4.75215,0.10171 -9.50429,0.16375 -14.25643,0.09883l-31.73938,0.39601c0.61097,-2.82979 1.51408,-5.58817 2.69346,-8.23042c1.43401,-3.20489 3.99835,-5.76561 7.19963,-7.18736c2.52828,-1.17144 8.09408,-1.91586 8.84859,-1.95482z" fill="#828c00"></path><path d="M275.73285,140.88393c1.12023,0 2.55135,0.83169 1.81776,2.19934c-0.64415,1.20679 -2.14164,0.5273 -2.56579,-0.4768c0.10675,-0.62684 0.36355,-1.21761 0.74803,-1.72255z" fill="#645a1e"></path><path d="M271.57797,143.25928c-1.28325,0.84324 -2.31403,-0.90888 -1.69586,-2.00892l0.78698,-0.59582c1.28903,-0.02092 2.12649,1.81488 0.90888,2.60474z" fill="#645a1e"></path><path d="M282.007,137.26428c-0.02452,-0.30873 0.12407,-0.6052 0.38519,-0.76967c0.59077,0.13129 0.32677,1.10869 0.11614,1.46935c-0.2842,-0.12119 -0.47753,-0.39097 -0.50132,-0.6997z" fill="#000000"></path><path d="M252.14958,137.14093c0.95361,0.40251 0.09521,2.2859 -0.79563,1.09427c0.03534,-0.60809 0.28204,-0.93917 0.79563,-1.09427z" fill="#000000"></path></g></g></g></svg>