<svg version="1.1" xmlns="http://www.w3.org/2000/svg" xmlns:xlink="http://www.w3.org/1999/xlink" width="148.50001" height="200.36435" viewBox="0,0,148.50001,200.36435"><g transform="translate(-165.75,-136.25)"><g data-paper-data="{&quot;isPaintingLayer&quot;:true}" fill-rule="nonzero" stroke-linecap="butt" stroke-linejoin="miter" stroke-miterlimit="10" stroke-dasharray="" stroke-dashoffset="0" style="mix-blend-mode: normal"><g><path d="M185.83333,289.24903c0,-15.19986 0,-47.18304 0,-66.67338c0,-8.6936 108.33333,-9.81265 108.33333,-1.64141c0,20.11995 0,53.67039 0,69.40907c0,8.81405 -5.68177,20.8622 -15.67644,29.60699c-9.97772,8.72996 -24.25928,14.16406 -34.93383,14.16406c-3.66716,0 -9.21031,0 -12.03704,0c-7.31376,0 -22.17984,-6.87019 -30.92178,-15.05583c-10.75177,-10.06755 -14.76425,-22.40543 -14.76425,-29.80949z" fill="#3fafff" stroke="#0c9aff" stroke-width="5"></path><text transform="translate(206.73246,251.42584) scale(0.64198,0.64198)" font-size="40" xml:space="preserve" fill="#fcfeff" fill-rule="nonzero" stroke="#0096ff" stroke-width="2" stroke-linecap="butt" stroke-linejoin="miter" stroke-miterlimit="10" stroke-dasharray="" stroke-dashoffset="0" font-family="Sans Serif" font-weight="normal" text-anchor="start" style="mix-blend-mode: normal"><tspan x="0" dy="0">Rules</tspan></text><text transform="translate(193.83361,271.8381) scale(0.4091,0.4091)" font-size="40" xml:space="preserve" fill="#fcfeff" fill-rule="nonzero" stroke="none" stroke-width="1" stroke-linecap="butt" stroke-linejoin="miter" stroke-miterlimit="10" stroke-dasharray="" stroke-dashoffset="0" font-family="Sans Serif" font-weight="normal" text-anchor="start" style="mix-blend-mode: normal"><tspan x="0" dy="0">- Timer</tspan></text><text transform="translate(193.46884,293.35887) scale(0.4091,0.4091)" font-size="40" xml:space="preserve" fill="#fcfeff" fill-rule="nonzero" stroke="none" stroke-width="1" stroke-linecap="butt" stroke-linejoin="miter" stroke-miterlimit="10" stroke-dasharray="" stroke-dashoffset="0" font-family="Sans Serif" font-weight="normal" text-anchor="start" style="mix-blend-mode: normal"><tspan x="0" dy="0">- Costumes</tspan></text></g><path d="M169.5,156.06059c0,-7.13242 8.67932,-16.06059 16.91534,-16.06059c15.32884,0 68.18577,0 99.75472,0c14.37061,0 24.32995,14.08621 24.32995,23.03217c0,13.28408 0,28.81154 0,36.36994c0,8.17039 -8.28079,19.30127 -20.60738,20.49329c-0.71247,0.0689 -3.4718,0.10459 -4.21049,0.10459c-2.88533,0 -3.63106,22.0124 -6.85513,30.00831c-1.32232,3.27945 -5.3357,3.25835 -6.70344,3.25835c-1.59389,0 -5.21633,-0.20057 -6.86201,-5.30829c-2.06473,-6.40831 -2.91118,-24.17157 -5.7053,-27.51502c-0.6598,-0.78951 -42.05162,-0.44335 -51.12672,-0.44335c-3.41027,0 -1.0202,10.56685 -3.18814,17.37361c-1.3423,4.21445 -6.64293,4.95972 -8.1452,4.95972c-0.98965,0 -6.42893,-1.10206 -7.83567,-6.53463c-1.60161,-6.18515 0.17234,-15.79871 -0.63321,-15.79871c-1.0358,0 -2.08266,-0.09258 -3.12476,-0.2709c-8.14679,-1.39404 -16.00255,-8.02788 -16.00255,-16.63003c0,0 -0.00001,-38.22287 -0.00001,-47.03845z" fill="#33aaff" stroke="#0096ff" stroke-width="7.5"></path><text transform="translate(173.86498,191.00723) scale(0.91727,0.91727)" font-size="40" xml:space="preserve" fill="#fcfeff" fill-rule="nonzero" stroke="#0096ff" stroke-width="1.5" stroke-linecap="butt" stroke-linejoin="miter" stroke-miterlimit="10" stroke-dasharray="" stroke-dashoffset="0" font-family="Sans Serif" font-weight="normal" text-anchor="start" style="mix-blend-mode: normal"><tspan x="0" dy="0">Normal</tspan></text></g></g></svg>