<svg version="1.1" xmlns="http://www.w3.org/2000/svg" xmlns:xlink="http://www.w3.org/1999/xlink" width="279.25642" height="208.43713" viewBox="0,0,279.25642,208.43713"><g transform="translate(-100.37179,-97.9203)"><g data-paper-data="{&quot;isPaintingLayer&quot;:true}" fill-rule="nonzero" stroke-linejoin="miter" stroke-miterlimit="10" stroke-dasharray="" stroke-dashoffset="0" style="mix-blend-mode: normal"><text transform="translate(179.25002,287.09521) scale(1.48171,1.48171)" font-size="40" xml:space="preserve" fill="#33aaff" fill-rule="nonzero" stroke="#0096ff" stroke-width="2" stroke-linecap="butt" stroke-linejoin="miter" stroke-miterlimit="10" stroke-dasharray="" stroke-dashoffset="0" font-family="Sans Serif" font-weight="normal" text-anchor="start" style="mix-blend-mode: normal"><tspan x="0" dy="0">Find</tspan></text><g stroke="none" stroke-width="0" stroke-linecap="butt"><path d="M214.46303,246.06036c0,-2.36763 1.91934,-7.24103 4.28698,-7.24103c2.36763,0 4.28698,4.87339 4.28698,7.24103c0,2.36763 -1.91934,4.28698 -4.28698,4.28698c-2.36763,0 -4.28698,-1.91934 -4.28698,-4.28698z" fill="#0096ff"/><path d="M216.19223,246.06036c0,-1.41262 1.14515,-2.55777 2.55777,-2.55777c1.41262,0 2.55778,1.14515 2.55778,2.55777c0,1.41262 -1.14516,2.55777 -2.55778,2.55777c-1.41262,0 -2.55777,-1.14515 -2.55777,-2.55777z" fill="#33aaff"/></g><g fill="none" stroke-linecap="round"><g><path d="M112.87179,219.53271c0,0 0,-68.05376 0,-76.21167c0,-1.56042 1.07084,-2.83061 2.78388,-2.86119c5.3364,-0.09525 26.15488,0.42307 30.99757,2.18696c2.12662,0.7746 8.60677,5.24082 9.79125,11.52595c1.326,7.03607 -0.90846,14.53511 -3.81565,16.86228c-2.66594,2.13406 -7.36776,5.2603 -12.9553,6.54458c-9.44105,2.17 -20.48328,1.86372 -21.75435,2.88121c-1.07453,0.86015 -1.07609,2.51548 0.02071,3.5769c4.66204,4.51165 43.21776,35.53332 43.21776,35.53332" stroke="#0096ff" stroke-width="25"/><path d="M112.87179,219.53271c0,0 0,-68.05376 0,-76.21167c0,-1.56042 1.07084,-2.83061 2.78388,-2.86119c5.3364,-0.09525 26.15488,0.42307 30.99757,2.18696c2.12662,0.7746 8.60677,5.24082 9.79125,11.52595c1.326,7.03607 -0.90846,14.53511 -3.81565,16.86228c-2.66594,2.13406 -7.36776,5.2603 -12.9553,6.54458c-9.44105,2.17 -20.48328,1.86372 -21.75435,2.88121c-1.07453,0.86015 -1.07609,2.51548 0.02071,3.5769c4.66204,4.51165 43.21776,35.53332 43.21776,35.53332" stroke="#33aaff" stroke-width="15"/></g><g><g stroke="#0096ff" stroke-width="25"><path d="M184.09805,220.02368c0,0 20.69508,-67.80361 23.86059,-78.17484c0.78644,-2.57663 2.18316,-2.47604 2.98936,0.18978c3.17237,10.48998 23.48338,77.65172 23.48338,77.65172"/><path d="M223.31655,184.62476h-28"/></g><g stroke="#33aaff" stroke-width="15"><path d="M184.09805,220.02368c0,0 20.69508,-67.80361 23.86059,-78.17484c0.78644,-2.57663 2.18316,-2.47604 2.98936,0.18978c3.17237,10.48998 23.48338,77.65172 23.48338,77.65172"/><path d="M223.31655,184.62476h-28"/></g></g><g><path d="M324.12821,220.5c0,0 0,-68.9059 0,-79c0,-2.34439 0.8936,-2.5877 1.97174,-0.48156c4.36016,8.51753 33.23728,64.92865 39.73255,77.61707c0.83106,1.62347 1.29571,1.05972 1.29571,-0.80217c0,-9.62078 0,-78.33333 0,-78.33333" stroke="#0096ff" stroke-width="25"/><path d="M324.1282,220.5c0,0 0,-68.9059 0,-79c0,-2.34439 0.8936,-2.5877 1.97174,-0.48156c4.36016,8.51753 33.23728,64.92865 39.73255,77.61707c0.83106,1.62347 1.29571,1.05972 1.29571,-0.80217c0,-9.62078 0,-78.33333 0,-78.33333" stroke="#33aaff" stroke-width="15"/></g><g><g stroke="#0096ff" stroke-width="25"><path d="M257.14782,219.93629h42.57413"/><path d="M276.77615,218.99207v-77.42629"/><path d="M256.87136,140.93629h43.67995"/></g><g stroke="#33aaff" stroke-width="15"><path d="M257.14782,219.93629h42.57413"/><path d="M276.77615,218.99207v-77.42629"/><path d="M256.87136,140.93629h43.67995"/></g></g></g><text transform="translate(152.13008,119.6703) scale(0.5,0.5)" font-size="40" xml:space="preserve" fill="#33aaff" fill-rule="nonzero" stroke="none" stroke-width="1" stroke-linecap="butt" stroke-linejoin="miter" stroke-miterlimit="10" stroke-dasharray="" stroke-dashoffset="0" font-family="Sans Serif" font-weight="normal" text-anchor="start" style="mix-blend-mode: normal"><tspan x="0" dy="0">By RopedInGames</tspan></text><text transform="translate(119.85635,268.45678) scale(0.5,0.5)" font-size="40" xml:space="preserve" fill="#33aaff" fill-rule="nonzero" stroke="none" stroke-width="1" stroke-linecap="butt" stroke-linejoin="miter" stroke-miterlimit="10" stroke-dasharray="" stroke-dashoffset="0" font-family="Sans Serif" font-weight="normal" text-anchor="start" style="mix-blend-mode: normal"><tspan x="0" dy="0"> </tspan></text></g></g></svg>