<svg version="1.1" xmlns="http://www.w3.org/2000/svg" xmlns:xlink="http://www.w3.org/1999/xlink" width="44.17761" height="96.37398" viewBox="0,0,44.17761,96.37398"><g transform="translate(-217.91119,-131.81301)"><g data-paper-data="{&quot;isPaintingLayer&quot;:true}" fill-rule="nonzero" stroke="none" stroke-width="1" stroke-linecap="butt" stroke-linejoin="miter" stroke-miterlimit="10" stroke-dasharray="" stroke-dashoffset="0" style="mix-blend-mode: normal"><path d="M238.88139,227.80197l-3.90385,0.14408c0.04803,-0.04803 -0.09606,-0.38502 -0.09606,-0.38502l1.39761,-0.14488c0,0 -6.55498,-22.69629 -6.60381,-22.8884l10.07381,1.20469c0,0.43305 -0.8677,22.0215 -0.8677,22.06953z" fill="#3c3c32"></path><path d="M241.77346,227.99488c0,0 -1.15667,-17.29958 -1.25272,-18.11845c0,-0.04803 0.33699,0.43385 0.33699,0.43385c0.09686,-0.48188 -0.38502,-6.79432 -0.38502,-7.2762l12.86902,0.38502c-0.28897,0.96376 -5.59122,14.7453 -8.00141,21.39474c-0.77084,2.12042 -1.01178,2.50625 -1.01178,2.79521c0.38582,0.09606 0.77084,0.19291 1.15667,0.19291c-0.09606,0.09606 -0.09606,0.24094 -0.14488,0.38502c-0.28897,0 -3.56686,-0.19211 -3.56686,-0.19211z" fill="#3c3c32"></path><g><g fill="#64645a"><path d="M233.08765,137.05764l-0.28897,-0.19291c0,-0.19211 0.04803,-0.33699 0.04803,-0.48188c0.04803,-0.43305 0.04803,-0.91493 0.04803,-1.34878c0,-0.33779 0,-0.33779 0.19291,-0.57873c0.24094,0.09686 0.28977,0.14488 0.28977,0.33779c0,0.38502 -0.04883,0.72282 -0.09686,1.10784c-0.04803,0.28977 -0.04803,0.57873 -0.09606,0.8677c0,0.04803 -0.04803,0.14488 -0.09686,0.28897z"></path><path d="M232.31681,137.49149l-0.33779,-0.14488c0,-0.19211 -0.04803,-0.33699 -0.04803,-0.48188c-0.09606,-0.43305 -0.14408,-0.91493 -0.24094,-1.34878c-0.09606,-0.19291 -0.04803,-0.43385 0.09686,-0.62676c0.28897,0.04803 0.33699,0.04803 0.38502,0.24094c0.04803,0.38582 0.09686,0.72282 0.19291,1.06061c0.09686,0.33699 0.04803,0.57793 0.09686,0.8669c-0.09686,0.19291 -0.09686,0.28897 -0.14488,0.43385z"></path><path d="M233.37742,137.05764c0.09606,-0.28897 0.14408,-0.52991 0.28897,-0.8669c0.14488,-0.33779 0.24094,-0.67479 0.38582,-1.01258c0.09606,-0.19211 0.19211,-0.19211 0.43385,-0.19211c0.09606,0.19211 0.09606,0.43305 -0.04883,0.62596c-0.14408,0.38582 -0.33699,0.81967 -0.48188,1.25272c-0.04803,0.14488 -0.09606,0.33779 -0.14408,0.48188l-0.38582,0.04883c-0.04803,-0.14488 -0.04803,-0.24094 -0.04803,-0.33779z"></path></g><path d="M222.4303,181.91951c0,0 -0.53071,-12.62488 0.19291,-18.79244c0.57793,-5.05972 1.87948,-10.02338 3.27709,-14.89019c0.91573,-3.13221 3.32592,-11.70915 7.42268,-12.09497c4.43456,2.45822 3.71174,15.51615 3.51883,19.61211c-0.24094,5.34868 -1.30155,18.93812 -2.21728,24.18995c-2.6023,0.81967 -12.19423,1.97554 -12.19423,1.97554z" fill="#64645a"></path><path d="M224.88852,173.82444c0,0 0.72282,-12.143 2.69916,-21.49159c1.39761,-6.45652 3.42197,-10.64934 4.43456,-10.69737c2.50625,-0.09606 2.21648,10.4084 2.0724,13.10676c-0.14488,3.47 -1.2055,14.55239 -1.78343,17.97356c-1.63854,0.53071 -7.42268,1.10864 -7.42268,1.10864z" fill="#3c3c32"></path></g><g><g fill="#64645a"><path d="M247.10453,134.46334l-0.33779,-0.19211c0,-0.19291 0,-0.33779 0,-0.48188c-0.04803,-0.43385 -0.04803,-0.91573 -0.09606,-1.34958c-0.04883,-0.24094 0,-0.43385 0.14408,-0.62676c0.28977,0.04883 0.33779,0.09686 0.33779,0.28977c0.04803,0.38502 0.04803,0.72282 0.04803,1.10784c0,0.28897 0.04803,0.57873 0,0.8677c0,0.14408 -0.04803,0.28897 -0.09606,0.38502z"></path><path d="M246.42974,134.99405l-0.38582,-0.09686c-0.04803,-0.14408 -0.04803,-0.33699 -0.09686,-0.48188c-0.14408,-0.43385 -0.28897,-0.8669 -0.43385,-1.30075c-0.09606,-0.19291 -0.09606,-0.43385 0,-0.62676c0.28977,0 0.33779,0 0.38582,0.19291c0.09686,0.33699 0.24094,0.67479 0.33779,1.05981c0.09606,0.38582 0.14408,0.57873 0.19291,0.8677c0.04803,0.14488 0.04803,0.28897 0,0.38582z"></path><path d="M247.44153,134.36728c0.04803,-0.28897 0.04803,-0.52991 0.14488,-0.8677c0.09606,-0.33699 0.14408,-0.72282 0.24094,-1.05981c0.04803,-0.19291 0.09606,-0.24094 0.38502,-0.24094c0.14488,0.19291 0.14488,0.43385 0.04883,0.62676c-0.09686,0.48188 -0.19291,0.91493 -0.28977,1.34878c-0.04803,0.14488 -0.04803,0.28897 -0.09606,0.48188l-0.38582,0.09686c0,-0.09686 -0.04803,-0.24094 -0.04803,-0.38582z"></path></g><path d="M258.58796,185.78253c-2.31413,-2.9393 -13.64067,-9.63756 -14.36348,-10.36037c-1.34958,-4.91483 -4.38653,-41.39187 2.31333,-41.72966c5.63925,-0.28897 6.89277,10.4084 7.85653,14.11854c1.39761,5.30066 4.14559,31.41812 4.19362,37.9715z" fill="#64645a"></path><path d="M247.50156,178.02446c-0.48188,-9.05882 -2.9401,-36.28492 -0.43385,-39.07934c2.50705,-2.79521 5.01329,10.11944 5.59122,13.73352c0.53071,3.37234 1.39841,15.51615 1.92831,25.34582z" fill="#3c3c32"></path></g><g><path d="M251.35178,209.1344c-5.39831,5.10855 -13.97766,4.48178 -19.85865,0.43385c-5.63925,-3.85502 -8.96517,-12.72094 -9.35019,-19.32314c-0.38582,-6.16756 -1.59052,-15.22638 2.12042,-20.62389c4.04873,-5.87859 6.74789,-7.46911 14.70128,-7.66122c5.30146,-0.19291 10.45883,1.78263 14.31546,5.39671c3.08418,2.98732 4.96446,7.71005 5.34948,11.95009c0.8677,9.5415 -2.40939,25.20173 -7.2778,29.8276z" fill="#64645a"></path><path d="M238.67487,192.07656l1.34958,-0.09606l1.54249,6.0715c0,0 -0.14408,2.40939 -2.12042,2.65033c-1.97634,0.24094 -2.9401,-3.37315 -2.9401,-3.37315z" fill="#828278"></path></g><g><path d="M257.83312,174.77459c4.28967,7.66122 4.14559,20.23807 2.41019,28.52685c-1.7354,8.28798 -7.37465,15.85314 -14.89339,21.49079c-1.78343,-3.51723 -5.30226,-32.86295 -5.30226,-32.86295c0,0 14.50837,-6.21638 17.78546,-17.15469z" fill="#c8c8be"></path><path d="M239.99964,191.97731c0,0 16.43588,-0.43385 18.36419,-0.33779c1.92751,0.09686 3.47,-0.14408 3.71094,1.7354c0.24094,1.87868 -2.69916,1.63774 -2.69916,1.63774c0,0 -13.39973,-0.14408 -19.37597,-3.03535z" fill="#f0e6d2"></path><path d="M257.978,213.80589c-1.44643,2.02357 -2.55427,0.72282 -2.55427,0.72282c-7.66442,-5.01169 -15.37607,-22.5514 -15.37607,-22.5514c4.6755,6.45732 17.15869,18.40742 17.15869,18.40742c0,0 2.21728,1.39761 0.77164,3.42117z" fill="#f0e6d2"></path></g><g><path d="M235.45942,224.50647c-4.3377,-0.91573 -7.75967,-6.55338 -9.78404,-9.73361c-2.26611,-3.4692 -3.90465,-7.32422 -4.86841,-11.32413c-0.96376,-4.19202 -1.88028,-8.72183 -1.97634,-13.0107c-0.24094,-9.10685 3.56686,-16.76887 3.56686,-16.76887c0,0 1.59052,6.89117 5.06132,10.84225c4.28967,4.86681 11.2785,7.56516 11.2785,7.56516c-1.10864,6.4093 -1.63854,12.91465 -1.59052,19.4192c0,2.12042 -0.09686,4.24085 -0.38582,6.36127c-0.33699,2.07159 -0.24094,4.76995 -1.30155,6.64943z" fill="#c8c8be"></path><path d="M221.48176,195.16074c-2.26531,-0.14488 -3.4708,-0.19291 -3.56686,-1.7346c-0.09606,-1.54249 1.68657,-2.31333 4.04873,-2.36136c2.36216,-0.04803 16.72565,1.01178 16.72565,1.01178c-5.83216,2.89127 -14.94222,3.22906 -17.20752,3.08418z" fill="#f0e6d2"></path><path d="M223.4581,209.4722c1.20469,-1.30075 10.65174,-10.11944 15.27921,-17.39563c0,0 -3.75977,8.19192 -7.8085,14.55239c-1.7354,2.69836 -5.01249,5.97545 -5.63925,6.65023c-2.0724,2.26451 -2.69916,2.45742 -3.71174,1.01178c-1.01178,-1.44563 0.67479,-3.56606 1.88028,-4.81878z" fill="#f0e6d2"></path></g><g><g><path d="M245.90544,178.7849c-2.65113,2.79521 -9.78404,2.0724 -12.05015,0.19291c-1.92751,-1.59052 -1.49366,-4.86681 0.48268,-6.4085c1.97554,-1.54249 5.10855,-1.25352 7.42268,-1.34958c2.36136,0.28897 3.90385,0.19291 4.81958,2.65033c0.67479,1.78263 0.28977,3.90305 -0.67479,4.91483z" fill="#f01446"></path><path d="M244.02596,173.5811c1.25272,-0.09686 1.34958,1.58972 1.25272,2.36136c-0.09606,0.77084 -0.09606,2.07159 -1.20469,1.97554c-1.10864,-0.09686 -1.30155,-1.30155 -1.25352,-1.97554c0.04883,-0.67479 -0.04803,-2.31333 1.2055,-2.36136z" fill="#6e1e3c"></path><path d="M235.54267,173.5811c1.25352,-0.09686 1.34958,1.58972 1.25352,2.36136c-0.09686,0.77084 -0.09686,2.07159 -1.2055,1.97554c-1.10864,-0.09686 -1.30155,-1.30155 -1.25272,-1.97554c0.04803,-0.67479 -0.04883,-2.31333 1.20469,-2.36136z" fill="#6e1e3c"></path></g><path d="M253.30891,174.30392l0.62676,0.09606c-0.04803,1.01178 -0.62676,1.87948 -1.54249,2.36136c-0.19291,0.09606 -0.38582,0.14408 -0.57873,0.14408c-0.33699,0 -0.67479,0 -1.01178,-0.09606c-1.06061,-0.14488 -1.78343,-1.10784 -1.68737,-2.16845c0,-0.04803 0,-0.09606 0,-0.14408c0,-0.04883 0.04883,-0.09686 0.14488,-0.19291c0.09686,0.04803 0.19291,0.09606 0.24094,0.19291c0.09686,0.19211 0.19291,0.43305 0.28897,0.62596c0.33779,0.72282 1.06061,1.15667 1.83226,1.01178c0.77084,-0.04803 1.34958,-0.62596 1.54169,-1.34878c0.04883,-0.09686 0.04883,-0.19291 0.14488,-0.48188z" fill="#000000"></path><path d="M230.46214,174.59288l0.38582,0.14488c0.04803,0.09606 0.04803,0.19211 0.04803,0.28897c-0.14488,0.8669 -0.81967,1.58972 -1.68657,1.78263c-0.91573,0.28897 -1.88028,-0.19291 -2.21728,-1.10784v-0.04883c-0.04803,-0.14408 -0.09686,-0.33699 -0.14488,-0.52991c-0.04803,-0.28897 -0.09606,-0.62596 -0.14488,-1.01178c0.19291,0.04803 0.43385,0.04803 0.48268,0.09606c0.14408,0.19291 0.24094,0.38582 0.33699,0.57873c0.09686,0.28897 0.14488,0.62596 0.24094,0.96376l0.72282,0.43305c0.91573,-0.09606 1.68737,-0.72202 1.97634,-1.58972z" fill="#000000"></path><g><path d="M244.25489,184.80837c-1.49446,3.90305 -5.10935,4.43376 -8.19433,1.83146c-0.57793,-1.20469 0,-1.97554 0.77164,-2.65033c0.72282,-0.28897 1.92751,-0.72282 2.9401,-0.72282c1.06061,0 2.41019,0.43385 3.18103,0.72282c0.43385,0.24094 0.81967,0.48188 1.30155,0.81887z" fill="#000000"></path><path d="M239.53137,183.26668c-0.04803,0.77084 -0.19291,2.26451 -0.48188,2.31333c-0.28977,0.04803 -1.44643,-1.30155 -1.78343,-1.78343c0.67479,-0.24094 1.54249,-0.48188 2.26531,-0.52991z" fill="#ffffff"></path><path d="M242.47146,183.84462c-0.24094,0.48188 -0.91573,1.7354 -1.63854,1.59052c-0.24094,-0.14488 -0.53071,-1.78263 -0.62676,-2.16845c0.77084,0.09606 1.59052,0.33699 2.26531,0.57793z" fill="#ffffff"></path></g></g></g></g></svg>